M48
;Layer_Color=9474304
;FILE_FORMAT=2:5
INCH,LZ
;TYPE=PLATED
T1F00S00C0.01000
T2F00S00C0.01200
T3F00S00C0.01500
T4F00S00C0.03150
T5F00S00C0.03465
T6F00S00C0.03937
T7F00S00C0.05118
T8F00S00C0.05512
T9F00S00C0.07480
T10F00S00C0.12500
%
T01
X07885Y0121
X0791
X07935
X0352Y02035
Y02055
Y02835
X0357
X0362141Y0283765
X0367Y02835
X0372
X0377
X0382
X0346Y02815
X0745Y02055
Y0203
X08015Y0264
X0804
X08075
X0944Y0295
X0997394Y0298211
X1018958Y0297458
X1068312Y0297822
X10895Y02985
X0929Y02975
X0872Y0294
X0858Y0301
X08495Y02955
X0826Y03125
X0816
X0811
X0801Y0325
X0786Y03165
X0859Y03665
Y0371
X086375
Y03665
X08685
Y0371
X07725Y0308
Y03015
X07775Y03025
X07675Y0311
X07575Y0305
X0446Y02985
X0442Y03015
X04385Y0311
X0434Y03075
X0429Y03045
X04135Y0319
X0397904Y0324
X03925Y0324
X0388Y0329
X0376Y03345
X038113Y0314
X0373Y0311
X0367Y03075
X0349Y0314
X0344Y0311
X03385Y03075
X03495Y0324
Y0334
X03365Y03395
X03325Y03465
X03285Y03515
X0332776Y0356453
X0346Y035
Y0377
X0335Y0381
X03915Y02925
X0395Y0295
X0398Y02915
X03035Y0319
X0266626Y03185
Y0324
X0267126Y0329
T02
X03375Y02825
X045012Y023288
X0485241Y0232259
X051982Y023218
X0556241Y0232241
X05895Y02325
X0626741Y0232241
X06605Y0232
X069637Y023213
X085398Y023202
X088974Y0232259
X0925Y02325
X0960907Y0232593
X0996Y02325
X1032074Y0232074
X106724Y02325
X110324
X03395Y02865
X0338Y02905
X02885Y03445
X02905Y0351
X0293Y03545
T03
X1004Y0122
X1075Y01215
X0933336
X0862636Y0121136
X0670136Y0121136
X0599358Y0121858
X0528581Y0121419
X0457803Y0121303
X0275Y01225
X02045Y0123
X01335
X0063Y01225
X00535Y02325
X00885Y0233
X01235
X01595
X0193Y023324
X0229Y02325
X026598
X0301Y0233
X0367Y0265
X07895Y03395
Y03455
Y03525
X0797Y03395
X08045
X0812
X08135Y03255
X08065
X0823Y03475
Y0354
X084Y03475
Y03415
Y0335
X0847Y034
Y0345
X0766Y0331
X07555Y03315
X07595Y0336
X0743Y0321
X074Y03185
X0737Y03155
X0708Y0316
X0695Y0321
X0688
X06815
X06755
X0656
X06515
X0647
X0638Y0316
X073Y03775
X07335
X07365
X0626Y03205
X0621
X0615
X061
X0594Y0321
X05895
X0584
X05785
X0567Y0316
X05615Y0321
X0552
X05425
X0533
X05195Y03205
X051325
X0507
X0498Y0316
X04885Y03175
X0482375
X047625
X0470125
X0464
X031225Y030025
X0289Y03055
X02775Y03
X023975Y030025
X021Y0309
X02045Y03095
X02095Y0316
X02165Y03165
X01835Y0318
X0177Y03185
X01715
X01655
X01675Y0311
X0173
X01785Y03105
X0162Y0311
X017025Y030025
X01305Y03235
X01225Y03205
X0114Y0323
X01145Y03165
X0106Y0316
Y03235
X0099
X0098Y03165
X00895Y0317
X009925Y030025
X0107Y03555
X01175
X01325
X01455Y0355
X01445Y037
X013
X01175Y03705
X0107
X00555Y033
X00355Y0326
X00385Y0342
X0035Y0304
T04
X0871Y04045
X0880842
X052437Y03635
X0516496
X0508622
X0500748
X0492874
X0485
X0477126
Y0355626
X0485
X0492874
X0500748
X0508622
X0516496
X052437
X0469252
Y03635
T05
X09481Y0087
X0989272Y007322
X10188Y0087
X1059972Y007322
X10895Y0087
X0918572Y007322
X08774Y0087
X0847872Y007322
X06849Y0087402
X0655372Y0073623
X0614122Y0087402
X0584595Y0073623
X0543344Y0087402
X0513817Y0073623
X0472567Y0087402
X0443039Y0073623
X02899Y0086902
X0260372Y0073123
X0219067Y0086902
X0189539Y0073123
X0148233Y0086902
X0118706Y0073123
X00774Y0086902
X0047872Y0073123
Y01558
X0062636
X00774
X0118706
X013347
X0148233
X0189539
X0204303
X0219067
X0260372
X0275136
X02899
X0443039Y01563
X0457803
X0472567
X0513817
X0528581
X0543344
X0584595
X0599358
X0614122
X0655372
X0670136
X06849
X0847872Y0155898
X0862636
X08774
X0918572
X0933336
X09481
X0989272
X1004036
X10188
X1059972
X1074736
X10895
T06
X1132815Y00715
X11525
X07445Y00725
X0724815
X0352
X0332315
X00976Y01591
X01015Y02
X0031
X00271Y01591
X01681
X0172Y02
X02425
X02386Y01591
X0311842Y0188248
X0372472
X04258Y02005
X04219Y01596
X0492467
X0496367Y02005
X05668Y02004
X05629Y01595
X06336Y01596
X06375Y02005
X0704343Y0188248
X0764972
X08308Y02
X08269Y01591
X0897567
X0901467Y02
X0972133
X0968233Y01591
X10389
X10428Y02
X1112342Y0187248
X1172972
X111Y03705
Y0405933
X0909213Y0441366
Y0335067
T07
X0912Y004687
X05025Y004737
X01075
X117613Y0318
T08
X1129Y004587
X1159
X1002Y004687
X0972
X0942
X07495Y004487
X07195
X05925Y004737
X05625
X05325
X0355Y004637
X0325
X01975Y004737
X01675
X01375
X1176Y02495
Y02795
X117613Y0348
Y0378
Y0408
T09
X0042Y0184
X008137
X0113
X015237
X0184
X022337
X025513Y01835
X02945
X0438167Y01845
X0477537
X051Y0184
X054937
X0580333Y01835
X0619703
X06495
X068887
X0843Y0183
X088237
X0913833
X0953203
X0985167
X1024537
X10565
X109587
T10
X1198Y00235
X04075Y00395
X0031Y0017
X06755Y0354
X0032Y03765
X12025Y045
M30
