G04*
G04 #@! TF.GenerationSoftware,Altium Limited,Altium Designer,21.2.2 (38)*
G04*
G04 Layer_Color=32768*
%FSLAX25Y25*%
%MOIN*%
G70*
G04*
G04 #@! TF.SameCoordinates,81ACE11A-F192-4872-AF07-8F7EDE3227A8*
G04*
G04*
G04 #@! TF.FilePolarity,Positive*
G04*
G01*
G75*
%ADD15C,0.00100*%
%ADD18C,0.00591*%
%ADD115C,0.00394*%
%ADD116C,0.00197*%
D15*
X717000Y366000D02*
G03*
X717000Y366000I-500J0D01*
G01*
X715713D02*
X717287D01*
X716500Y365213D02*
Y366787D01*
D18*
X271028Y308000D02*
X325028D01*
X271028D02*
Y370000D01*
X325028D01*
Y308000D02*
Y370000D01*
X337500Y336000D02*
X399500D01*
X337500D02*
Y390000D01*
X399500D01*
Y336000D02*
Y390000D01*
D115*
X853331Y353776D02*
Y383303D01*
X874331Y353776D02*
Y383303D01*
X853331Y353776D02*
X874331D01*
X853331Y383303D02*
X874331D01*
X751000Y377083D02*
X783000D01*
X751000Y349917D02*
X783000D01*
X751000D02*
Y377083D01*
X783000Y349917D02*
Y377083D01*
X851500Y251800D02*
Y291200D01*
X869500D01*
X851500Y251800D02*
X869500D01*
Y291200D01*
X139000Y251800D02*
Y291200D01*
X121000Y251800D02*
X139000D01*
X121000Y291200D02*
X139000D01*
X121000Y251800D02*
Y291200D01*
X68500Y251800D02*
Y291200D01*
X50500Y251800D02*
X68500D01*
X50500Y291200D02*
X68500D01*
X50500Y251800D02*
Y291200D01*
X142500Y251800D02*
Y291200D01*
X160500D01*
X142500Y251800D02*
X160500D01*
Y291200D01*
X678500Y252300D02*
Y291700D01*
X696500D01*
X678500Y252300D02*
X696500D01*
Y291700D01*
X469000Y252300D02*
Y291700D01*
X487000D01*
X469000Y252300D02*
X487000D01*
Y291700D01*
X535167Y252300D02*
Y291700D01*
X517167Y252300D02*
X535167D01*
X517167Y291700D02*
X535167D01*
X517167Y252300D02*
Y291700D01*
X281000Y251800D02*
Y291200D01*
X263000Y251800D02*
X281000D01*
X263000Y291200D02*
X281000D01*
X263000Y251800D02*
Y291200D01*
X208500Y251800D02*
Y291200D01*
X190500Y251800D02*
X208500D01*
X190500Y291200D02*
X208500D01*
X190500Y251800D02*
Y291200D01*
X1103500Y251800D02*
Y291200D01*
X1085500Y251800D02*
X1103500D01*
X1085500Y291200D02*
X1103500D01*
X1085500Y251800D02*
Y291200D01*
X962167Y251800D02*
Y291200D01*
X944167Y251800D02*
X962167D01*
X944167Y291200D02*
X962167D01*
X944167Y251800D02*
Y291200D01*
X891500Y251800D02*
Y291200D01*
X873500Y251800D02*
X891500D01*
X873500Y291200D02*
X891500D01*
X873500Y251800D02*
Y291200D01*
X465000Y252300D02*
Y291700D01*
X447000Y252300D02*
X465000D01*
X447000Y291700D02*
X465000D01*
X447000Y252300D02*
Y291700D01*
X284500Y251800D02*
Y291200D01*
X302500D01*
X284500Y251800D02*
X302500D01*
Y291200D01*
X675500Y252300D02*
Y291700D01*
X657500Y252300D02*
X675500D01*
X657500Y291700D02*
X675500D01*
X657500Y252300D02*
Y291700D01*
X212000Y251800D02*
Y291200D01*
X230000D01*
X212000Y251800D02*
X230000D01*
Y291200D01*
X538833Y252300D02*
Y291700D01*
X556833D01*
X538833Y252300D02*
X556833D01*
Y291700D01*
X1064500Y251800D02*
Y291200D01*
X1082500D01*
X1064500Y251800D02*
X1082500D01*
Y291200D01*
X605333Y252300D02*
Y291700D01*
X587333Y252300D02*
X605333D01*
X587333Y291700D02*
X605333D01*
X587333Y252300D02*
Y291700D01*
X993500Y251800D02*
Y291200D01*
X1011500D01*
X993500Y251800D02*
X1011500D01*
Y291200D01*
X72000Y251800D02*
Y291200D01*
X90000D01*
X72000Y251800D02*
X90000D01*
Y291200D01*
X608667Y252300D02*
Y291700D01*
X626667D01*
X608667Y252300D02*
X626667D01*
Y291700D01*
X922500Y251800D02*
Y291200D01*
X940500D01*
X922500Y251800D02*
X940500D01*
Y291200D01*
X1032833Y251800D02*
Y291200D01*
X1014833Y251800D02*
X1032833D01*
X1014833Y291200D02*
X1032833D01*
X1014833Y251800D02*
Y291200D01*
X739000Y285000D02*
X781000D01*
X739000Y247000D02*
X781000D01*
Y285000D01*
X739000Y247000D02*
Y285000D01*
X382000Y283500D02*
X424000D01*
X382000Y245500D02*
X424000D01*
Y283500D01*
X382000Y245500D02*
Y283500D01*
X782500Y246819D02*
Y284819D01*
X824500Y246819D02*
Y284819D01*
X782500Y246819D02*
X824500D01*
X782500Y284819D02*
X824500D01*
X786000Y290000D02*
Y326000D01*
X744000Y290000D02*
Y326000D01*
X786000D01*
X744000Y290000D02*
X786000D01*
X348500Y297327D02*
X390500D01*
X348500Y261327D02*
X390500D01*
X348500D02*
Y297327D01*
X390500Y261327D02*
Y297327D01*
X338500Y245500D02*
Y283500D01*
X380500Y245500D02*
Y283500D01*
X338500Y245500D02*
X380500D01*
X338500Y283500D02*
X380500D01*
X787500Y290000D02*
X829500D01*
X787500Y326000D02*
X829500D01*
X787500Y290000D02*
Y326000D01*
X829500Y290000D02*
Y326000D01*
D116*
X498189Y359563D02*
G03*
X498189Y359563I-1378J0D01*
G01*
X717852Y349500D02*
G03*
X717852Y349500I-1378J0D01*
G01*
X807378Y362000D02*
G03*
X807378Y362000I-1378J0D01*
G01*
X734378Y357000D02*
G03*
X734378Y357000I-1378J0D01*
G01*
X877299Y404500D02*
G03*
X877299Y404500I-1378J0D01*
G01*
X865209Y368539D02*
G03*
X865209Y368539I-1378J0D01*
G01*
X868637Y389000D02*
G03*
X868637Y389000I-1378J0D01*
G01*
X849878Y374740D02*
G03*
X849878Y374740I-1378J0D01*
G01*
X862878Y344500D02*
G03*
X862878Y344500I-1378J0D01*
G01*
D02*
G03*
X862878Y344500I-1378J0D01*
G01*
X862378Y322500D02*
G03*
X862378Y322500I-1378J0D01*
G01*
X845378Y323240D02*
G03*
X845378Y323240I-1378J0D01*
G01*
D02*
G03*
X845378Y323240I-1378J0D01*
G01*
X853878Y322500D02*
G03*
X853878Y322500I-1378J0D01*
G01*
X883118Y389000D02*
G03*
X883118Y389000I-1378J0D01*
G01*
D02*
G03*
X883118Y389000I-1378J0D01*
G01*
X888378Y367500D02*
G03*
X888378Y367500I-1378J0D01*
G01*
X840378Y374741D02*
G03*
X840378Y374741I-1378J0D01*
G01*
X1145378Y31500D02*
G03*
X1145378Y31500I-1378J0D01*
G01*
X958378Y32500D02*
G03*
X958378Y32500I-1378J0D01*
G01*
X768378Y363500D02*
G03*
X768378Y363500I-1378J0D01*
G01*
X861878Y271500D02*
G03*
X861878Y271500I-1378J0D01*
G01*
X131378D02*
G03*
X131378Y271500I-1378J0D01*
G01*
X60878D02*
G03*
X60878Y271500I-1378J0D01*
G01*
X152878D02*
G03*
X152878Y271500I-1378J0D01*
G01*
X688878Y272000D02*
G03*
X688878Y272000I-1378J0D01*
G01*
X479378D02*
G03*
X479378Y272000I-1378J0D01*
G01*
X527545D02*
G03*
X527545Y272000I-1378J0D01*
G01*
X273378Y271500D02*
G03*
X273378Y271500I-1378J0D01*
G01*
X200878D02*
G03*
X200878Y271500I-1378J0D01*
G01*
X1095878D02*
G03*
X1095878Y271500I-1378J0D01*
G01*
X954545D02*
G03*
X954545Y271500I-1378J0D01*
G01*
X883878D02*
G03*
X883878Y271500I-1378J0D01*
G01*
X457378Y272000D02*
G03*
X457378Y272000I-1378J0D01*
G01*
X294878Y271500D02*
G03*
X294878Y271500I-1378J0D01*
G01*
X667878Y272000D02*
G03*
X667878Y272000I-1378J0D01*
G01*
X222378Y271500D02*
G03*
X222378Y271500I-1378J0D01*
G01*
X549211Y272000D02*
G03*
X549211Y272000I-1378J0D01*
G01*
X1074878Y271500D02*
G03*
X1074878Y271500I-1378J0D01*
G01*
X597711Y272000D02*
G03*
X597711Y272000I-1378J0D01*
G01*
X1003878Y271500D02*
G03*
X1003878Y271500I-1378J0D01*
G01*
X82378D02*
G03*
X82378Y271500I-1378J0D01*
G01*
X619045Y272000D02*
G03*
X619045Y272000I-1378J0D01*
G01*
X932878Y271500D02*
G03*
X932878Y271500I-1378J0D01*
G01*
X1025211D02*
G03*
X1025211Y271500I-1378J0D01*
G01*
X761378Y266000D02*
G03*
X761378Y266000I-1378J0D01*
G01*
X404378Y264500D02*
G03*
X404378Y264500I-1378J0D01*
G01*
X804878Y265819D02*
G03*
X804878Y265819I-1378J0D01*
G01*
X613378Y202240D02*
G03*
X613378Y202240I-1378J0D01*
G01*
X968878Y288500D02*
G03*
X968878Y288500I-1378J0D01*
G01*
X250878Y257000D02*
G03*
X250878Y257000I-1378J0D01*
G01*
X898378Y287500D02*
G03*
X898378Y287500I-1378J0D01*
G01*
X993378Y201740D02*
G03*
X993378Y201740I-1378J0D01*
G01*
X344378Y220000D02*
G03*
X344378Y220000I-1378J0D01*
G01*
X494378Y288000D02*
G03*
X494378Y288000I-1378J0D01*
G01*
X838878Y257000D02*
G03*
X838878Y257000I-1378J0D01*
G01*
X75878Y201740D02*
G03*
X75878Y201740I-1378J0D01*
G01*
X876878D02*
G03*
X876878Y201740I-1378J0D01*
G01*
X326378Y219500D02*
G03*
X326378Y219500I-1378J0D01*
G01*
X644378Y257500D02*
G03*
X644378Y257500I-1378J0D01*
G01*
X330878Y208000D02*
G03*
X330878Y208000I-1378J0D01*
G01*
X922378Y201740D02*
G03*
X922378Y201740I-1378J0D01*
G01*
X472378Y202240D02*
G03*
X472378Y202240I-1378J0D01*
G01*
X348878Y208000D02*
G03*
X348878Y208000I-1378J0D01*
G01*
X513378Y257500D02*
G03*
X513378Y257500I-1378J0D01*
G01*
X1051878Y257000D02*
G03*
X1051878Y257000I-1378J0D01*
G01*
X722878Y208260D02*
G03*
X722878Y208260I-1378J0D01*
G01*
X186878Y257000D02*
G03*
X186878Y257000I-1378J0D01*
G01*
X104878Y288000D02*
G03*
X104878Y288000I-1378J0D01*
G01*
X313378Y208000D02*
G03*
X313378Y208000I-1378J0D01*
G01*
X493378Y257500D02*
G03*
X493378Y257500I-1378J0D01*
G01*
X564378Y288500D02*
G03*
X564378Y288500I-1378J0D01*
G01*
X38378Y257000D02*
G03*
X38378Y257000I-1378J0D01*
G01*
X175878Y288241D02*
G03*
X175878Y288241I-1378J0D01*
G01*
X1145378Y218500D02*
G03*
X1145378Y218500I-1378J0D01*
G01*
X851378Y201740D02*
G03*
X851378Y201740I-1378J0D01*
G01*
X446878Y202240D02*
G03*
X446878Y202240I-1378J0D01*
G01*
X1039378Y288500D02*
G03*
X1039378Y288500I-1378J0D01*
G01*
X731878Y208260D02*
G03*
X731878Y208260I-1378J0D01*
G01*
X652878Y257500D02*
G03*
X652878Y257500I-1378J0D01*
G01*
X740878Y208260D02*
G03*
X740878Y208260I-1378J0D01*
G01*
X178378Y257000D02*
G03*
X178378Y257000I-1378J0D01*
G01*
X504878Y257500D02*
G03*
X504878Y257500I-1378J0D01*
G01*
X288378Y201740D02*
G03*
X288378Y201740I-1378J0D01*
G01*
X1140378Y206740D02*
G03*
X1140378Y206740I-1378J0D01*
G01*
X1064878Y201740D02*
G03*
X1064878Y201740I-1378J0D01*
G01*
X543378Y202240D02*
G03*
X543378Y202240I-1378J0D01*
G01*
X718378Y220000D02*
G03*
X718378Y220000I-1378J0D01*
G01*
X190878Y201740D02*
G03*
X190878Y201740I-1378J0D01*
G01*
X117378Y257000D02*
G03*
X117378Y257000I-1378J0D01*
G01*
X1149378Y206740D02*
G03*
X1149378Y206740I-1378J0D01*
G01*
X309378Y288000D02*
G03*
X309378Y288000I-1378J0D01*
G01*
X120878Y201740D02*
G03*
X120878Y201740I-1378J0D01*
G01*
X1090378D02*
G03*
X1090378Y201740I-1378J0D01*
G01*
X1060878Y288000D02*
G03*
X1060878Y288000I-1378J0D01*
G01*
X245378D02*
G03*
X245378Y288000I-1378J0D01*
G01*
X847378Y257000D02*
G03*
X847378Y257000I-1378J0D01*
G01*
X108878D02*
G03*
X108878Y257000I-1378J0D01*
G01*
X216378Y201740D02*
G03*
X216378Y201740I-1378J0D01*
G01*
X1131378Y206760D02*
G03*
X1131378Y206760I-1378J0D01*
G01*
X988878Y257000D02*
G03*
X988878Y257000I-1378J0D01*
G01*
X906878Y287500D02*
G03*
X906878Y287500I-1378J0D01*
G01*
X339878Y208000D02*
G03*
X339878Y208000I-1378J0D01*
G01*
X167378Y288000D02*
G03*
X167378Y288000I-1378J0D01*
G01*
X657378Y202240D02*
G03*
X657378Y202240I-1378J0D01*
G01*
X262878Y201740D02*
G03*
X262878Y201740I-1378J0D01*
G01*
X517878Y202240D02*
G03*
X517878Y202240I-1378J0D01*
G01*
X96378Y288000D02*
G03*
X96378Y288000I-1378J0D01*
G01*
X587878Y202240D02*
G03*
X587878Y202240I-1378J0D01*
G01*
X50378Y201740D02*
G03*
X50378Y201740I-1378J0D01*
G01*
X705378Y208260D02*
G03*
X705378Y208260I-1378J0D01*
G01*
X1052378Y288000D02*
G03*
X1052378Y288000I-1378J0D01*
G01*
X643378Y288500D02*
G03*
X643378Y288500I-1378J0D01*
G01*
X634878D02*
G03*
X634878Y288500I-1378J0D01*
G01*
X583878Y257000D02*
G03*
X583878Y257000I-1378J0D01*
G01*
X1127138Y218000D02*
G03*
X1127138Y218000I-1378J0D01*
G01*
X980378Y257000D02*
G03*
X980378Y257000I-1378J0D01*
G01*
X736378Y220000D02*
G03*
X736378Y220000I-1378J0D01*
G01*
X977378Y288500D02*
G03*
X977378Y288500I-1378J0D01*
G01*
X713878Y289000D02*
G03*
X713878Y289000I-1378J0D01*
G01*
X682878Y202240D02*
G03*
X682878Y202240I-1378J0D01*
G01*
X146378Y201740D02*
G03*
X146378Y201740I-1378J0D01*
G01*
X989378Y288500D02*
G03*
X989378Y288500I-1378J0D01*
G01*
X572878D02*
G03*
X572878Y288500I-1378J0D01*
G01*
X575378Y257000D02*
G03*
X575378Y257000I-1378J0D01*
G01*
X947878Y201740D02*
G03*
X947878Y201740I-1378J0D01*
G01*
X259378Y257000D02*
G03*
X259378Y257000I-1378J0D01*
G01*
X1060378D02*
G03*
X1060378Y257000I-1378J0D01*
G01*
X1122378Y206760D02*
G03*
X1122378Y206760I-1378J0D01*
G01*
X236878Y288000D02*
G03*
X236878Y288000I-1378J0D01*
G01*
X46878Y257000D02*
G03*
X46878Y257000I-1378J0D01*
G01*
X502878Y288000D02*
G03*
X502878Y288000I-1378J0D01*
G01*
X443878Y258000D02*
G03*
X443878Y258000I-1378J0D01*
G01*
X317878Y288241D02*
G03*
X317878Y288241I-1378J0D01*
G01*
X705378Y289000D02*
G03*
X705378Y289000I-1378J0D01*
G01*
X918378Y257000D02*
G03*
X918378Y257000I-1378J0D01*
G01*
X1018878Y201740D02*
G03*
X1018878Y201740I-1378J0D01*
G01*
X909878Y257000D02*
G03*
X909878Y257000I-1378J0D01*
G01*
X299406Y339000D02*
G03*
X299406Y339000I-1378J0D01*
G01*
X766378Y308000D02*
G03*
X766378Y308000I-1378J0D01*
G01*
X794878Y368000D02*
G03*
X794878Y368000I-1378J0D01*
G01*
D02*
G03*
X794878Y368000I-1378J0D01*
G01*
X746378Y362260D02*
G03*
X746378Y362260I-1378J0D01*
G01*
D02*
G03*
X746378Y362260I-1378J0D01*
G01*
X455378Y202240D02*
G03*
X455378Y202240I-1378J0D01*
G01*
D02*
G03*
X455378Y202240I-1378J0D01*
G01*
X1001878Y201740D02*
G03*
X1001878Y201740I-1378J0D01*
G01*
D02*
G03*
X1001878Y201740I-1378J0D01*
G01*
X1010378D02*
G03*
X1010378Y201740I-1378J0D01*
G01*
D02*
G03*
X1010378Y201740I-1378J0D01*
G01*
X298618Y238000D02*
G03*
X298618Y238000I-1378J0D01*
G01*
D02*
G03*
X298618Y238000I-1378J0D01*
G01*
X657618Y241000D02*
G03*
X657618Y241000I-1378J0D01*
G01*
D02*
G03*
X657618Y241000I-1378J0D01*
G01*
X624378Y238500D02*
G03*
X624378Y238500I-1378J0D01*
G01*
D02*
G03*
X624378Y238500I-1378J0D01*
G01*
X263618Y240500D02*
G03*
X263618Y240500I-1378J0D01*
G01*
D02*
G03*
X263618Y240500I-1378J0D01*
G01*
X321878Y208000D02*
G03*
X321878Y208000I-1378J0D01*
G01*
D02*
G03*
X321878Y208000I-1378J0D01*
G01*
X713878Y208260D02*
G03*
X713878Y208260I-1378J0D01*
G01*
D02*
G03*
X713878Y208260I-1378J0D01*
G01*
X887378Y239000D02*
G03*
X887378Y239000I-1378J0D01*
G01*
D02*
G03*
X887378Y239000I-1378J0D01*
G01*
X50878Y240500D02*
G03*
X50878Y240500I-1378J0D01*
G01*
D02*
G03*
X50878Y240500I-1378J0D01*
G01*
X1113878Y207000D02*
G03*
X1113878Y207000I-1378J0D01*
G01*
D02*
G03*
X1113878Y207000I-1378J0D01*
G01*
X1100878Y239000D02*
G03*
X1100878Y239000I-1378J0D01*
G01*
D02*
G03*
X1100878Y239000I-1378J0D01*
G01*
X58878Y201740D02*
G03*
X58878Y201740I-1378J0D01*
G01*
D02*
G03*
X58878Y201740I-1378J0D01*
G01*
X1064878Y240500D02*
G03*
X1064878Y240500I-1378J0D01*
G01*
D02*
G03*
X1064878Y240500I-1378J0D01*
G01*
X526378Y202240D02*
G03*
X526378Y202240I-1378J0D01*
G01*
D02*
G03*
X526378Y202240I-1378J0D01*
G01*
X553878Y238500D02*
G03*
X553878Y238500I-1378J0D01*
G01*
D02*
G03*
X553878Y238500I-1378J0D01*
G01*
X534878Y202240D02*
G03*
X534878Y202240I-1378J0D01*
G01*
D02*
G03*
X534878Y202240I-1378J0D01*
G01*
X693878Y238500D02*
G03*
X693878Y238500I-1378J0D01*
G01*
D02*
G03*
X693878Y238500I-1378J0D01*
G01*
X665878Y202240D02*
G03*
X665878Y202240I-1378J0D01*
G01*
D02*
G03*
X665878Y202240I-1378J0D01*
G01*
X199378Y201740D02*
G03*
X199378Y201740I-1378J0D01*
G01*
D02*
G03*
X199378Y201740I-1378J0D01*
G01*
X993791Y240500D02*
G03*
X993791Y240500I-1378J0D01*
G01*
D02*
G03*
X993791Y240500I-1378J0D01*
G01*
X1081878Y201740D02*
G03*
X1081878Y201740I-1378J0D01*
G01*
D02*
G03*
X1081878Y201740I-1378J0D01*
G01*
X587538Y241000D02*
G03*
X587538Y241000I-1378J0D01*
G01*
D02*
G03*
X587538Y241000I-1378J0D01*
G01*
X85878Y238001D02*
G03*
X85878Y238001I-1378J0D01*
G01*
D02*
G03*
X85878Y238001I-1378J0D01*
G01*
X447378Y241000D02*
G03*
X447378Y241000I-1378J0D01*
G01*
D02*
G03*
X447378Y241000I-1378J0D01*
G01*
X851618Y240500D02*
G03*
X851618Y240500I-1378J0D01*
G01*
D02*
G03*
X851618Y240500I-1378J0D01*
G01*
X207878Y201740D02*
G03*
X207878Y201740I-1378J0D01*
G01*
D02*
G03*
X207878Y201740I-1378J0D01*
G01*
X121378Y240500D02*
G03*
X121378Y240500I-1378J0D01*
G01*
D02*
G03*
X121378Y240500I-1378J0D01*
G01*
X137878Y201740D02*
G03*
X137878Y201740I-1378J0D01*
G01*
D02*
G03*
X137878Y201740I-1378J0D01*
G01*
X517458Y241000D02*
G03*
X517458Y241000I-1378J0D01*
G01*
D02*
G03*
X517458Y241000I-1378J0D01*
G01*
X156878Y238000D02*
G03*
X156878Y238000I-1378J0D01*
G01*
D02*
G03*
X156878Y238000I-1378J0D01*
G01*
X1029711Y239000D02*
G03*
X1029711Y239000I-1378J0D01*
G01*
D02*
G03*
X1029711Y239000I-1378J0D01*
G01*
X67378Y201740D02*
G03*
X67378Y201740I-1378J0D01*
G01*
D02*
G03*
X67378Y201740I-1378J0D01*
G01*
X129378D02*
G03*
X129378Y201740I-1378J0D01*
G01*
D02*
G03*
X129378Y201740I-1378J0D01*
G01*
X463878Y202240D02*
G03*
X463878Y202240I-1378J0D01*
G01*
D02*
G03*
X463878Y202240I-1378J0D01*
G01*
X1073378Y201740D02*
G03*
X1073378Y201740I-1378J0D01*
G01*
D02*
G03*
X1073378Y201740I-1378J0D01*
G01*
X190878Y240500D02*
G03*
X190878Y240500I-1378J0D01*
G01*
D02*
G03*
X190878Y240500I-1378J0D01*
G01*
X859878Y201740D02*
G03*
X859878Y201740I-1378J0D01*
G01*
D02*
G03*
X859878Y201740I-1378J0D01*
G01*
X939378D02*
G03*
X939378Y201740I-1378J0D01*
G01*
D02*
G03*
X939378Y201740I-1378J0D01*
G01*
X674378Y202240D02*
G03*
X674378Y202240I-1378J0D01*
G01*
D02*
G03*
X674378Y202240I-1378J0D01*
G01*
X958545Y239000D02*
G03*
X958545Y239000I-1378J0D01*
G01*
D02*
G03*
X958545Y239000I-1378J0D01*
G01*
X868378Y201740D02*
G03*
X868378Y201740I-1378J0D01*
G01*
D02*
G03*
X868378Y201740I-1378J0D01*
G01*
X226378Y238000D02*
G03*
X226378Y238000I-1378J0D01*
G01*
D02*
G03*
X226378Y238000I-1378J0D01*
G01*
X922705Y240500D02*
G03*
X922705Y240500I-1378J0D01*
G01*
D02*
G03*
X922705Y240500I-1378J0D01*
G01*
X279878Y201740D02*
G03*
X279878Y201740I-1378J0D01*
G01*
D02*
G03*
X279878Y201740I-1378J0D01*
G01*
X930878D02*
G03*
X930878Y201740I-1378J0D01*
G01*
D02*
G03*
X930878Y201740I-1378J0D01*
G01*
X482878Y238500D02*
G03*
X482878Y238500I-1378J0D01*
G01*
D02*
G03*
X482878Y238500I-1378J0D01*
G01*
X604878Y202240D02*
G03*
X604878Y202240I-1378J0D01*
G01*
D02*
G03*
X604878Y202240I-1378J0D01*
G01*
X596378D02*
G03*
X596378Y202240I-1378J0D01*
G01*
D02*
G03*
X596378Y202240I-1378J0D01*
G01*
X271378Y201740D02*
G03*
X271378Y201740I-1378J0D01*
G01*
D02*
G03*
X271378Y201740I-1378J0D01*
G01*
X369878Y363000D02*
G03*
X369878Y363000I-1378J0D01*
G01*
X370878Y279327D02*
G03*
X370878Y279327I-1378J0D01*
G01*
X360878Y264500D02*
G03*
X360878Y264500I-1378J0D01*
G01*
X809878Y308000D02*
G03*
X809878Y308000I-1378J0D01*
G01*
X153878Y33000D02*
G03*
X153878Y33000I-1378J0D01*
G01*
X341378Y32000D02*
G03*
X341378Y32000I-1378J0D01*
G01*
X1191748Y264500D02*
G03*
X1191748Y264500I-1378J0D01*
G01*
X1191878Y363000D02*
G03*
X1191878Y363000I-1378J0D01*
G01*
X735878Y30500D02*
G03*
X735878Y30500I-1378J0D01*
G01*
X548878Y33000D02*
G03*
X548878Y33000I-1378J0D01*
G01*
X494842Y359563D02*
X498779D01*
X496811Y357594D02*
Y361531D01*
X714506Y349500D02*
X718443D01*
X716474Y347532D02*
Y351469D01*
X806000Y360032D02*
Y363968D01*
X804031Y362000D02*
X807969D01*
X733000Y355031D02*
Y358968D01*
X731032Y357000D02*
X734969D01*
X875921Y402531D02*
Y406468D01*
X873953Y404500D02*
X877890D01*
X861862Y368539D02*
X865799D01*
X863831Y366571D02*
Y370508D01*
X867260Y387031D02*
Y390968D01*
X865291Y389000D02*
X869228D01*
X846532Y374740D02*
X850469D01*
X848500Y372771D02*
Y376708D01*
X859531Y344500D02*
X863468D01*
X861500Y342531D02*
Y346468D01*
Y342531D02*
Y346468D01*
X859531Y344500D02*
X863468D01*
X861000Y320532D02*
Y324468D01*
X859031Y322500D02*
X862969D01*
X842032Y323240D02*
X845969D01*
X844000Y321271D02*
Y325208D01*
Y321271D02*
Y325208D01*
X842032Y323240D02*
X845969D01*
X852500Y320532D02*
Y324468D01*
X850531Y322500D02*
X854469D01*
X881740Y387031D02*
Y390968D01*
X879771Y389000D02*
X883708D01*
X879771D02*
X883708D01*
X881740Y387031D02*
Y390968D01*
X887000Y365531D02*
Y369468D01*
X885032Y367500D02*
X888968D01*
X837031Y374741D02*
X840968D01*
X839000Y372772D02*
Y376709D01*
X1142031Y31500D02*
X1145969D01*
X1144000Y29531D02*
Y33468D01*
X957000Y30531D02*
Y34468D01*
X955031Y32500D02*
X958969D01*
X765031Y363500D02*
X768968D01*
X767000Y361531D02*
Y365469D01*
X860500Y269531D02*
Y273468D01*
X858531Y271500D02*
X862469D01*
X128032D02*
X131968D01*
X130000Y269531D02*
Y273468D01*
X57531Y271500D02*
X61468D01*
X59500Y269531D02*
Y273468D01*
X149531Y271500D02*
X153469D01*
X151500Y269531D02*
Y273468D01*
X685532Y272000D02*
X689468D01*
X687500Y270031D02*
Y273969D01*
X476031Y272000D02*
X479969D01*
X478000Y270031D02*
Y273969D01*
X524198Y272000D02*
X528135D01*
X526167Y270031D02*
Y273969D01*
X270031Y271500D02*
X273969D01*
X272000Y269531D02*
Y273468D01*
X197531Y271500D02*
X201468D01*
X199500Y269531D02*
Y273468D01*
X1094500Y269531D02*
Y273468D01*
X1092531Y271500D02*
X1096469D01*
X953167Y269531D02*
Y273468D01*
X951198Y271500D02*
X955135D01*
X882500Y269531D02*
Y273468D01*
X880532Y271500D02*
X884468D01*
X454032Y272000D02*
X457969D01*
X456000Y270031D02*
Y273969D01*
X291531Y271500D02*
X295468D01*
X293500Y269531D02*
Y273468D01*
X664532Y272000D02*
X668469D01*
X666500Y270031D02*
Y273969D01*
X219032Y271500D02*
X222969D01*
X221000Y269531D02*
Y273468D01*
X545865Y272000D02*
X549802D01*
X547833Y270031D02*
Y273969D01*
X1073500Y269531D02*
Y273468D01*
X1071531Y271500D02*
X1075469D01*
X594365Y272000D02*
X598302D01*
X596333Y270031D02*
Y273969D01*
X1002500Y269531D02*
Y273468D01*
X1000531Y271500D02*
X1004469D01*
X79031D02*
X82968D01*
X81000Y269531D02*
Y273468D01*
X615698Y272000D02*
X619635D01*
X617667Y270031D02*
Y273969D01*
X931500Y269531D02*
Y273468D01*
X929531Y271500D02*
X933469D01*
X1023833Y269531D02*
Y273468D01*
X1021865Y271500D02*
X1025802D01*
X758032Y266000D02*
X761969D01*
X760000Y264032D02*
Y267969D01*
X401031Y264500D02*
X404969D01*
X403000Y262531D02*
Y266469D01*
X803500Y263850D02*
Y267787D01*
X801532Y265819D02*
X805468D01*
X612000Y200271D02*
Y204208D01*
X610032Y202240D02*
X613969D01*
X967500Y286531D02*
Y290469D01*
X965532Y288500D02*
X969468D01*
X249500Y255031D02*
Y258968D01*
X247532Y257000D02*
X251468D01*
X895032Y287500D02*
X898969D01*
X897000Y285531D02*
Y289469D01*
X992000Y199771D02*
Y203708D01*
X990032Y201740D02*
X993968D01*
X343000Y218032D02*
Y221969D01*
X341032Y220000D02*
X344969D01*
X493000Y286032D02*
Y289968D01*
X491032Y288000D02*
X494969D01*
X835531Y257000D02*
X839468D01*
X837500Y255031D02*
Y258968D01*
X74500Y199771D02*
Y203708D01*
X72532Y201740D02*
X76469D01*
X875500Y199771D02*
Y203708D01*
X873532Y201740D02*
X877469D01*
X325000Y217531D02*
Y221468D01*
X323031Y219500D02*
X326969D01*
X643000Y255532D02*
Y259469D01*
X641032Y257500D02*
X644969D01*
X327532Y208000D02*
X331469D01*
X329500Y206031D02*
Y209968D01*
X919032Y201740D02*
X922969D01*
X921000Y199771D02*
Y203708D01*
X471000Y200271D02*
Y204208D01*
X469031Y202240D02*
X472968D01*
X345532Y208000D02*
X349468D01*
X347500Y206031D02*
Y209968D01*
X512000Y255532D02*
Y259469D01*
X510032Y257500D02*
X513969D01*
X1048532Y257000D02*
X1052468D01*
X1050500Y255031D02*
Y258968D01*
X719532Y208260D02*
X723469D01*
X721500Y206291D02*
Y210228D01*
X185500Y255031D02*
Y258968D01*
X183531Y257000D02*
X187469D01*
X103500Y286032D02*
Y289968D01*
X101532Y288000D02*
X105468D01*
X310032Y208000D02*
X313968D01*
X312000Y206031D02*
Y209968D01*
X492000Y255532D02*
Y259469D01*
X490031Y257500D02*
X493968D01*
X563000Y286531D02*
Y290469D01*
X561031Y288500D02*
X564968D01*
X37000Y255031D02*
Y258968D01*
X35032Y257000D02*
X38969D01*
X174500Y286272D02*
Y290209D01*
X172531Y288241D02*
X176468D01*
X1144000Y216531D02*
Y220468D01*
X1142031Y218500D02*
X1145969D01*
X850000Y199771D02*
Y203708D01*
X848032Y201740D02*
X851969D01*
X443532Y202240D02*
X447469D01*
X445500Y200271D02*
Y204208D01*
X1036032Y288500D02*
X1039968D01*
X1038000Y286531D02*
Y290469D01*
X728532Y208260D02*
X732469D01*
X730500Y206291D02*
Y210228D01*
X651500Y255532D02*
Y259469D01*
X649532Y257500D02*
X653469D01*
X737532Y208260D02*
X741468D01*
X739500Y206291D02*
Y210228D01*
X177000Y255031D02*
Y258968D01*
X175031Y257000D02*
X178969D01*
X503500Y255532D02*
Y259469D01*
X501532Y257500D02*
X505469D01*
X285032Y201740D02*
X288968D01*
X287000Y199771D02*
Y203708D01*
X1137031Y206740D02*
X1140968D01*
X1139000Y204772D02*
Y208709D01*
X1061532Y201740D02*
X1065469D01*
X1063500Y199771D02*
Y203708D01*
X542000Y200271D02*
Y204208D01*
X540031Y202240D02*
X543968D01*
X717000Y218032D02*
Y221969D01*
X715031Y220000D02*
X718968D01*
X189500Y199771D02*
Y203708D01*
X187531Y201740D02*
X191469D01*
X116000Y255031D02*
Y258968D01*
X114032Y257000D02*
X117968D01*
X1146032Y206740D02*
X1149969D01*
X1148000Y204771D02*
Y208708D01*
X308000Y286032D02*
Y289968D01*
X306031Y288000D02*
X309968D01*
X119500Y199771D02*
Y203708D01*
X117532Y201740D02*
X121469D01*
X1087031D02*
X1090969D01*
X1089000Y199771D02*
Y203708D01*
X1059500Y286032D02*
Y289968D01*
X1057532Y288000D02*
X1061469D01*
X244000Y286032D02*
Y289968D01*
X242032Y288000D02*
X245969D01*
X844032Y257000D02*
X847969D01*
X846000Y255031D02*
Y258968D01*
X107500Y255031D02*
Y258968D01*
X105532Y257000D02*
X109468D01*
X215000Y199771D02*
Y203708D01*
X213032Y201740D02*
X216968D01*
X1128032Y206760D02*
X1131969D01*
X1130000Y204791D02*
Y208728D01*
X985532Y257000D02*
X989468D01*
X987500Y255031D02*
Y258968D01*
X903531Y287500D02*
X907469D01*
X905500Y285531D02*
Y289469D01*
X336531Y208000D02*
X340469D01*
X338500Y206031D02*
Y209968D01*
X166000Y286032D02*
Y289968D01*
X164032Y288000D02*
X167968D01*
X656000Y200271D02*
Y204208D01*
X654032Y202240D02*
X657969D01*
X259531Y201740D02*
X263469D01*
X261500Y199771D02*
Y203708D01*
X516500Y200271D02*
Y204208D01*
X514532Y202240D02*
X518469D01*
X95000Y286032D02*
Y289968D01*
X93032Y288000D02*
X96969D01*
X586500Y200271D02*
Y204208D01*
X584532Y202240D02*
X588469D01*
X49000Y199771D02*
Y203708D01*
X47032Y201740D02*
X50968D01*
X702032Y208260D02*
X705969D01*
X704000Y206291D02*
Y210228D01*
X1051000Y286032D02*
Y289968D01*
X1049032Y288000D02*
X1052969D01*
X642000Y286531D02*
Y290469D01*
X640031Y288500D02*
X643968D01*
X633500Y286531D02*
Y290469D01*
X631531Y288500D02*
X635468D01*
X582500Y255031D02*
Y258968D01*
X580532Y257000D02*
X584469D01*
X1125760Y216032D02*
Y219969D01*
X1123792Y218000D02*
X1127729D01*
X977032Y257000D02*
X980968D01*
X979000Y255031D02*
Y258968D01*
X735000Y218032D02*
Y221969D01*
X733032Y220000D02*
X736969D01*
X976000Y286531D02*
Y290469D01*
X974032Y288500D02*
X977969D01*
X712500Y287032D02*
Y290968D01*
X710532Y289000D02*
X714468D01*
X681500Y200271D02*
Y204208D01*
X679531Y202240D02*
X683468D01*
X145000Y199771D02*
Y203708D01*
X143032Y201740D02*
X146968D01*
X986032Y288500D02*
X989968D01*
X988000Y286531D02*
Y290469D01*
X571500Y286531D02*
Y290469D01*
X569531Y288500D02*
X573468D01*
X574000Y255031D02*
Y258968D01*
X572031Y257000D02*
X575969D01*
X944532Y201740D02*
X948469D01*
X946500Y199771D02*
Y203708D01*
X258000Y255031D02*
Y258968D01*
X256031Y257000D02*
X259968D01*
X1057032D02*
X1060968D01*
X1059000Y255031D02*
Y258968D01*
X1119031Y206760D02*
X1122968D01*
X1121000Y204792D02*
Y208729D01*
X235500Y286032D02*
Y289968D01*
X233531Y288000D02*
X237469D01*
X45500Y255031D02*
Y258968D01*
X43532Y257000D02*
X47469D01*
X501500Y286032D02*
Y289968D01*
X499532Y288000D02*
X503469D01*
X442500Y256031D02*
Y259968D01*
X440531Y258000D02*
X444468D01*
X316500Y286272D02*
Y290209D01*
X314531Y288241D02*
X318468D01*
X704000Y287032D02*
Y290968D01*
X702032Y289000D02*
X705969D01*
X915032Y257000D02*
X918968D01*
X917000Y255031D02*
Y258968D01*
X1017500Y199771D02*
Y203708D01*
X1015532Y201740D02*
X1019468D01*
X906532Y257000D02*
X910468D01*
X908500Y255031D02*
Y258968D01*
X298028Y337032D02*
Y340969D01*
X296059Y339000D02*
X299996D01*
X765000Y306031D02*
Y309968D01*
X763031Y308000D02*
X766968D01*
X791532Y368000D02*
X795469D01*
X793500Y366032D02*
Y369969D01*
Y366032D02*
Y369969D01*
X791532Y368000D02*
X795469D01*
X743031Y362260D02*
X746968D01*
X745000Y360292D02*
Y364229D01*
Y360292D02*
Y364229D01*
X743031Y362260D02*
X746968D01*
X452031Y202240D02*
X455968D01*
X454000Y200271D02*
Y204208D01*
Y200271D02*
Y204208D01*
X452031Y202240D02*
X455968D01*
X998532Y201740D02*
X1002468D01*
X1000500Y199771D02*
Y203708D01*
Y199771D02*
Y203708D01*
X998532Y201740D02*
X1002468D01*
X1007032D02*
X1010969D01*
X1009000Y199771D02*
Y203708D01*
Y199771D02*
Y203708D01*
X1007032Y201740D02*
X1010969D01*
X297240Y236032D02*
Y239968D01*
X295271Y238000D02*
X299208D01*
X295271D02*
X299208D01*
X297240Y236032D02*
Y239968D01*
X656241Y239032D02*
Y242969D01*
X654272Y241000D02*
X658209D01*
X654272D02*
X658209D01*
X656241Y239032D02*
Y242969D01*
X623000Y236531D02*
Y240469D01*
X621032Y238500D02*
X624968D01*
X621032D02*
X624968D01*
X623000Y236531D02*
Y240469D01*
X262241Y238531D02*
Y242469D01*
X260272Y240500D02*
X264209D01*
X260272D02*
X264209D01*
X262241Y238531D02*
Y242469D01*
X318531Y208000D02*
X322468D01*
X320500Y206031D02*
Y209968D01*
Y206031D02*
Y209968D01*
X318531Y208000D02*
X322468D01*
X710532Y208260D02*
X714468D01*
X712500Y206291D02*
Y210228D01*
Y206291D02*
Y210228D01*
X710532Y208260D02*
X714468D01*
X886000Y237032D02*
Y240968D01*
X884031Y239000D02*
X887969D01*
X884031D02*
X887969D01*
X886000Y237032D02*
Y240968D01*
X49500Y238531D02*
Y242469D01*
X47532Y240500D02*
X51468D01*
X47532D02*
X51468D01*
X49500Y238531D02*
Y242469D01*
X1110532Y207000D02*
X1114468D01*
X1112500Y205031D02*
Y208968D01*
Y205031D02*
Y208968D01*
X1110532Y207000D02*
X1114468D01*
X1099500Y237032D02*
Y240968D01*
X1097532Y239000D02*
X1101468D01*
X1097532D02*
X1101468D01*
X1099500Y237032D02*
Y240968D01*
X55532Y201740D02*
X59469D01*
X57500Y199771D02*
Y203708D01*
Y199771D02*
Y203708D01*
X55532Y201740D02*
X59469D01*
X1063500Y238531D02*
Y242469D01*
X1061532Y240500D02*
X1065469D01*
X1061532D02*
X1065469D01*
X1063500Y238531D02*
Y242469D01*
X523032Y202240D02*
X526968D01*
X525000Y200271D02*
Y204208D01*
Y200271D02*
Y204208D01*
X523032Y202240D02*
X526968D01*
X552500Y236531D02*
Y240469D01*
X550531Y238500D02*
X554468D01*
X550531D02*
X554468D01*
X552500Y236531D02*
Y240469D01*
X531531Y202240D02*
X535468D01*
X533500Y200271D02*
Y204208D01*
Y200271D02*
Y204208D01*
X531531Y202240D02*
X535468D01*
X692500Y236531D02*
Y240469D01*
X690531Y238500D02*
X694468D01*
X690531D02*
X694468D01*
X692500Y236531D02*
Y240469D01*
X662532Y202240D02*
X666468D01*
X664500Y200271D02*
Y204208D01*
Y200271D02*
Y204208D01*
X662532Y202240D02*
X666468D01*
X196031Y201740D02*
X199968D01*
X198000Y199771D02*
Y203708D01*
Y199771D02*
Y203708D01*
X196031Y201740D02*
X199968D01*
X992414Y238531D02*
Y242469D01*
X990445Y240500D02*
X994382D01*
X990445D02*
X994382D01*
X992414Y238531D02*
Y242469D01*
X1078531Y201740D02*
X1082469D01*
X1080500Y199771D02*
Y203708D01*
Y199771D02*
Y203708D01*
X1078531Y201740D02*
X1082469D01*
X586160Y239032D02*
Y242969D01*
X584192Y241000D02*
X588129D01*
X584192D02*
X588129D01*
X586160Y239032D02*
Y242969D01*
X84500Y236032D02*
Y239969D01*
X82531Y238001D02*
X86468D01*
X82531D02*
X86468D01*
X84500Y236032D02*
Y239969D01*
X446000Y239032D02*
Y242969D01*
X444031Y241000D02*
X447968D01*
X444031D02*
X447968D01*
X446000Y239032D02*
Y242969D01*
X850241Y238531D02*
Y242469D01*
X848272Y240500D02*
X852209D01*
X848272D02*
X852209D01*
X850241Y238531D02*
Y242469D01*
X204532Y201740D02*
X208469D01*
X206500Y199771D02*
Y203708D01*
Y199771D02*
Y203708D01*
X204532Y201740D02*
X208469D01*
X120000Y238531D02*
Y242469D01*
X118032Y240500D02*
X121968D01*
X118032D02*
X121968D01*
X120000Y238531D02*
Y242469D01*
X134531Y201740D02*
X138469D01*
X136500Y199771D02*
Y203708D01*
Y199771D02*
Y203708D01*
X134531Y201740D02*
X138469D01*
X516080Y239032D02*
Y242969D01*
X514112Y241000D02*
X518049D01*
X514112D02*
X518049D01*
X516080Y239032D02*
Y242969D01*
X155500Y236032D02*
Y239968D01*
X153532Y238000D02*
X157468D01*
X153532D02*
X157468D01*
X155500Y236032D02*
Y239968D01*
X1028333Y237032D02*
Y240968D01*
X1026365Y239000D02*
X1030302D01*
X1026365D02*
X1030302D01*
X1028333Y237032D02*
Y240968D01*
X64032Y201740D02*
X67969D01*
X66000Y199771D02*
Y203708D01*
Y199771D02*
Y203708D01*
X64032Y201740D02*
X67969D01*
X126031D02*
X129968D01*
X128000Y199771D02*
Y203708D01*
Y199771D02*
Y203708D01*
X126031Y201740D02*
X129968D01*
X460532Y202240D02*
X464468D01*
X462500Y200271D02*
Y204208D01*
Y200271D02*
Y204208D01*
X460532Y202240D02*
X464468D01*
X1070031Y201740D02*
X1073968D01*
X1072000Y199771D02*
Y203708D01*
Y199771D02*
Y203708D01*
X1070031Y201740D02*
X1073968D01*
X189500Y238531D02*
Y242469D01*
X187531Y240500D02*
X191469D01*
X187531D02*
X191469D01*
X189500Y238531D02*
Y242469D01*
X856532Y201740D02*
X860468D01*
X858500Y199771D02*
Y203708D01*
Y199771D02*
Y203708D01*
X856532Y201740D02*
X860468D01*
X936032D02*
X939969D01*
X938000Y199771D02*
Y203708D01*
Y199771D02*
Y203708D01*
X936032Y201740D02*
X939969D01*
X671032Y202240D02*
X674968D01*
X673000Y200271D02*
Y204208D01*
Y200271D02*
Y204208D01*
X671032Y202240D02*
X674968D01*
X957167Y237032D02*
Y240968D01*
X955198Y239000D02*
X959135D01*
X955198D02*
X959135D01*
X957167Y237032D02*
Y240968D01*
X865032Y201740D02*
X868968D01*
X867000Y199771D02*
Y203708D01*
Y199771D02*
Y203708D01*
X865032Y201740D02*
X868968D01*
X225000Y236032D02*
Y239968D01*
X223031Y238000D02*
X226969D01*
X223031D02*
X226969D01*
X225000Y236032D02*
Y239968D01*
X921327Y238531D02*
Y242469D01*
X919359Y240500D02*
X923295D01*
X919359D02*
X923295D01*
X921327Y238531D02*
Y242469D01*
X276532Y201740D02*
X280469D01*
X278500Y199771D02*
Y203708D01*
Y199771D02*
Y203708D01*
X276532Y201740D02*
X280469D01*
X927531D02*
X931468D01*
X929500Y199771D02*
Y203708D01*
Y199771D02*
Y203708D01*
X927531Y201740D02*
X931468D01*
X481500Y236531D02*
Y240469D01*
X479531Y238500D02*
X483468D01*
X479531D02*
X483468D01*
X481500Y236531D02*
Y240469D01*
X601532Y202240D02*
X605469D01*
X603500Y200271D02*
Y204208D01*
Y200271D02*
Y204208D01*
X601532Y202240D02*
X605469D01*
X593032D02*
X596969D01*
X595000Y200271D02*
Y204208D01*
Y200271D02*
Y204208D01*
X593032Y202240D02*
X596969D01*
X268032Y201740D02*
X271969D01*
X270000Y199771D02*
Y203708D01*
Y199771D02*
Y203708D01*
X268032Y201740D02*
X271969D01*
X368500Y361032D02*
Y364968D01*
X366531Y363000D02*
X370468D01*
X367531Y279327D02*
X371468D01*
X369500Y277358D02*
Y281295D01*
X359500Y262531D02*
Y266469D01*
X357531Y264500D02*
X361469D01*
X806532Y308000D02*
X810468D01*
X808500Y306031D02*
Y309968D01*
X150531Y33000D02*
X154469D01*
X152500Y31032D02*
Y34969D01*
X338032Y32000D02*
X341968D01*
X340000Y30031D02*
Y33968D01*
X1188402Y264500D02*
X1192339D01*
X1190370Y262531D02*
Y266469D01*
X1188531Y363000D02*
X1192468D01*
X1190500Y361032D02*
Y364968D01*
X734500Y28532D02*
Y32469D01*
X732531Y30500D02*
X736469D01*
X547500Y31032D02*
Y34969D01*
X545532Y33000D02*
X549469D01*
M02*
