G04*
G04 #@! TF.GenerationSoftware,Altium Limited,Altium Designer,21.2.2 (38)*
G04*
G04 Layer_Color=128*
%FSLAX25Y25*%
%MOIN*%
G70*
G04*
G04 #@! TF.SameCoordinates,24E543E2-93C3-408B-82EC-D378627347FA*
G04*
G04*
G04 #@! TF.FilePolarity,Positive*
G04*
G01*
G75*
%ADD10C,0.00394*%
%ADD11C,0.01000*%
%ADD12C,0.00591*%
%ADD13C,0.00197*%
%ADD14C,0.00100*%
%ADD15C,0.00200*%
D10*
X872799Y372539D02*
G03*
X872799Y372539I-1969J0D01*
G01*
X771984Y353516D02*
G03*
X771984Y353516I-984J0D01*
G01*
X853988Y375626D02*
X873673D01*
X853988Y361453D02*
X873673D01*
Y375626D01*
X853988Y361453D02*
Y375626D01*
X879520Y356476D02*
Y378524D01*
X894480Y356476D02*
Y378524D01*
X879520D02*
X894480D01*
X760110Y376295D02*
X773890D01*
X760110Y350705D02*
X773890D01*
X760110D02*
Y376295D01*
X773890Y350705D02*
Y376295D01*
X853331Y353776D02*
Y383303D01*
X874331Y353776D02*
Y383303D01*
X853331Y353776D02*
X874331D01*
X853331Y383303D02*
X874331D01*
X751000Y377083D02*
X783000D01*
X751000Y349917D02*
X783000D01*
X751000D02*
Y377083D01*
X783000Y349917D02*
Y377083D01*
X851500Y251800D02*
Y291200D01*
X869500D01*
X851500Y251800D02*
X869500D01*
Y291200D01*
X139000Y251800D02*
Y291200D01*
X121000Y251800D02*
X139000D01*
X121000Y291200D02*
X139000D01*
X121000Y251800D02*
Y291200D01*
X68500Y251800D02*
Y291200D01*
X50500Y251800D02*
X68500D01*
X50500Y291200D02*
X68500D01*
X50500Y251800D02*
Y291200D01*
X142500Y251800D02*
Y291200D01*
X160500D01*
X142500Y251800D02*
X160500D01*
Y291200D01*
X678500Y252300D02*
Y291700D01*
X696500D01*
X678500Y252300D02*
X696500D01*
Y291700D01*
X469000Y252300D02*
Y291700D01*
X487000D01*
X469000Y252300D02*
X487000D01*
Y291700D01*
X535167Y252300D02*
Y291700D01*
X517167Y252300D02*
X535167D01*
X517167Y291700D02*
X535167D01*
X517167Y252300D02*
Y291700D01*
X281000Y251800D02*
Y291200D01*
X263000Y251800D02*
X281000D01*
X263000Y291200D02*
X281000D01*
X263000Y251800D02*
Y291200D01*
X208500Y251800D02*
Y291200D01*
X190500Y251800D02*
X208500D01*
X190500Y291200D02*
X208500D01*
X190500Y251800D02*
Y291200D01*
X1103500Y251800D02*
Y291200D01*
X1085500Y251800D02*
X1103500D01*
X1085500Y291200D02*
X1103500D01*
X1085500Y251800D02*
Y291200D01*
X962167Y251800D02*
Y291200D01*
X944167Y251800D02*
X962167D01*
X944167Y291200D02*
X962167D01*
X944167Y251800D02*
Y291200D01*
X891500Y251800D02*
Y291200D01*
X873500Y251800D02*
X891500D01*
X873500Y291200D02*
X891500D01*
X873500Y251800D02*
Y291200D01*
X465000Y252300D02*
Y291700D01*
X447000Y252300D02*
X465000D01*
X447000Y291700D02*
X465000D01*
X447000Y252300D02*
Y291700D01*
X284500Y251800D02*
Y291200D01*
X302500D01*
X284500Y251800D02*
X302500D01*
Y291200D01*
X675500Y252300D02*
Y291700D01*
X657500Y252300D02*
X675500D01*
X657500Y291700D02*
X675500D01*
X657500Y252300D02*
Y291700D01*
X212000Y251800D02*
Y291200D01*
X230000D01*
X212000Y251800D02*
X230000D01*
Y291200D01*
X538833Y252300D02*
Y291700D01*
X556833D01*
X538833Y252300D02*
X556833D01*
Y291700D01*
X1064500Y251800D02*
Y291200D01*
X1082500D01*
X1064500Y251800D02*
X1082500D01*
Y291200D01*
X605333Y252300D02*
Y291700D01*
X587333Y252300D02*
X605333D01*
X587333Y291700D02*
X605333D01*
X587333Y252300D02*
Y291700D01*
X993500Y251800D02*
Y291200D01*
X1011500D01*
X993500Y251800D02*
X1011500D01*
Y291200D01*
X72000Y251800D02*
Y291200D01*
X90000D01*
X72000Y251800D02*
X90000D01*
Y291200D01*
X608667Y252300D02*
Y291700D01*
X626667D01*
X608667Y252300D02*
X626667D01*
Y291700D01*
X922500Y251800D02*
Y291200D01*
X940500D01*
X922500Y251800D02*
X940500D01*
Y291200D01*
X1032833Y251800D02*
Y291200D01*
X1014833Y251800D02*
X1032833D01*
X1014833Y291200D02*
X1032833D01*
X1014833Y251800D02*
Y291200D01*
X739000Y285000D02*
X781000D01*
X739000Y247000D02*
X781000D01*
Y285000D01*
X739000Y247000D02*
Y285000D01*
X382000Y283500D02*
X424000D01*
X382000Y245500D02*
X424000D01*
Y283500D01*
X382000Y245500D02*
Y283500D01*
X782500Y246819D02*
Y284819D01*
X824500Y246819D02*
Y284819D01*
X782500Y246819D02*
X824500D01*
X782500Y284819D02*
X824500D01*
X786000Y290000D02*
Y326000D01*
X744000Y290000D02*
Y326000D01*
X786000D01*
X744000Y290000D02*
X786000D01*
X348500Y297327D02*
X390500D01*
X348500Y261327D02*
X390500D01*
X348500D02*
Y297327D01*
X390500Y261327D02*
Y297327D01*
X338500Y245500D02*
Y283500D01*
X380500Y245500D02*
Y283500D01*
X338500Y245500D02*
X380500D01*
X338500Y283500D02*
X380500D01*
X787500Y290000D02*
X829500D01*
X787500Y326000D02*
X829500D01*
X787500Y290000D02*
Y326000D01*
X829500Y290000D02*
Y326000D01*
D11*
X867814Y280914D02*
G03*
X867814Y280914I-1414J0D01*
G01*
X137314D02*
G03*
X137314Y280914I-1414J0D01*
G01*
X66814D02*
G03*
X66814Y280914I-1414J0D01*
G01*
X147014Y262086D02*
G03*
X147014Y262086I-1414J0D01*
G01*
X683014Y262586D02*
G03*
X683014Y262586I-1414J0D01*
G01*
X473514D02*
G03*
X473514Y262586I-1414J0D01*
G01*
X533481Y281414D02*
G03*
X533481Y281414I-1414J0D01*
G01*
X279314Y280914D02*
G03*
X279314Y280914I-1414J0D01*
G01*
X206814D02*
G03*
X206814Y280914I-1414J0D01*
G01*
X1090014Y262086D02*
G03*
X1090014Y262086I-1414J0D01*
G01*
X948681D02*
G03*
X948681Y262086I-1414J0D01*
G01*
X878014D02*
G03*
X878014Y262086I-1414J0D01*
G01*
X463314Y281414D02*
G03*
X463314Y281414I-1414J0D01*
G01*
X289014Y262086D02*
G03*
X289014Y262086I-1414J0D01*
G01*
X673814Y281414D02*
G03*
X673814Y281414I-1414J0D01*
G01*
X216514Y262086D02*
G03*
X216514Y262086I-1414J0D01*
G01*
X543348Y262586D02*
G03*
X543348Y262586I-1414J0D01*
G01*
X1080814Y280914D02*
G03*
X1080814Y280914I-1414J0D01*
G01*
X603648Y281414D02*
G03*
X603648Y281414I-1414J0D01*
G01*
X1009814Y280914D02*
G03*
X1009814Y280914I-1414J0D01*
G01*
X76514Y262086D02*
G03*
X76514Y262086I-1414J0D01*
G01*
X613181Y262586D02*
G03*
X613181Y262586I-1414J0D01*
G01*
X938814Y280914D02*
G03*
X938814Y280914I-1414J0D01*
G01*
X1019347Y262086D02*
G03*
X1019347Y262086I-1414J0D01*
G01*
D12*
X778414Y270000D02*
G03*
X778414Y270000I-1414J0D01*
G01*
X421414Y268500D02*
G03*
X421414Y268500I-1414J0D01*
G01*
X821914Y269819D02*
G03*
X821914Y269819I-1414J0D01*
G01*
X311264Y313000D02*
G03*
X311264Y313000I-2236J0D01*
G01*
X749414Y304000D02*
G03*
X749414Y304000I-1414J0D01*
G01*
X396736Y352000D02*
G03*
X396736Y352000I-2236J0D01*
G01*
X353914Y283327D02*
G03*
X353914Y283327I-1414J0D01*
G01*
X377914Y268500D02*
G03*
X377914Y268500I-1414J0D01*
G01*
X792914Y304000D02*
G03*
X792914Y304000I-1414J0D01*
G01*
X851500Y258705D02*
Y284295D01*
Y258705D02*
X869500D01*
Y284295D01*
X851500D02*
X869500D01*
X121000D02*
X139000D01*
Y258705D02*
Y284295D01*
X121000Y258705D02*
X139000D01*
X121000D02*
Y284295D01*
X50500D02*
X68500D01*
Y258705D02*
Y284295D01*
X50500Y258705D02*
X68500D01*
X50500D02*
Y284295D01*
X142500Y258705D02*
X160500D01*
X142500D02*
Y284295D01*
X160500D01*
Y258705D02*
Y284295D01*
X678500Y259205D02*
X696500D01*
X678500D02*
Y284795D01*
X696500D01*
Y259205D02*
Y284795D01*
X469000Y259205D02*
X487000D01*
X469000D02*
Y284795D01*
X487000D01*
Y259205D02*
Y284795D01*
X517167D02*
X535167D01*
Y259205D02*
Y284795D01*
X517167Y259205D02*
X535167D01*
X517167D02*
Y284795D01*
X263000Y284295D02*
X281000D01*
Y258705D02*
Y284295D01*
X263000Y258705D02*
X281000D01*
X263000D02*
Y284295D01*
X190500D02*
X208500D01*
Y258705D02*
Y284295D01*
X190500Y258705D02*
X208500D01*
X190500D02*
Y284295D01*
X1103500Y258705D02*
Y284295D01*
X1085500D02*
X1103500D01*
X1085500Y258705D02*
Y284295D01*
Y258705D02*
X1103500D01*
X962167D02*
Y284295D01*
X944167D02*
X962167D01*
X944167Y258705D02*
Y284295D01*
Y258705D02*
X962167D01*
X891500D02*
Y284295D01*
X873500D02*
X891500D01*
X873500Y258705D02*
Y284295D01*
Y258705D02*
X891500D01*
X447000Y284795D02*
X465000D01*
Y259205D02*
Y284795D01*
X447000Y259205D02*
X465000D01*
X447000D02*
Y284795D01*
X284500Y258705D02*
X302500D01*
X284500D02*
Y284295D01*
X302500D01*
Y258705D02*
Y284295D01*
X657500Y284795D02*
X675500D01*
Y259205D02*
Y284795D01*
X657500Y259205D02*
X675500D01*
X657500D02*
Y284795D01*
X212000Y258705D02*
X230000D01*
X212000D02*
Y284295D01*
X230000D01*
Y258705D02*
Y284295D01*
X538833Y259205D02*
X556833D01*
X538833D02*
Y284795D01*
X556833D01*
Y259205D02*
Y284795D01*
X1064500Y258705D02*
Y284295D01*
Y258705D02*
X1082500D01*
Y284295D01*
X1064500D02*
X1082500D01*
X587333Y284795D02*
X605333D01*
Y259205D02*
Y284795D01*
X587333Y259205D02*
X605333D01*
X587333D02*
Y284795D01*
X993500Y258705D02*
Y284295D01*
Y258705D02*
X1011500D01*
Y284295D01*
X993500D02*
X1011500D01*
X72000Y258705D02*
X90000D01*
X72000D02*
Y284295D01*
X90000D01*
Y258705D02*
Y284295D01*
X608667Y259205D02*
X626667D01*
X608667D02*
Y284795D01*
X626667D01*
Y259205D02*
Y284795D01*
X922500Y258705D02*
Y284295D01*
Y258705D02*
X940500D01*
Y284295D01*
X922500D02*
X940500D01*
X1032833Y258705D02*
Y284295D01*
X1014833D02*
X1032833D01*
X1014833Y258705D02*
Y284295D01*
Y258705D02*
X1032833D01*
X780000Y258913D02*
Y273087D01*
X740000Y258913D02*
X780000D01*
X740000D02*
Y273087D01*
X780000D01*
X423000Y257413D02*
Y271587D01*
X383000Y257413D02*
X423000D01*
X383000D02*
Y271587D01*
X423000D01*
X783500Y272905D02*
X823500D01*
X783500Y258732D02*
Y272905D01*
Y258732D02*
X823500D01*
Y272905D01*
X313185Y308685D02*
Y369315D01*
X282870D02*
X313185D01*
X282870Y308685D02*
Y369315D01*
Y308685D02*
X313185D01*
X745000Y300913D02*
Y315087D01*
X785000D01*
Y300913D02*
Y315087D01*
X745000Y300913D02*
X785000D01*
X398815Y347843D02*
Y378157D01*
X338185D02*
X398815D01*
X338185Y347843D02*
Y378157D01*
Y347843D02*
X398815D01*
X349500Y286413D02*
X389500D01*
Y272240D02*
Y286413D01*
X349500Y272240D02*
X389500D01*
X349500D02*
Y286413D01*
X339500Y271587D02*
X379500D01*
X339500Y257413D02*
Y271587D01*
Y257413D02*
X379500D01*
Y271587D01*
X788500Y300913D02*
X828500D01*
Y315087D01*
X788500D02*
X828500D01*
X788500Y300913D02*
Y315087D01*
X271028Y308000D02*
X325028D01*
X271028D02*
Y370000D01*
X325028D01*
Y308000D02*
Y370000D01*
X337500Y336000D02*
X399500D01*
X337500D02*
Y390000D01*
X399500D01*
Y336000D02*
Y390000D01*
D13*
X498189Y359563D02*
G03*
X498189Y359563I-1378J0D01*
G01*
X717852Y349500D02*
G03*
X717852Y349500I-1378J0D01*
G01*
X807378Y362000D02*
G03*
X807378Y362000I-1378J0D01*
G01*
X734378Y357000D02*
G03*
X734378Y357000I-1378J0D01*
G01*
X877299Y404500D02*
G03*
X877299Y404500I-1378J0D01*
G01*
X865209Y368539D02*
G03*
X865209Y368539I-1378J0D01*
G01*
X868637Y389000D02*
G03*
X868637Y389000I-1378J0D01*
G01*
X849878Y374740D02*
G03*
X849878Y374740I-1378J0D01*
G01*
X862878Y344500D02*
G03*
X862878Y344500I-1378J0D01*
G01*
D02*
G03*
X862878Y344500I-1378J0D01*
G01*
X862378Y322500D02*
G03*
X862378Y322500I-1378J0D01*
G01*
X845378Y323240D02*
G03*
X845378Y323240I-1378J0D01*
G01*
D02*
G03*
X845378Y323240I-1378J0D01*
G01*
X853878Y322500D02*
G03*
X853878Y322500I-1378J0D01*
G01*
X883118Y389000D02*
G03*
X883118Y389000I-1378J0D01*
G01*
D02*
G03*
X883118Y389000I-1378J0D01*
G01*
X888378Y367500D02*
G03*
X888378Y367500I-1378J0D01*
G01*
X840378Y374741D02*
G03*
X840378Y374741I-1378J0D01*
G01*
X1145378Y31500D02*
G03*
X1145378Y31500I-1378J0D01*
G01*
X958378Y32500D02*
G03*
X958378Y32500I-1378J0D01*
G01*
X768378Y363500D02*
G03*
X768378Y363500I-1378J0D01*
G01*
X861878Y271500D02*
G03*
X861878Y271500I-1378J0D01*
G01*
X131378D02*
G03*
X131378Y271500I-1378J0D01*
G01*
X60878D02*
G03*
X60878Y271500I-1378J0D01*
G01*
X152878D02*
G03*
X152878Y271500I-1378J0D01*
G01*
X688878Y272000D02*
G03*
X688878Y272000I-1378J0D01*
G01*
X479378D02*
G03*
X479378Y272000I-1378J0D01*
G01*
X527545D02*
G03*
X527545Y272000I-1378J0D01*
G01*
X273378Y271500D02*
G03*
X273378Y271500I-1378J0D01*
G01*
X200878D02*
G03*
X200878Y271500I-1378J0D01*
G01*
X1095878D02*
G03*
X1095878Y271500I-1378J0D01*
G01*
X954545D02*
G03*
X954545Y271500I-1378J0D01*
G01*
X883878D02*
G03*
X883878Y271500I-1378J0D01*
G01*
X457378Y272000D02*
G03*
X457378Y272000I-1378J0D01*
G01*
X294878Y271500D02*
G03*
X294878Y271500I-1378J0D01*
G01*
X667878Y272000D02*
G03*
X667878Y272000I-1378J0D01*
G01*
X222378Y271500D02*
G03*
X222378Y271500I-1378J0D01*
G01*
X549211Y272000D02*
G03*
X549211Y272000I-1378J0D01*
G01*
X1074878Y271500D02*
G03*
X1074878Y271500I-1378J0D01*
G01*
X597711Y272000D02*
G03*
X597711Y272000I-1378J0D01*
G01*
X1003878Y271500D02*
G03*
X1003878Y271500I-1378J0D01*
G01*
X82378D02*
G03*
X82378Y271500I-1378J0D01*
G01*
X619045Y272000D02*
G03*
X619045Y272000I-1378J0D01*
G01*
X932878Y271500D02*
G03*
X932878Y271500I-1378J0D01*
G01*
X1025211D02*
G03*
X1025211Y271500I-1378J0D01*
G01*
X761378Y266000D02*
G03*
X761378Y266000I-1378J0D01*
G01*
X404378Y264500D02*
G03*
X404378Y264500I-1378J0D01*
G01*
X804878Y265819D02*
G03*
X804878Y265819I-1378J0D01*
G01*
X613378Y202240D02*
G03*
X613378Y202240I-1378J0D01*
G01*
X968878Y288500D02*
G03*
X968878Y288500I-1378J0D01*
G01*
X250878Y257000D02*
G03*
X250878Y257000I-1378J0D01*
G01*
X898378Y287500D02*
G03*
X898378Y287500I-1378J0D01*
G01*
X993378Y201740D02*
G03*
X993378Y201740I-1378J0D01*
G01*
X344378Y220000D02*
G03*
X344378Y220000I-1378J0D01*
G01*
X494378Y288000D02*
G03*
X494378Y288000I-1378J0D01*
G01*
X838878Y257000D02*
G03*
X838878Y257000I-1378J0D01*
G01*
X75878Y201740D02*
G03*
X75878Y201740I-1378J0D01*
G01*
X876878D02*
G03*
X876878Y201740I-1378J0D01*
G01*
X326378Y219500D02*
G03*
X326378Y219500I-1378J0D01*
G01*
X644378Y257500D02*
G03*
X644378Y257500I-1378J0D01*
G01*
X330878Y208000D02*
G03*
X330878Y208000I-1378J0D01*
G01*
X922378Y201740D02*
G03*
X922378Y201740I-1378J0D01*
G01*
X472378Y202240D02*
G03*
X472378Y202240I-1378J0D01*
G01*
X348878Y208000D02*
G03*
X348878Y208000I-1378J0D01*
G01*
X513378Y257500D02*
G03*
X513378Y257500I-1378J0D01*
G01*
X1051878Y257000D02*
G03*
X1051878Y257000I-1378J0D01*
G01*
X722878Y208260D02*
G03*
X722878Y208260I-1378J0D01*
G01*
X186878Y257000D02*
G03*
X186878Y257000I-1378J0D01*
G01*
X104878Y288000D02*
G03*
X104878Y288000I-1378J0D01*
G01*
X313378Y208000D02*
G03*
X313378Y208000I-1378J0D01*
G01*
X493378Y257500D02*
G03*
X493378Y257500I-1378J0D01*
G01*
X564378Y288500D02*
G03*
X564378Y288500I-1378J0D01*
G01*
X38378Y257000D02*
G03*
X38378Y257000I-1378J0D01*
G01*
X175878Y288241D02*
G03*
X175878Y288241I-1378J0D01*
G01*
X1145378Y218500D02*
G03*
X1145378Y218500I-1378J0D01*
G01*
X851378Y201740D02*
G03*
X851378Y201740I-1378J0D01*
G01*
X446878Y202240D02*
G03*
X446878Y202240I-1378J0D01*
G01*
X1039378Y288500D02*
G03*
X1039378Y288500I-1378J0D01*
G01*
X731878Y208260D02*
G03*
X731878Y208260I-1378J0D01*
G01*
X652878Y257500D02*
G03*
X652878Y257500I-1378J0D01*
G01*
X740878Y208260D02*
G03*
X740878Y208260I-1378J0D01*
G01*
X178378Y257000D02*
G03*
X178378Y257000I-1378J0D01*
G01*
X504878Y257500D02*
G03*
X504878Y257500I-1378J0D01*
G01*
X288378Y201740D02*
G03*
X288378Y201740I-1378J0D01*
G01*
X1140378Y206740D02*
G03*
X1140378Y206740I-1378J0D01*
G01*
X1064878Y201740D02*
G03*
X1064878Y201740I-1378J0D01*
G01*
X543378Y202240D02*
G03*
X543378Y202240I-1378J0D01*
G01*
X718378Y220000D02*
G03*
X718378Y220000I-1378J0D01*
G01*
X190878Y201740D02*
G03*
X190878Y201740I-1378J0D01*
G01*
X117378Y257000D02*
G03*
X117378Y257000I-1378J0D01*
G01*
X1149378Y206740D02*
G03*
X1149378Y206740I-1378J0D01*
G01*
X309378Y288000D02*
G03*
X309378Y288000I-1378J0D01*
G01*
X120878Y201740D02*
G03*
X120878Y201740I-1378J0D01*
G01*
X1090378D02*
G03*
X1090378Y201740I-1378J0D01*
G01*
X1060878Y288000D02*
G03*
X1060878Y288000I-1378J0D01*
G01*
X245378D02*
G03*
X245378Y288000I-1378J0D01*
G01*
X847378Y257000D02*
G03*
X847378Y257000I-1378J0D01*
G01*
X108878D02*
G03*
X108878Y257000I-1378J0D01*
G01*
X216378Y201740D02*
G03*
X216378Y201740I-1378J0D01*
G01*
X1131378Y206760D02*
G03*
X1131378Y206760I-1378J0D01*
G01*
X988878Y257000D02*
G03*
X988878Y257000I-1378J0D01*
G01*
X906878Y287500D02*
G03*
X906878Y287500I-1378J0D01*
G01*
X339878Y208000D02*
G03*
X339878Y208000I-1378J0D01*
G01*
X167378Y288000D02*
G03*
X167378Y288000I-1378J0D01*
G01*
X657378Y202240D02*
G03*
X657378Y202240I-1378J0D01*
G01*
X262878Y201740D02*
G03*
X262878Y201740I-1378J0D01*
G01*
X517878Y202240D02*
G03*
X517878Y202240I-1378J0D01*
G01*
X96378Y288000D02*
G03*
X96378Y288000I-1378J0D01*
G01*
X587878Y202240D02*
G03*
X587878Y202240I-1378J0D01*
G01*
X50378Y201740D02*
G03*
X50378Y201740I-1378J0D01*
G01*
X705378Y208260D02*
G03*
X705378Y208260I-1378J0D01*
G01*
X1052378Y288000D02*
G03*
X1052378Y288000I-1378J0D01*
G01*
X643378Y288500D02*
G03*
X643378Y288500I-1378J0D01*
G01*
X634878D02*
G03*
X634878Y288500I-1378J0D01*
G01*
X583878Y257000D02*
G03*
X583878Y257000I-1378J0D01*
G01*
X1127138Y218000D02*
G03*
X1127138Y218000I-1378J0D01*
G01*
X980378Y257000D02*
G03*
X980378Y257000I-1378J0D01*
G01*
X736378Y220000D02*
G03*
X736378Y220000I-1378J0D01*
G01*
X977378Y288500D02*
G03*
X977378Y288500I-1378J0D01*
G01*
X713878Y289000D02*
G03*
X713878Y289000I-1378J0D01*
G01*
X682878Y202240D02*
G03*
X682878Y202240I-1378J0D01*
G01*
X146378Y201740D02*
G03*
X146378Y201740I-1378J0D01*
G01*
X989378Y288500D02*
G03*
X989378Y288500I-1378J0D01*
G01*
X572878D02*
G03*
X572878Y288500I-1378J0D01*
G01*
X575378Y257000D02*
G03*
X575378Y257000I-1378J0D01*
G01*
X947878Y201740D02*
G03*
X947878Y201740I-1378J0D01*
G01*
X259378Y257000D02*
G03*
X259378Y257000I-1378J0D01*
G01*
X1060378D02*
G03*
X1060378Y257000I-1378J0D01*
G01*
X1122378Y206760D02*
G03*
X1122378Y206760I-1378J0D01*
G01*
X236878Y288000D02*
G03*
X236878Y288000I-1378J0D01*
G01*
X46878Y257000D02*
G03*
X46878Y257000I-1378J0D01*
G01*
X502878Y288000D02*
G03*
X502878Y288000I-1378J0D01*
G01*
X443878Y258000D02*
G03*
X443878Y258000I-1378J0D01*
G01*
X317878Y288241D02*
G03*
X317878Y288241I-1378J0D01*
G01*
X705378Y289000D02*
G03*
X705378Y289000I-1378J0D01*
G01*
X918378Y257000D02*
G03*
X918378Y257000I-1378J0D01*
G01*
X1018878Y201740D02*
G03*
X1018878Y201740I-1378J0D01*
G01*
X909878Y257000D02*
G03*
X909878Y257000I-1378J0D01*
G01*
X299406Y339000D02*
G03*
X299406Y339000I-1378J0D01*
G01*
X766378Y308000D02*
G03*
X766378Y308000I-1378J0D01*
G01*
X794878Y368000D02*
G03*
X794878Y368000I-1378J0D01*
G01*
D02*
G03*
X794878Y368000I-1378J0D01*
G01*
X746378Y362260D02*
G03*
X746378Y362260I-1378J0D01*
G01*
D02*
G03*
X746378Y362260I-1378J0D01*
G01*
X455378Y202240D02*
G03*
X455378Y202240I-1378J0D01*
G01*
D02*
G03*
X455378Y202240I-1378J0D01*
G01*
X1001878Y201740D02*
G03*
X1001878Y201740I-1378J0D01*
G01*
D02*
G03*
X1001878Y201740I-1378J0D01*
G01*
X1010378D02*
G03*
X1010378Y201740I-1378J0D01*
G01*
D02*
G03*
X1010378Y201740I-1378J0D01*
G01*
X298618Y238000D02*
G03*
X298618Y238000I-1378J0D01*
G01*
D02*
G03*
X298618Y238000I-1378J0D01*
G01*
X657618Y241000D02*
G03*
X657618Y241000I-1378J0D01*
G01*
D02*
G03*
X657618Y241000I-1378J0D01*
G01*
X624378Y238500D02*
G03*
X624378Y238500I-1378J0D01*
G01*
D02*
G03*
X624378Y238500I-1378J0D01*
G01*
X263618Y240500D02*
G03*
X263618Y240500I-1378J0D01*
G01*
D02*
G03*
X263618Y240500I-1378J0D01*
G01*
X321878Y208000D02*
G03*
X321878Y208000I-1378J0D01*
G01*
D02*
G03*
X321878Y208000I-1378J0D01*
G01*
X713878Y208260D02*
G03*
X713878Y208260I-1378J0D01*
G01*
D02*
G03*
X713878Y208260I-1378J0D01*
G01*
X887378Y239000D02*
G03*
X887378Y239000I-1378J0D01*
G01*
D02*
G03*
X887378Y239000I-1378J0D01*
G01*
X50878Y240500D02*
G03*
X50878Y240500I-1378J0D01*
G01*
D02*
G03*
X50878Y240500I-1378J0D01*
G01*
X1113878Y207000D02*
G03*
X1113878Y207000I-1378J0D01*
G01*
D02*
G03*
X1113878Y207000I-1378J0D01*
G01*
X1100878Y239000D02*
G03*
X1100878Y239000I-1378J0D01*
G01*
D02*
G03*
X1100878Y239000I-1378J0D01*
G01*
X58878Y201740D02*
G03*
X58878Y201740I-1378J0D01*
G01*
D02*
G03*
X58878Y201740I-1378J0D01*
G01*
X1064878Y240500D02*
G03*
X1064878Y240500I-1378J0D01*
G01*
D02*
G03*
X1064878Y240500I-1378J0D01*
G01*
X526378Y202240D02*
G03*
X526378Y202240I-1378J0D01*
G01*
D02*
G03*
X526378Y202240I-1378J0D01*
G01*
X553878Y238500D02*
G03*
X553878Y238500I-1378J0D01*
G01*
D02*
G03*
X553878Y238500I-1378J0D01*
G01*
X534878Y202240D02*
G03*
X534878Y202240I-1378J0D01*
G01*
D02*
G03*
X534878Y202240I-1378J0D01*
G01*
X693878Y238500D02*
G03*
X693878Y238500I-1378J0D01*
G01*
D02*
G03*
X693878Y238500I-1378J0D01*
G01*
X665878Y202240D02*
G03*
X665878Y202240I-1378J0D01*
G01*
D02*
G03*
X665878Y202240I-1378J0D01*
G01*
X199378Y201740D02*
G03*
X199378Y201740I-1378J0D01*
G01*
D02*
G03*
X199378Y201740I-1378J0D01*
G01*
X993791Y240500D02*
G03*
X993791Y240500I-1378J0D01*
G01*
D02*
G03*
X993791Y240500I-1378J0D01*
G01*
X1081878Y201740D02*
G03*
X1081878Y201740I-1378J0D01*
G01*
D02*
G03*
X1081878Y201740I-1378J0D01*
G01*
X587538Y241000D02*
G03*
X587538Y241000I-1378J0D01*
G01*
D02*
G03*
X587538Y241000I-1378J0D01*
G01*
X85878Y238001D02*
G03*
X85878Y238001I-1378J0D01*
G01*
D02*
G03*
X85878Y238001I-1378J0D01*
G01*
X447378Y241000D02*
G03*
X447378Y241000I-1378J0D01*
G01*
D02*
G03*
X447378Y241000I-1378J0D01*
G01*
X851618Y240500D02*
G03*
X851618Y240500I-1378J0D01*
G01*
D02*
G03*
X851618Y240500I-1378J0D01*
G01*
X207878Y201740D02*
G03*
X207878Y201740I-1378J0D01*
G01*
D02*
G03*
X207878Y201740I-1378J0D01*
G01*
X121378Y240500D02*
G03*
X121378Y240500I-1378J0D01*
G01*
D02*
G03*
X121378Y240500I-1378J0D01*
G01*
X137878Y201740D02*
G03*
X137878Y201740I-1378J0D01*
G01*
D02*
G03*
X137878Y201740I-1378J0D01*
G01*
X517458Y241000D02*
G03*
X517458Y241000I-1378J0D01*
G01*
D02*
G03*
X517458Y241000I-1378J0D01*
G01*
X156878Y238000D02*
G03*
X156878Y238000I-1378J0D01*
G01*
D02*
G03*
X156878Y238000I-1378J0D01*
G01*
X1029711Y239000D02*
G03*
X1029711Y239000I-1378J0D01*
G01*
D02*
G03*
X1029711Y239000I-1378J0D01*
G01*
X67378Y201740D02*
G03*
X67378Y201740I-1378J0D01*
G01*
D02*
G03*
X67378Y201740I-1378J0D01*
G01*
X129378D02*
G03*
X129378Y201740I-1378J0D01*
G01*
D02*
G03*
X129378Y201740I-1378J0D01*
G01*
X463878Y202240D02*
G03*
X463878Y202240I-1378J0D01*
G01*
D02*
G03*
X463878Y202240I-1378J0D01*
G01*
X1073378Y201740D02*
G03*
X1073378Y201740I-1378J0D01*
G01*
D02*
G03*
X1073378Y201740I-1378J0D01*
G01*
X190878Y240500D02*
G03*
X190878Y240500I-1378J0D01*
G01*
D02*
G03*
X190878Y240500I-1378J0D01*
G01*
X859878Y201740D02*
G03*
X859878Y201740I-1378J0D01*
G01*
D02*
G03*
X859878Y201740I-1378J0D01*
G01*
X939378D02*
G03*
X939378Y201740I-1378J0D01*
G01*
D02*
G03*
X939378Y201740I-1378J0D01*
G01*
X674378Y202240D02*
G03*
X674378Y202240I-1378J0D01*
G01*
D02*
G03*
X674378Y202240I-1378J0D01*
G01*
X958545Y239000D02*
G03*
X958545Y239000I-1378J0D01*
G01*
D02*
G03*
X958545Y239000I-1378J0D01*
G01*
X868378Y201740D02*
G03*
X868378Y201740I-1378J0D01*
G01*
D02*
G03*
X868378Y201740I-1378J0D01*
G01*
X226378Y238000D02*
G03*
X226378Y238000I-1378J0D01*
G01*
D02*
G03*
X226378Y238000I-1378J0D01*
G01*
X922705Y240500D02*
G03*
X922705Y240500I-1378J0D01*
G01*
D02*
G03*
X922705Y240500I-1378J0D01*
G01*
X279878Y201740D02*
G03*
X279878Y201740I-1378J0D01*
G01*
D02*
G03*
X279878Y201740I-1378J0D01*
G01*
X930878D02*
G03*
X930878Y201740I-1378J0D01*
G01*
D02*
G03*
X930878Y201740I-1378J0D01*
G01*
X482878Y238500D02*
G03*
X482878Y238500I-1378J0D01*
G01*
D02*
G03*
X482878Y238500I-1378J0D01*
G01*
X604878Y202240D02*
G03*
X604878Y202240I-1378J0D01*
G01*
D02*
G03*
X604878Y202240I-1378J0D01*
G01*
X596378D02*
G03*
X596378Y202240I-1378J0D01*
G01*
D02*
G03*
X596378Y202240I-1378J0D01*
G01*
X271378Y201740D02*
G03*
X271378Y201740I-1378J0D01*
G01*
D02*
G03*
X271378Y201740I-1378J0D01*
G01*
X369878Y363000D02*
G03*
X369878Y363000I-1378J0D01*
G01*
X370878Y279327D02*
G03*
X370878Y279327I-1378J0D01*
G01*
X360878Y264500D02*
G03*
X360878Y264500I-1378J0D01*
G01*
X809878Y308000D02*
G03*
X809878Y308000I-1378J0D01*
G01*
X153878Y33000D02*
G03*
X153878Y33000I-1378J0D01*
G01*
X341378Y32000D02*
G03*
X341378Y32000I-1378J0D01*
G01*
X1191748Y264500D02*
G03*
X1191748Y264500I-1378J0D01*
G01*
X1191878Y363000D02*
G03*
X1191878Y363000I-1378J0D01*
G01*
X735878Y30500D02*
G03*
X735878Y30500I-1378J0D01*
G01*
X548878Y33000D02*
G03*
X548878Y33000I-1378J0D01*
G01*
X494842Y359563D02*
X498779D01*
X496811Y357594D02*
Y361531D01*
X714506Y349500D02*
X718443D01*
X716474Y347532D02*
Y351469D01*
X806000Y360032D02*
Y363968D01*
X804031Y362000D02*
X807969D01*
X733000Y355031D02*
Y358968D01*
X731032Y357000D02*
X734969D01*
X875921Y402531D02*
Y406468D01*
X873953Y404500D02*
X877890D01*
X861862Y368539D02*
X865799D01*
X863831Y366571D02*
Y370508D01*
X867260Y387031D02*
Y390968D01*
X865291Y389000D02*
X869228D01*
X846532Y374740D02*
X850469D01*
X848500Y372771D02*
Y376708D01*
X859531Y344500D02*
X863468D01*
X861500Y342531D02*
Y346468D01*
Y342531D02*
Y346468D01*
X859531Y344500D02*
X863468D01*
X861000Y320532D02*
Y324468D01*
X859031Y322500D02*
X862969D01*
X842032Y323240D02*
X845969D01*
X844000Y321271D02*
Y325208D01*
Y321271D02*
Y325208D01*
X842032Y323240D02*
X845969D01*
X852500Y320532D02*
Y324468D01*
X850531Y322500D02*
X854469D01*
X881740Y387031D02*
Y390968D01*
X879771Y389000D02*
X883708D01*
X879771D02*
X883708D01*
X881740Y387031D02*
Y390968D01*
X887000Y365531D02*
Y369468D01*
X885032Y367500D02*
X888968D01*
X837031Y374741D02*
X840968D01*
X839000Y372772D02*
Y376709D01*
X1142031Y31500D02*
X1145969D01*
X1144000Y29531D02*
Y33468D01*
X957000Y30531D02*
Y34468D01*
X955031Y32500D02*
X958969D01*
X765031Y363500D02*
X768968D01*
X767000Y361531D02*
Y365469D01*
X860500Y269531D02*
Y273468D01*
X858531Y271500D02*
X862469D01*
X128032D02*
X131968D01*
X130000Y269531D02*
Y273468D01*
X57531Y271500D02*
X61468D01*
X59500Y269531D02*
Y273468D01*
X149531Y271500D02*
X153469D01*
X151500Y269531D02*
Y273468D01*
X685532Y272000D02*
X689468D01*
X687500Y270031D02*
Y273969D01*
X476031Y272000D02*
X479969D01*
X478000Y270031D02*
Y273969D01*
X524198Y272000D02*
X528135D01*
X526167Y270031D02*
Y273969D01*
X270031Y271500D02*
X273969D01*
X272000Y269531D02*
Y273468D01*
X197531Y271500D02*
X201468D01*
X199500Y269531D02*
Y273468D01*
X1094500Y269531D02*
Y273468D01*
X1092531Y271500D02*
X1096469D01*
X953167Y269531D02*
Y273468D01*
X951198Y271500D02*
X955135D01*
X882500Y269531D02*
Y273468D01*
X880532Y271500D02*
X884468D01*
X454032Y272000D02*
X457969D01*
X456000Y270031D02*
Y273969D01*
X291531Y271500D02*
X295468D01*
X293500Y269531D02*
Y273468D01*
X664532Y272000D02*
X668469D01*
X666500Y270031D02*
Y273969D01*
X219032Y271500D02*
X222969D01*
X221000Y269531D02*
Y273468D01*
X545865Y272000D02*
X549802D01*
X547833Y270031D02*
Y273969D01*
X1073500Y269531D02*
Y273468D01*
X1071531Y271500D02*
X1075469D01*
X594365Y272000D02*
X598302D01*
X596333Y270031D02*
Y273969D01*
X1002500Y269531D02*
Y273468D01*
X1000531Y271500D02*
X1004469D01*
X79031D02*
X82968D01*
X81000Y269531D02*
Y273468D01*
X615698Y272000D02*
X619635D01*
X617667Y270031D02*
Y273969D01*
X931500Y269531D02*
Y273468D01*
X929531Y271500D02*
X933469D01*
X1023833Y269531D02*
Y273468D01*
X1021865Y271500D02*
X1025802D01*
X758032Y266000D02*
X761969D01*
X760000Y264032D02*
Y267969D01*
X401031Y264500D02*
X404969D01*
X403000Y262531D02*
Y266469D01*
X803500Y263850D02*
Y267787D01*
X801532Y265819D02*
X805468D01*
X612000Y200271D02*
Y204208D01*
X610032Y202240D02*
X613969D01*
X967500Y286531D02*
Y290469D01*
X965532Y288500D02*
X969468D01*
X249500Y255031D02*
Y258968D01*
X247532Y257000D02*
X251468D01*
X895032Y287500D02*
X898969D01*
X897000Y285531D02*
Y289469D01*
X992000Y199771D02*
Y203708D01*
X990032Y201740D02*
X993968D01*
X343000Y218032D02*
Y221969D01*
X341032Y220000D02*
X344969D01*
X493000Y286032D02*
Y289968D01*
X491032Y288000D02*
X494969D01*
X835531Y257000D02*
X839468D01*
X837500Y255031D02*
Y258968D01*
X74500Y199771D02*
Y203708D01*
X72532Y201740D02*
X76469D01*
X875500Y199771D02*
Y203708D01*
X873532Y201740D02*
X877469D01*
X325000Y217531D02*
Y221468D01*
X323031Y219500D02*
X326969D01*
X643000Y255532D02*
Y259469D01*
X641032Y257500D02*
X644969D01*
X327532Y208000D02*
X331469D01*
X329500Y206031D02*
Y209968D01*
X919032Y201740D02*
X922969D01*
X921000Y199771D02*
Y203708D01*
X471000Y200271D02*
Y204208D01*
X469031Y202240D02*
X472968D01*
X345532Y208000D02*
X349468D01*
X347500Y206031D02*
Y209968D01*
X512000Y255532D02*
Y259469D01*
X510032Y257500D02*
X513969D01*
X1048532Y257000D02*
X1052468D01*
X1050500Y255031D02*
Y258968D01*
X719532Y208260D02*
X723469D01*
X721500Y206291D02*
Y210228D01*
X185500Y255031D02*
Y258968D01*
X183531Y257000D02*
X187469D01*
X103500Y286032D02*
Y289968D01*
X101532Y288000D02*
X105468D01*
X310032Y208000D02*
X313968D01*
X312000Y206031D02*
Y209968D01*
X492000Y255532D02*
Y259469D01*
X490031Y257500D02*
X493968D01*
X563000Y286531D02*
Y290469D01*
X561031Y288500D02*
X564968D01*
X37000Y255031D02*
Y258968D01*
X35032Y257000D02*
X38969D01*
X174500Y286272D02*
Y290209D01*
X172531Y288241D02*
X176468D01*
X1144000Y216531D02*
Y220468D01*
X1142031Y218500D02*
X1145969D01*
X850000Y199771D02*
Y203708D01*
X848032Y201740D02*
X851969D01*
X443532Y202240D02*
X447469D01*
X445500Y200271D02*
Y204208D01*
X1036032Y288500D02*
X1039968D01*
X1038000Y286531D02*
Y290469D01*
X728532Y208260D02*
X732469D01*
X730500Y206291D02*
Y210228D01*
X651500Y255532D02*
Y259469D01*
X649532Y257500D02*
X653469D01*
X737532Y208260D02*
X741468D01*
X739500Y206291D02*
Y210228D01*
X177000Y255031D02*
Y258968D01*
X175031Y257000D02*
X178969D01*
X503500Y255532D02*
Y259469D01*
X501532Y257500D02*
X505469D01*
X285032Y201740D02*
X288968D01*
X287000Y199771D02*
Y203708D01*
X1137031Y206740D02*
X1140968D01*
X1139000Y204772D02*
Y208709D01*
X1061532Y201740D02*
X1065469D01*
X1063500Y199771D02*
Y203708D01*
X542000Y200271D02*
Y204208D01*
X540031Y202240D02*
X543968D01*
X717000Y218032D02*
Y221969D01*
X715031Y220000D02*
X718968D01*
X189500Y199771D02*
Y203708D01*
X187531Y201740D02*
X191469D01*
X116000Y255031D02*
Y258968D01*
X114032Y257000D02*
X117968D01*
X1146032Y206740D02*
X1149969D01*
X1148000Y204771D02*
Y208708D01*
X308000Y286032D02*
Y289968D01*
X306031Y288000D02*
X309968D01*
X119500Y199771D02*
Y203708D01*
X117532Y201740D02*
X121469D01*
X1087031D02*
X1090969D01*
X1089000Y199771D02*
Y203708D01*
X1059500Y286032D02*
Y289968D01*
X1057532Y288000D02*
X1061469D01*
X244000Y286032D02*
Y289968D01*
X242032Y288000D02*
X245969D01*
X844032Y257000D02*
X847969D01*
X846000Y255031D02*
Y258968D01*
X107500Y255031D02*
Y258968D01*
X105532Y257000D02*
X109468D01*
X215000Y199771D02*
Y203708D01*
X213032Y201740D02*
X216968D01*
X1128032Y206760D02*
X1131969D01*
X1130000Y204791D02*
Y208728D01*
X985532Y257000D02*
X989468D01*
X987500Y255031D02*
Y258968D01*
X903531Y287500D02*
X907469D01*
X905500Y285531D02*
Y289469D01*
X336531Y208000D02*
X340469D01*
X338500Y206031D02*
Y209968D01*
X166000Y286032D02*
Y289968D01*
X164032Y288000D02*
X167968D01*
X656000Y200271D02*
Y204208D01*
X654032Y202240D02*
X657969D01*
X259531Y201740D02*
X263469D01*
X261500Y199771D02*
Y203708D01*
X516500Y200271D02*
Y204208D01*
X514532Y202240D02*
X518469D01*
X95000Y286032D02*
Y289968D01*
X93032Y288000D02*
X96969D01*
X586500Y200271D02*
Y204208D01*
X584532Y202240D02*
X588469D01*
X49000Y199771D02*
Y203708D01*
X47032Y201740D02*
X50968D01*
X702032Y208260D02*
X705969D01*
X704000Y206291D02*
Y210228D01*
X1051000Y286032D02*
Y289968D01*
X1049032Y288000D02*
X1052969D01*
X642000Y286531D02*
Y290469D01*
X640031Y288500D02*
X643968D01*
X633500Y286531D02*
Y290469D01*
X631531Y288500D02*
X635468D01*
X582500Y255031D02*
Y258968D01*
X580532Y257000D02*
X584469D01*
X1125760Y216032D02*
Y219969D01*
X1123792Y218000D02*
X1127729D01*
X977032Y257000D02*
X980968D01*
X979000Y255031D02*
Y258968D01*
X735000Y218032D02*
Y221969D01*
X733032Y220000D02*
X736969D01*
X976000Y286531D02*
Y290469D01*
X974032Y288500D02*
X977969D01*
X712500Y287032D02*
Y290968D01*
X710532Y289000D02*
X714468D01*
X681500Y200271D02*
Y204208D01*
X679531Y202240D02*
X683468D01*
X145000Y199771D02*
Y203708D01*
X143032Y201740D02*
X146968D01*
X986032Y288500D02*
X989968D01*
X988000Y286531D02*
Y290469D01*
X571500Y286531D02*
Y290469D01*
X569531Y288500D02*
X573468D01*
X574000Y255031D02*
Y258968D01*
X572031Y257000D02*
X575969D01*
X944532Y201740D02*
X948469D01*
X946500Y199771D02*
Y203708D01*
X258000Y255031D02*
Y258968D01*
X256031Y257000D02*
X259968D01*
X1057032D02*
X1060968D01*
X1059000Y255031D02*
Y258968D01*
X1119031Y206760D02*
X1122968D01*
X1121000Y204792D02*
Y208729D01*
X235500Y286032D02*
Y289968D01*
X233531Y288000D02*
X237469D01*
X45500Y255031D02*
Y258968D01*
X43532Y257000D02*
X47469D01*
X501500Y286032D02*
Y289968D01*
X499532Y288000D02*
X503469D01*
X442500Y256031D02*
Y259968D01*
X440531Y258000D02*
X444468D01*
X316500Y286272D02*
Y290209D01*
X314531Y288241D02*
X318468D01*
X704000Y287032D02*
Y290968D01*
X702032Y289000D02*
X705969D01*
X915032Y257000D02*
X918968D01*
X917000Y255031D02*
Y258968D01*
X1017500Y199771D02*
Y203708D01*
X1015532Y201740D02*
X1019468D01*
X906532Y257000D02*
X910468D01*
X908500Y255031D02*
Y258968D01*
X298028Y337032D02*
Y340969D01*
X296059Y339000D02*
X299996D01*
X765000Y306031D02*
Y309968D01*
X763031Y308000D02*
X766968D01*
X791532Y368000D02*
X795469D01*
X793500Y366032D02*
Y369969D01*
Y366032D02*
Y369969D01*
X791532Y368000D02*
X795469D01*
X743031Y362260D02*
X746968D01*
X745000Y360292D02*
Y364229D01*
Y360292D02*
Y364229D01*
X743031Y362260D02*
X746968D01*
X452031Y202240D02*
X455968D01*
X454000Y200271D02*
Y204208D01*
Y200271D02*
Y204208D01*
X452031Y202240D02*
X455968D01*
X998532Y201740D02*
X1002468D01*
X1000500Y199771D02*
Y203708D01*
Y199771D02*
Y203708D01*
X998532Y201740D02*
X1002468D01*
X1007032D02*
X1010969D01*
X1009000Y199771D02*
Y203708D01*
Y199771D02*
Y203708D01*
X1007032Y201740D02*
X1010969D01*
X297240Y236032D02*
Y239968D01*
X295271Y238000D02*
X299208D01*
X295271D02*
X299208D01*
X297240Y236032D02*
Y239968D01*
X656241Y239032D02*
Y242969D01*
X654272Y241000D02*
X658209D01*
X654272D02*
X658209D01*
X656241Y239032D02*
Y242969D01*
X623000Y236531D02*
Y240469D01*
X621032Y238500D02*
X624968D01*
X621032D02*
X624968D01*
X623000Y236531D02*
Y240469D01*
X262241Y238531D02*
Y242469D01*
X260272Y240500D02*
X264209D01*
X260272D02*
X264209D01*
X262241Y238531D02*
Y242469D01*
X318531Y208000D02*
X322468D01*
X320500Y206031D02*
Y209968D01*
Y206031D02*
Y209968D01*
X318531Y208000D02*
X322468D01*
X710532Y208260D02*
X714468D01*
X712500Y206291D02*
Y210228D01*
Y206291D02*
Y210228D01*
X710532Y208260D02*
X714468D01*
X886000Y237032D02*
Y240968D01*
X884031Y239000D02*
X887969D01*
X884031D02*
X887969D01*
X886000Y237032D02*
Y240968D01*
X49500Y238531D02*
Y242469D01*
X47532Y240500D02*
X51468D01*
X47532D02*
X51468D01*
X49500Y238531D02*
Y242469D01*
X1110532Y207000D02*
X1114468D01*
X1112500Y205031D02*
Y208968D01*
Y205031D02*
Y208968D01*
X1110532Y207000D02*
X1114468D01*
X1099500Y237032D02*
Y240968D01*
X1097532Y239000D02*
X1101468D01*
X1097532D02*
X1101468D01*
X1099500Y237032D02*
Y240968D01*
X55532Y201740D02*
X59469D01*
X57500Y199771D02*
Y203708D01*
Y199771D02*
Y203708D01*
X55532Y201740D02*
X59469D01*
X1063500Y238531D02*
Y242469D01*
X1061532Y240500D02*
X1065469D01*
X1061532D02*
X1065469D01*
X1063500Y238531D02*
Y242469D01*
X523032Y202240D02*
X526968D01*
X525000Y200271D02*
Y204208D01*
Y200271D02*
Y204208D01*
X523032Y202240D02*
X526968D01*
X552500Y236531D02*
Y240469D01*
X550531Y238500D02*
X554468D01*
X550531D02*
X554468D01*
X552500Y236531D02*
Y240469D01*
X531531Y202240D02*
X535468D01*
X533500Y200271D02*
Y204208D01*
Y200271D02*
Y204208D01*
X531531Y202240D02*
X535468D01*
X692500Y236531D02*
Y240469D01*
X690531Y238500D02*
X694468D01*
X690531D02*
X694468D01*
X692500Y236531D02*
Y240469D01*
X662532Y202240D02*
X666468D01*
X664500Y200271D02*
Y204208D01*
Y200271D02*
Y204208D01*
X662532Y202240D02*
X666468D01*
X196031Y201740D02*
X199968D01*
X198000Y199771D02*
Y203708D01*
Y199771D02*
Y203708D01*
X196031Y201740D02*
X199968D01*
X992414Y238531D02*
Y242469D01*
X990445Y240500D02*
X994382D01*
X990445D02*
X994382D01*
X992414Y238531D02*
Y242469D01*
X1078531Y201740D02*
X1082469D01*
X1080500Y199771D02*
Y203708D01*
Y199771D02*
Y203708D01*
X1078531Y201740D02*
X1082469D01*
X586160Y239032D02*
Y242969D01*
X584192Y241000D02*
X588129D01*
X584192D02*
X588129D01*
X586160Y239032D02*
Y242969D01*
X84500Y236032D02*
Y239969D01*
X82531Y238001D02*
X86468D01*
X82531D02*
X86468D01*
X84500Y236032D02*
Y239969D01*
X446000Y239032D02*
Y242969D01*
X444031Y241000D02*
X447968D01*
X444031D02*
X447968D01*
X446000Y239032D02*
Y242969D01*
X850241Y238531D02*
Y242469D01*
X848272Y240500D02*
X852209D01*
X848272D02*
X852209D01*
X850241Y238531D02*
Y242469D01*
X204532Y201740D02*
X208469D01*
X206500Y199771D02*
Y203708D01*
Y199771D02*
Y203708D01*
X204532Y201740D02*
X208469D01*
X120000Y238531D02*
Y242469D01*
X118032Y240500D02*
X121968D01*
X118032D02*
X121968D01*
X120000Y238531D02*
Y242469D01*
X134531Y201740D02*
X138469D01*
X136500Y199771D02*
Y203708D01*
Y199771D02*
Y203708D01*
X134531Y201740D02*
X138469D01*
X516080Y239032D02*
Y242969D01*
X514112Y241000D02*
X518049D01*
X514112D02*
X518049D01*
X516080Y239032D02*
Y242969D01*
X155500Y236032D02*
Y239968D01*
X153532Y238000D02*
X157468D01*
X153532D02*
X157468D01*
X155500Y236032D02*
Y239968D01*
X1028333Y237032D02*
Y240968D01*
X1026365Y239000D02*
X1030302D01*
X1026365D02*
X1030302D01*
X1028333Y237032D02*
Y240968D01*
X64032Y201740D02*
X67969D01*
X66000Y199771D02*
Y203708D01*
Y199771D02*
Y203708D01*
X64032Y201740D02*
X67969D01*
X126031D02*
X129968D01*
X128000Y199771D02*
Y203708D01*
Y199771D02*
Y203708D01*
X126031Y201740D02*
X129968D01*
X460532Y202240D02*
X464468D01*
X462500Y200271D02*
Y204208D01*
Y200271D02*
Y204208D01*
X460532Y202240D02*
X464468D01*
X1070031Y201740D02*
X1073968D01*
X1072000Y199771D02*
Y203708D01*
Y199771D02*
Y203708D01*
X1070031Y201740D02*
X1073968D01*
X189500Y238531D02*
Y242469D01*
X187531Y240500D02*
X191469D01*
X187531D02*
X191469D01*
X189500Y238531D02*
Y242469D01*
X856532Y201740D02*
X860468D01*
X858500Y199771D02*
Y203708D01*
Y199771D02*
Y203708D01*
X856532Y201740D02*
X860468D01*
X936032D02*
X939969D01*
X938000Y199771D02*
Y203708D01*
Y199771D02*
Y203708D01*
X936032Y201740D02*
X939969D01*
X671032Y202240D02*
X674968D01*
X673000Y200271D02*
Y204208D01*
Y200271D02*
Y204208D01*
X671032Y202240D02*
X674968D01*
X957167Y237032D02*
Y240968D01*
X955198Y239000D02*
X959135D01*
X955198D02*
X959135D01*
X957167Y237032D02*
Y240968D01*
X865032Y201740D02*
X868968D01*
X867000Y199771D02*
Y203708D01*
Y199771D02*
Y203708D01*
X865032Y201740D02*
X868968D01*
X225000Y236032D02*
Y239968D01*
X223031Y238000D02*
X226969D01*
X223031D02*
X226969D01*
X225000Y236032D02*
Y239968D01*
X921327Y238531D02*
Y242469D01*
X919359Y240500D02*
X923295D01*
X919359D02*
X923295D01*
X921327Y238531D02*
Y242469D01*
X276532Y201740D02*
X280469D01*
X278500Y199771D02*
Y203708D01*
Y199771D02*
Y203708D01*
X276532Y201740D02*
X280469D01*
X927531D02*
X931468D01*
X929500Y199771D02*
Y203708D01*
Y199771D02*
Y203708D01*
X927531Y201740D02*
X931468D01*
X481500Y236531D02*
Y240469D01*
X479531Y238500D02*
X483468D01*
X479531D02*
X483468D01*
X481500Y236531D02*
Y240469D01*
X601532Y202240D02*
X605469D01*
X603500Y200271D02*
Y204208D01*
Y200271D02*
Y204208D01*
X601532Y202240D02*
X605469D01*
X593032D02*
X596969D01*
X595000Y200271D02*
Y204208D01*
Y200271D02*
Y204208D01*
X593032Y202240D02*
X596969D01*
X268032Y201740D02*
X271969D01*
X270000Y199771D02*
Y203708D01*
Y199771D02*
Y203708D01*
X268032Y201740D02*
X271969D01*
X368500Y361032D02*
Y364968D01*
X366531Y363000D02*
X370468D01*
X367531Y279327D02*
X371468D01*
X369500Y277358D02*
Y281295D01*
X359500Y262531D02*
Y266469D01*
X357531Y264500D02*
X361469D01*
X806532Y308000D02*
X810468D01*
X808500Y306031D02*
Y309968D01*
X150531Y33000D02*
X154469D01*
X152500Y31032D02*
Y34969D01*
X338032Y32000D02*
X341968D01*
X340000Y30031D02*
Y33968D01*
X1188402Y264500D02*
X1192339D01*
X1190370Y262531D02*
Y266469D01*
X1188531Y363000D02*
X1192468D01*
X1190500Y361032D02*
Y364968D01*
X734500Y28532D02*
Y32469D01*
X732531Y30500D02*
X736469D01*
X547500Y31032D02*
Y34969D01*
X545532Y33000D02*
X549469D01*
D14*
X717000Y366000D02*
G03*
X717000Y366000I-500J0D01*
G01*
X715713D02*
X717287D01*
X716500Y365213D02*
Y366787D01*
D15*
X467677Y355626D02*
X470827D01*
X469252Y354051D02*
Y357201D01*
X467677Y363500D02*
X470827D01*
X469252Y361925D02*
Y365075D01*
X475551Y355626D02*
X478701D01*
X477126Y354051D02*
Y357201D01*
X475551Y363500D02*
X478701D01*
X477126Y361925D02*
Y365075D01*
X483425Y355626D02*
X486575D01*
X485000Y354051D02*
Y357201D01*
X483425Y363500D02*
X486575D01*
X485000Y361925D02*
Y365075D01*
X491299Y355626D02*
X494449D01*
X492874Y354051D02*
Y357201D01*
X491299Y363500D02*
X494449D01*
X492874Y361925D02*
Y365075D01*
X499173Y355626D02*
X502323D01*
X500748Y354051D02*
Y357201D01*
X499173Y363500D02*
X502323D01*
X500748Y361925D02*
Y365075D01*
X507047Y355626D02*
X510197D01*
X508622Y354051D02*
Y357201D01*
X507047Y363500D02*
X510197D01*
X508622Y361925D02*
Y365075D01*
X514921Y355626D02*
X518071D01*
X516496Y354051D02*
Y357201D01*
X514921Y363500D02*
X518071D01*
X516496Y361925D02*
Y365075D01*
X522795Y355626D02*
X525945D01*
X524370Y354051D02*
Y357201D01*
X522795Y363500D02*
X525945D01*
X524370Y361925D02*
Y365075D01*
X401250Y39500D02*
X413750D01*
X407500Y33250D02*
Y45750D01*
X669250Y354000D02*
X681750D01*
X675500Y347750D02*
Y360250D01*
X582862Y73623D02*
X586327D01*
X584595Y71890D02*
Y75355D01*
X597626Y156300D02*
X601091D01*
X599358Y154568D02*
Y158032D01*
X612390Y87402D02*
X615855D01*
X614122Y85670D02*
Y89135D01*
X582862Y156300D02*
X586327D01*
X584595Y154568D02*
Y158032D01*
X612390Y156300D02*
X615855D01*
X614122Y154568D02*
Y158032D01*
X869425Y404500D02*
X872575D01*
X871000Y402925D02*
Y406075D01*
X879268Y404500D02*
X882417D01*
X880842Y402925D02*
Y406075D01*
X1156244Y45870D02*
X1161756D01*
X1159000Y43114D02*
Y48626D01*
X1126244Y45870D02*
X1131756D01*
X1129000Y43114D02*
Y48626D01*
X969244Y46870D02*
X974756D01*
X972000Y44114D02*
Y49626D01*
X999244Y46870D02*
X1004756D01*
X1002000Y44114D02*
Y49626D01*
X939244Y46870D02*
X944756D01*
X942000Y44114D02*
Y49626D01*
X909441Y46870D02*
X914559D01*
X912000Y44311D02*
Y49429D01*
X1052760Y183000D02*
X1060240D01*
X1056500Y179260D02*
Y186740D01*
X1092130Y183000D02*
X1099610D01*
X1095870Y179260D02*
Y186740D01*
X839260Y183000D02*
X846740D01*
X843000Y179260D02*
Y186740D01*
X878630Y183000D02*
X886110D01*
X882370Y179260D02*
Y186740D01*
X251390Y183500D02*
X258870D01*
X255130Y179760D02*
Y187240D01*
X290760Y183500D02*
X298240D01*
X294500Y179760D02*
Y187240D01*
X148630Y184000D02*
X156110D01*
X152370Y180260D02*
Y187740D01*
X109260Y184000D02*
X116740D01*
X113000Y180260D02*
Y187740D01*
X219630Y184000D02*
X227110D01*
X223370Y180260D02*
Y187740D01*
X180260Y184000D02*
X187740D01*
X184000Y180260D02*
Y187740D01*
X685130Y183500D02*
X692610D01*
X688870Y179760D02*
Y187240D01*
X645760Y183500D02*
X653240D01*
X649500Y179760D02*
Y187240D01*
X615963Y183500D02*
X623444D01*
X619703Y179760D02*
Y187240D01*
X576593Y183500D02*
X584073D01*
X580333Y179760D02*
Y187240D01*
X545630Y184000D02*
X553110D01*
X549370Y180260D02*
Y187740D01*
X506260Y184000D02*
X513740D01*
X510000Y180260D02*
Y187740D01*
X434426Y184500D02*
X441907D01*
X438167Y180760D02*
Y188240D01*
X473797Y184500D02*
X481277D01*
X477537Y180760D02*
Y188240D01*
X77630Y184000D02*
X85110D01*
X81370Y180260D02*
Y187740D01*
X38260Y184000D02*
X45740D01*
X42000Y180260D02*
Y187740D01*
X981427Y183000D02*
X988907D01*
X985167Y179260D02*
Y186740D01*
X1020797Y183000D02*
X1028277D01*
X1024537Y179260D02*
Y186740D01*
X370504Y188248D02*
X374441D01*
X372472Y186279D02*
Y190217D01*
X309874Y188248D02*
X313811D01*
X311842Y186279D02*
Y190217D01*
X350031Y72500D02*
X353969D01*
X352000Y70531D02*
Y74468D01*
X330346Y72500D02*
X334283D01*
X332315Y70531D02*
Y74468D01*
X763004Y188248D02*
X766941D01*
X764972Y186279D02*
Y190217D01*
X702374Y188248D02*
X706311D01*
X704343Y186279D02*
Y190217D01*
X742531Y72500D02*
X746468D01*
X744500Y70531D02*
Y74468D01*
X722847Y72500D02*
X726784D01*
X724815Y70531D02*
Y74468D01*
X116973Y73123D02*
X120438D01*
X118706Y71390D02*
Y74855D01*
X131737Y155800D02*
X135202D01*
X133470Y154068D02*
Y157532D01*
X146501Y86902D02*
X149966D01*
X148233Y85170D02*
Y88635D01*
X116973Y155800D02*
X120438D01*
X118706Y154068D02*
Y157532D01*
X146501Y155800D02*
X149966D01*
X148233Y154068D02*
Y157532D01*
X46140Y73123D02*
X49605D01*
X47872Y71390D02*
Y74855D01*
X60904Y155800D02*
X64368D01*
X62636Y154068D02*
Y157532D01*
X75668Y86902D02*
X79132D01*
X77400Y85170D02*
Y88635D01*
X46140Y155800D02*
X49605D01*
X47872Y154068D02*
Y157532D01*
X75668Y155800D02*
X79132D01*
X77400Y154068D02*
Y157532D01*
X1058240Y73220D02*
X1061705D01*
X1059972Y71488D02*
Y74953D01*
X1073004Y155898D02*
X1076468D01*
X1074736Y154165D02*
Y157630D01*
X1087768Y87000D02*
X1091232D01*
X1089500Y85268D02*
Y88732D01*
X1058240Y155898D02*
X1061705D01*
X1059972Y154165D02*
Y157630D01*
X1087768Y155898D02*
X1091232D01*
X1089500Y154165D02*
Y157630D01*
X987540Y73220D02*
X991005D01*
X989272Y71488D02*
Y74953D01*
X1002304Y155898D02*
X1005768D01*
X1004036Y154165D02*
Y157630D01*
X1017068Y87000D02*
X1020532D01*
X1018800Y85268D02*
Y88732D01*
X987540Y155898D02*
X991005D01*
X989272Y154165D02*
Y157630D01*
X1017068Y155898D02*
X1020532D01*
X1018800Y154165D02*
Y157630D01*
X541612Y156300D02*
X545077D01*
X543344Y154568D02*
Y158032D01*
X512085Y156300D02*
X515549D01*
X513817Y154568D02*
Y158032D01*
X541612Y87402D02*
X545077D01*
X543344Y85670D02*
Y89135D01*
X526848Y156300D02*
X530313D01*
X528581Y154568D02*
Y158032D01*
X512085Y73623D02*
X515549D01*
X513817Y71890D02*
Y75355D01*
X875668Y155898D02*
X879132D01*
X877400Y154165D02*
Y157630D01*
X846140Y155898D02*
X849605D01*
X847872Y154165D02*
Y157630D01*
X875668Y87000D02*
X879132D01*
X877400Y85268D02*
Y88732D01*
X860904Y155898D02*
X864369D01*
X862636Y154165D02*
Y157630D01*
X846140Y73220D02*
X849605D01*
X847872Y71488D02*
Y74953D01*
X653640Y73623D02*
X657105D01*
X655372Y71890D02*
Y75355D01*
X668404Y156300D02*
X671869D01*
X670136Y154568D02*
Y158032D01*
X683168Y87402D02*
X686632D01*
X684900Y85670D02*
Y89135D01*
X653640Y156300D02*
X657105D01*
X655372Y154568D02*
Y158032D01*
X683168Y156300D02*
X686632D01*
X684900Y154568D02*
Y158032D01*
X187807Y73123D02*
X191271D01*
X189539Y71390D02*
Y74855D01*
X202571Y155800D02*
X206035D01*
X204303Y154068D02*
Y157532D01*
X217334Y86902D02*
X220799D01*
X219067Y85170D02*
Y88635D01*
X187807Y155800D02*
X191271D01*
X189539Y154068D02*
Y157532D01*
X217334Y155800D02*
X220799D01*
X219067Y154068D02*
Y157532D01*
X258640Y73123D02*
X262105D01*
X260372Y71390D02*
Y74855D01*
X273404Y155800D02*
X276869D01*
X275136Y154068D02*
Y157532D01*
X288168Y86902D02*
X291632D01*
X289900Y85170D02*
Y88635D01*
X258640Y155800D02*
X262105D01*
X260372Y154068D02*
Y157532D01*
X288168Y155800D02*
X291632D01*
X289900Y154068D02*
Y157532D01*
X490498Y159600D02*
X494435D01*
X492467Y157632D02*
Y161568D01*
X494398Y200500D02*
X498335D01*
X496367Y198531D02*
Y202468D01*
X419932Y159600D02*
X423869D01*
X421900Y157632D02*
Y161568D01*
X423832Y200500D02*
X427769D01*
X425800Y198531D02*
Y202468D01*
X560931Y159500D02*
X564868D01*
X562900Y157531D02*
Y161469D01*
X564831Y200400D02*
X568769D01*
X566800Y198432D02*
Y202368D01*
X828831Y200000D02*
X832769D01*
X830800Y198031D02*
Y201969D01*
X824932Y159100D02*
X828868D01*
X826900Y157132D02*
Y161068D01*
X95631Y159100D02*
X99568D01*
X97600Y157132D02*
Y161068D01*
X99532Y200000D02*
X103469D01*
X101500Y198031D02*
Y201969D01*
X631632Y159600D02*
X635569D01*
X633600Y157632D02*
Y161568D01*
X635532Y200500D02*
X639468D01*
X637500Y198531D02*
Y202468D01*
X25131Y159100D02*
X29068D01*
X27100Y157132D02*
Y161068D01*
X29032Y200000D02*
X32969D01*
X31000Y198031D02*
Y201969D01*
X166131Y159100D02*
X170069D01*
X168100Y157132D02*
Y161068D01*
X170031Y200000D02*
X173969D01*
X172000Y198031D02*
Y201969D01*
X236631Y159100D02*
X240568D01*
X238600Y157132D02*
Y161068D01*
X240531Y200000D02*
X244468D01*
X242500Y198031D02*
Y201969D01*
X966265Y159100D02*
X970202D01*
X968233Y157132D02*
Y161068D01*
X970165Y200000D02*
X974102D01*
X972133Y198031D02*
Y201969D01*
X899498Y200000D02*
X903435D01*
X901467Y198031D02*
Y201969D01*
X895598Y159100D02*
X899535D01*
X897567Y157132D02*
Y161068D01*
X1191750Y23500D02*
X1204250D01*
X1198000Y17250D02*
Y29750D01*
X25750Y376500D02*
X38250D01*
X32000Y370250D02*
Y382750D01*
X24750Y17000D02*
X37250D01*
X31000Y10750D02*
Y23250D01*
X1196250Y450000D02*
X1208750D01*
X1202500Y443750D02*
Y456250D01*
X104941Y47370D02*
X110059D01*
X107500Y44811D02*
Y49929D01*
X134744Y47370D02*
X140256D01*
X137500Y44614D02*
Y50126D01*
X194744Y47370D02*
X200256D01*
X197500Y44614D02*
Y50126D01*
X164744Y47370D02*
X170256D01*
X167500Y44614D02*
Y50126D01*
X352244Y46370D02*
X357756D01*
X355000Y43614D02*
Y49126D01*
X322244Y46370D02*
X327756D01*
X325000Y43614D02*
Y49126D01*
X910093Y183000D02*
X917574D01*
X913833Y179260D02*
Y186740D01*
X949463Y183000D02*
X956944D01*
X953203Y179260D02*
Y186740D01*
X1130847Y71500D02*
X1134783D01*
X1132815Y69532D02*
Y73469D01*
X1150531Y71500D02*
X1154469D01*
X1152500Y69532D02*
Y73469D01*
X1110374Y187248D02*
X1114311D01*
X1112342Y185280D02*
Y189216D01*
X1171004Y187248D02*
X1174941D01*
X1172972Y185280D02*
Y189216D01*
X946368Y155898D02*
X949832D01*
X948100Y154165D02*
Y157630D01*
X916840Y155898D02*
X920305D01*
X918572Y154165D02*
Y157630D01*
X946368Y87000D02*
X949832D01*
X948100Y85268D02*
Y88732D01*
X931604Y155898D02*
X935069D01*
X933336Y154165D02*
Y157630D01*
X916840Y73220D02*
X920305D01*
X918572Y71488D02*
Y74953D01*
X1173244Y249500D02*
X1178756D01*
X1176000Y246744D02*
Y252256D01*
X1173244Y279500D02*
X1178756D01*
X1176000Y276744D02*
Y282256D01*
X1173374Y378000D02*
X1178886D01*
X1176130Y375244D02*
Y380756D01*
X1173374Y408000D02*
X1178886D01*
X1176130Y405244D02*
Y410756D01*
X1173374Y348000D02*
X1178886D01*
X1176130Y345244D02*
Y350756D01*
X1173571Y318000D02*
X1178689D01*
X1176130Y315441D02*
Y320559D01*
X907244Y441366D02*
X911181D01*
X909213Y439398D02*
Y443335D01*
X907244Y335067D02*
X911181D01*
X909213Y333098D02*
Y337035D01*
X1108031Y405933D02*
X1111969D01*
X1110000Y403965D02*
Y407902D01*
X1108031Y370500D02*
X1111969D01*
X1110000Y368531D02*
Y372468D01*
X470834Y156300D02*
X474299D01*
X472567Y154568D02*
Y158032D01*
X441307Y156300D02*
X444771D01*
X443039Y154568D02*
Y158032D01*
X470834Y87402D02*
X474299D01*
X472567Y85670D02*
Y89135D01*
X456071Y156300D02*
X459535D01*
X457803Y154568D02*
Y158032D01*
X441307Y73623D02*
X444771D01*
X443039Y71890D02*
Y75355D01*
X1040831Y200000D02*
X1044769D01*
X1042800Y198031D02*
Y201969D01*
X1036932Y159100D02*
X1040868D01*
X1038900Y157132D02*
Y161068D01*
X716744Y44870D02*
X722256D01*
X719500Y42114D02*
Y47626D01*
X746744Y44870D02*
X752256D01*
X749500Y42114D02*
Y47626D01*
X559744Y47370D02*
X565256D01*
X562500Y44614D02*
Y50126D01*
X589744Y47370D02*
X595256D01*
X592500Y44614D02*
Y50126D01*
X529744Y47370D02*
X535256D01*
X532500Y44614D02*
Y50126D01*
X499941Y47370D02*
X505059D01*
X502500Y44811D02*
Y49929D01*
X287900Y344500D02*
X289100D01*
X288500Y343900D02*
Y345100D01*
X289900Y351000D02*
X291100D01*
X290500Y350400D02*
Y351600D01*
X292400Y354500D02*
X293600D01*
X293000Y353900D02*
Y355100D01*
X338900Y286500D02*
X340100D01*
X339500Y285900D02*
Y287100D01*
X336900Y282500D02*
X338100D01*
X337500Y281900D02*
Y283100D01*
X337400Y290500D02*
X338600D01*
X338000Y289900D02*
Y291100D01*
X265230Y232500D02*
X266730D01*
X265980Y231750D02*
Y233250D01*
X300250Y233000D02*
X301750D01*
X301000Y232250D02*
Y233750D01*
X87750Y233000D02*
X89250D01*
X88500Y232250D02*
Y233750D01*
X52750Y232500D02*
X54250D01*
X53500Y231750D02*
Y233250D01*
X158750Y233000D02*
X160250D01*
X159500Y232250D02*
Y233750D01*
X122750Y233000D02*
X124250D01*
X123500Y232250D02*
Y233750D01*
X228250Y232500D02*
X229750D01*
X229000Y231750D02*
Y233250D01*
X192250Y233240D02*
X193750D01*
X193000Y232490D02*
Y233990D01*
X694250Y321000D02*
X695750D01*
X695000Y320250D02*
Y321750D01*
X687250Y321000D02*
X688750D01*
X688000Y320250D02*
Y321750D01*
X680750Y321000D02*
X682250D01*
X681500Y320250D02*
Y321750D01*
X674750Y321000D02*
X676250D01*
X675500Y320250D02*
Y321750D01*
X655250Y321000D02*
X656750D01*
X656000Y320250D02*
Y321750D01*
X650750Y321000D02*
X652250D01*
X651500Y320250D02*
Y321750D01*
X646250Y321000D02*
X647750D01*
X647000Y320250D02*
Y321750D01*
X475500Y317500D02*
X477000D01*
X476250Y316750D02*
Y318250D01*
X481625Y317500D02*
X483125D01*
X482375Y316750D02*
Y318250D01*
X469375Y317500D02*
X470875D01*
X470125Y316750D02*
Y318250D01*
X487750Y317500D02*
X489250D01*
X488500Y316750D02*
Y318250D01*
X518750Y320500D02*
X520250D01*
X519500Y319750D02*
Y321250D01*
X512500Y320500D02*
X514000D01*
X513250Y319750D02*
Y321250D01*
X506250Y320500D02*
X507750D01*
X507000Y319750D02*
Y321250D01*
X839250Y347500D02*
X840750D01*
X840000Y346750D02*
Y348250D01*
X846250Y340000D02*
X847750D01*
X847000Y339250D02*
Y340750D01*
X846250Y345000D02*
X847750D01*
X847000Y344250D02*
Y345750D01*
X839250Y335000D02*
X840750D01*
X840000Y334250D02*
Y335750D01*
X839250Y341500D02*
X840750D01*
X840000Y340750D02*
Y342250D01*
X366250Y265000D02*
X367750D01*
X367000Y264250D02*
Y265750D01*
X34250Y304000D02*
X35750D01*
X35000Y303250D02*
Y304750D01*
X34750Y326000D02*
X36250D01*
X35500Y325250D02*
Y326750D01*
X54750Y330000D02*
X56250D01*
X55500Y329250D02*
Y330750D01*
X37750Y342000D02*
X39250D01*
X38500Y341250D02*
Y342750D01*
X121750Y320500D02*
X123250D01*
X122500Y319750D02*
Y321250D01*
X129750Y323500D02*
X131250D01*
X130500Y322750D02*
Y324250D01*
X113750Y316500D02*
X115250D01*
X114500Y315750D02*
Y317250D01*
X105250Y316000D02*
X106750D01*
X106000Y315250D02*
Y316750D01*
X97250Y316500D02*
X98750D01*
X98000Y315750D02*
Y317250D01*
X88750Y317000D02*
X90250D01*
X89500Y316250D02*
Y317750D01*
X113250Y323000D02*
X114750D01*
X114000Y322250D02*
Y323750D01*
X105250Y323500D02*
X106750D01*
X106000Y322750D02*
Y324250D01*
X98250Y323500D02*
X99750D01*
X99000Y322750D02*
Y324250D01*
X209250Y309000D02*
X210750D01*
X210000Y308250D02*
Y309750D01*
X203750Y309500D02*
X205250D01*
X204500Y308750D02*
Y310250D01*
X215750Y316500D02*
X217250D01*
X216500Y315750D02*
Y317250D01*
X208750Y316000D02*
X210250D01*
X209500Y315250D02*
Y316750D01*
X177750Y310500D02*
X179250D01*
X178500Y309750D02*
Y311250D01*
X172250Y311000D02*
X173750D01*
X173000Y310250D02*
Y311750D01*
X166750Y311000D02*
X168250D01*
X167500Y310250D02*
Y311750D01*
X161250Y311000D02*
X162750D01*
X162000Y310250D02*
Y311750D01*
X182750Y318000D02*
X184250D01*
X183500Y317250D02*
Y318750D01*
X176250Y318500D02*
X177750D01*
X177000Y317750D02*
Y319250D01*
X170750Y318500D02*
X172250D01*
X171500Y317750D02*
Y319250D01*
X164750Y318500D02*
X166250D01*
X165500Y317750D02*
Y319250D01*
X625250Y320500D02*
X626750D01*
X626000Y319750D02*
Y321250D01*
X620250Y320500D02*
X621750D01*
X621000Y319750D02*
Y321250D01*
X614250Y320500D02*
X615750D01*
X615000Y319750D02*
Y321250D01*
X609250Y320500D02*
X610750D01*
X610000Y319750D02*
Y321250D01*
X593250Y321000D02*
X594750D01*
X594000Y320250D02*
Y321750D01*
X588750Y321000D02*
X590250D01*
X589500Y320250D02*
Y321750D01*
X583250Y321000D02*
X584750D01*
X584000Y320250D02*
Y321750D01*
X577750Y321000D02*
X579250D01*
X578500Y320250D02*
Y321750D01*
X560750Y321000D02*
X562250D01*
X561500Y320250D02*
Y321750D01*
X551250Y321000D02*
X552750D01*
X552000Y320250D02*
Y321750D01*
X541750Y321000D02*
X543250D01*
X542500Y320250D02*
Y321750D01*
X532250Y321000D02*
X533750D01*
X533000Y320250D02*
Y321750D01*
X463250Y317500D02*
X464750D01*
X464000Y316750D02*
Y318250D01*
X765250Y331000D02*
X766750D01*
X766000Y330250D02*
Y331750D01*
X754750Y331500D02*
X756250D01*
X755500Y330750D02*
Y332250D01*
X758750Y336000D02*
X760250D01*
X759500Y335250D02*
Y336750D01*
X736250Y315500D02*
X737750D01*
X737000Y314750D02*
Y316250D01*
X739250Y318500D02*
X740750D01*
X740000Y317750D02*
Y319250D01*
X742250Y321000D02*
X743750D01*
X743000Y320250D02*
Y321750D01*
X812750Y325500D02*
X814250D01*
X813500Y324750D02*
Y326250D01*
X805750Y325500D02*
X807250D01*
X806500Y324750D02*
Y326250D01*
X788750Y345500D02*
X790250D01*
X789500Y344750D02*
Y346250D01*
X788750Y352500D02*
X790250D01*
X789500Y351750D02*
Y353250D01*
X822250Y347500D02*
X823750D01*
X823000Y346750D02*
Y348250D01*
X822250Y354000D02*
X823750D01*
X823000Y353250D02*
Y354750D01*
X811250Y339500D02*
X812750D01*
X812000Y338750D02*
Y340250D01*
X803750Y339500D02*
X805250D01*
X804500Y338750D02*
Y340250D01*
X796250Y339500D02*
X797750D01*
X797000Y338750D02*
Y340250D01*
X788750Y339500D02*
X790250D01*
X789500Y338750D02*
Y340250D01*
X144750Y355000D02*
X146250D01*
X145500Y354250D02*
Y355750D01*
X131750Y355500D02*
X133250D01*
X132500Y354750D02*
Y356250D01*
X116750Y355500D02*
X118250D01*
X117500Y354750D02*
Y356250D01*
X106250Y355500D02*
X107750D01*
X107000Y354750D02*
Y356250D01*
X143750Y370000D02*
X145250D01*
X144500Y369250D02*
Y370750D01*
X129250Y370000D02*
X130750D01*
X130000Y369250D02*
Y370750D01*
X116750Y370500D02*
X118250D01*
X117500Y369750D02*
Y371250D01*
X106250Y370500D02*
X107750D01*
X107000Y369750D02*
Y371250D01*
X288250Y305500D02*
X289750D01*
X289000Y304750D02*
Y306250D01*
X735750Y377500D02*
X737250D01*
X736500Y376750D02*
Y378250D01*
X732750Y377500D02*
X734250D01*
X733500Y376750D02*
Y378250D01*
X729250Y377500D02*
X730750D01*
X730000Y376750D02*
Y378250D01*
X334500Y381000D02*
X335500D01*
X335000Y380500D02*
Y381500D01*
X707250Y316000D02*
X708750D01*
X708000Y315250D02*
Y316750D01*
X637250Y316000D02*
X638750D01*
X638000Y315250D02*
Y316750D01*
X566250Y316000D02*
X567750D01*
X567000Y315250D02*
Y316750D01*
X497250Y316000D02*
X498750D01*
X498000Y315250D02*
Y316750D01*
X276750Y300000D02*
X278250D01*
X277500Y299250D02*
Y300750D01*
X311500Y300250D02*
X313000D01*
X312250Y299500D02*
Y301000D01*
X239000Y300250D02*
X240500D01*
X239750Y299500D02*
Y301000D01*
X169500Y300250D02*
X171000D01*
X170250Y299500D02*
Y301000D01*
X98500Y300250D02*
X100000D01*
X99250Y299500D02*
Y301000D01*
X800500Y325000D02*
X801500D01*
X801000Y324500D02*
Y325500D01*
X332276Y356453D02*
X333276D01*
X332776Y355953D02*
Y356953D01*
X428500Y304500D02*
X429500D01*
X429000Y304000D02*
Y305000D01*
X438000Y311000D02*
X439000D01*
X438500Y310500D02*
Y311500D01*
X303000Y319000D02*
X304000D01*
X303500Y318500D02*
Y319500D01*
X868000Y371000D02*
X869000D01*
X868500Y370500D02*
Y371500D01*
X858500Y371000D02*
X859500D01*
X859000Y370500D02*
Y371500D01*
X868000Y366500D02*
X869000D01*
X868500Y366000D02*
Y367000D01*
X863250Y371000D02*
X864250D01*
X863750Y370500D02*
Y371500D01*
X858500Y366500D02*
X859500D01*
X859000Y366000D02*
Y367000D01*
X863250Y366500D02*
X864250D01*
X863750Y366000D02*
Y367000D01*
X857500Y301000D02*
X858500D01*
X858000Y300500D02*
Y301500D01*
X871500Y294000D02*
X872500D01*
X872000Y293500D02*
Y294500D01*
X849000Y295500D02*
X850000D01*
X849500Y295000D02*
Y296000D01*
X785500Y316500D02*
X786500D01*
X786000Y316000D02*
Y317000D01*
X345500Y377000D02*
X346500D01*
X346000Y376500D02*
Y377500D01*
X413000Y319000D02*
X414000D01*
X413500Y318500D02*
Y319500D01*
X397404Y324000D02*
X398404D01*
X397904Y323500D02*
Y324500D01*
X387500Y329000D02*
X388500D01*
X388000Y328500D02*
Y329500D01*
X375500Y334500D02*
X376500D01*
X376000Y334000D02*
Y335000D01*
X345500Y350000D02*
X346500D01*
X346000Y349500D02*
Y350500D01*
X338000Y307500D02*
X339000D01*
X338500Y307000D02*
Y308000D01*
X336000Y339500D02*
X337000D01*
X336500Y339000D02*
Y340000D01*
X343500Y311000D02*
X344500D01*
X344000Y310500D02*
Y311500D01*
X328000Y351500D02*
X329000D01*
X328500Y351000D02*
Y352000D01*
X332000Y346500D02*
X333000D01*
X332500Y346000D02*
Y347000D01*
X349000Y324000D02*
X350000D01*
X349500Y323500D02*
Y324500D01*
X348500Y314000D02*
X349500D01*
X349000Y313500D02*
Y314500D01*
Y334000D02*
X350000D01*
X349500Y333500D02*
Y334500D01*
X366500Y307500D02*
X367500D01*
X367000Y307000D02*
Y308000D01*
X380630Y314000D02*
X381630D01*
X381130Y313500D02*
Y314500D01*
X372500Y311000D02*
X373500D01*
X373000Y310500D02*
Y311500D01*
X392000Y324000D02*
X393000D01*
X392500Y323500D02*
Y324500D01*
X394500Y295000D02*
X395500D01*
X395000Y294500D02*
Y295500D01*
X397500Y291500D02*
X398500D01*
X398000Y291000D02*
Y292000D01*
X391000Y292500D02*
X392000D01*
X391500Y292000D02*
Y293000D01*
X266126Y318500D02*
X267126D01*
X266626Y318000D02*
Y319000D01*
X266126Y324000D02*
X267126D01*
X266626Y323500D02*
Y324500D01*
Y329000D02*
X267626D01*
X267126Y328500D02*
Y329500D01*
X807000Y264000D02*
X808000D01*
X807500Y263500D02*
Y264500D01*
X803500Y264000D02*
X804500D01*
X804000Y263500D02*
Y264500D01*
X801000Y264000D02*
X802000D01*
X801500Y263500D02*
Y264500D01*
X345500Y281500D02*
X346500D01*
X346000Y281000D02*
Y282000D01*
X381500Y283500D02*
X382500D01*
X382000Y283000D02*
Y284000D01*
X376500Y283500D02*
X377500D01*
X377000Y283000D02*
Y284000D01*
X371500Y283500D02*
X372500D01*
X372000Y283000D02*
Y284000D01*
X366500Y283500D02*
X367500D01*
X367000Y283000D02*
Y284000D01*
X361641Y283765D02*
X362641D01*
X362141Y283265D02*
Y284265D01*
X356500Y283500D02*
X357500D01*
X357000Y283000D02*
Y284000D01*
X351500Y283500D02*
X352500D01*
X352000Y283000D02*
Y284000D01*
X433500Y307500D02*
X434500D01*
X434000Y307000D02*
Y308000D01*
X757000Y305000D02*
X758000D01*
X757500Y304500D02*
Y305500D01*
X441500Y301500D02*
X442500D01*
X442000Y301000D02*
Y302000D01*
X445500Y298500D02*
X446500D01*
X446000Y298000D02*
Y299000D01*
X767000Y311000D02*
X768000D01*
X767500Y310500D02*
Y311500D01*
X772000Y308000D02*
X773000D01*
X772500Y307500D02*
Y308500D01*
X810500Y312500D02*
X811500D01*
X811000Y312000D02*
Y313000D01*
X825500Y312500D02*
X826500D01*
X826000Y312000D02*
Y313000D01*
X815500Y312500D02*
X816500D01*
X816000Y312000D02*
Y313000D01*
X777000Y302500D02*
X778000D01*
X777500Y302000D02*
Y303000D01*
X772000Y301500D02*
X773000D01*
X772500Y301000D02*
Y302000D01*
X943500Y295000D02*
X944500D01*
X944000Y294500D02*
Y295500D01*
X928500Y297500D02*
X929500D01*
X929000Y297000D02*
Y298000D01*
X1089000Y298500D02*
X1090000D01*
X1089500Y298000D02*
Y299000D01*
X1067813Y297822D02*
X1068812D01*
X1068312Y297322D02*
Y298322D01*
X1018458Y297458D02*
X1019458D01*
X1018958Y296958D02*
Y297958D01*
X996894Y298211D02*
X997894D01*
X997394Y297711D02*
Y298711D01*
X793000Y121000D02*
X794000D01*
X793500Y120500D02*
Y121500D01*
X790500Y121000D02*
X791500D01*
X791000Y120500D02*
Y121500D01*
X788000Y121000D02*
X789000D01*
X788500Y120500D02*
Y121500D01*
X744500Y203000D02*
X745500D01*
X745000Y202500D02*
Y203500D01*
X744500Y205500D02*
X745500D01*
X745000Y205000D02*
Y206000D01*
X351500Y203500D02*
X352500D01*
X352000Y203000D02*
Y204000D01*
X351500Y205500D02*
X352500D01*
X352000Y205000D02*
Y206000D01*
X62250Y122500D02*
X63750D01*
X63000Y121750D02*
Y123250D01*
X132750Y123000D02*
X134250D01*
X133500Y122250D02*
Y123750D01*
X203750Y123000D02*
X205250D01*
X204500Y122250D02*
Y123750D01*
X274250Y122500D02*
X275750D01*
X275000Y121750D02*
Y123250D01*
X598608Y121858D02*
X600108D01*
X599358Y121108D02*
Y122608D01*
X527831Y121419D02*
X529331D01*
X528581Y120669D02*
Y122169D01*
X457053Y121303D02*
X458553D01*
X457803Y120553D02*
Y122053D01*
X669386Y121136D02*
X670886D01*
X670136Y120386D02*
Y121886D01*
X861886Y121136D02*
X863386D01*
X862636Y120386D02*
Y121886D01*
X1003250Y122000D02*
X1004750D01*
X1004000Y121250D02*
Y122750D01*
X932586Y121500D02*
X934086D01*
X933336Y120750D02*
Y122250D01*
X1074250Y121500D02*
X1075750D01*
X1075000Y120750D02*
Y122250D01*
X449520Y232880D02*
X450720D01*
X450120Y232280D02*
Y233480D01*
X484641Y232259D02*
X485841D01*
X485241Y231660D02*
Y232859D01*
X519220Y232180D02*
X520420D01*
X519820Y231580D02*
Y232780D01*
X555641Y232241D02*
X556841D01*
X556241Y231641D02*
Y232840D01*
X588900Y232500D02*
X590100D01*
X589500Y231900D02*
Y233100D01*
X626140Y232241D02*
X627341D01*
X626741Y231641D02*
Y232840D01*
X659900Y232000D02*
X661100D01*
X660500Y231400D02*
Y232600D01*
X695770Y232130D02*
X696970D01*
X696370Y231530D02*
Y232730D01*
X853380Y232020D02*
X854580D01*
X853980Y231420D02*
Y232620D01*
X995400Y232500D02*
X996600D01*
X996000Y231900D02*
Y233100D01*
X924400Y232500D02*
X925600D01*
X925000Y231900D02*
Y233100D01*
X889141Y232259D02*
X890341D01*
X889740Y231660D02*
Y232859D01*
X1031474Y232074D02*
X1032674D01*
X1032074Y231474D02*
Y232674D01*
X960307Y232593D02*
X961507D01*
X960907Y231993D02*
Y233193D01*
X1066640Y232500D02*
X1067840D01*
X1067240Y231900D02*
Y233100D01*
X1102641Y232500D02*
X1103841D01*
X1103240Y231900D02*
Y233100D01*
M02*
