G04*
G04 #@! TF.GenerationSoftware,Altium Limited,Altium Designer,21.2.2 (38)*
G04*
G04 Layer_Color=16711935*
%FSLAX25Y25*%
%MOIN*%
G70*
G04*
G04 #@! TF.SameCoordinates,81ACE11A-F192-4872-AF07-8F7EDE3227A8*
G04*
G04*
G04 #@! TF.FilePolarity,Positive*
G04*
G01*
G75*
%ADD14C,0.01000*%
%ADD18C,0.00591*%
%ADD115C,0.00394*%
D14*
X867814Y280914D02*
G03*
X867814Y280914I-1414J0D01*
G01*
X137314D02*
G03*
X137314Y280914I-1414J0D01*
G01*
X66814D02*
G03*
X66814Y280914I-1414J0D01*
G01*
X147014Y262086D02*
G03*
X147014Y262086I-1414J0D01*
G01*
X683014Y262586D02*
G03*
X683014Y262586I-1414J0D01*
G01*
X473514D02*
G03*
X473514Y262586I-1414J0D01*
G01*
X533481Y281414D02*
G03*
X533481Y281414I-1414J0D01*
G01*
X279314Y280914D02*
G03*
X279314Y280914I-1414J0D01*
G01*
X206814D02*
G03*
X206814Y280914I-1414J0D01*
G01*
X1090014Y262086D02*
G03*
X1090014Y262086I-1414J0D01*
G01*
X948681D02*
G03*
X948681Y262086I-1414J0D01*
G01*
X878014D02*
G03*
X878014Y262086I-1414J0D01*
G01*
X463314Y281414D02*
G03*
X463314Y281414I-1414J0D01*
G01*
X289014Y262086D02*
G03*
X289014Y262086I-1414J0D01*
G01*
X673814Y281414D02*
G03*
X673814Y281414I-1414J0D01*
G01*
X216514Y262086D02*
G03*
X216514Y262086I-1414J0D01*
G01*
X543348Y262586D02*
G03*
X543348Y262586I-1414J0D01*
G01*
X1080814Y280914D02*
G03*
X1080814Y280914I-1414J0D01*
G01*
X603648Y281414D02*
G03*
X603648Y281414I-1414J0D01*
G01*
X1009814Y280914D02*
G03*
X1009814Y280914I-1414J0D01*
G01*
X76514Y262086D02*
G03*
X76514Y262086I-1414J0D01*
G01*
X613181Y262586D02*
G03*
X613181Y262586I-1414J0D01*
G01*
X938814Y280914D02*
G03*
X938814Y280914I-1414J0D01*
G01*
X1019347Y262086D02*
G03*
X1019347Y262086I-1414J0D01*
G01*
D18*
X778414Y270000D02*
G03*
X778414Y270000I-1414J0D01*
G01*
X421414Y268500D02*
G03*
X421414Y268500I-1414J0D01*
G01*
X821914Y269819D02*
G03*
X821914Y269819I-1414J0D01*
G01*
X311264Y313000D02*
G03*
X311264Y313000I-2236J0D01*
G01*
X749414Y304000D02*
G03*
X749414Y304000I-1414J0D01*
G01*
X396736Y352000D02*
G03*
X396736Y352000I-2236J0D01*
G01*
X353914Y283327D02*
G03*
X353914Y283327I-1414J0D01*
G01*
X377914Y268500D02*
G03*
X377914Y268500I-1414J0D01*
G01*
X792914Y304000D02*
G03*
X792914Y304000I-1414J0D01*
G01*
X851500Y258705D02*
Y284295D01*
Y258705D02*
X869500D01*
Y284295D01*
X851500D02*
X869500D01*
X121000D02*
X139000D01*
Y258705D02*
Y284295D01*
X121000Y258705D02*
X139000D01*
X121000D02*
Y284295D01*
X50500D02*
X68500D01*
Y258705D02*
Y284295D01*
X50500Y258705D02*
X68500D01*
X50500D02*
Y284295D01*
X142500Y258705D02*
X160500D01*
X142500D02*
Y284295D01*
X160500D01*
Y258705D02*
Y284295D01*
X678500Y259205D02*
X696500D01*
X678500D02*
Y284795D01*
X696500D01*
Y259205D02*
Y284795D01*
X469000Y259205D02*
X487000D01*
X469000D02*
Y284795D01*
X487000D01*
Y259205D02*
Y284795D01*
X517167D02*
X535167D01*
Y259205D02*
Y284795D01*
X517167Y259205D02*
X535167D01*
X517167D02*
Y284795D01*
X263000Y284295D02*
X281000D01*
Y258705D02*
Y284295D01*
X263000Y258705D02*
X281000D01*
X263000D02*
Y284295D01*
X190500D02*
X208500D01*
Y258705D02*
Y284295D01*
X190500Y258705D02*
X208500D01*
X190500D02*
Y284295D01*
X1103500Y258705D02*
Y284295D01*
X1085500D02*
X1103500D01*
X1085500Y258705D02*
Y284295D01*
Y258705D02*
X1103500D01*
X962167D02*
Y284295D01*
X944167D02*
X962167D01*
X944167Y258705D02*
Y284295D01*
Y258705D02*
X962167D01*
X891500D02*
Y284295D01*
X873500D02*
X891500D01*
X873500Y258705D02*
Y284295D01*
Y258705D02*
X891500D01*
X447000Y284795D02*
X465000D01*
Y259205D02*
Y284795D01*
X447000Y259205D02*
X465000D01*
X447000D02*
Y284795D01*
X284500Y258705D02*
X302500D01*
X284500D02*
Y284295D01*
X302500D01*
Y258705D02*
Y284295D01*
X657500Y284795D02*
X675500D01*
Y259205D02*
Y284795D01*
X657500Y259205D02*
X675500D01*
X657500D02*
Y284795D01*
X212000Y258705D02*
X230000D01*
X212000D02*
Y284295D01*
X230000D01*
Y258705D02*
Y284295D01*
X538833Y259205D02*
X556833D01*
X538833D02*
Y284795D01*
X556833D01*
Y259205D02*
Y284795D01*
X1064500Y258705D02*
Y284295D01*
Y258705D02*
X1082500D01*
Y284295D01*
X1064500D02*
X1082500D01*
X587333Y284795D02*
X605333D01*
Y259205D02*
Y284795D01*
X587333Y259205D02*
X605333D01*
X587333D02*
Y284795D01*
X993500Y258705D02*
Y284295D01*
Y258705D02*
X1011500D01*
Y284295D01*
X993500D02*
X1011500D01*
X72000Y258705D02*
X90000D01*
X72000D02*
Y284295D01*
X90000D01*
Y258705D02*
Y284295D01*
X608667Y259205D02*
X626667D01*
X608667D02*
Y284795D01*
X626667D01*
Y259205D02*
Y284795D01*
X922500Y258705D02*
Y284295D01*
Y258705D02*
X940500D01*
Y284295D01*
X922500D02*
X940500D01*
X1032833Y258705D02*
Y284295D01*
X1014833D02*
X1032833D01*
X1014833Y258705D02*
Y284295D01*
Y258705D02*
X1032833D01*
X780000Y258913D02*
Y273087D01*
X740000Y258913D02*
X780000D01*
X740000D02*
Y273087D01*
X780000D01*
X423000Y257413D02*
Y271587D01*
X383000Y257413D02*
X423000D01*
X383000D02*
Y271587D01*
X423000D01*
X783500Y272905D02*
X823500D01*
X783500Y258732D02*
Y272905D01*
Y258732D02*
X823500D01*
Y272905D01*
X313185Y308685D02*
Y369315D01*
X282870D02*
X313185D01*
X282870Y308685D02*
Y369315D01*
Y308685D02*
X313185D01*
X745000Y300913D02*
Y315087D01*
X785000D01*
Y300913D02*
Y315087D01*
X745000Y300913D02*
X785000D01*
X398815Y347843D02*
Y378157D01*
X338185D02*
X398815D01*
X338185Y347843D02*
Y378157D01*
Y347843D02*
X398815D01*
X349500Y286413D02*
X389500D01*
Y272240D02*
Y286413D01*
X349500Y272240D02*
X389500D01*
X349500D02*
Y286413D01*
X339500Y271587D02*
X379500D01*
X339500Y257413D02*
Y271587D01*
Y257413D02*
X379500D01*
Y271587D01*
X788500Y300913D02*
X828500D01*
Y315087D01*
X788500D02*
X828500D01*
X788500Y300913D02*
Y315087D01*
D115*
X872799Y372539D02*
G03*
X872799Y372539I-1969J0D01*
G01*
X771984Y353516D02*
G03*
X771984Y353516I-984J0D01*
G01*
X853988Y375626D02*
X873673D01*
X853988Y361453D02*
X873673D01*
Y375626D01*
X853988Y361453D02*
Y375626D01*
X879520Y356476D02*
Y378524D01*
X894480Y356476D02*
Y378524D01*
X879520D02*
X894480D01*
X760110Y376295D02*
X773890D01*
X760110Y350705D02*
X773890D01*
X760110D02*
Y376295D01*
X773890Y350705D02*
Y376295D01*
M02*
