G04*
G04 #@! TF.GenerationSoftware,Altium Limited,Altium Designer,21.2.2 (38)*
G04*
G04 Layer_Physical_Order=1*
G04 Layer_Color=255*
%FSLAX25Y25*%
%MOIN*%
G70*
G04*
G04 #@! TF.SameCoordinates,81ACE11A-F192-4872-AF07-8F7EDE3227A8*
G04*
G04*
G04 #@! TF.FilePolarity,Positive*
G04*
G01*
G75*
%ADD14C,0.01000*%
%ADD16C,0.01200*%
%ADD19C,0.02000*%
%ADD21R,0.03500X0.05000*%
G04:AMPARAMS|DCode=22|XSize=50mil|YSize=35mil|CornerRadius=0mil|HoleSize=0mil|Usage=FLASHONLY|Rotation=270.000|XOffset=0mil|YOffset=0mil|HoleType=Round|Shape=Octagon|*
%AMOCTAGOND22*
4,1,8,-0.00875,-0.02500,0.00875,-0.02500,0.01750,-0.01625,0.01750,0.01625,0.00875,0.02500,-0.00875,0.02500,-0.01750,0.01625,-0.01750,-0.01625,-0.00875,-0.02500,0.0*
%
%ADD22OCTAGOND22*%

%ADD23R,0.03150X0.04000*%
%ADD24R,0.08661X0.08661*%
%ADD25O,0.02165X0.07087*%
%ADD26R,0.02165X0.07087*%
%ADD27R,0.05000X0.03500*%
%ADD28R,0.05000X0.05000*%
%ADD29R,0.08661X0.09843*%
%ADD30R,0.13780X0.11811*%
%ADD31R,0.06693X0.12205*%
%ADD32R,0.06693X0.02953*%
%ADD33O,0.02400X0.08000*%
%ADD34O,0.04724X0.07874*%
%ADD35R,0.04724X0.07874*%
%ADD36O,0.02362X0.08268*%
%ADD37R,0.09449X0.02362*%
%ADD38O,0.09449X0.02362*%
%ADD74C,0.06299*%
%ADD75R,0.13386X0.09843*%
%ADD76C,0.03500*%
%ADD77C,0.02200*%
%ADD78C,0.01500*%
%ADD79C,0.03000*%
%ADD80R,0.09500X0.15000*%
%ADD81R,0.10000X0.03000*%
%ADD82R,0.07000X0.02000*%
%ADD83R,0.11500X0.02500*%
%ADD84R,0.09500X0.04500*%
%ADD85R,0.08500X0.04000*%
%ADD86R,0.05906X0.05906*%
%ADD87C,0.05906*%
%ADD88C,0.20000*%
%ADD89C,0.06693*%
%ADD90C,0.05512*%
%ADD91R,0.06299X0.06299*%
%ADD92R,0.11811X0.11811*%
%ADD93C,0.11811*%
%ADD94C,0.07087*%
%ADD95R,0.11811X0.11811*%
%ADD96C,0.07874*%
%ADD97C,0.02500*%
%ADD98C,0.03000*%
%ADD99C,0.02000*%
%ADD100C,0.02400*%
G36*
X819106Y325215D02*
Y322657D01*
X818746Y321787D01*
X818254D01*
X817594Y323381D01*
X816000Y324042D01*
X814406Y323381D01*
X813746Y321787D01*
X813254D01*
X812594Y323381D01*
X811000Y324042D01*
X809406Y323381D01*
X808746Y321787D01*
Y316866D01*
X809376Y315343D01*
Y313705D01*
X809000Y313328D01*
Y311672D01*
X810172Y310500D01*
X811828D01*
X813000Y311672D01*
Y313328D01*
X812624Y313705D01*
Y315343D01*
X813254Y316866D01*
X813746D01*
X814376Y315343D01*
Y313705D01*
X814000Y313328D01*
Y311672D01*
X815172Y310500D01*
X815702D01*
X816000Y310376D01*
X816298Y310500D01*
X816828D01*
X818000Y311672D01*
Y313328D01*
X817624Y313705D01*
Y315343D01*
X818254Y316866D01*
X818746D01*
X819106Y315997D01*
Y310500D01*
X819661Y309161D01*
X822661Y306161D01*
X824000Y305606D01*
X905094D01*
X908010Y302689D01*
X904161Y298840D01*
X903606Y297500D01*
Y293990D01*
X902000D01*
Y293134D01*
X900500D01*
Y293990D01*
X893500D01*
Y288491D01*
X900500D01*
Y289346D01*
X902000D01*
Y288490D01*
X909000D01*
Y293990D01*
X907395D01*
Y296716D01*
X910663Y299985D01*
X928134D01*
X928156Y299484D01*
X927000Y298328D01*
Y296832D01*
X926745Y296412D01*
X926500Y296514D01*
X923927Y295448D01*
X922861Y292875D01*
Y289725D01*
X923927Y287152D01*
X926500Y286086D01*
X929073Y287152D01*
X930139Y289725D01*
Y292875D01*
X929432Y294581D01*
X930237Y295909D01*
X931000Y296672D01*
Y298328D01*
X929844Y299484D01*
X929866Y299985D01*
X962337D01*
X965606Y296716D01*
Y294990D01*
X964000D01*
Y289491D01*
X971000D01*
Y290346D01*
X972500D01*
Y289490D01*
X979500D01*
Y290346D01*
X984500D01*
Y289490D01*
X991500D01*
Y294990D01*
X989894D01*
Y296716D01*
X993785Y300606D01*
X996311D01*
X996461Y300106D01*
X995395Y299040D01*
Y297383D01*
X995824Y296954D01*
Y295820D01*
X994927Y295448D01*
X993861Y292875D01*
Y289725D01*
X994927Y287152D01*
X995599Y286874D01*
X995501Y286383D01*
X991500D01*
Y287509D01*
X984500D01*
Y283264D01*
X979500D01*
Y287509D01*
X972500D01*
Y283264D01*
X971000D01*
Y287510D01*
X964000D01*
Y286384D01*
X953804D01*
X951412Y288775D01*
X951806Y289725D01*
Y292875D01*
X950740Y295448D01*
X948167Y296514D01*
X946196Y295698D01*
X946000Y295828D01*
X944828Y297000D01*
X943172D01*
X942000Y295828D01*
Y294172D01*
X943172Y293000D01*
X943474D01*
X944035Y292439D01*
X944527Y292235D01*
Y289725D01*
X945593Y287152D01*
X948167Y286086D01*
X949116Y286479D01*
X951832Y283764D01*
X951624Y283264D01*
X940032D01*
X938124Y285173D01*
Y286363D01*
X939862D01*
Y296237D01*
X933138D01*
Y286363D01*
X934876D01*
Y284500D01*
X935181Y283764D01*
X934847Y283264D01*
X909000D01*
Y286509D01*
X902000D01*
Y283264D01*
X900500D01*
Y286510D01*
X893500D01*
Y285384D01*
X879412D01*
X879124Y285672D01*
Y286758D01*
X880073Y287152D01*
X881139Y289725D01*
Y292875D01*
X880073Y295448D01*
X877500Y296514D01*
X874927Y295448D01*
X874314Y295276D01*
X873518Y295606D01*
X873223D01*
X872828Y296000D01*
X871172D01*
X870000Y294828D01*
Y293172D01*
X871172Y292000D01*
X872828D01*
X873016Y292188D01*
X873184Y292020D01*
X873861Y291740D01*
Y289725D01*
X874927Y287152D01*
X875876Y286758D01*
Y285000D01*
X876352Y283852D01*
X876478Y283726D01*
X876286Y283264D01*
X867532D01*
X867124Y283672D01*
Y286363D01*
X868862D01*
Y296237D01*
X862138D01*
Y286363D01*
X863876D01*
Y283264D01*
X836206D01*
Y289879D01*
X844621Y298294D01*
X858000D01*
X858298Y298418D01*
X866500D01*
X867265Y298735D01*
X867582Y299500D01*
Y302500D01*
X867265Y303265D01*
X866500Y303582D01*
X858298D01*
X858000Y303706D01*
X843500D01*
X843500Y303706D01*
X841587Y302913D01*
X841587Y302913D01*
X831587Y292913D01*
X830794Y291000D01*
Y283264D01*
X822624D01*
Y292690D01*
X823254Y294213D01*
Y299134D01*
X822594Y300728D01*
X821000Y301388D01*
X819406Y300728D01*
X818746Y299134D01*
X818254D01*
X817594Y300728D01*
X816000Y301388D01*
X814406Y300728D01*
X813746Y299134D01*
X813254D01*
X812594Y300728D01*
X811000Y301388D01*
X809406Y300728D01*
X808746Y299134D01*
X808254D01*
X807594Y300728D01*
X806000Y301388D01*
X804406Y300728D01*
X803746Y299134D01*
X803254D01*
X802594Y300728D01*
X801000Y301388D01*
X799406Y300728D01*
X798746Y299134D01*
X798254D01*
X797594Y300728D01*
X796000Y301388D01*
X794406Y300728D01*
X793746Y299134D01*
X793254D01*
X792594Y300728D01*
X791000Y301388D01*
X789406Y300728D01*
X789124Y300046D01*
X788624Y300146D01*
Y302828D01*
X797148Y311352D01*
X797624Y312500D01*
Y315343D01*
X798254Y316866D01*
X798746D01*
X799406Y315272D01*
X801000Y314612D01*
X802594Y315272D01*
X803254Y316866D01*
Y321787D01*
X802624Y323310D01*
Y323795D01*
X803000Y324172D01*
Y325828D01*
X802223Y326606D01*
X802430Y327106D01*
X817215D01*
X819106Y325215D01*
D02*
G37*
G36*
X888000Y316000D02*
X887000Y315000D01*
X843500D01*
X842000Y316500D01*
X841000D01*
Y320000D01*
X841500Y320500D01*
X869000D01*
X873500Y325000D01*
Y326000D01*
X874500Y327000D01*
X888000D01*
Y316000D01*
D02*
G37*
G36*
X953438Y461242D02*
X956251Y458429D01*
X957773Y454753D01*
Y452764D01*
Y343264D01*
X957965Y341313D01*
X959459Y337708D01*
X962218Y334949D01*
X965822Y333456D01*
X967773Y333264D01*
X1083762D01*
X1087438Y331742D01*
X1090251Y328929D01*
X1091773Y325253D01*
Y323264D01*
Y307764D01*
X1091946Y306008D01*
X1093290Y302764D01*
X1095773Y300281D01*
X1099018Y298937D01*
X1100773Y298764D01*
X1101867D01*
X1103889Y297927D01*
X1105436Y296380D01*
X1106273Y294358D01*
Y293264D01*
Y286068D01*
X1105740Y284782D01*
X1104756Y283797D01*
X1103469Y283264D01*
X1091124D01*
Y286758D01*
X1092073Y287152D01*
X1093139Y289725D01*
Y292875D01*
X1092073Y295448D01*
X1091232Y295797D01*
Y297403D01*
X1091500Y297672D01*
Y299328D01*
X1090328Y300500D01*
X1088672D01*
X1087500Y299328D01*
Y297672D01*
X1087768Y297403D01*
Y295797D01*
X1086927Y295448D01*
X1085861Y292875D01*
Y289725D01*
X1086927Y287152D01*
X1087876Y286758D01*
Y283264D01*
X1078714D01*
X1078522Y283726D01*
X1079648Y284852D01*
X1080124Y286000D01*
Y286363D01*
X1081862D01*
Y296237D01*
X1075138D01*
Y286363D01*
X1075138D01*
X1075089Y285883D01*
X1069317D01*
X1069217Y286383D01*
X1071073Y287152D01*
X1072139Y289725D01*
Y292875D01*
X1071073Y295448D01*
X1070138Y295835D01*
Y296819D01*
X1070312Y296993D01*
Y298650D01*
X1069141Y299822D01*
X1067484D01*
X1066313Y298650D01*
Y296993D01*
X1066674Y296631D01*
Y295758D01*
X1065927Y295448D01*
X1064861Y292875D01*
Y289725D01*
X1065927Y287152D01*
X1067783Y286383D01*
X1067683Y285883D01*
X1063000D01*
Y287010D01*
X1056000D01*
Y283264D01*
X1054500D01*
Y287010D01*
X1047500D01*
Y283264D01*
X1041500D01*
Y287510D01*
X1034500D01*
Y286124D01*
X1021173D01*
X1020832Y286464D01*
X1020930Y286954D01*
X1021407Y287152D01*
X1022472Y289725D01*
Y292875D01*
X1021407Y295448D01*
X1020670Y295753D01*
X1020606Y296278D01*
X1020958Y296630D01*
Y298287D01*
X1019787Y299458D01*
X1018130D01*
X1016958Y298287D01*
Y296630D01*
X1017259Y296329D01*
X1017210Y295842D01*
X1016260Y295448D01*
X1015194Y292875D01*
Y289725D01*
X1016260Y287152D01*
X1017210Y286758D01*
Y286167D01*
X1017685Y285019D01*
X1018940Y283764D01*
X1018733Y283264D01*
X1007767D01*
X1007560Y283764D01*
X1008648Y284852D01*
X1009124Y286000D01*
Y286363D01*
X1010862D01*
Y296237D01*
X1004138D01*
Y286383D01*
X999499D01*
X999401Y286874D01*
X1000073Y287152D01*
X1001139Y289725D01*
Y292875D01*
X1000073Y295448D01*
X999071Y295863D01*
Y297059D01*
X999395Y297383D01*
Y299040D01*
X998328Y300106D01*
X998478Y300606D01*
X1032215D01*
X1036106Y296716D01*
Y294990D01*
X1034500D01*
Y289491D01*
X1041500D01*
Y290096D01*
X1047500D01*
Y288990D01*
X1054500D01*
Y290096D01*
X1056000D01*
Y288990D01*
X1063000D01*
Y294490D01*
X1056000D01*
Y293884D01*
X1054500D01*
Y294491D01*
X1047500D01*
Y293884D01*
X1041500D01*
Y294990D01*
X1039894D01*
Y297500D01*
X1039339Y298840D01*
X1034339Y303839D01*
X1033000Y304394D01*
X993000D01*
X991661Y303839D01*
X986661Y298840D01*
X986106Y297500D01*
Y294990D01*
X984500D01*
Y294134D01*
X979500D01*
Y294990D01*
X972500D01*
Y294134D01*
X971000D01*
Y294990D01*
X969394D01*
Y297500D01*
X968839Y298840D01*
X964461Y303218D01*
X963121Y303773D01*
X912285D01*
X907218Y308839D01*
X905879Y309394D01*
X824785D01*
X822894Y311285D01*
Y315997D01*
X823254Y316866D01*
X823746D01*
X824376Y315343D01*
Y313705D01*
X824000Y313328D01*
Y311672D01*
X825172Y310500D01*
X826828D01*
X828000Y311672D01*
Y313328D01*
X827624Y313705D01*
Y315343D01*
X828254Y316866D01*
Y321787D01*
X827594Y323381D01*
X826000Y324042D01*
X824406Y323381D01*
X823746Y321787D01*
X823254D01*
X822894Y322657D01*
Y326000D01*
X822339Y327339D01*
X819339Y330339D01*
X818000Y330894D01*
X774285D01*
X757706Y347473D01*
Y356398D01*
X759346D01*
Y360794D01*
X779000D01*
X779554Y361024D01*
X783347D01*
Y365976D01*
X779554D01*
X779000Y366206D01*
X759346D01*
Y370602D01*
X750654D01*
Y368706D01*
X748500D01*
Y368750D01*
X747956D01*
Y371588D01*
X749650Y373281D01*
Y376719D01*
X747219Y379150D01*
X743781D01*
X741350Y376719D01*
Y373281D01*
X742544Y372088D01*
Y368956D01*
X739082D01*
Y379500D01*
X738765Y380265D01*
X738000Y380582D01*
X728500D01*
X727735Y380265D01*
X727418Y379500D01*
Y371544D01*
X719075D01*
Y372650D01*
X713925D01*
Y366650D01*
X719075D01*
Y367756D01*
X727418D01*
Y364500D01*
X727669Y363892D01*
Y363480D01*
X728349D01*
X728500Y363418D01*
X738000D01*
X738151Y363480D01*
X738331D01*
Y363544D01*
X741500D01*
Y363250D01*
X748500D01*
Y363294D01*
X750654D01*
Y356398D01*
X752294D01*
Y347500D01*
Y340621D01*
X730379Y318706D01*
X708000D01*
X707503Y318500D01*
X706964D01*
X706584Y318119D01*
X706087Y317913D01*
X705881Y317416D01*
X705500Y317036D01*
Y316497D01*
X705294Y316000D01*
X705500Y315503D01*
Y314965D01*
X705881Y314584D01*
X706087Y314087D01*
X706356Y313975D01*
Y295491D01*
X700500D01*
Y289990D01*
X707500D01*
Y290846D01*
X709000D01*
Y289990D01*
X716000D01*
Y295490D01*
X710144D01*
Y313294D01*
X731500D01*
X733413Y314087D01*
X745106Y325779D01*
X745606Y325572D01*
Y322657D01*
X745246Y321787D01*
Y316866D01*
X745906Y315272D01*
X747500Y314612D01*
X749094Y315272D01*
X749754Y316866D01*
X750246D01*
X750876Y315343D01*
Y313173D01*
X742852Y305148D01*
X742376Y304000D01*
Y287500D01*
X742852Y286352D01*
X745876Y283328D01*
Y281960D01*
X745831Y281941D01*
X745139Y280272D01*
Y274366D01*
X745831Y272697D01*
X747500Y272005D01*
X749169Y272697D01*
X749729Y274049D01*
X750271D01*
X750831Y272697D01*
X752500Y272005D01*
X754169Y272697D01*
X754729Y274049D01*
X755271D01*
X755831Y272697D01*
X757500Y272005D01*
X759169Y272697D01*
X759729Y274049D01*
X760271D01*
X760831Y272697D01*
X762500Y272005D01*
X764169Y272697D01*
X764729Y274049D01*
X765271D01*
X765831Y272697D01*
X767500Y272005D01*
X769169Y272697D01*
X769729Y274049D01*
X770271D01*
X770831Y272697D01*
X772500Y272005D01*
X774169Y272697D01*
X774729Y274049D01*
X775271D01*
X775831Y272697D01*
X777500Y272005D01*
X779169Y272697D01*
X779861Y274366D01*
Y280272D01*
X779169Y281941D01*
X779124Y281960D01*
Y282827D01*
X788148Y291852D01*
X788624Y293000D01*
Y293201D01*
X789124Y293300D01*
X789376Y292690D01*
Y281779D01*
X789331Y281760D01*
X788639Y280091D01*
Y274185D01*
X789331Y272516D01*
X791000Y271824D01*
X791067Y271852D01*
X791345Y271436D01*
X790738Y270830D01*
X788166Y269764D01*
X738580D01*
X736375Y270678D01*
X734687Y272365D01*
X733773Y274571D01*
Y275764D01*
X733591Y277618D01*
X732172Y281042D01*
X729551Y283663D01*
X726127Y285082D01*
X724273Y285264D01*
X716000D01*
Y288010D01*
X709000D01*
Y285264D01*
X707500D01*
Y288010D01*
X700500D01*
Y286884D01*
X684875D01*
X684800Y286998D01*
X684992Y287618D01*
X685073Y287652D01*
X686139Y290225D01*
Y293375D01*
X685073Y295948D01*
X684124Y296341D01*
Y303500D01*
X683648Y304648D01*
X652648Y335648D01*
X651500Y336124D01*
X377205D01*
X376828Y336500D01*
X375172D01*
X374000Y335328D01*
Y333672D01*
X374086Y333586D01*
X373895Y333123D01*
X351520D01*
X351500Y333172D01*
Y334828D01*
X350328Y336000D01*
X348672D01*
X348295Y335624D01*
X338173D01*
X336758Y337038D01*
X336949Y337500D01*
X337328D01*
X338500Y338672D01*
Y340328D01*
X337328Y341500D01*
X336796D01*
X335648Y342648D01*
X334500Y343124D01*
X323732D01*
X323713Y343169D01*
X322361Y343729D01*
Y344271D01*
X323713Y344831D01*
X323732Y344876D01*
X331295D01*
X331672Y344500D01*
X333328D01*
X334500Y345672D01*
Y346202D01*
X334624Y346500D01*
X334500Y346798D01*
Y347328D01*
X333328Y348500D01*
X331672D01*
X331295Y348124D01*
X323732D01*
X323713Y348169D01*
X322361Y348729D01*
Y349271D01*
X323713Y349831D01*
X323732Y349876D01*
X327295D01*
X327672Y349500D01*
X329328D01*
X330500Y350672D01*
Y352328D01*
X329328Y353500D01*
X327672D01*
X327295Y353124D01*
X323732D01*
X323713Y353169D01*
X322361Y353729D01*
Y354271D01*
X323713Y354831D01*
X323722Y354853D01*
X331548D01*
X331948Y354453D01*
X332480D01*
X346081Y340852D01*
X347229Y340376D01*
X480000D01*
X481148Y340852D01*
X486148Y345852D01*
X486624Y347000D01*
Y351673D01*
X486637D01*
X488937Y353973D01*
X491237Y351673D01*
X494511D01*
X496811Y353973D01*
X499111Y351673D01*
X502385D01*
X504685Y353973D01*
X506985Y351673D01*
X510259D01*
X512559Y353973D01*
X514859Y351673D01*
X518133D01*
X520433Y353973D01*
X522733Y351673D01*
X526007D01*
X528323Y353989D01*
Y357263D01*
X526023Y359563D01*
X528323Y361863D01*
Y365137D01*
X526007Y367453D01*
X522733D01*
X520433Y365153D01*
X518133Y367453D01*
X514859D01*
X512559Y365153D01*
X511599Y366113D01*
Y378389D01*
X515233Y382023D01*
X797267D01*
X800443Y378848D01*
Y376392D01*
X800615Y375977D01*
X800384Y375477D01*
X776500D01*
X775425Y375031D01*
X774653D01*
Y374712D01*
X774395Y374605D01*
X773523Y372500D01*
X774395Y370395D01*
X774653Y370288D01*
Y370079D01*
X775159D01*
X776500Y369523D01*
X790000D01*
Y368990D01*
X797000D01*
Y369523D01*
X800669D01*
Y368480D01*
X811331D01*
Y369523D01*
X817267D01*
X830523Y356267D01*
Y325000D01*
X831395Y322895D01*
X836895Y317395D01*
X839000Y316523D01*
X839918D01*
Y316500D01*
X840235Y315735D01*
X841000Y315418D01*
X841552D01*
X842735Y314235D01*
X843500Y313918D01*
X843500Y313918D01*
X873110D01*
Y313595D01*
X888890D01*
Y315535D01*
X889082Y316000D01*
X889082Y316000D01*
Y327000D01*
X888765Y327765D01*
X888000Y328082D01*
X874500D01*
X873735Y327765D01*
X873735Y327765D01*
X873375Y327406D01*
X873110D01*
Y327141D01*
X872735Y326765D01*
X872418Y326000D01*
X872418Y326000D01*
Y325448D01*
X868552Y321582D01*
X847500D01*
Y322250D01*
X844547D01*
X844000Y322477D01*
X840233D01*
X836477Y326233D01*
Y357415D01*
X840531Y361469D01*
X841165Y363000D01*
Y368250D01*
X842500D01*
Y373750D01*
X835500D01*
Y368250D01*
X836835D01*
Y363897D01*
X834074Y361136D01*
X820605Y374605D01*
X818500Y375477D01*
X812528D01*
X812337Y375939D01*
X818749Y382350D01*
X819219D01*
X821650Y384781D01*
Y388219D01*
X819219Y390650D01*
X815781D01*
X813350Y388219D01*
Y385371D01*
X807121Y379142D01*
X806396D01*
Y380081D01*
X805524Y382186D01*
X800605Y387105D01*
X798500Y387977D01*
X514000D01*
X511895Y387105D01*
X506517Y381727D01*
X505646Y379622D01*
Y366113D01*
X504669Y365137D01*
Y361863D01*
X506969Y359563D01*
X504685Y357279D01*
X502385Y359579D01*
X499111D01*
X496811Y357279D01*
X494511Y359579D01*
X491237D01*
X488937Y357279D01*
X486653Y359563D01*
X488953Y361863D01*
Y365137D01*
X486637Y367453D01*
X486624D01*
Y370500D01*
X486148Y371648D01*
X475648Y382148D01*
X474500Y382624D01*
X336205D01*
X335828Y383000D01*
X334172D01*
X333795Y382624D01*
X315000D01*
X313852Y382148D01*
X299828Y368124D01*
X282787D01*
X282768Y368169D01*
X281098Y368861D01*
X274012D01*
X272342Y368169D01*
X271651Y366500D01*
X272342Y364831D01*
X273695Y364271D01*
Y363729D01*
X272342Y363169D01*
X271651Y361500D01*
X272342Y359831D01*
X274012Y359139D01*
X281098D01*
X282768Y359831D01*
X282787Y359876D01*
X300000D01*
X301148Y360352D01*
X312672Y371876D01*
X471327D01*
X475321Y367883D01*
X475489Y367453D01*
X473189Y365153D01*
X470889Y367453D01*
X467615D01*
X465299Y365137D01*
Y361863D01*
X467121Y360041D01*
X466930Y359579D01*
X465299D01*
Y351673D01*
X473205D01*
Y353304D01*
X473667Y353495D01*
X475489Y351673D01*
X475502D01*
Y348299D01*
X473327Y346124D01*
X351673D01*
X348000Y349796D01*
Y350828D01*
X346828Y352000D01*
X346296D01*
X335648Y362648D01*
X334500Y363124D01*
X323732D01*
X323713Y363169D01*
X322043Y363861D01*
X314957D01*
X313287Y363169D01*
X312596Y361500D01*
X313287Y359831D01*
X314639Y359271D01*
Y358729D01*
X313287Y358169D01*
X312596Y356500D01*
X313287Y354831D01*
X314639Y354271D01*
Y353729D01*
X313287Y353169D01*
X312596Y351500D01*
X313287Y349831D01*
X314639Y349271D01*
Y348729D01*
X313287Y348169D01*
X312596Y346500D01*
X313287Y344831D01*
X314639Y344271D01*
Y343729D01*
X313287Y343169D01*
X312596Y341500D01*
X313287Y339831D01*
X314639Y339271D01*
Y338729D01*
X313287Y338169D01*
X312596Y336500D01*
X313287Y334831D01*
X314639Y334271D01*
Y333729D01*
X313287Y333169D01*
X312596Y331500D01*
X313287Y329831D01*
X314639Y329271D01*
Y328729D01*
X313287Y328169D01*
X312596Y326500D01*
X313287Y324831D01*
X314639Y324271D01*
Y323729D01*
X313287Y323169D01*
X312596Y321500D01*
X313287Y319831D01*
X314639Y319271D01*
Y318729D01*
X313287Y318169D01*
X312596Y316500D01*
X313287Y314831D01*
X314856Y314181D01*
X314756Y313681D01*
X312776D01*
Y313124D01*
X306673D01*
X305124Y314672D01*
Y317795D01*
X305500Y318172D01*
Y319828D01*
X304328Y321000D01*
X302672D01*
X301500Y319828D01*
Y318172D01*
X301876Y317795D01*
Y314000D01*
X302352Y312852D01*
X304852Y310352D01*
X306000Y309876D01*
X312776D01*
Y309319D01*
X324224D01*
Y313681D01*
X322244D01*
X322145Y314181D01*
X323713Y314831D01*
X323732Y314876D01*
X346980D01*
X347000Y314828D01*
Y313172D01*
X347086Y313086D01*
X346895Y312624D01*
X345205D01*
X344828Y313000D01*
X343172D01*
X342000Y311828D01*
Y310172D01*
X342586Y309585D01*
X342395Y309124D01*
X339705D01*
X339328Y309500D01*
X337672D01*
X336500Y308328D01*
Y306672D01*
X337672Y305500D01*
X339328D01*
X339705Y305876D01*
X365795D01*
X366172Y305500D01*
X367828D01*
X369000Y306672D01*
Y308328D01*
X368414Y308914D01*
X368605Y309376D01*
X371795D01*
X372172Y309000D01*
X373828D01*
X375000Y310172D01*
Y311828D01*
X374914Y311914D01*
X375105Y312376D01*
X379925D01*
X380301Y312000D01*
X381958D01*
X383130Y313172D01*
Y314828D01*
X383150Y314876D01*
X436328D01*
X437827Y313376D01*
X437672Y313000D01*
X437295Y312624D01*
X406000D01*
X404852Y312148D01*
X390352Y297648D01*
X389876Y296500D01*
Y293705D01*
X389500Y293328D01*
Y291672D01*
X390672Y290500D01*
X392328D01*
X393500Y291672D01*
Y292965D01*
X394000Y293172D01*
X394172Y293000D01*
X395828D01*
X397000Y294172D01*
Y294918D01*
X407958Y305876D01*
X409373D01*
X409580Y305376D01*
X397704Y293500D01*
X397172D01*
X396000Y292328D01*
Y290672D01*
X397172Y289500D01*
X398497D01*
X398704Y289000D01*
X394968Y285264D01*
X393773D01*
X391822Y285072D01*
X389632Y284165D01*
X389148Y284648D01*
X388000Y285124D01*
X383205D01*
X382828Y285500D01*
X381172D01*
X380000Y284328D01*
Y282672D01*
X381172Y281500D01*
X382828D01*
X383205Y281876D01*
X385862D01*
X386053Y281415D01*
X385459Y280820D01*
X384086Y277506D01*
X383893Y277426D01*
X383415Y276273D01*
X382000D01*
X380393Y275607D01*
X379861Y274323D01*
X379361Y274423D01*
Y278772D01*
X378669Y280441D01*
X378624Y280460D01*
Y282295D01*
X379000Y282672D01*
Y284328D01*
X377828Y285500D01*
X376172D01*
X375000Y284328D01*
Y282672D01*
X375376Y282295D01*
Y280460D01*
X375331Y280441D01*
X374771Y279089D01*
X374229D01*
X373669Y280441D01*
X373624Y280460D01*
Y282295D01*
X374000Y282672D01*
Y284328D01*
X372828Y285500D01*
X371172D01*
X370000Y284328D01*
Y282672D01*
X370376Y282295D01*
Y280460D01*
X370331Y280441D01*
X369771Y279089D01*
X369229D01*
X368669Y280441D01*
X368624Y280460D01*
Y282295D01*
X369000Y282672D01*
Y284328D01*
X367828Y285500D01*
X366172D01*
X365000Y284328D01*
Y282672D01*
X365376Y282295D01*
Y280460D01*
X365331Y280441D01*
X364771Y279089D01*
X364229D01*
X363694Y280382D01*
Y282490D01*
X364141Y282937D01*
Y284594D01*
X362969Y285765D01*
X361312D01*
X360141Y284594D01*
Y282937D01*
X360447Y282631D01*
Y280489D01*
X360331Y280441D01*
X359771Y279089D01*
X359229D01*
X358669Y280441D01*
X358624Y280460D01*
Y282295D01*
X359000Y282672D01*
Y284328D01*
X357828Y285500D01*
X356172D01*
X355000Y284328D01*
Y282672D01*
X355376Y282295D01*
Y280460D01*
X355331Y280441D01*
X354771Y279089D01*
X354229D01*
X353669Y280441D01*
X353624Y280460D01*
Y282295D01*
X354000Y282672D01*
Y284328D01*
X352828Y285500D01*
X351172D01*
X350000Y284328D01*
Y282672D01*
X350376Y282295D01*
Y280460D01*
X350331Y280441D01*
X349771Y279089D01*
X349229D01*
X348669Y280441D01*
X348324Y280584D01*
X348000Y281366D01*
Y282328D01*
X346828Y283500D01*
X345172D01*
X344000Y282328D01*
Y280672D01*
X345008Y279663D01*
X344639Y278772D01*
Y272866D01*
X345331Y271197D01*
X347000Y270505D01*
X348669Y271197D01*
X349229Y272549D01*
X349771D01*
X350331Y271197D01*
X352000Y270505D01*
X353669Y271197D01*
X354229Y272549D01*
X354771D01*
X355331Y271197D01*
X357000Y270505D01*
X358669Y271197D01*
X359229Y272549D01*
X359771D01*
X360331Y271197D01*
X362000Y270505D01*
X363669Y271197D01*
X364229Y272549D01*
X364771D01*
X365331Y271197D01*
X367000Y270505D01*
X368669Y271197D01*
X369229Y272549D01*
X369771D01*
X370331Y271197D01*
X372000Y270505D01*
X373669Y271197D01*
X374229Y272549D01*
X374771D01*
X375331Y271197D01*
X377000Y270505D01*
X378669Y271197D01*
X379361Y272866D01*
Y273577D01*
X379861Y273677D01*
X380393Y272393D01*
X382000Y271727D01*
X383773D01*
Y268775D01*
X382251Y265100D01*
X380316Y263165D01*
X343500D01*
X341969Y262531D01*
X341252Y261813D01*
X340109Y262287D01*
X337296Y265100D01*
X335773Y268775D01*
Y272764D01*
X335591Y274618D01*
X334172Y278042D01*
X331551Y280663D01*
X328127Y282082D01*
X326273Y282264D01*
X320000D01*
Y287250D01*
X313000D01*
Y282264D01*
X311500D01*
Y287010D01*
X304500D01*
Y285884D01*
X290412D01*
X290124Y286173D01*
Y286758D01*
X291073Y287152D01*
X292139Y289725D01*
Y292875D01*
X291073Y295448D01*
X290624Y295634D01*
Y303588D01*
X291500Y304465D01*
Y306536D01*
X290036Y308000D01*
X287965D01*
X286500Y306536D01*
Y304465D01*
X287376Y303588D01*
Y296049D01*
X285927Y295448D01*
X284861Y292875D01*
Y289725D01*
X285927Y287152D01*
X286876Y286758D01*
Y285500D01*
X287352Y284352D01*
X288592Y283112D01*
X289432Y282764D01*
X289332Y282264D01*
X281532D01*
X278624Y285173D01*
Y286363D01*
X280362D01*
Y296237D01*
X273638D01*
Y286363D01*
X275376D01*
Y284500D01*
X275852Y283352D01*
X276478Y282726D01*
X276286Y282264D01*
X247500D01*
Y287010D01*
X240500D01*
Y282264D01*
X239000D01*
Y287010D01*
X232000D01*
Y285884D01*
X217912D01*
X217624Y286173D01*
Y286758D01*
X218573Y287152D01*
X219639Y289725D01*
Y292875D01*
X218573Y295448D01*
X217624Y295842D01*
Y306328D01*
X228172Y316876D01*
X265421D01*
X265798Y316500D01*
X267455D01*
X268626Y317672D01*
Y319328D01*
X268540Y319414D01*
X268731Y319876D01*
X272323D01*
X272342Y319831D01*
X273695Y319271D01*
Y318729D01*
X272342Y318169D01*
X272323Y318124D01*
X271000D01*
X269852Y317648D01*
X265852Y313648D01*
X265376Y312500D01*
Y306000D01*
X265376Y306000D01*
Y295842D01*
X264427Y295448D01*
X263361Y292875D01*
Y289725D01*
X264427Y287152D01*
X267000Y286086D01*
X269573Y287152D01*
X270639Y289725D01*
Y292875D01*
X269573Y295448D01*
X268624Y295842D01*
Y306000D01*
X268624Y306000D01*
Y311827D01*
X271673Y314876D01*
X272323D01*
X272342Y314831D01*
X273695Y314271D01*
Y313729D01*
X272342Y313169D01*
X271651Y311500D01*
X272342Y309831D01*
X274012Y309139D01*
X275335D01*
Y301371D01*
X275000Y301035D01*
Y298965D01*
X276465Y297500D01*
X278536D01*
X280000Y298965D01*
Y301035D01*
X279665Y301371D01*
Y309139D01*
X281098D01*
X282768Y309831D01*
X283459Y311500D01*
X282768Y313169D01*
X281416Y313729D01*
Y314271D01*
X282768Y314831D01*
X283459Y316500D01*
X282768Y318169D01*
X281416Y318729D01*
Y319271D01*
X282768Y319831D01*
X283459Y321500D01*
X282768Y323169D01*
X281416Y323729D01*
Y324271D01*
X282768Y324831D01*
X283459Y326500D01*
X282768Y328169D01*
X281416Y328729D01*
Y329271D01*
X282768Y329831D01*
X283459Y331500D01*
X282768Y333169D01*
X281416Y333729D01*
Y334271D01*
X282768Y334831D01*
X283459Y336500D01*
X282768Y338169D01*
X281416Y338729D01*
Y339271D01*
X282768Y339831D01*
X283459Y341500D01*
X282768Y343169D01*
X281416Y343729D01*
Y344271D01*
X282768Y344831D01*
X283459Y346500D01*
X282768Y348169D01*
X281416Y348729D01*
Y349271D01*
X282768Y349831D01*
X283459Y351500D01*
X282768Y353169D01*
X281098Y353861D01*
X274012D01*
X272342Y353169D01*
X271651Y351500D01*
X272342Y349831D01*
X273695Y349271D01*
Y348729D01*
X272342Y348169D01*
X271651Y346500D01*
X272342Y344831D01*
X273695Y344271D01*
Y343729D01*
X272342Y343169D01*
X271651Y341500D01*
X272342Y339831D01*
X273695Y339271D01*
Y338729D01*
X272342Y338169D01*
X271651Y336500D01*
X272342Y334831D01*
X273695Y334271D01*
Y333729D01*
X272342Y333169D01*
X272323Y333124D01*
X75000D01*
X73852Y332648D01*
X53352Y312148D01*
X52876Y311000D01*
Y295842D01*
X51927Y295448D01*
X50861Y292875D01*
Y289725D01*
X51927Y287152D01*
X54500Y286086D01*
X57073Y287152D01*
X58139Y289725D01*
Y292875D01*
X57073Y295448D01*
X56124Y295842D01*
Y310328D01*
X75673Y329876D01*
X88927D01*
X89118Y329415D01*
X74852Y315148D01*
X74376Y314000D01*
Y295842D01*
X73427Y295448D01*
X72361Y292875D01*
Y289725D01*
X73427Y287152D01*
X74376Y286758D01*
Y286000D01*
X74852Y284852D01*
X76592Y283112D01*
X77432Y282764D01*
X77332Y282264D01*
X69532D01*
X66124Y285672D01*
Y286363D01*
X67862D01*
Y296237D01*
X61138D01*
Y286363D01*
X62876D01*
Y285000D01*
X63352Y283852D01*
X64478Y282726D01*
X64286Y282264D01*
X29284D01*
X25609Y283787D01*
X22796Y286600D01*
X21273Y290275D01*
Y292264D01*
Y351264D01*
Y351960D01*
X21806Y353247D01*
X22791Y354231D01*
X24077Y354764D01*
X48773D01*
X50724Y354956D01*
X54329Y356450D01*
X57088Y359208D01*
X58581Y362813D01*
X58773Y364764D01*
Y382264D01*
Y384253D01*
X60296Y387929D01*
X63109Y390742D01*
X66784Y392264D01*
X850773D01*
X852041Y392389D01*
X854385Y393360D01*
X856178Y395153D01*
X857148Y397496D01*
X857273Y398764D01*
Y452764D01*
Y454753D01*
X858796Y458429D01*
X861609Y461242D01*
X865284Y462764D01*
X949762D01*
X953438Y461242D01*
D02*
G37*
G36*
X1203049Y423315D02*
X1204315Y422049D01*
X1205000Y420395D01*
Y419500D01*
Y312500D01*
Y311307D01*
X1204086Y309101D01*
X1202399Y307413D01*
X1200194Y306500D01*
X1153605D01*
X1151951Y307185D01*
X1150685Y308451D01*
X1150000Y310105D01*
Y311000D01*
Y418500D01*
Y419594D01*
X1150837Y421616D01*
X1152384Y423163D01*
X1154406Y424000D01*
X1201395D01*
X1203049Y423315D01*
D02*
G37*
G36*
X772161Y327661D02*
X773500Y327106D01*
X775407D01*
X775684Y326690D01*
X775606Y326500D01*
Y322657D01*
X775246Y321787D01*
X774754D01*
X774094Y323381D01*
X772500Y324042D01*
X770906Y323381D01*
X770246Y321787D01*
X769754D01*
X769094Y323381D01*
X767500Y324042D01*
X765906Y323381D01*
X765246Y321787D01*
Y316866D01*
X765876Y315343D01*
Y312205D01*
X765500Y311828D01*
Y310172D01*
X766672Y309000D01*
X768328D01*
X769500Y310172D01*
Y311828D01*
X769124Y312205D01*
Y315343D01*
X769754Y316866D01*
X770246D01*
X770876Y315343D01*
Y309205D01*
X770500Y308828D01*
Y307172D01*
X771672Y306000D01*
X773328D01*
X774500Y307172D01*
Y308828D01*
X774124Y309205D01*
Y315343D01*
X774754Y316866D01*
X775246D01*
X775906Y315272D01*
X777500Y314612D01*
X779094Y315272D01*
X779754Y316866D01*
X780246D01*
X780906Y315272D01*
X782500Y314612D01*
X784094Y315272D01*
X784349Y315323D01*
X785172Y314500D01*
X786828D01*
X788000Y315672D01*
Y317328D01*
X786828Y318500D01*
X786296D01*
X785601Y319196D01*
X784754Y319546D01*
Y321787D01*
X784094Y323381D01*
X782500Y324042D01*
X780906Y323381D01*
X780246Y321787D01*
X779754D01*
X779394Y322657D01*
Y325715D01*
X780785Y327106D01*
X788907D01*
X789185Y326690D01*
X789106Y326500D01*
Y322657D01*
X788746Y321787D01*
Y316866D01*
X789406Y315272D01*
X791000Y314612D01*
X792594Y315272D01*
X793254Y316866D01*
X793746D01*
X794376Y315343D01*
Y313173D01*
X785852Y304648D01*
X785376Y303500D01*
Y293672D01*
X776352Y284648D01*
X775876Y283500D01*
Y281960D01*
X775831Y281941D01*
X775271Y280589D01*
X774729D01*
X774169Y281941D01*
X774124Y281960D01*
Y285000D01*
X773648Y286148D01*
X769124Y290672D01*
Y292690D01*
X769754Y294213D01*
X770246D01*
X770906Y292619D01*
X772500Y291958D01*
X774094Y292619D01*
X774754Y294213D01*
X775246D01*
X775906Y292619D01*
X777500Y291958D01*
X779094Y292619D01*
X779754Y294213D01*
Y299134D01*
X779124Y300657D01*
Y301295D01*
X779500Y301672D01*
Y303328D01*
X778328Y304500D01*
X776672D01*
X775500Y303328D01*
Y301672D01*
X775876Y301295D01*
Y300657D01*
X775246Y299134D01*
X774754D01*
X774229Y300401D01*
X774500Y300672D01*
Y302328D01*
X773328Y303500D01*
X771672D01*
X770500Y302328D01*
Y300672D01*
X770771Y300401D01*
X770246Y299134D01*
X769754D01*
X769094Y300728D01*
X767500Y301388D01*
X765906Y300728D01*
X765246Y299134D01*
X764754D01*
X764094Y300728D01*
X762500Y301388D01*
X760906Y300728D01*
X760246Y299134D01*
X759754D01*
X759094Y300728D01*
X757500Y301388D01*
X755906Y300728D01*
X755246Y299134D01*
X754754D01*
X754094Y300728D01*
X752500Y301388D01*
X750906Y300728D01*
X750246Y299134D01*
X749754D01*
X749094Y300728D01*
X747500Y301388D01*
X746124Y300818D01*
X745624Y301099D01*
Y303327D01*
X753648Y311352D01*
X754124Y312500D01*
Y315343D01*
X754754Y316866D01*
X755246D01*
X755876Y315343D01*
Y306205D01*
X755500Y305828D01*
Y304172D01*
X756672Y303000D01*
X758328D01*
X759500Y304172D01*
Y305828D01*
X759124Y306205D01*
Y315343D01*
X759754Y316866D01*
Y321787D01*
X759094Y323381D01*
X757500Y324042D01*
X755906Y323381D01*
X755246Y321787D01*
X754754D01*
X754094Y323381D01*
X752500Y324042D01*
X750906Y323381D01*
X750246Y321787D01*
X749754D01*
X749394Y322657D01*
Y327000D01*
X748839Y328339D01*
X748253Y328926D01*
X756913Y337587D01*
X757706Y339500D01*
X757706Y339500D01*
Y341462D01*
X758168Y341653D01*
X772161Y327661D01*
D02*
G37*
G36*
X680876Y302828D02*
Y296341D01*
X679927Y295948D01*
X678861Y293375D01*
Y290225D01*
X679927Y287652D01*
X680876Y287259D01*
Y286500D01*
X681181Y285764D01*
X680847Y285264D01*
X673124D01*
Y286863D01*
X674862D01*
Y296737D01*
X668138D01*
Y286863D01*
X669876D01*
Y285264D01*
X645500D01*
Y287509D01*
X638500D01*
Y285264D01*
X637000D01*
Y287510D01*
X630000D01*
Y286384D01*
X614912D01*
X614494Y286802D01*
X614589Y287382D01*
X615240Y287652D01*
X616306Y290225D01*
Y293375D01*
X615240Y295948D01*
X614290Y296341D01*
Y309333D01*
X613815Y310481D01*
X594882Y329415D01*
X595073Y329876D01*
X629327D01*
X659876Y299327D01*
Y296341D01*
X658927Y295948D01*
X657861Y293375D01*
Y290225D01*
X658927Y287652D01*
X661500Y286586D01*
X664073Y287652D01*
X665139Y290225D01*
Y293375D01*
X664073Y295948D01*
X663124Y296341D01*
Y300000D01*
X662648Y301148D01*
X631420Y332376D01*
X631627Y332876D01*
X650828D01*
X680876Y302828D01*
D02*
G37*
G36*
X611043Y308661D02*
Y296341D01*
X610093Y295948D01*
X609027Y293375D01*
Y290225D01*
X610093Y287652D01*
X611043Y287259D01*
Y286333D01*
X611314Y285680D01*
X611036Y285264D01*
X605032D01*
X603895Y286401D01*
X604086Y286863D01*
X604696D01*
Y296737D01*
X597971D01*
Y286863D01*
X599710D01*
Y286667D01*
X600084Y285764D01*
X599786Y285264D01*
X575000D01*
Y287509D01*
X568000D01*
Y285264D01*
X566500D01*
Y287510D01*
X559500D01*
Y286384D01*
X544912D01*
X544500Y286796D01*
X544554Y287299D01*
X545407Y287652D01*
X546473Y290225D01*
Y293375D01*
X545407Y295948D01*
X544457Y296341D01*
Y302667D01*
X543981Y303815D01*
X523382Y324414D01*
X523573Y324876D01*
X565828D01*
X589710Y300994D01*
Y296341D01*
X588760Y295948D01*
X587694Y293375D01*
Y290225D01*
X588760Y287652D01*
X591333Y286586D01*
X593907Y287652D01*
X594973Y290225D01*
Y293375D01*
X593907Y295948D01*
X592957Y296341D01*
Y301667D01*
X592481Y302815D01*
X592481Y302815D01*
X568382Y326915D01*
X568573Y327376D01*
X592327D01*
X611043Y308661D01*
D02*
G37*
G36*
X541210Y301994D02*
Y296341D01*
X540260Y295948D01*
X539194Y293375D01*
Y290225D01*
X540260Y287652D01*
X541210Y287259D01*
Y286167D01*
X541411Y285680D01*
X541134Y285264D01*
X532790D01*
Y286863D01*
X534529D01*
Y296737D01*
X527805D01*
Y286863D01*
X529543D01*
Y285264D01*
X505000D01*
Y287010D01*
X498000D01*
Y285264D01*
X496500D01*
Y287010D01*
X489500D01*
Y285884D01*
X475912D01*
X474945Y286851D01*
X475063Y287440D01*
X475573Y287652D01*
X476639Y290225D01*
Y293375D01*
X475573Y295948D01*
X474624Y296341D01*
Y302500D01*
X474148Y303648D01*
X458382Y319414D01*
X458573Y319876D01*
X499827D01*
X519543Y300161D01*
Y296341D01*
X518593Y295948D01*
X517527Y293375D01*
Y290225D01*
X518593Y287652D01*
X521167Y286586D01*
X523740Y287652D01*
X524806Y290225D01*
Y293375D01*
X523740Y295948D01*
X522790Y296341D01*
Y300833D01*
X522315Y301981D01*
X502382Y321915D01*
X502573Y322376D01*
X520827D01*
X541210Y301994D01*
D02*
G37*
G36*
X207118Y321915D02*
X193352Y308148D01*
X192876Y307000D01*
Y295842D01*
X191927Y295448D01*
X190861Y292875D01*
Y289725D01*
X191927Y287152D01*
X194500Y286086D01*
X197073Y287152D01*
X198139Y289725D01*
Y292875D01*
X197073Y295448D01*
X196124Y295842D01*
Y306328D01*
X209672Y319876D01*
X225873D01*
X226080Y319376D01*
X214852Y308148D01*
X214376Y307000D01*
Y295842D01*
X213427Y295448D01*
X212361Y292875D01*
Y289725D01*
X213427Y287152D01*
X214376Y286758D01*
Y285500D01*
X214852Y284352D01*
X216092Y283112D01*
X216932Y282764D01*
X216832Y282264D01*
X208532D01*
X206124Y284672D01*
Y286363D01*
X207862D01*
Y296237D01*
X201138D01*
Y286363D01*
X202876D01*
Y284000D01*
X203352Y282852D01*
X203478Y282726D01*
X203286Y282264D01*
X178000D01*
Y287250D01*
X171000D01*
Y282264D01*
X169500D01*
Y287010D01*
X162500D01*
Y285884D01*
X148912D01*
X148445Y286351D01*
X148563Y286940D01*
X149073Y287152D01*
X150139Y289725D01*
Y292875D01*
X149073Y295448D01*
X148124Y295842D01*
Y306328D01*
X164172Y322376D01*
X206927D01*
X207118Y321915D01*
D02*
G37*
G36*
X141118Y326915D02*
X123852Y309648D01*
X123376Y308500D01*
Y295842D01*
X122427Y295448D01*
X121361Y292875D01*
Y289725D01*
X122427Y287152D01*
X125000Y286086D01*
X127573Y287152D01*
X128639Y289725D01*
Y292875D01*
X127573Y295448D01*
X126624Y295842D01*
Y307827D01*
X143673Y324876D01*
X161427D01*
X161618Y324414D01*
X145352Y308148D01*
X144876Y307000D01*
Y295842D01*
X143927Y295448D01*
X142861Y292875D01*
Y289725D01*
X143927Y287152D01*
X144876Y286758D01*
Y286000D01*
X145352Y284852D01*
X147092Y283112D01*
X147932Y282764D01*
X147832Y282264D01*
X137532D01*
X136624Y283172D01*
Y286363D01*
X138362D01*
Y296237D01*
X131638D01*
Y286363D01*
X133376D01*
Y282500D01*
X133219Y282264D01*
X107000D01*
Y287010D01*
X100000D01*
Y282264D01*
X98500D01*
Y287010D01*
X91500D01*
Y285884D01*
X78412D01*
X77946Y286351D01*
X78063Y286940D01*
X78573Y287152D01*
X79639Y289725D01*
Y292875D01*
X78573Y295448D01*
X77624Y295842D01*
Y313328D01*
X91672Y327376D01*
X140927D01*
X141118Y326915D01*
D02*
G37*
G36*
X1200500Y293000D02*
X1202390Y293000D01*
X1205881Y291554D01*
X1208554Y288881D01*
X1210000Y285390D01*
X1210000Y283500D01*
X1210000D01*
X1210000Y283500D01*
X1210000Y243000D01*
X1210000Y241707D01*
X1209010Y239318D01*
X1207182Y237490D01*
X1204793Y236500D01*
X1203500Y236500D01*
X1148500D01*
X1147307Y236500D01*
X1145101Y237413D01*
X1143414Y239101D01*
X1142500Y241306D01*
X1142500Y242500D01*
Y291000D01*
Y291398D01*
X1142805Y292133D01*
X1143367Y292695D01*
X1144102Y293000D01*
X1144500D01*
X1200500Y293000D01*
D02*
G37*
%LPC*%
G36*
X850328Y297500D02*
X848672D01*
X847500Y296328D01*
Y294672D01*
X848672Y293500D01*
X850328D01*
X850811Y293982D01*
X851778D01*
X852116Y293490D01*
X851861Y292875D01*
Y289725D01*
X852927Y287152D01*
X855500Y286086D01*
X858073Y287152D01*
X859139Y289725D01*
Y292875D01*
X858073Y295448D01*
X855500Y296514D01*
X854550Y296121D01*
X853917Y296754D01*
X852769Y297229D01*
X850599D01*
X850328Y297500D01*
D02*
G37*
G36*
X913500Y448582D02*
X913500Y448582D01*
X887500D01*
X887500Y448582D01*
X886735Y448265D01*
X886735Y448265D01*
X874898Y436429D01*
X871150Y440177D01*
Y442219D01*
X868719Y444650D01*
X865281D01*
X862850Y442219D01*
Y438781D01*
X865281Y436350D01*
X867323D01*
X871071Y432602D01*
X866735Y428265D01*
X866418Y427500D01*
X866418Y427500D01*
Y400000D01*
X866418Y400000D01*
X866735Y399235D01*
X867918Y398052D01*
Y385500D01*
X868235Y384735D01*
X868235Y384735D01*
X868918Y384052D01*
Y381838D01*
X868418Y381739D01*
X867925Y382929D01*
X866331Y383589D01*
X864737Y382929D01*
X864076Y381335D01*
X863585D01*
X863225Y382204D01*
Y385276D01*
X863449Y385500D01*
X866270D01*
Y392500D01*
X860770D01*
Y388179D01*
X859991Y387400D01*
X859437Y386061D01*
Y382204D01*
X859076Y381335D01*
X858585D01*
X857925Y382929D01*
X856331Y383589D01*
X854737Y382929D01*
X854076Y381335D01*
Y380375D01*
X852000D01*
Y381230D01*
X845000D01*
Y380375D01*
X842500D01*
Y381230D01*
X835500D01*
Y375730D01*
X842500D01*
Y376586D01*
X845000D01*
Y375730D01*
X852000D01*
Y376586D01*
X854076D01*
Y376413D01*
X854737Y374819D01*
X856331Y374159D01*
X857925Y374819D01*
X858585Y376413D01*
X859076D01*
X859737Y374819D01*
X861331Y374159D01*
X862925Y374819D01*
X863585Y376413D01*
X864076D01*
X864737Y374819D01*
X866331Y374159D01*
X867925Y374819D01*
X868418Y376009D01*
X868780Y376003D01*
X868936Y375955D01*
X869235Y375235D01*
X869248Y375229D01*
Y374331D01*
X873413D01*
Y375592D01*
X873582Y376000D01*
Y379052D01*
X880031Y385500D01*
X880750D01*
Y386219D01*
X880765Y386235D01*
X881082Y387000D01*
X881082Y387000D01*
Y392000D01*
X880765Y392765D01*
X880765Y392765D01*
X875582Y397948D01*
Y421552D01*
X888448Y434418D01*
X913000D01*
X913000Y434418D01*
X913765Y434735D01*
X913765Y434735D01*
X917265Y438235D01*
X917582Y439000D01*
X917582Y439000D01*
Y444500D01*
X917582Y444500D01*
X917265Y445265D01*
X917265Y445265D01*
X914265Y448265D01*
X913500Y448582D01*
D02*
G37*
G36*
X861370Y373273D02*
X848500D01*
X846893Y372607D01*
X846227Y371000D01*
X846893Y369393D01*
X848500Y368727D01*
X859607D01*
X859875Y368227D01*
X859805Y368124D01*
X859000D01*
X857852Y367648D01*
X857376Y366500D01*
X857852Y365352D01*
X859000Y364876D01*
X859058D01*
Y360731D01*
X858585Y360665D01*
X857925Y362259D01*
X856331Y362920D01*
X854737Y362259D01*
X854076Y360665D01*
Y355744D01*
X854737Y354150D01*
X856331Y353490D01*
X857925Y354150D01*
X858585Y355744D01*
Y358139D01*
X859058Y358205D01*
X859723Y356597D01*
X861331Y355932D01*
X862938Y356597D01*
X863604Y358205D01*
X864076Y358139D01*
Y355744D01*
X864437Y354875D01*
Y353105D01*
X862321Y350990D01*
X858000D01*
Y345490D01*
X865000D01*
Y348311D01*
X867670Y350981D01*
X868225Y352320D01*
Y354875D01*
X868585Y355744D01*
X869076D01*
X869418Y354920D01*
Y353500D01*
X869418Y353500D01*
X869735Y352735D01*
X869735Y352735D01*
X872918Y349552D01*
Y343033D01*
X865000D01*
Y343510D01*
X858000D01*
Y338010D01*
X865000D01*
Y338487D01*
X873834D01*
X874000Y338418D01*
X888000D01*
X888427Y338595D01*
X888890D01*
Y338859D01*
X892765Y342735D01*
X893082Y343500D01*
X893082Y343500D01*
Y363000D01*
X892765Y363765D01*
X892765Y363765D01*
X891765Y364765D01*
X891000Y365082D01*
X891000Y365082D01*
X881000D01*
X881000Y365082D01*
X880235Y364765D01*
X880235Y364765D01*
X877552Y362082D01*
X872998D01*
X872925Y362259D01*
X871331Y362920D01*
X869737Y362259D01*
X869076Y360665D01*
X868585D01*
X867925Y362259D01*
X866331Y362920D01*
X864737Y362259D01*
X864076Y360665D01*
X863604Y360731D01*
Y365098D01*
X864003Y365497D01*
X864034Y365571D01*
X864107Y365601D01*
X865422Y366916D01*
X865788D01*
X867352Y365352D01*
X868500Y364876D01*
X869648Y365352D01*
X870124Y366500D01*
X869648Y367648D01*
X868826Y368470D01*
X868943Y369060D01*
X869648Y369352D01*
X870124Y370500D01*
X869648Y371648D01*
X868500Y372124D01*
X865791D01*
X864989Y371791D01*
X864979Y371817D01*
X864648Y372148D01*
X863500Y372624D01*
X863119Y372466D01*
X862977Y372607D01*
X861370Y373273D01*
D02*
G37*
G36*
X719075Y365350D02*
X713925D01*
Y359350D01*
X714606D01*
Y356500D01*
X713750D01*
Y349500D01*
X719250D01*
Y356500D01*
X718394D01*
Y359350D01*
X719075D01*
Y365350D01*
D02*
G37*
G36*
X677688Y365000D02*
X673312D01*
X669269Y363325D01*
X666175Y360231D01*
X664500Y356188D01*
Y351812D01*
X666175Y347769D01*
X669269Y344675D01*
X673312Y343000D01*
X677688D01*
X681731Y344675D01*
X684825Y347769D01*
X686500Y351812D01*
Y356188D01*
X684825Y360231D01*
X681731Y363325D01*
X677688Y365000D01*
D02*
G37*
G36*
X313285Y302750D02*
X311214D01*
X309750Y301286D01*
Y299215D01*
X310356Y298609D01*
Y294491D01*
X304500D01*
Y288990D01*
X311500D01*
Y289966D01*
X313000D01*
Y289230D01*
X320000D01*
Y294730D01*
X314144D01*
Y298609D01*
X314750Y299215D01*
Y301286D01*
X313285Y302750D01*
D02*
G37*
G36*
X240786Y302750D02*
X238715D01*
X237250Y301286D01*
Y299215D01*
X237856Y298609D01*
Y294491D01*
X232000D01*
Y288990D01*
X239000D01*
Y289846D01*
X240500D01*
Y288990D01*
X247500D01*
Y294490D01*
X241644D01*
Y298609D01*
X242250Y299215D01*
Y301286D01*
X240786Y302750D01*
D02*
G37*
%LPD*%
G36*
X916500Y444500D02*
Y439000D01*
X913000Y435500D01*
X888000D01*
X874500Y422000D01*
Y397500D01*
X880000Y392000D01*
Y387000D01*
X872500Y379500D01*
Y376000D01*
X870000D01*
Y384500D01*
X869000Y385500D01*
Y398500D01*
X867500Y400000D01*
Y427500D01*
X887500Y447500D01*
X913500D01*
X916500Y444500D01*
D02*
G37*
G36*
X892000Y363000D02*
Y343500D01*
X888000Y339500D01*
X874000D01*
Y350000D01*
X870500Y353500D01*
Y360500D01*
X871000Y361000D01*
X878000D01*
X881000Y364000D01*
X891000D01*
X892000Y363000D01*
D02*
G37*
%LPC*%
G36*
X1178500Y411206D02*
X1176587Y410413D01*
X1174020Y407846D01*
X1173227Y405933D01*
X1174020Y404020D01*
X1175933Y403227D01*
X1177847Y404020D01*
X1180413Y406587D01*
X1181206Y408500D01*
X1180413Y410413D01*
X1178500Y411206D01*
D02*
G37*
G36*
X637750Y318644D02*
X637402Y318500D01*
X636965D01*
X636655Y318191D01*
X636411Y318089D01*
X636309Y317845D01*
X635500Y317036D01*
Y314965D01*
X635856Y314609D01*
Y294990D01*
X630000D01*
Y289491D01*
X637000D01*
Y290346D01*
X638500D01*
Y289490D01*
X645500D01*
Y294990D01*
X639644D01*
Y314109D01*
X640500Y314965D01*
Y317036D01*
X639036Y318500D01*
X638098D01*
X637750Y318644D01*
D02*
G37*
G36*
X568036Y318500D02*
X565965D01*
X564500Y317036D01*
Y314965D01*
X565106Y314359D01*
Y294990D01*
X559500D01*
Y289491D01*
X566500D01*
Y290346D01*
X568000D01*
Y289490D01*
X575000D01*
Y294990D01*
X568894D01*
Y314359D01*
X569500Y314965D01*
Y317036D01*
X568036Y318500D01*
D02*
G37*
G36*
X499036D02*
X496965D01*
X495500Y317036D01*
Y314965D01*
X496106Y314359D01*
Y294491D01*
X489500D01*
Y288990D01*
X496500D01*
Y289575D01*
X498000D01*
Y288990D01*
X505000D01*
Y294490D01*
X499894D01*
Y314359D01*
X500500Y314965D01*
Y317036D01*
X499036Y318500D01*
D02*
G37*
G36*
X171285Y302750D02*
X169214D01*
X167750Y301286D01*
Y299215D01*
X168356Y298609D01*
Y294491D01*
X162500D01*
Y288990D01*
X169500D01*
Y289966D01*
X171000D01*
Y289230D01*
X178000D01*
Y294730D01*
X172144D01*
Y298609D01*
X172750Y299215D01*
Y301286D01*
X171285Y302750D01*
D02*
G37*
G36*
X100285Y302750D02*
X98215D01*
X96750Y301286D01*
Y299215D01*
X97330Y298634D01*
X97343Y298598D01*
X97345Y298589D01*
X97350Y298537D01*
X97356Y298525D01*
Y294491D01*
X91500D01*
Y288990D01*
X98500D01*
Y289846D01*
X100000D01*
Y288990D01*
X107000D01*
Y294490D01*
X101144D01*
Y298525D01*
X101151Y298537D01*
X101155Y298589D01*
X101157Y298598D01*
X101170Y298634D01*
X101750Y299215D01*
Y301286D01*
X100285Y302750D01*
D02*
G37*
%LPD*%
G36*
X100243Y299115D02*
X100192Y299040D01*
X100147Y298954D01*
X100108Y298857D01*
X100075Y298750D01*
X100048Y298632D01*
X100027Y298503D01*
X100012Y298363D01*
X100000Y298051D01*
X98500D01*
X98497Y298212D01*
X98473Y298503D01*
X98452Y298632D01*
X98425Y298750D01*
X98392Y298857D01*
X98353Y298954D01*
X98308Y299040D01*
X98257Y299115D01*
X98200Y299179D01*
X100300D01*
X100243Y299115D01*
D02*
G37*
G36*
X100015Y293705D02*
X100060Y293450D01*
X100135Y293225D01*
X100240Y293030D01*
X100375Y292865D01*
X100540Y292730D01*
X100735Y292625D01*
X100960Y292550D01*
X101215Y292505D01*
X101500Y292490D01*
X99250Y290990D01*
X97000Y292490D01*
X97285Y292505D01*
X97540Y292550D01*
X97765Y292625D01*
X97960Y292730D01*
X98125Y292865D01*
X98260Y293030D01*
X98365Y293225D01*
X98440Y293450D01*
X98485Y293705D01*
X98500Y293990D01*
X100000D01*
X100015Y293705D01*
D02*
G37*
%LPC*%
G36*
X1177000Y282206D02*
X1176000D01*
X1174087Y281413D01*
X1173294Y279500D01*
X1174087Y277587D01*
X1176000Y276794D01*
X1177000D01*
X1178913Y277587D01*
X1179706Y279500D01*
X1178913Y281413D01*
X1177000Y282206D01*
D02*
G37*
%LPD*%
D14*
X53500Y240240D02*
G03*
X53240Y240500I-260J0D01*
G01*
X88500Y237741D02*
G03*
X88240Y238001I-259J0D01*
G01*
X123500Y233000D02*
G03*
X123740Y233240I0J240D01*
G01*
X159500Y237741D02*
G03*
X159240Y238000I-259J0D01*
G01*
X193000Y233000D02*
G03*
X193240Y233240I0J240D01*
G01*
X229000Y237741D02*
G03*
X228741Y238000I-259J0D01*
G01*
X485000Y347000D02*
Y355626D01*
X480000Y342000D02*
X485000Y347000D01*
X347229Y342000D02*
X480000D01*
X477126Y347626D02*
Y355626D01*
X474000Y344500D02*
X477126Y347626D01*
X351000Y344500D02*
X474000D01*
X485000Y363500D02*
Y370500D01*
X474500Y381000D02*
X485000Y370500D01*
X335000Y381000D02*
X474500D01*
X477126Y363500D02*
Y368374D01*
X472000Y373500D02*
X477126Y368374D01*
X345000Y373500D02*
X472000D01*
X300000Y361500D02*
X312000Y373500D01*
X345000D02*
X346000Y374500D01*
X136500Y205480D02*
X145000D01*
X128000Y205480D02*
Y205480D01*
X119500D02*
X128000D01*
X301000Y232000D02*
Y238000D01*
X300980D02*
X301000D01*
X282000Y242500D02*
X284000Y244500D01*
X297500D02*
X298500Y245500D01*
X284000Y244500D02*
X297500D01*
X298500Y245500D02*
Y251700D01*
X265980Y232500D02*
Y240500D01*
X252500Y266500D02*
X285000D01*
X288500Y263000D01*
X249500Y263500D02*
X252500Y266500D01*
X249500Y260740D02*
Y263500D01*
X71500Y244500D02*
X84000D01*
X86000Y246500D02*
Y251700D01*
X84000Y244500D02*
X86000Y246500D01*
X53240Y240500D02*
Y241250D01*
X53500Y232500D02*
Y240240D01*
X88500Y233000D02*
Y237741D01*
X123740Y233240D02*
Y240500D01*
X159500Y233000D02*
Y237741D01*
X193240Y233240D02*
Y240500D01*
X229000Y232500D02*
Y237741D01*
X315000Y381000D02*
X335000D01*
X300500Y366500D02*
X315000Y381000D01*
X801000Y319327D02*
Y325000D01*
X332776Y356453D02*
X347229Y342000D01*
X346000Y349729D02*
Y350000D01*
Y349729D02*
X346500Y349229D01*
Y349000D02*
Y349229D01*
Y349000D02*
X351000Y344500D01*
X334500Y361500D02*
X346000Y350000D01*
X318500Y361500D02*
X334500D01*
X318523Y356477D02*
X332753D01*
X318500Y356500D02*
X318523Y356477D01*
X332753D02*
X332776Y356453D01*
X318500Y341500D02*
X334500D01*
X336500Y339500D01*
X318500Y346500D02*
X332500D01*
X333000D01*
X411000Y304500D02*
X429000D01*
X398000Y291500D02*
X411000Y304500D01*
X391500Y296500D02*
X406000Y311000D01*
X438500D01*
X303500Y314000D02*
Y319000D01*
Y314000D02*
X306000Y311500D01*
X318500D01*
X865791Y370500D02*
X868500D01*
X863831Y368539D02*
X865791Y370500D01*
X863831Y368539D02*
X866461D01*
X868500Y366500D01*
X863831Y368539D02*
Y370669D01*
X863500Y371000D02*
X863831Y370669D01*
X859000Y366500D02*
X861791D01*
X862396Y367104D01*
X875780Y293168D02*
X877500Y291448D01*
X872018Y293982D02*
X873518D01*
X874332Y293168D01*
X872000Y294000D02*
X872018Y293982D01*
X877500Y285000D02*
Y291448D01*
X874332Y293168D02*
X875780D01*
X852769Y295606D02*
X855500Y292875D01*
X849606Y295606D02*
X852769D01*
X849500Y295500D02*
X849606Y295606D01*
X855500Y291300D02*
Y292875D01*
X651500Y334500D02*
X682500Y303500D01*
X376000Y334500D02*
X651500D01*
X682500Y291800D02*
Y303500D01*
Y286500D02*
Y291800D01*
X786000Y316500D02*
X786000D01*
X782500Y318586D02*
Y319327D01*
X783038Y318047D02*
X784452D01*
X782500Y318586D02*
X783038Y318047D01*
X784452D02*
X786000Y316500D01*
X277555Y366500D02*
X300500D01*
X346000Y374500D02*
Y377000D01*
X312000Y373500D02*
X345000D01*
X277555Y361500D02*
X300000D01*
X338500Y307500D02*
X367000D01*
X318500Y321500D02*
X412464D01*
X318500Y316500D02*
X437000D01*
X386964Y331500D02*
X386965Y331500D01*
X318500Y336500D02*
X335000D01*
X337500Y334000D01*
X591333Y301667D02*
Y301667D01*
X318500Y331500D02*
X386964D01*
X318500Y326500D02*
X566500Y326500D01*
X437000Y316500D02*
X451000Y302500D01*
X386965Y331500D02*
X630000D01*
X500500Y321500D02*
X521167Y300833D01*
X630000Y331500D02*
X661500Y300000D01*
X566500Y326500D02*
X591333Y301667D01*
X318500Y351500D02*
X328500D01*
X337500Y334000D02*
X349500D01*
X349000Y314000D02*
X381130D01*
X344000Y311000D02*
X373000D01*
X349500Y324000D02*
X392500D01*
X388000Y329000D02*
X593000D01*
X397904Y324000D02*
X521500D01*
X412464Y321500D02*
X412465Y321500D01*
X397904Y324000D02*
X397904Y324000D01*
X412465Y321500D02*
X500500D01*
X521500Y324000D02*
X542833Y302667D01*
X413500Y319000D02*
X456500D01*
X473000Y302500D01*
X593000Y329000D02*
X612667Y309333D01*
X395000Y295214D02*
X407286Y307500D01*
X395000Y295000D02*
Y295214D01*
X407286Y307500D02*
X434000D01*
X391500Y292500D02*
Y296500D01*
X612500Y291967D02*
X612667Y292133D01*
X661500Y291800D02*
Y300000D01*
X591333Y291800D02*
Y301667D01*
X521167Y291800D02*
Y300833D01*
X267000Y312500D02*
X271000Y316500D01*
X277555D01*
X267000Y306000D02*
Y312500D01*
X276000Y331500D02*
X276500Y332000D01*
X125000Y308500D02*
X143000Y326500D01*
X163500Y324000D02*
X266626D01*
X216000Y307000D02*
X227500Y318500D01*
X91000Y329000D02*
X267126D01*
X76000Y314000D02*
X91000Y329000D01*
X143000Y326500D02*
X275500D01*
X146500Y307000D02*
X163500Y324000D01*
X227500Y318500D02*
X266626D01*
X54500Y311000D02*
X75000Y331500D01*
X194500Y307000D02*
X209000Y321500D01*
X75000Y331500D02*
X276000D01*
X209000Y321500D02*
X277555D01*
X492000Y253760D02*
X503500D01*
X473000Y258500D02*
X475740Y261240D01*
X492000D01*
X473000Y252200D02*
Y258500D01*
X461000Y252200D02*
Y258500D01*
Y238000D02*
Y252200D01*
X457760Y261740D02*
X461000Y258500D01*
X442500Y261740D02*
X457760D01*
X536000Y279500D02*
X570000D01*
X571500Y281000D01*
X531167Y284333D02*
X536000Y279500D01*
X571500Y281000D02*
Y284759D01*
X499500Y279500D02*
X501500Y281500D01*
X465500Y279500D02*
X499500D01*
X461000Y284000D02*
X465500Y279500D01*
X501500Y281500D02*
Y284260D01*
X531167Y284333D02*
Y291800D01*
X461000Y284000D02*
Y291800D01*
X451000D02*
Y302500D01*
X395500Y283500D02*
X413500Y301500D01*
X395500Y275819D02*
Y283500D01*
X413500Y301500D02*
X442000D01*
X346739Y276080D02*
X347000Y275819D01*
X346000Y281229D02*
X346739Y280490D01*
Y276080D02*
Y280490D01*
X346000Y281229D02*
Y281500D01*
X390500Y275819D02*
Y281000D01*
X388000Y283500D02*
X390500Y281000D01*
X382000Y283500D02*
X388000D01*
X377000Y275819D02*
Y283500D01*
X372000Y275819D02*
Y283500D01*
X367000Y275819D02*
Y283500D01*
X362070Y275889D02*
Y283695D01*
X362141Y283765D01*
X362000Y275819D02*
X362070Y275889D01*
X357000Y275819D02*
Y283500D01*
X352000Y275819D02*
Y283500D01*
X400500Y283000D02*
X416000Y298500D01*
X446000D01*
X400500Y275819D02*
Y283000D01*
X757500Y305000D02*
Y319327D01*
X752327D02*
X752500Y319153D01*
X744000Y287500D02*
X747500Y284000D01*
Y277319D02*
Y284000D01*
X744000Y287500D02*
Y304000D01*
X752500Y312500D01*
Y319153D01*
X752327Y319327D02*
X752500D01*
X772500Y308000D02*
Y319327D01*
X767500Y311000D02*
Y319327D01*
X811000Y312500D02*
Y318827D01*
X826000Y312500D02*
Y319327D01*
X795777Y319104D02*
X796000Y319327D01*
X816000Y312500D02*
Y319327D01*
Y312000D02*
Y312500D01*
X796000D02*
Y317500D01*
X787000Y303500D02*
X796000Y312500D01*
X777500Y297870D02*
Y302500D01*
X772500Y301500D02*
Y301716D01*
Y296673D02*
Y301500D01*
X948167Y291300D02*
Y291867D01*
Y289725D02*
Y291300D01*
X944000Y294771D02*
Y295000D01*
Y294771D02*
X945183Y293587D01*
X946446D01*
X948167Y291867D01*
X929000Y297000D02*
Y297500D01*
X926500Y292875D02*
X929000Y297000D01*
X948167Y289725D02*
X953132Y284760D01*
X967500D01*
X926500Y291300D02*
Y292875D01*
X787000Y293000D02*
Y303500D01*
X877500Y285000D02*
X878740Y283760D01*
X897000D01*
X1018896Y291363D02*
Y297396D01*
X1018833Y291300D02*
X1018896Y291363D01*
Y297396D02*
X1018958Y297458D01*
X997447Y291353D02*
X997500Y291300D01*
X997394Y298211D02*
X997447Y298159D01*
Y291353D02*
Y298159D01*
X612667Y292133D02*
Y309333D01*
X612500Y291967D02*
X612667Y291800D01*
X542833D02*
Y302667D01*
X473000Y291800D02*
Y302500D01*
X289000Y291800D02*
Y305500D01*
X288500Y291300D02*
X289000Y291800D01*
X216000Y291300D02*
Y307000D01*
X146500Y291300D02*
Y307000D01*
X125000Y291300D02*
Y308500D01*
X76000Y291300D02*
Y314000D01*
X1059500Y284260D02*
X1076760D01*
X1078500Y286000D01*
X54500Y291300D02*
Y311000D01*
X194500Y291300D02*
Y307000D01*
X267000Y306000D02*
X267000Y306000D01*
X267000Y291300D02*
Y306000D01*
X1086500Y279500D02*
X1089500Y282500D01*
Y291300D01*
X1052500Y279500D02*
X1086500D01*
X1051000Y281000D02*
X1052500Y279500D01*
X1051000Y281000D02*
Y284260D01*
X1078500Y286000D02*
Y291300D01*
X1037739Y284500D02*
X1038000Y284760D01*
X1020500Y284500D02*
X1037739D01*
X1018833Y286167D02*
X1020500Y284500D01*
X1018833Y286167D02*
Y291300D01*
X1007500Y286000D02*
Y291300D01*
X1006260Y284759D02*
X1007500Y286000D01*
X988000Y284759D02*
X1006260D01*
X973500Y279500D02*
X976000Y282000D01*
Y284759D01*
X941500Y279500D02*
X973500D01*
X936500Y284500D02*
X941500Y279500D01*
X936500Y284500D02*
Y291300D01*
X904000Y279500D02*
X905500Y281000D01*
Y283759D01*
X869000Y279500D02*
X904000D01*
X865500Y283000D02*
X869000Y279500D01*
X865500Y283000D02*
Y291300D01*
X710500Y279500D02*
X712500Y281500D01*
Y285260D01*
X675500Y279500D02*
X710500D01*
X671500Y283500D02*
X675500Y279500D01*
X671500Y283500D02*
Y291800D01*
X682500Y286500D02*
X683740Y285260D01*
X704000D01*
X640500Y279500D02*
X642000Y281000D01*
Y284759D01*
X608500Y279500D02*
X640500D01*
X601333Y286667D02*
X608500Y279500D01*
X601333Y286667D02*
Y291800D01*
X614240Y284760D02*
X633500D01*
X612667Y286333D02*
X614240Y284760D01*
X612667Y286333D02*
Y291800D01*
X544240Y284760D02*
X563000D01*
X542833Y286167D02*
X544240Y284760D01*
X542833Y286167D02*
Y291800D01*
X473000Y286500D02*
X475240Y284260D01*
X493000D01*
X473000Y286500D02*
Y291800D01*
X316500Y281000D02*
Y284500D01*
X315000Y279500D02*
X316500Y281000D01*
X282000Y279500D02*
X315000D01*
X277000Y284500D02*
X282000Y279500D01*
X277000Y284500D02*
Y291300D01*
X289740Y284260D02*
X308000D01*
X288500Y285500D02*
X289740Y284260D01*
X288500Y285500D02*
Y291300D01*
X244000Y281500D02*
Y284260D01*
X242000Y279500D02*
X244000Y281500D01*
X209000Y279500D02*
X242000D01*
X204500Y284000D02*
X209000Y279500D01*
X204500Y284000D02*
Y291300D01*
X217240Y284260D02*
X235500D01*
X216000Y285500D02*
X217240Y284260D01*
X216000Y285500D02*
Y291300D01*
X174500Y281500D02*
Y284500D01*
X172500Y279500D02*
X174500Y281500D01*
X138000Y279500D02*
X172500D01*
X135000Y282500D02*
X138000Y279500D01*
X135000Y282500D02*
Y291300D01*
X146500Y286000D02*
X148240Y284260D01*
X166000D01*
X146500Y286000D02*
Y291300D01*
X70000Y279500D02*
X101500D01*
X103500Y281500D01*
Y284260D01*
X64500Y285000D02*
X70000Y279500D01*
X64500Y285000D02*
Y291300D01*
X76000Y286000D02*
X77740Y284260D01*
X96560D01*
X76000Y286000D02*
Y291300D01*
X68500Y266500D02*
X76000Y259000D01*
X39000Y266500D02*
X68500D01*
X76000Y251700D02*
Y259000D01*
X645000Y266000D02*
X680000D01*
X643000Y264000D02*
X645000Y266000D01*
X680000D02*
X682500Y263500D01*
X643000Y261240D02*
Y264000D01*
X576000Y266000D02*
X611000D01*
X574000Y264000D02*
X576000Y266000D01*
X611000D02*
X612667Y264333D01*
X574000Y260740D02*
Y264000D01*
X539500Y266000D02*
X542833Y262667D01*
X503500Y264500D02*
X505000Y266000D01*
X539500D01*
X503500Y261240D02*
Y264500D01*
X730500Y211999D02*
X731259Y212759D01*
Y220000D01*
X1052500Y266000D02*
X1084000D01*
X1050500Y264000D02*
X1052500Y266000D01*
X1050500Y260740D02*
Y264000D01*
X979000Y260740D02*
Y264500D01*
X981000Y266500D02*
X1013000D01*
X979000Y264500D02*
X981000Y266500D01*
X839500D02*
X871000D01*
X837500Y264500D02*
X839500Y266500D01*
X837500Y260740D02*
Y264500D01*
X329500Y211740D02*
Y218740D01*
X321259Y212499D02*
Y219500D01*
X328740D02*
X329500Y218740D01*
X320500Y211740D02*
X321259Y212499D01*
X346740Y212500D02*
X347500Y211740D01*
X346740Y212500D02*
Y220000D01*
X338500Y211740D02*
Y219240D01*
X339260Y220000D01*
X329500Y204260D02*
X338500D01*
X338500Y204259D01*
X445500Y191833D02*
Y198500D01*
X184000Y184000D02*
X189500Y189500D01*
Y198000D01*
X215000Y192370D02*
Y198000D01*
Y192370D02*
X223370Y184000D01*
X42000D02*
X49000Y191000D01*
Y198000D01*
X74500Y190870D02*
X81370Y184000D01*
X74500Y190870D02*
Y198000D01*
X155500Y244500D02*
X156500Y245500D01*
X140000Y242500D02*
X142000Y244500D01*
X155500D01*
X156500Y245500D02*
Y251700D01*
X691500Y245000D02*
X692500Y246000D01*
X678500Y245000D02*
X691500D01*
X676500Y243000D02*
X678500Y245000D01*
X692500Y246000D02*
Y252200D01*
X1084000Y243000D02*
X1085500Y244500D01*
X1097500D02*
X1099500Y246500D01*
X1085500Y244500D02*
X1097500D01*
X1013101Y242601D02*
X1015500Y245000D01*
X1027500D02*
X1028833Y246333D01*
X1015500Y245000D02*
X1027500D01*
X941500Y243000D02*
X943500Y245000D01*
X956914D01*
X958167Y246252D02*
Y251700D01*
X956914Y245000D02*
X958167Y246252D01*
X752500Y277319D02*
Y284500D01*
X747500Y289500D02*
X752500Y284500D01*
X747500Y289500D02*
Y296673D01*
X757500Y277319D02*
Y285500D01*
X752500Y290500D02*
X757500Y285500D01*
X752500Y290500D02*
Y296673D01*
X757500Y290500D02*
X762500Y285500D01*
Y277319D02*
Y285500D01*
X757500Y290500D02*
Y296673D01*
X762500Y290000D02*
X767500Y285000D01*
Y277319D02*
Y285000D01*
X762500Y290000D02*
Y296673D01*
X772500Y277319D02*
Y285000D01*
X767500Y290000D02*
X772500Y285000D01*
X767500Y290000D02*
Y296673D01*
X777500Y283500D02*
X787000Y293000D01*
X777500Y277319D02*
Y283500D01*
X791000Y277138D02*
Y296673D01*
X796000Y277138D02*
Y296673D01*
X801000Y277138D02*
Y296673D01*
X806000Y277138D02*
Y296673D01*
X811000Y277138D02*
Y296673D01*
X816000Y277138D02*
Y296673D01*
X821000Y277138D02*
Y296673D01*
X1139009Y210480D02*
X1140259Y211730D01*
X1147740Y210740D02*
X1148000Y210480D01*
X1139000D02*
X1139009D01*
X1138980Y203020D02*
X1139000Y203000D01*
X1140259Y211730D02*
Y218500D01*
X1147740Y210740D02*
Y218500D01*
X1129500Y211000D02*
X1130000Y210500D01*
X1129500Y211000D02*
Y218000D01*
X1130000Y203020D02*
X1138980D01*
X74500Y237500D02*
X80259D01*
X80760Y238001D01*
X69500Y242500D02*
X71500Y244500D01*
X69500Y237500D02*
Y242500D01*
X64500Y237500D02*
Y251700D01*
X53240Y241250D02*
X54500Y242510D01*
Y251700D01*
X37000Y264500D02*
X39000Y266500D01*
X37000Y260740D02*
Y264500D01*
X64500Y251700D02*
Y257500D01*
X61260Y260740D02*
X64500Y257500D01*
X45500Y260740D02*
X61260D01*
X139500Y267000D02*
X146500Y260000D01*
Y251700D02*
Y260000D01*
X109500Y267000D02*
X139500D01*
X107500Y265000D02*
X109500Y267000D01*
X107500Y260740D02*
Y265000D01*
X135000Y251700D02*
Y258500D01*
X132759Y260740D02*
X135000Y258500D01*
X116000Y260740D02*
X132759D01*
X123740Y240500D02*
Y241250D01*
X125000Y242510D02*
Y251700D01*
X123740Y241250D02*
X125000Y242510D01*
X135000Y237500D02*
Y251700D01*
X140000Y237500D02*
Y242500D01*
X151260Y237500D02*
X151760Y238000D01*
X145000Y237500D02*
X151260D01*
X193240Y241250D02*
X194500Y242510D01*
X193240Y240500D02*
Y241250D01*
X194500Y242510D02*
Y251700D01*
X204500Y237500D02*
Y251700D01*
X177000Y264000D02*
X179500Y266500D01*
X177000Y260740D02*
Y264000D01*
X179500Y266500D02*
X213000D01*
X216000Y263500D01*
Y251700D02*
Y263500D01*
X202259Y260740D02*
X204500Y258500D01*
Y251700D02*
Y258500D01*
X185500Y260740D02*
X202259D01*
X226000Y246000D02*
Y251700D01*
X224500Y244500D02*
X226000Y246000D01*
X211500Y244500D02*
X224500D01*
X209500Y242500D02*
X211500Y244500D01*
X209500Y237500D02*
Y242500D01*
X214500Y237500D02*
X220760D01*
X221260Y238000D01*
X288500Y251700D02*
Y263000D01*
X275259Y260740D02*
X277000Y259000D01*
Y251700D02*
Y259000D01*
X258000Y260740D02*
X275259D01*
X277000Y237500D02*
Y251700D01*
X282000Y237500D02*
Y242500D01*
X61750Y185750D02*
X65500Y182000D01*
X79370D01*
X61750Y185750D02*
Y197999D01*
X202250Y187250D02*
X207500Y182000D01*
X221370D02*
X223370Y184000D01*
X207500Y182000D02*
X221370D01*
X202250Y187250D02*
Y197999D01*
X206499D01*
X198000D02*
X202250D01*
X206499D02*
X206500Y198000D01*
X197999Y205480D02*
X198000Y205480D01*
X189500Y205480D02*
X197999D01*
X293000Y237500D02*
X293500Y238000D01*
X287000Y237500D02*
X293000D01*
X206500Y205480D02*
X215000D01*
X261500D02*
X270000D01*
X270000Y205480D01*
X278500Y205480D02*
X287000D01*
X274250Y185750D02*
Y197999D01*
X278500Y181500D02*
X292500D01*
X274250Y185750D02*
X278500Y181500D01*
X292500D02*
X294500Y183500D01*
X274250Y197999D02*
X278499D01*
X270000D02*
X274250D01*
X278499D02*
X278500Y198000D01*
X261500Y189870D02*
Y198000D01*
X255130Y183500D02*
X261500Y189870D01*
X287000Y191000D02*
Y198000D01*
Y191000D02*
X294500Y183500D01*
X136500Y182000D02*
X150370D01*
X132249Y186250D02*
X136500Y182000D01*
X150370D02*
X152370Y184000D01*
X132249Y186250D02*
Y197999D01*
X136499D01*
X128000D02*
X132249D01*
X136499D02*
X136500Y198000D01*
X145000Y191370D02*
Y198000D01*
Y191370D02*
X152370Y184000D01*
X113000D02*
X119500Y190500D01*
Y198000D01*
X79370Y182000D02*
X81370Y184000D01*
X61750Y197999D02*
X65999D01*
X57500D02*
X61750D01*
X65999D02*
X66000Y198000D01*
X77500Y215500D02*
X81370Y211630D01*
X74500Y215500D02*
X77500D01*
X81370Y184000D02*
Y211630D01*
X149000Y215500D02*
X152370Y212130D01*
X145000Y215500D02*
X149000D01*
X152370Y184000D02*
Y212130D01*
X218000Y215500D02*
X223370Y210130D01*
X214500Y215500D02*
X218000D01*
X223370Y184000D02*
Y210130D01*
X291500Y215500D02*
X294500Y212500D01*
X287000Y215500D02*
X291500D01*
X294500Y183500D02*
Y212500D01*
X267000Y241519D02*
Y251700D01*
X265980Y240500D02*
X267000Y241519D01*
X66000Y205480D02*
X74500D01*
X57500D02*
X57500Y205480D01*
X49000Y205480D02*
X57500D01*
X64500Y206730D02*
Y215500D01*
Y206730D02*
X65750Y205480D01*
X66000D01*
X59500Y206730D02*
Y215500D01*
X58250Y205480D02*
X59500Y206730D01*
X57500Y205480D02*
X58250D01*
X136250Y205480D02*
X136500D01*
X135000Y206730D02*
Y215500D01*
Y206730D02*
X136250Y205480D01*
X128750Y205480D02*
X130000Y206730D01*
Y215500D01*
X128000Y205480D02*
X128750D01*
X204500Y206730D02*
X205750Y205480D01*
X204500Y206730D02*
Y215500D01*
X205750Y205480D02*
X206500D01*
X198250Y205480D02*
X199500Y206730D01*
Y215500D01*
X198000Y205480D02*
X198250D01*
X272000Y206730D02*
Y215500D01*
X270750Y205480D02*
X272000Y206730D01*
X270000Y205480D02*
X270750D01*
X277000Y206730D02*
X278250Y205480D01*
X277000Y206730D02*
Y215500D01*
X278250Y205480D02*
X278500D01*
X450990Y252190D02*
X451000Y252200D01*
X449740Y241000D02*
X450990Y242250D01*
Y252190D01*
X449740Y233260D02*
X450500Y232500D01*
X449740Y233260D02*
Y241000D01*
X485241Y232259D02*
Y238500D01*
X481500Y244500D02*
X483000Y246000D01*
Y252200D01*
X467500Y244500D02*
X481500D01*
X466000Y243000D02*
X467500Y244500D01*
X466000Y238000D02*
Y243000D01*
X477260Y238000D02*
X477760Y238500D01*
X471000Y238000D02*
X477260D01*
X519820Y232180D02*
Y241000D01*
X521070Y252103D02*
X521167Y252200D01*
X519820Y241000D02*
X521070Y242250D01*
Y252103D01*
X542833Y252200D02*
Y262667D01*
X531167Y252200D02*
Y257833D01*
X527760Y261241D02*
X531167Y257833D01*
X512000Y261241D02*
X527760D01*
X531333Y238167D02*
X531500Y238000D01*
X531333Y238167D02*
Y252033D01*
X531167Y252200D02*
X531333Y252033D01*
X552000Y245000D02*
X552833Y245833D01*
Y252200D01*
X538000Y245000D02*
X552000D01*
X536500Y243500D02*
X538000Y245000D01*
X536500Y238000D02*
Y243500D01*
X556241Y232241D02*
Y238500D01*
X548260Y238000D02*
X548760Y238500D01*
X541500Y238000D02*
X548260D01*
X622500Y247000D02*
Y252033D01*
X622667Y252200D01*
X620500Y245000D02*
X622500Y247000D01*
X608500Y245000D02*
X620500D01*
X607000Y243500D02*
X608500Y245000D01*
X607000Y238000D02*
Y243500D01*
X612667Y252200D02*
Y264333D01*
X601333Y252200D02*
X601732Y251801D01*
X601333Y252200D02*
Y258667D01*
X599260Y260740D02*
X601333Y258667D01*
X582500Y260740D02*
X599260D01*
X601732Y249489D02*
Y251801D01*
Y238268D02*
Y249489D01*
Y238268D02*
X602000Y238000D01*
X589900Y241750D02*
X591333Y243183D01*
Y252200D01*
X589900Y241000D02*
Y241750D01*
X589500Y240599D02*
X589900Y241000D01*
X589500Y232500D02*
Y240599D01*
X626741Y232241D02*
Y238500D01*
X612000Y238000D02*
X618760D01*
X619260Y238500D01*
X682500Y252200D02*
Y263500D01*
X668759Y261241D02*
X671500Y258500D01*
Y252200D02*
Y258500D01*
X651500Y261241D02*
X668759D01*
X696241Y232259D02*
X696500Y232000D01*
X696241Y232259D02*
Y238500D01*
X660500Y232000D02*
Y240480D01*
X659980Y241000D02*
X660500Y240480D01*
X661230Y242250D02*
Y251930D01*
X659980Y241000D02*
X661230Y242250D01*
Y251930D02*
X661500Y252200D01*
X671500Y238000D02*
Y252200D01*
X676500Y238000D02*
Y243000D01*
X688260Y238000D02*
X688760Y238500D01*
X681500Y238000D02*
X688260D01*
X474500Y216000D02*
X477537Y212963D01*
X471000Y216000D02*
X474500D01*
X477537Y184500D02*
Y212963D01*
X458250Y186750D02*
X462500Y182500D01*
X475537D01*
X477537Y184500D01*
X458250Y186750D02*
Y198499D01*
X462499D01*
X454000D02*
X458250D01*
X462499D02*
X462500Y198500D01*
Y205980D02*
X471000D01*
X453999D02*
X454000Y205980D01*
X445500Y205980D02*
X453999D01*
X471000Y191037D02*
Y198500D01*
Y191037D02*
X477537Y184500D01*
X438167D02*
X445500Y191833D01*
X461000Y207230D02*
X462250Y205980D01*
X462500D01*
X461000Y207230D02*
Y216000D01*
X454750Y205980D02*
X456000Y207230D01*
X454000Y205980D02*
X454750D01*
X456000Y207230D02*
Y216000D01*
X541500D02*
X546000D01*
X549370Y212630D01*
Y184000D02*
Y212630D01*
X529250Y185750D02*
Y198499D01*
X533500Y181500D02*
X543945D01*
X529250Y185750D02*
X533500Y181500D01*
X546445Y184000D02*
X549370D01*
X543945Y181500D02*
X546445Y184000D01*
X529250Y198499D02*
X533499D01*
X525000D02*
X529250D01*
X533499D02*
X533500Y198500D01*
Y205980D02*
X542000D01*
X525250Y205980D02*
X526500Y207230D01*
X525000Y205980D02*
X525250D01*
X526500Y207230D02*
Y216000D01*
X531500Y207230D02*
Y216000D01*
Y207230D02*
X532750Y205980D01*
X533500D01*
X516500D02*
X525000D01*
X525000Y205980D01*
X516500Y190500D02*
Y198500D01*
X510000Y184000D02*
X516500Y190500D01*
X542000Y191370D02*
Y198500D01*
Y191370D02*
X549370Y184000D01*
X616500Y216000D02*
X619703Y212797D01*
X612000Y216000D02*
X616500D01*
X619703Y183500D02*
Y212797D01*
X604000Y181000D02*
X614278D01*
X599250Y185750D02*
Y198499D01*
Y185750D02*
X604000Y181000D01*
X614278D02*
X616778Y183500D01*
X619703D01*
X599250Y198499D02*
X603499D01*
X595000D02*
X599250D01*
X603499D02*
X603500Y198500D01*
Y205980D02*
X612000D01*
Y191204D02*
Y198500D01*
Y191204D02*
X619703Y183500D01*
X586500Y189667D02*
Y198500D01*
X580333Y183500D02*
X586500Y189667D01*
X603250Y205980D02*
X603500D01*
X602000Y207230D02*
Y216000D01*
Y207230D02*
X603250Y205980D01*
X595750Y205980D02*
X597000Y207230D01*
Y216000D01*
X595000Y205980D02*
X595750D01*
X586500Y205980D02*
X595000D01*
X595000Y205980D01*
X681500Y216000D02*
X685000D01*
X688870Y212130D01*
Y183500D02*
Y212130D01*
X673000Y205980D02*
X681500D01*
X668750Y184750D02*
Y198499D01*
Y184750D02*
X672000Y181500D01*
X686870D01*
X688870Y183500D01*
X668750Y198499D02*
X672999D01*
X664500D02*
X668750D01*
X672999D02*
X673000Y198500D01*
X671500Y207230D02*
X672750Y205980D01*
X673000D01*
X671500Y207230D02*
Y216000D01*
X664500Y205980D02*
X665250D01*
X666500Y207230D02*
Y216000D01*
X665250Y205980D02*
X666500Y207230D01*
X656000Y205980D02*
X664500D01*
X664500Y205980D01*
X649500Y183500D02*
X656000Y190000D01*
Y198500D01*
X681500Y190870D02*
X688870Y183500D01*
X681500Y190870D02*
Y198500D01*
X720740Y212760D02*
X721500Y212000D01*
X730500Y204520D02*
X730500Y204519D01*
X721500Y204520D02*
X730500D01*
X738740Y212760D02*
X739500Y212000D01*
X713260Y212759D02*
Y220000D01*
X720740Y212760D02*
Y220000D01*
X738740Y212760D02*
Y220000D01*
X712500Y211999D02*
X713260Y212759D01*
X1095870Y183000D02*
Y212130D01*
X1092500Y215500D02*
X1095870Y212130D01*
X1089000Y215500D02*
X1092500D01*
X882370Y183000D02*
Y213130D01*
X880000Y215500D02*
X882370Y213130D01*
X875500Y215500D02*
X880000D01*
X880370Y181000D02*
X882370Y183000D01*
X862750Y185250D02*
X867000Y181000D01*
X880370D01*
X862750Y197999D02*
X866999D01*
X858500D02*
X862750D01*
Y185250D02*
Y197999D01*
X866999D02*
X867000Y198000D01*
Y205480D02*
X875500D01*
X850000D02*
X858500D01*
X858500Y205480D01*
X875500Y189870D02*
X882370Y183000D01*
X875500Y189870D02*
Y198000D01*
X843000Y183000D02*
X850000Y190000D01*
Y198000D01*
X1004750Y185250D02*
X1009000Y181000D01*
X1022537D01*
X1004750Y185250D02*
Y197999D01*
X953203Y183000D02*
Y212797D01*
X950500Y215500D02*
X953203Y212797D01*
X946500Y215500D02*
X950500D01*
X921000Y205480D02*
X929499D01*
X929500Y205480D01*
X938000Y205480D02*
X946500D01*
X1009000D02*
X1017500D01*
X992000D02*
X1000500D01*
X1000500Y205480D01*
X933750Y184250D02*
X937000Y181000D01*
X951203D02*
X953203Y183000D01*
X937000Y181000D02*
X951203D01*
X933750Y197999D02*
X937999D01*
X929500D02*
X933750D01*
Y184250D02*
Y197999D01*
X937999D02*
X938000Y198000D01*
X946500Y189703D02*
X953203Y183000D01*
X946500Y189703D02*
Y198000D01*
X921000Y190167D02*
Y198000D01*
X913833Y183000D02*
X921000Y190167D01*
X886000Y244500D02*
X887500Y246000D01*
Y251700D01*
X872000Y244500D02*
X886000D01*
X870500Y243000D02*
X872000Y244500D01*
X870500Y237500D02*
Y243000D01*
X865500Y237500D02*
Y251700D01*
X853980Y232020D02*
X854000Y232000D01*
X853980Y232020D02*
Y240500D01*
X855230Y251430D02*
X855500Y251700D01*
X853980Y240500D02*
X855230Y241750D01*
Y251430D01*
X996153Y240500D02*
X997403Y241750D01*
X996153Y232500D02*
Y240500D01*
X997403Y251603D02*
X997500Y251700D01*
X997403Y241750D02*
Y251603D01*
X925000Y232500D02*
X925067Y232567D01*
Y240500D01*
X926317Y241750D01*
Y251517D02*
X926500Y251700D01*
X926317Y241750D02*
Y251517D01*
X941500Y237500D02*
Y243000D01*
X936500Y237500D02*
Y251700D01*
X1007667Y237667D02*
X1007833Y237500D01*
X1007667Y237667D02*
Y251533D01*
X1007500Y251700D02*
X1007667Y251533D01*
X1028833Y246333D02*
Y251700D01*
X1012833Y237500D02*
X1013101Y237768D01*
Y242601D01*
X877500Y251700D02*
Y260000D01*
X871000Y266500D02*
X877500Y260000D01*
X865500Y251700D02*
Y259000D01*
X863760Y260740D02*
X865500Y259000D01*
X846000Y260740D02*
X863760D01*
X941000Y267500D02*
X948167Y260333D01*
Y251700D02*
Y260333D01*
X911500Y267500D02*
X941000D01*
X908500Y264500D02*
X911500Y267500D01*
X908500Y260740D02*
Y264500D01*
X936500Y251700D02*
Y258500D01*
X934260Y260740D02*
X936500Y258500D01*
X917000Y260740D02*
X934260D01*
X1018833Y251700D02*
Y260667D01*
X1013000Y266500D02*
X1018833Y260667D01*
X1007500Y251700D02*
Y258000D01*
X1004760Y260740D02*
X1007500Y258000D01*
X987500Y260740D02*
X1004760D01*
X889740Y232259D02*
Y239000D01*
X1032074Y232074D02*
Y239000D01*
X960907Y232593D02*
Y239000D01*
X1017833Y215500D02*
X1021000D01*
X1017500D02*
X1017833D01*
X1024594Y238750D02*
Y239000D01*
X1017833Y237500D02*
X1023343D01*
X1024594Y238750D01*
X953427D02*
Y239000D01*
X946500Y237500D02*
X952177D01*
X953427Y238750D01*
X882260D02*
Y239000D01*
X875500Y237500D02*
X881010D01*
X882260Y238750D01*
X936500Y206730D02*
X937750Y205480D01*
X938000D01*
X936500Y206730D02*
Y215500D01*
X930250Y205480D02*
X931500Y206730D01*
Y215500D01*
X929500Y205480D02*
X930250D01*
X866750Y205480D02*
X867000D01*
X865500Y206730D02*
Y215500D01*
Y206730D02*
X866750Y205480D01*
X858500Y205480D02*
X859250D01*
X860500Y206730D02*
Y215500D01*
X859250Y205480D02*
X860500Y206730D01*
X1080500Y205480D02*
X1089000D01*
X1071999D02*
X1072000Y205480D01*
X1063500Y205480D02*
X1071999D01*
X1103240Y239000D02*
X1103740Y238501D01*
X1103240Y232500D02*
Y239000D01*
X1067240Y232500D02*
Y240500D01*
X1067247Y241257D02*
X1067260Y242500D01*
X1067247Y241257D02*
X1068500Y242510D01*
X1067240Y241250D02*
X1067247Y241257D01*
X1067240Y240500D02*
Y241250D01*
X1068500Y242510D02*
Y251700D01*
X1050500Y260740D02*
X1050500Y260740D01*
X1078924Y250125D02*
Y251276D01*
X1078500D02*
Y251700D01*
X1089500D02*
Y260500D01*
X1084000Y266000D02*
X1089500Y260500D01*
X1078500Y251700D02*
Y258500D01*
X1076260Y260740D02*
X1078500Y258500D01*
X1057000Y260740D02*
X1076260D01*
X1067787Y250987D02*
X1068500Y251700D01*
X1099500Y246500D02*
Y251700D01*
X1084000Y237500D02*
Y243000D01*
X1078924Y237577D02*
Y250125D01*
X1021000Y215500D02*
X1024537Y211963D01*
Y183000D02*
Y211963D01*
X1007500Y206730D02*
X1008750Y205480D01*
X1009000D01*
X1007500Y206730D02*
Y215500D01*
X1001250Y205480D02*
X1002500Y206730D01*
Y215500D01*
X1000500Y205480D02*
X1001250D01*
X1022537Y181000D02*
X1024537Y183000D01*
X1004750Y197999D02*
X1008999D01*
X1000500D02*
X1004750D01*
X1008999D02*
X1009000Y198000D01*
X1017500Y190037D02*
Y198000D01*
Y190037D02*
X1024537Y183000D01*
X992000Y189833D02*
Y198000D01*
X985167Y183000D02*
X992000Y189833D01*
X1067240Y240500D02*
X1067760Y238500D01*
X1079000Y206730D02*
X1080500Y205480D01*
X1079000Y206730D02*
Y215500D01*
X1072000Y205480D02*
X1074000Y206730D01*
Y215500D01*
X1076250Y184750D02*
X1080000Y181000D01*
X1093870D01*
X1095870Y183000D01*
X1076250Y197999D02*
X1080499D01*
X1072000D02*
X1076250D01*
Y184750D02*
Y197999D01*
X1080499D02*
X1080500Y198000D01*
X1089000Y189870D02*
X1095870Y183000D01*
X1089000Y189870D02*
Y198000D01*
X1056500Y183000D02*
X1063500Y190000D01*
Y198000D01*
X1017500Y217500D02*
Y218853D01*
X1095741Y238981D02*
X1095760Y239000D01*
X1078500Y250125D02*
Y251276D01*
X1017500Y238886D02*
Y239500D01*
Y238886D02*
X1018147Y238240D01*
D16*
X1089500Y291300D02*
Y298500D01*
X1068406Y291394D02*
X1068500Y291300D01*
X1068406Y291394D02*
Y297728D01*
X1068312Y297822D02*
X1068406Y297728D01*
D19*
X385500Y261828D02*
X386672Y263000D01*
X415133D01*
X385500Y253181D02*
Y261828D01*
X415133Y263000D02*
X429133Y277000D01*
X342000Y259500D02*
X343500Y261000D01*
X385500D01*
X666500Y228000D02*
X743000D01*
X764972Y188248D02*
Y206028D01*
X743000Y228000D02*
X764972Y206028D01*
X498000Y291740D02*
X501500D01*
X493000D02*
X498000D01*
X501500D02*
X501500Y291740D01*
X493000Y291740D02*
X493000Y291740D01*
X277500Y300000D02*
Y311445D01*
X277555Y311500D01*
X103500Y291740D02*
X103500Y291740D01*
X95000Y291740D02*
X95000Y291740D01*
X839000Y363000D02*
Y371000D01*
X833500Y357500D02*
X839000Y363000D01*
X442380Y254140D02*
X442500Y254260D01*
X442130Y241130D02*
X442380Y241380D01*
Y254140D01*
X726500Y277000D02*
X742500Y261000D01*
X429133Y277000D02*
X726500D01*
X804000Y264000D02*
X807500D01*
X801500D02*
X804000D01*
X783500D02*
X801500D01*
X745500D02*
X783500D01*
X786000Y261500D01*
Y254500D02*
Y261500D01*
X742500Y261000D02*
X745500Y264000D01*
X742500Y254681D02*
Y261000D01*
X342000Y253181D02*
Y259500D01*
X1059009Y240500D02*
Y243162D01*
X1149500Y227500D02*
X1172972Y204028D01*
X987500Y240500D02*
Y253260D01*
Y232000D02*
Y240500D01*
X1059009Y237838D02*
Y240500D01*
X1074000Y227500D02*
X1149500D01*
X1172972Y187248D02*
Y204028D01*
X272000Y227500D02*
X349000D01*
X372472Y188248D02*
Y204028D01*
X349000Y227500D02*
X372472Y204028D01*
X312000Y211740D02*
X320500D01*
X311921Y204181D02*
X312000Y204259D01*
X320500D01*
X311921Y188327D02*
Y204181D01*
X1111921Y202681D02*
X1112421Y203181D01*
Y187327D02*
X1112921Y187827D01*
X1112342Y187248D02*
X1112421Y187327D01*
Y203181D02*
X1112500Y203259D01*
X1112421Y187327D02*
Y203181D01*
X1058250Y253260D02*
X1059000Y252510D01*
X1120880Y203140D02*
X1121000Y203020D01*
X1112500Y203259D02*
X1112620Y203140D01*
X1120880D01*
X1074000Y227500D02*
Y237500D01*
X1063500Y227500D02*
X1074000D01*
X45630Y240629D02*
X45759Y240500D01*
X45500Y253260D02*
X45630Y253130D01*
Y240629D02*
Y253130D01*
X45500Y253260D02*
X45500Y253260D01*
X37000Y253259D02*
X37001Y253260D01*
X45500D01*
X116130Y240630D02*
X116260Y240500D01*
X116000Y253260D02*
X116130Y253130D01*
Y240630D02*
Y253130D01*
X107501Y253260D02*
X115999D01*
X107500Y253259D02*
X107501Y253260D01*
X115999D02*
X116000Y253260D01*
X185630Y240630D02*
Y253130D01*
Y240630D02*
X185759Y240500D01*
X185500Y253260D02*
X185630Y253130D01*
X177001Y253260D02*
X185499D01*
X185500Y253260D01*
X177000Y253259D02*
X177001Y253260D01*
X258250Y240750D02*
X258500Y240500D01*
X258000Y253260D02*
X258250Y253010D01*
Y240750D02*
Y253010D01*
X249500Y253259D02*
X249501Y253260D01*
X257999D01*
X258000Y253260D01*
X130000Y227500D02*
X191000D01*
X199000D02*
X263000D01*
X121500D02*
X130000D01*
Y237500D01*
X191000Y227500D02*
X199000D01*
X199500Y228000D01*
Y237500D01*
X263000Y227500D02*
X272000D01*
X272000Y227500D02*
Y237500D01*
Y227500D02*
X272000Y227500D01*
X258500Y232000D02*
Y240500D01*
Y232000D02*
X263000Y227500D01*
X185759Y232740D02*
Y240500D01*
Y232740D02*
X191000Y227500D01*
X60000D02*
X121500D01*
X116260Y232740D02*
Y240500D01*
Y232740D02*
X121500Y227500D01*
X51000D02*
X60000D01*
X59500Y228000D02*
Y237500D01*
Y228000D02*
X60000Y227500D01*
X45759Y232740D02*
Y240500D01*
Y232740D02*
X51000Y227500D01*
X311842Y188248D02*
X311921Y188327D01*
X294500Y183500D02*
X307095D01*
X311842Y188248D01*
X456000Y228000D02*
X516500D01*
X448000D02*
X456000D01*
Y238000D01*
X526500Y228000D02*
X585000D01*
X516500D02*
X526500D01*
Y238000D01*
X512340Y232160D02*
Y241000D01*
Y232160D02*
X516500Y228000D01*
X512170Y241170D02*
X512340Y241000D01*
X512000Y253760D02*
X512170Y253590D01*
Y241170D02*
Y253590D01*
X503500Y253760D02*
X503501Y253760D01*
X511999D01*
X512000Y253760D01*
X601732Y249489D02*
X602000Y249221D01*
X597000Y228000D02*
X656000D01*
X585000D02*
X597000D01*
Y238000D01*
X582420Y230580D02*
X585000Y228000D01*
X582420Y230580D02*
Y241000D01*
X582499Y253260D02*
X582500Y253260D01*
X582460Y253220D02*
X582499Y253260D01*
X582460Y241040D02*
Y253220D01*
X582420Y241000D02*
X582460Y241040D01*
X574001Y253260D02*
X582499D01*
X574000Y253259D02*
X574001Y253260D01*
X442260Y233740D02*
X448000Y228000D01*
X656000D02*
X666500D01*
X666500Y238000D02*
X666500Y238000D01*
Y228000D02*
Y238000D01*
X652500Y231500D02*
X656000Y228000D01*
X652500Y231500D02*
Y241000D01*
X651500Y242750D02*
X652500Y241750D01*
X651500Y242750D02*
Y253760D01*
X652500Y241000D02*
Y241750D01*
X643001Y253760D02*
X651499D01*
X643000Y253760D02*
X643001Y253760D01*
X651499D02*
X651500Y253760D01*
X492000Y253760D02*
X492001Y253760D01*
X442130Y241130D02*
X442260Y241000D01*
Y233740D02*
Y241000D01*
X704171Y188419D02*
Y204348D01*
Y188419D02*
X704343Y188248D01*
X704000Y204519D02*
X704171Y204348D01*
X704000Y204519D02*
X712500D01*
X703921Y204440D02*
X704000Y204519D01*
Y211999D02*
X712500D01*
X699594Y183500D02*
X704343Y188248D01*
X688870Y183500D02*
X699594D01*
X704343Y188248D02*
X704421Y188327D01*
X862500Y227500D02*
X922000D01*
X849500D02*
X862500D01*
X846500Y230500D02*
X849500Y227500D01*
X846500Y230500D02*
Y240500D01*
X846000Y253260D02*
X846250Y253010D01*
Y240750D02*
Y253010D01*
Y240750D02*
X846500Y240500D01*
X837500Y253259D02*
X837500Y253260D01*
X846000D01*
X846000Y253260D01*
X922000Y227500D02*
X931000D01*
X917587Y231913D02*
Y240500D01*
Y231913D02*
X922000Y227500D01*
X917000Y253260D02*
X917293Y252967D01*
Y240793D02*
Y252967D01*
Y240793D02*
X917587Y240500D01*
X908501Y253260D02*
X916999D01*
X908500Y253259D02*
X908501Y253260D01*
X916999D02*
X917000Y253260D01*
X992000Y227500D02*
X1002500D01*
X931000D02*
X992000D01*
X987500Y232000D02*
X992000Y227500D01*
X987499Y253260D02*
X987500Y253260D01*
X979000Y253259D02*
X979001Y253260D01*
X987499D01*
X1050500Y253259D02*
X1050501Y253260D01*
X1058250D01*
X1074000Y237500D02*
X1074000Y237500D01*
X1002500Y227500D02*
X1063500D01*
X1002500D02*
X1002833Y227833D01*
Y237500D01*
X931500Y228000D02*
Y237500D01*
X931000Y227500D02*
X931500Y228000D01*
X860500Y229500D02*
Y237500D01*
Y229500D02*
X862500Y227500D01*
X1059000Y232000D02*
X1063500Y227500D01*
X1059000Y237828D02*
X1059009Y237838D01*
X1059000Y252510D02*
X1059000Y252510D01*
Y232000D02*
Y237828D01*
Y243171D02*
X1059009Y243162D01*
X1059000Y243171D02*
Y252510D01*
X1059000Y252510D02*
Y253260D01*
X1078500Y251700D02*
X1078924Y251276D01*
Y237577D02*
X1079000Y237500D01*
X1107615Y183000D02*
X1111863Y187248D01*
X1095870Y183000D02*
X1107615D01*
X1111863Y187248D02*
X1112342D01*
D21*
X716500Y353000D02*
D03*
X863520Y389000D02*
D03*
X871000D02*
D03*
X885480D02*
D03*
X878000D02*
D03*
X346740Y220000D02*
D03*
X339260D02*
D03*
X328740Y219500D02*
D03*
X321259D02*
D03*
X1147740Y218500D02*
D03*
X1140259D02*
D03*
X720740Y220000D02*
D03*
X713260D02*
D03*
X1129500Y218000D02*
D03*
X1122020D02*
D03*
X738740Y220000D02*
D03*
X731259D02*
D03*
X293500Y238000D02*
D03*
X300980D02*
D03*
X659980Y241000D02*
D03*
X652500D02*
D03*
X619260Y238500D02*
D03*
X626741D02*
D03*
X265980Y240500D02*
D03*
X258500D02*
D03*
X882260Y239000D02*
D03*
X889740D02*
D03*
X53240Y240500D02*
D03*
X45759D02*
D03*
X1103240Y239000D02*
D03*
X1095760D02*
D03*
X1059760Y240500D02*
D03*
X1067240D02*
D03*
X548760Y238500D02*
D03*
X556241D02*
D03*
X688760D02*
D03*
X696241D02*
D03*
X988673Y240500D02*
D03*
X996153D02*
D03*
X589900Y241000D02*
D03*
X582420D02*
D03*
X80760Y238001D02*
D03*
X88240D02*
D03*
X449740Y241000D02*
D03*
X442260D02*
D03*
X853980Y240500D02*
D03*
X846500D02*
D03*
X123740D02*
D03*
X116260D02*
D03*
X519820Y241000D02*
D03*
X512340D02*
D03*
X151760Y238000D02*
D03*
X159240D02*
D03*
X1032074Y239000D02*
D03*
X1024594D02*
D03*
X193240Y240500D02*
D03*
X185759D02*
D03*
X960907Y239000D02*
D03*
X953427D02*
D03*
X221260Y238000D02*
D03*
X228741D02*
D03*
X917587Y240500D02*
D03*
X925067D02*
D03*
X477760Y238500D02*
D03*
X485241D02*
D03*
D22*
X716500Y346000D02*
D03*
D23*
Y369650D02*
D03*
Y362350D02*
D03*
D24*
X806000Y350189D02*
D03*
Y373811D02*
D03*
X733000Y345189D02*
D03*
Y368811D02*
D03*
D25*
X856331Y358205D02*
D03*
X861331D02*
D03*
X866331D02*
D03*
X871331D02*
D03*
X856331Y378874D02*
D03*
X861331D02*
D03*
X866331D02*
D03*
X782500Y319327D02*
D03*
X777500D02*
D03*
X772500D02*
D03*
X767500D02*
D03*
X762500D02*
D03*
X757500D02*
D03*
X752500D02*
D03*
X747500D02*
D03*
X782500Y296673D02*
D03*
X777500D02*
D03*
X772500D02*
D03*
X767500D02*
D03*
X762500D02*
D03*
X757500D02*
D03*
X752500D02*
D03*
X747500D02*
D03*
X791000D02*
D03*
X796000D02*
D03*
X801000D02*
D03*
X806000D02*
D03*
X811000D02*
D03*
X816000D02*
D03*
X821000D02*
D03*
X826000D02*
D03*
X791000Y319327D02*
D03*
X796000D02*
D03*
X801000D02*
D03*
X806000D02*
D03*
X811000D02*
D03*
X816000D02*
D03*
X821000D02*
D03*
X826000D02*
D03*
D26*
X871331Y378874D02*
D03*
D27*
X848500Y371000D02*
D03*
Y378480D02*
D03*
X861500Y340759D02*
D03*
Y348240D02*
D03*
X844000Y326980D02*
D03*
Y319500D02*
D03*
X839000Y378480D02*
D03*
Y371000D02*
D03*
X612000Y205980D02*
D03*
Y198500D02*
D03*
X967500Y292241D02*
D03*
Y284760D02*
D03*
X249500Y253259D02*
D03*
Y260740D02*
D03*
X897000Y283760D02*
D03*
Y291241D02*
D03*
X992000Y205480D02*
D03*
Y198000D02*
D03*
X493000Y291740D02*
D03*
Y284260D02*
D03*
X837500Y260740D02*
D03*
Y253259D02*
D03*
X74500Y205480D02*
D03*
Y198000D02*
D03*
X875500Y205480D02*
D03*
Y198000D02*
D03*
X643000Y253760D02*
D03*
Y261240D02*
D03*
X329500Y204260D02*
D03*
Y211740D02*
D03*
X921000Y198000D02*
D03*
Y205480D02*
D03*
X471000Y205980D02*
D03*
Y198500D02*
D03*
X347500Y204260D02*
D03*
Y211740D02*
D03*
X512000Y261241D02*
D03*
Y253760D02*
D03*
X1050500Y260740D02*
D03*
Y253259D02*
D03*
X721500Y204520D02*
D03*
Y212000D02*
D03*
X185500Y260740D02*
D03*
Y253260D02*
D03*
X103500Y284260D02*
D03*
Y291740D02*
D03*
X312000Y211740D02*
D03*
Y204259D02*
D03*
X492000Y253760D02*
D03*
Y261240D02*
D03*
X563000Y292241D02*
D03*
Y284760D02*
D03*
X37000Y253259D02*
D03*
Y260740D02*
D03*
X174500Y284500D02*
D03*
Y291980D02*
D03*
X850000Y205480D02*
D03*
Y198000D02*
D03*
X445500Y198500D02*
D03*
Y205980D02*
D03*
X1038000Y284760D02*
D03*
Y292241D02*
D03*
X730500Y211999D02*
D03*
Y204519D02*
D03*
X651500Y261241D02*
D03*
Y253760D02*
D03*
X739500Y204520D02*
D03*
Y212000D02*
D03*
X177000Y253259D02*
D03*
Y260740D02*
D03*
X503500Y253760D02*
D03*
Y261240D02*
D03*
X287000Y198000D02*
D03*
Y205480D02*
D03*
X1139000Y210480D02*
D03*
Y203000D02*
D03*
X1063500Y198000D02*
D03*
Y205480D02*
D03*
X542000Y205980D02*
D03*
Y198500D02*
D03*
X189500Y205480D02*
D03*
Y198000D02*
D03*
X116000Y260740D02*
D03*
Y253260D02*
D03*
X1148000Y203000D02*
D03*
Y210480D02*
D03*
X308000Y291740D02*
D03*
Y284260D02*
D03*
X119500Y205480D02*
D03*
Y198000D02*
D03*
X1089000D02*
D03*
Y205480D02*
D03*
X1059500Y284260D02*
D03*
Y291740D02*
D03*
X244000Y284260D02*
D03*
Y291740D02*
D03*
X846000Y253260D02*
D03*
Y260740D02*
D03*
X107500Y253259D02*
D03*
Y260740D02*
D03*
X215000Y205480D02*
D03*
Y198000D02*
D03*
X1130000Y203020D02*
D03*
Y210500D02*
D03*
X987500Y253260D02*
D03*
Y260740D02*
D03*
X905500Y291240D02*
D03*
Y283759D02*
D03*
X338500Y211740D02*
D03*
Y204259D02*
D03*
X166000Y291740D02*
D03*
Y284260D02*
D03*
X656000Y205980D02*
D03*
Y198500D02*
D03*
X261500Y198000D02*
D03*
Y205480D02*
D03*
X516500Y205980D02*
D03*
Y198500D02*
D03*
X95000Y291740D02*
D03*
Y284260D02*
D03*
X586500Y205980D02*
D03*
Y198500D02*
D03*
X49000Y205480D02*
D03*
Y198000D02*
D03*
X704000Y211999D02*
D03*
Y204519D02*
D03*
X1051000Y291740D02*
D03*
Y284260D02*
D03*
X642000Y284759D02*
D03*
Y292240D02*
D03*
X633500Y292241D02*
D03*
Y284760D02*
D03*
X582500Y260740D02*
D03*
Y253260D02*
D03*
X979000Y260740D02*
D03*
Y253259D02*
D03*
X976000Y284759D02*
D03*
Y292240D02*
D03*
X712500Y285260D02*
D03*
Y292740D02*
D03*
X681500Y205980D02*
D03*
Y198500D02*
D03*
X145000Y205480D02*
D03*
Y198000D02*
D03*
X988000Y292240D02*
D03*
Y284759D02*
D03*
X571500D02*
D03*
Y292240D02*
D03*
X574000Y253259D02*
D03*
Y260740D02*
D03*
X946500Y198000D02*
D03*
Y205480D02*
D03*
X258000Y260740D02*
D03*
Y253260D02*
D03*
X1059000D02*
D03*
Y260740D02*
D03*
X1121000Y210500D02*
D03*
Y203020D02*
D03*
X235500Y291740D02*
D03*
Y284260D02*
D03*
X45500Y260740D02*
D03*
Y253260D02*
D03*
X501500Y284260D02*
D03*
Y291740D02*
D03*
X442500Y261740D02*
D03*
Y254260D02*
D03*
X316500Y284500D02*
D03*
Y291980D02*
D03*
X704000Y292741D02*
D03*
Y285260D02*
D03*
X917000Y253260D02*
D03*
Y260740D02*
D03*
X1017500Y205480D02*
D03*
Y198000D02*
D03*
X908500Y260740D02*
D03*
Y253259D02*
D03*
X793500Y371740D02*
D03*
Y364260D02*
D03*
X745000Y366000D02*
D03*
Y358520D02*
D03*
X454000Y205980D02*
D03*
Y198499D02*
D03*
X1000500Y205480D02*
D03*
Y197999D02*
D03*
X1009000Y198000D02*
D03*
Y205480D02*
D03*
X320500Y204259D02*
D03*
Y211740D02*
D03*
X712500Y204519D02*
D03*
Y211999D02*
D03*
X1112500Y203259D02*
D03*
Y210740D02*
D03*
X57500Y205480D02*
D03*
Y197999D02*
D03*
X525000Y205980D02*
D03*
Y198499D02*
D03*
X533500Y198500D02*
D03*
Y205980D02*
D03*
X664500Y205980D02*
D03*
Y198499D02*
D03*
X198000Y205480D02*
D03*
Y197999D02*
D03*
X1080500Y205480D02*
D03*
Y198000D02*
D03*
X206500D02*
D03*
Y205480D02*
D03*
X136500Y198000D02*
D03*
Y205480D02*
D03*
X66000Y198000D02*
D03*
Y205480D02*
D03*
X128000Y205480D02*
D03*
Y197999D02*
D03*
X462500Y198500D02*
D03*
Y205980D02*
D03*
X1072000Y197999D02*
D03*
Y205480D02*
D03*
X858500D02*
D03*
Y197999D02*
D03*
X938000Y205480D02*
D03*
Y198000D02*
D03*
X673000Y198500D02*
D03*
Y205980D02*
D03*
X867000Y198000D02*
D03*
Y205480D02*
D03*
X278500D02*
D03*
Y198000D02*
D03*
X929500Y197999D02*
D03*
Y205480D02*
D03*
X603500Y198500D02*
D03*
Y205980D02*
D03*
X595000Y205980D02*
D03*
Y198499D02*
D03*
X270000Y197999D02*
D03*
Y205480D02*
D03*
D28*
X861000Y318000D02*
D03*
Y327000D02*
D03*
X852500Y318000D02*
D03*
Y327000D02*
D03*
D29*
X887000Y358248D02*
D03*
Y376752D02*
D03*
D30*
X881000Y320500D02*
D03*
Y345500D02*
D03*
D31*
X755000Y363500D02*
D03*
D32*
X779000Y372555D02*
D03*
Y363500D02*
D03*
Y354445D02*
D03*
D33*
X209500Y215500D02*
D03*
X199500D02*
D03*
X204500D02*
D03*
X214500D02*
D03*
X199500Y237500D02*
D03*
X204500D02*
D03*
X209500D02*
D03*
X214500D02*
D03*
X1017833D02*
D03*
X1012833D02*
D03*
X1007833D02*
D03*
X1002833D02*
D03*
X1017833Y215500D02*
D03*
X1007833D02*
D03*
X1002833D02*
D03*
X1012833D02*
D03*
X1089000Y237500D02*
D03*
X1084000D02*
D03*
X1079000D02*
D03*
X1074000D02*
D03*
X1089000Y215500D02*
D03*
X1079000D02*
D03*
X1074000D02*
D03*
X1084000D02*
D03*
X466000Y216000D02*
D03*
X456000D02*
D03*
X461000D02*
D03*
X471000D02*
D03*
X456000Y238000D02*
D03*
X461000D02*
D03*
X466000D02*
D03*
X471000D02*
D03*
X681500D02*
D03*
X676500D02*
D03*
X671500D02*
D03*
X666500D02*
D03*
X681500Y216000D02*
D03*
X671500D02*
D03*
X666500D02*
D03*
X676500D02*
D03*
X870500Y215500D02*
D03*
X860500D02*
D03*
X865500D02*
D03*
X875500D02*
D03*
X860500Y237500D02*
D03*
X865500D02*
D03*
X870500D02*
D03*
X875500D02*
D03*
X536500Y216000D02*
D03*
X526500D02*
D03*
X531500D02*
D03*
X541500D02*
D03*
X526500Y238000D02*
D03*
X531500D02*
D03*
X536500D02*
D03*
X541500D02*
D03*
X607000Y216000D02*
D03*
X597000D02*
D03*
X602000D02*
D03*
X612000D02*
D03*
X597000Y238000D02*
D03*
X602000D02*
D03*
X607000D02*
D03*
X612000D02*
D03*
X282000Y215500D02*
D03*
X272000D02*
D03*
X277000D02*
D03*
X287000D02*
D03*
X272000Y237500D02*
D03*
X277000D02*
D03*
X282000D02*
D03*
X287000D02*
D03*
X946500D02*
D03*
X941500D02*
D03*
X936500D02*
D03*
X931500D02*
D03*
X946500Y215500D02*
D03*
X936500D02*
D03*
X931500D02*
D03*
X941500D02*
D03*
X140000D02*
D03*
X130000D02*
D03*
X135000D02*
D03*
X145000D02*
D03*
X130000Y237500D02*
D03*
X135000D02*
D03*
X140000D02*
D03*
X145000D02*
D03*
X69500Y215500D02*
D03*
X59500D02*
D03*
X64500D02*
D03*
X74500D02*
D03*
X59500Y237500D02*
D03*
X64500D02*
D03*
X69500D02*
D03*
X74500D02*
D03*
D34*
X855500Y251700D02*
D03*
X865500D02*
D03*
X855500Y291300D02*
D03*
X125000D02*
D03*
X135000Y251700D02*
D03*
X125000D02*
D03*
X54500Y291300D02*
D03*
X64500Y251700D02*
D03*
X54500D02*
D03*
X156500D02*
D03*
X146500Y291300D02*
D03*
X156500D02*
D03*
X692500Y252200D02*
D03*
X682500Y291800D02*
D03*
X692500D02*
D03*
X483000Y252200D02*
D03*
X473000Y291800D02*
D03*
X483000D02*
D03*
X521167D02*
D03*
X531167Y252200D02*
D03*
X521167D02*
D03*
X267000Y291300D02*
D03*
X277000Y251700D02*
D03*
X267000D02*
D03*
X194500Y291300D02*
D03*
X204500Y251700D02*
D03*
X194500D02*
D03*
X1099500Y291300D02*
D03*
X1089500D02*
D03*
X1099500Y251700D02*
D03*
X958167Y291300D02*
D03*
X948167D02*
D03*
X958167Y251700D02*
D03*
X887500Y291300D02*
D03*
X877500D02*
D03*
X887500Y251700D02*
D03*
X451000Y291800D02*
D03*
X461000Y252200D02*
D03*
X451000D02*
D03*
X298500Y251700D02*
D03*
X288500Y291300D02*
D03*
X298500D02*
D03*
X661500Y291800D02*
D03*
X671500Y252200D02*
D03*
X661500D02*
D03*
X226000Y251700D02*
D03*
X216000Y291300D02*
D03*
X226000D02*
D03*
X552833Y252200D02*
D03*
X542833Y291800D02*
D03*
X552833D02*
D03*
X1068500Y251700D02*
D03*
X1078500D02*
D03*
X1068500Y291300D02*
D03*
X591333Y291800D02*
D03*
X601333Y252200D02*
D03*
X591333D02*
D03*
X997500Y251700D02*
D03*
X1007500D02*
D03*
X997500Y291300D02*
D03*
X86000Y251700D02*
D03*
X76000Y291300D02*
D03*
X86000D02*
D03*
X622667Y252200D02*
D03*
X612667Y291800D02*
D03*
X622667D02*
D03*
X926500Y251700D02*
D03*
X936500D02*
D03*
X926500Y291300D02*
D03*
X1028833D02*
D03*
X1018833D02*
D03*
X1028833Y251700D02*
D03*
D35*
X865500Y291300D02*
D03*
X135000D02*
D03*
X64500D02*
D03*
X146500Y251700D02*
D03*
X682500Y252200D02*
D03*
X473000D02*
D03*
X531167Y291800D02*
D03*
X277000Y291300D02*
D03*
X204500D02*
D03*
X1089500Y251700D02*
D03*
X948167D02*
D03*
X877500D02*
D03*
X461000Y291800D02*
D03*
X288500Y251700D02*
D03*
X671500Y291800D02*
D03*
X216000Y251700D02*
D03*
X542833Y252200D02*
D03*
X1078500Y291300D02*
D03*
X601333Y291800D02*
D03*
X1007500Y291300D02*
D03*
X76000Y251700D02*
D03*
X612667Y252200D02*
D03*
X936500Y291300D02*
D03*
X1018833Y251700D02*
D03*
D36*
X777500Y277319D02*
D03*
X772500D02*
D03*
X767500D02*
D03*
X762500D02*
D03*
X757500D02*
D03*
X752500D02*
D03*
X747500D02*
D03*
X742500D02*
D03*
X777500Y254681D02*
D03*
X772500D02*
D03*
X767500D02*
D03*
X762500D02*
D03*
X757500D02*
D03*
X752500D02*
D03*
X747500D02*
D03*
X742500D02*
D03*
X420500Y275819D02*
D03*
X415500D02*
D03*
X410500D02*
D03*
X405500D02*
D03*
X400500D02*
D03*
X395500D02*
D03*
X390500D02*
D03*
X385500D02*
D03*
X420500Y253181D02*
D03*
X415500D02*
D03*
X410500D02*
D03*
X405500D02*
D03*
X400500D02*
D03*
X395500D02*
D03*
X390500D02*
D03*
X385500D02*
D03*
X786000Y254500D02*
D03*
X791000D02*
D03*
X796000D02*
D03*
X801000D02*
D03*
X806000D02*
D03*
X811000D02*
D03*
X816000D02*
D03*
X821000D02*
D03*
X786000Y277138D02*
D03*
X791000D02*
D03*
X796000D02*
D03*
X801000D02*
D03*
X806000D02*
D03*
X811000D02*
D03*
X816000D02*
D03*
X821000D02*
D03*
X342000Y253181D02*
D03*
X347000D02*
D03*
X352000D02*
D03*
X357000D02*
D03*
X362000D02*
D03*
X367000D02*
D03*
X372000D02*
D03*
X377000D02*
D03*
X342000Y275819D02*
D03*
X347000D02*
D03*
X352000D02*
D03*
X357000D02*
D03*
X362000D02*
D03*
X367000D02*
D03*
X372000D02*
D03*
X377000D02*
D03*
D37*
X318500Y311500D02*
D03*
D38*
Y316500D02*
D03*
Y321500D02*
D03*
Y326500D02*
D03*
Y331500D02*
D03*
Y336500D02*
D03*
Y341500D02*
D03*
Y346500D02*
D03*
Y351500D02*
D03*
Y356500D02*
D03*
X277555Y331500D02*
D03*
Y336500D02*
D03*
Y341500D02*
D03*
Y346500D02*
D03*
Y351500D02*
D03*
Y356500D02*
D03*
Y361500D02*
D03*
Y366500D02*
D03*
X318500D02*
D03*
Y361500D02*
D03*
X277555Y311500D02*
D03*
Y316500D02*
D03*
Y321500D02*
D03*
Y326500D02*
D03*
D74*
X817500Y386500D02*
D03*
X867000Y440500D02*
D03*
X745500Y375000D02*
D03*
X880842Y404500D02*
D03*
D75*
X863831Y368539D02*
D03*
D76*
X776500Y372500D02*
X806000D01*
X818500D01*
X508622Y363500D02*
Y379622D01*
X514000Y385000D02*
X798500D01*
X508622Y379622D02*
X514000Y385000D01*
X816964Y384775D02*
Y385964D01*
X806000Y373811D02*
X816964Y384775D01*
Y385964D02*
X817500Y386500D01*
X803419Y376392D02*
Y380081D01*
X798500Y385000D02*
X803419Y380081D01*
Y376392D02*
X806000Y373811D01*
X833500Y325000D02*
X839000Y319500D01*
X833500Y325000D02*
Y357500D01*
X818500Y372500D02*
X833500Y357500D01*
X839000Y319500D02*
X844000D01*
D77*
X382000Y274000D02*
X385425D01*
X385500Y274075D01*
Y275819D01*
X848500Y371000D02*
X859000D01*
X861370D01*
X863831Y368539D01*
X861331Y366039D02*
X862396Y367104D01*
X862500Y367209D02*
X863831Y368539D01*
X861331Y358205D02*
Y366039D01*
X876260Y340759D02*
X881000Y345500D01*
X861500Y340759D02*
X876260D01*
D78*
X1038250Y291990D02*
X1059250D01*
X967500Y292240D02*
X988000D01*
X708250Y292740D02*
Y316000D01*
X637750Y292240D02*
Y316750D01*
X745500Y329000D02*
X747500Y327000D01*
X755000Y347500D02*
X773500Y329000D01*
X780000D01*
X716500Y353000D02*
Y362350D01*
X732161Y369650D02*
X733000Y368811D01*
X716500Y369650D02*
X732161D01*
X567000Y316000D02*
Y316500D01*
Y292240D02*
Y316000D01*
X563000Y292240D02*
X567000D01*
X571500D01*
X747500Y319327D02*
Y327000D01*
X777500Y319327D02*
Y326500D01*
X780000Y329000D01*
X793500D01*
X791000Y326500D02*
X793500Y329000D01*
X791000Y319327D02*
Y326500D01*
X793500Y329000D02*
X818000D01*
X821000Y326000D01*
Y319327D02*
Y326000D01*
X708250Y292740D02*
X712500D01*
X704000D02*
X708250D01*
X712500D02*
X712500Y292740D01*
X704000Y292741D02*
X704000Y292740D01*
X637750Y292240D02*
X642000D01*
X633500D02*
X637750D01*
X633500Y292241D02*
X633500Y292240D01*
X642000D02*
X642000Y292240D01*
X563000Y292241D02*
X563000Y292240D01*
X571500D02*
X571500Y292240D01*
X498000Y291740D02*
Y316000D01*
X312250Y291860D02*
Y300250D01*
Y291860D02*
X316380D01*
X308120D02*
X312250D01*
X308000Y291740D02*
X308120Y291860D01*
X316380D02*
X316500Y291980D01*
X239750Y291740D02*
Y300250D01*
Y291740D02*
X244000D01*
X235500D02*
X239750D01*
X235500Y291740D02*
X235500Y291740D01*
X244000D02*
X244000Y291740D01*
X170250Y291860D02*
X174380D01*
X166120D02*
X170250D01*
Y300250D01*
X174380Y291860D02*
X174500Y291980D01*
X166000Y291740D02*
X166120Y291860D01*
X99250Y291740D02*
X103500D01*
X95000D02*
X99250D01*
X99000Y300500D02*
X99250Y300250D01*
Y291740D02*
Y300250D01*
X821000Y310500D02*
Y319327D01*
X911500Y301879D02*
X963121D01*
X909879D02*
X911500D01*
X821000Y310500D02*
X824000Y307500D01*
X905879D01*
X911500Y301879D01*
X848500Y378480D02*
X856023D01*
X839000D02*
X848500D01*
X856023D02*
X856331Y378788D01*
Y378874D01*
X861331D02*
Y386061D01*
X863520Y388250D01*
Y389000D01*
X861500Y348240D02*
X862250D01*
X866331Y352320D02*
Y358205D01*
X862250Y348240D02*
X866331Y352320D01*
X897000Y291240D02*
X905500D01*
X905500Y291240D01*
X897000Y291241D02*
X897000Y291240D01*
X905500Y291240D02*
Y297500D01*
X909879Y301879D01*
X963121D02*
X967500Y297500D01*
Y292241D02*
Y297500D01*
X993000Y302500D02*
X1033000D01*
X1038000Y292241D02*
Y297500D01*
X1033000Y302500D02*
X1038000Y297500D01*
X988000D02*
X993000Y302500D01*
X988000Y292240D02*
Y297500D01*
X967500Y292241D02*
X967500Y292240D01*
X988000D02*
X988000Y292240D01*
X1038000Y292241D02*
X1038250Y291990D01*
X1059250D02*
X1059500Y291740D01*
X704000Y211999D02*
Y220000D01*
X679000Y224000D02*
X700000D01*
X704000Y220000D01*
X357000Y253181D02*
Y254500D01*
X390500Y237500D02*
Y254681D01*
X811000Y134500D02*
X977500D01*
X805500Y127000D02*
X1068500D01*
X797000Y140000D02*
X807500Y129500D01*
X871000Y142500D02*
X877400Y148900D01*
X807000Y146500D02*
Y232000D01*
X814000Y139500D02*
X910000D01*
X1005000Y132000D02*
X1018800Y145800D01*
X815000Y142500D02*
X871000D01*
X936000Y137000D02*
X948100Y149100D01*
X794500Y138000D02*
X805500Y127000D01*
X977500Y134500D02*
X989272Y146272D01*
X809500Y148000D02*
Y229500D01*
X807500Y129500D02*
X1045500D01*
X809000Y132000D02*
X1005000D01*
X910000Y139500D02*
X918572Y148072D01*
X877400Y148900D02*
Y155898D01*
X812500Y137000D02*
X936000D01*
X809500Y148000D02*
X815000Y142500D01*
X1068500Y127000D02*
X1089500Y148000D01*
X1045500Y129500D02*
X1059972Y143972D01*
X799500Y141500D02*
X809000Y132000D01*
X802000Y143500D02*
X811000Y134500D01*
X804500Y145000D02*
X812500Y137000D01*
X807000Y146500D02*
X814000Y139500D01*
X804500Y234000D02*
X806000Y235500D01*
Y254500D01*
X804500Y145000D02*
Y234000D01*
X400500Y239500D02*
Y253181D01*
Y239500D02*
X409000Y231000D01*
X395500Y238500D02*
Y253181D01*
Y238500D02*
X406500Y227500D01*
X404000Y153000D02*
Y224000D01*
X390500Y237500D02*
X404000Y224000D01*
X377000Y245500D02*
Y253181D01*
Y245500D02*
X401500Y221000D01*
X372000Y245000D02*
X399000Y218000D01*
X372000Y245000D02*
Y253181D01*
X367000Y244500D02*
Y253181D01*
Y244500D02*
X396500Y215000D01*
X362000Y244500D02*
Y253181D01*
Y244500D02*
X394000Y212500D01*
X357000Y243500D02*
Y253181D01*
Y243500D02*
X391500Y209000D01*
X352000Y243500D02*
Y253181D01*
Y243500D02*
X389000Y206500D01*
X347000Y244000D02*
Y253181D01*
Y244000D02*
X386500Y204500D01*
X406500Y144000D02*
X412500Y138000D01*
X406500Y144000D02*
Y227500D01*
X409000Y148000D02*
X415500Y141500D01*
X409000Y148000D02*
Y231000D01*
X412500Y138000D02*
X461000D01*
X415500Y141500D02*
X439000D01*
X443039Y145539D01*
X461000Y138000D02*
X472567Y149567D01*
Y156300D01*
X443039Y145539D02*
Y156300D01*
X386500Y135500D02*
X404000Y153000D01*
X58500Y135500D02*
X386500D01*
X85000Y138000D02*
X384500D01*
X401500Y155000D02*
Y221000D01*
X384500Y138000D02*
X401500Y155000D01*
X125000Y140500D02*
X383000D01*
X399000Y156500D01*
Y218000D01*
X381000Y143000D02*
X396500Y158500D01*
Y215000D01*
X153467Y143000D02*
X381000D01*
X194000Y145500D02*
X379000D01*
X394000Y160500D01*
Y212500D01*
X377500Y148000D02*
X391500Y162000D01*
Y209000D01*
X221500Y148000D02*
X377500D01*
X375500Y150500D02*
X389000Y164000D01*
Y206500D01*
X265672Y150500D02*
X375500D01*
X386500Y166000D02*
Y204500D01*
X376300Y155800D02*
X386500Y166000D01*
X289900Y155800D02*
X376300D01*
X260372D02*
X265672Y150500D01*
X47872Y146128D02*
X58500Y135500D01*
X219067Y150433D02*
X221500Y148000D01*
X189539Y149961D02*
X194000Y145500D01*
X118706Y146794D02*
X125000Y140500D01*
X77400Y145600D02*
X85000Y138000D01*
X148233Y148233D02*
X153467Y143000D01*
X148233Y148233D02*
Y155800D01*
X47872Y146128D02*
Y155800D01*
X219067Y150433D02*
Y155800D01*
X118706Y146794D02*
Y155800D01*
X77400Y145600D02*
Y155800D01*
X189539Y149961D02*
Y155800D01*
X757500Y247000D02*
Y254681D01*
Y247000D02*
X784500Y220000D01*
Y163000D02*
Y220000D01*
X752500Y247000D02*
X782000Y217500D01*
Y165000D02*
Y217500D01*
X752500Y247000D02*
Y254681D01*
X747562Y247438D02*
Y254619D01*
Y247438D02*
X779000Y216000D01*
Y167500D02*
Y216000D01*
X801000Y235500D02*
X802000Y234500D01*
X801000Y235500D02*
Y254500D01*
X799500Y141500D02*
Y229000D01*
X796000Y232500D02*
Y254500D01*
Y232500D02*
X799500Y229000D01*
X797000Y140000D02*
Y227500D01*
X791000Y233500D02*
Y254500D01*
Y233500D02*
X797000Y227500D01*
X802000Y143500D02*
Y234500D01*
X794500Y138000D02*
Y225500D01*
X772500Y243607D02*
X792000Y224107D01*
X777500Y242500D02*
Y253500D01*
Y242500D02*
X794500Y225500D01*
X767000Y245571D02*
X789500Y223071D01*
X767000Y245571D02*
Y255500D01*
X772500Y243607D02*
Y254681D01*
X792000Y156000D02*
Y224107D01*
X789500Y158000D02*
Y223071D01*
X762500Y246535D02*
Y254681D01*
X787000Y160500D02*
Y222036D01*
X762500Y246535D02*
X787000Y222036D01*
X809500Y229500D02*
X816000Y236000D01*
X765000Y143500D02*
X784500Y163000D01*
X767000Y140500D02*
X787000Y160500D01*
X769000Y137500D02*
X789500Y158000D01*
X770500Y134500D02*
X792000Y156000D01*
X812000Y226000D02*
X821000Y235000D01*
X812000Y149500D02*
Y226000D01*
Y149500D02*
X816500Y145000D01*
X765500Y148500D02*
X782000Y165000D01*
X807000Y232000D02*
X811000Y236000D01*
X767800Y156300D02*
X779000Y167500D01*
X816500Y145000D02*
X843500D01*
X524000Y134500D02*
X770500D01*
X549500Y137500D02*
X769000D01*
X592000Y140500D02*
X767000D01*
X622000Y143500D02*
X765000D01*
X663172Y148500D02*
X765500D01*
X284500Y223500D02*
X307000D01*
X312000Y218500D01*
Y211740D02*
Y218500D01*
X1089500Y148000D02*
Y155898D01*
X821000Y235000D02*
Y254500D01*
X816000Y236000D02*
Y254500D01*
X811000Y236000D02*
Y254500D01*
X684900Y156300D02*
X767800D01*
X747500Y254681D02*
X747562Y254619D01*
X843500Y145000D02*
X847872Y149372D01*
Y155898D01*
X513817Y144683D02*
X524000Y134500D01*
X543344Y143656D02*
X549500Y137500D01*
X513817Y144683D02*
Y156300D01*
X584595Y147905D02*
X592000Y140500D01*
X614206Y151294D02*
Y156216D01*
Y151294D02*
X622000Y143500D01*
X614122Y156300D02*
X614206Y156216D01*
X655372Y156300D02*
X663172Y148500D01*
X543344Y143656D02*
Y156300D01*
X584595Y147905D02*
Y156300D01*
X918572Y148072D02*
Y155898D01*
X1018800Y145800D02*
Y155898D01*
X1059972Y143972D02*
Y155898D01*
X989272Y146272D02*
Y155898D01*
X948100Y149100D02*
Y155898D01*
X1112560Y210680D02*
Y217440D01*
Y210680D02*
X1112620Y210620D01*
X1112500Y210740D02*
X1112560Y210680D01*
X1106500Y223500D02*
X1112560Y217440D01*
X1122020Y211500D02*
Y218000D01*
X1120880Y210620D02*
X1121000Y210500D01*
X1121020D02*
X1122020Y211500D01*
X1121000Y210500D02*
X1121020D01*
X1112620Y210620D02*
X1120880D01*
X1012661Y221661D02*
X1014500Y223500D01*
X142500D02*
X212000D01*
X284500D01*
X282000Y215500D02*
Y221000D01*
X284500Y223500D01*
X209500Y215500D02*
Y221000D01*
X212000Y223500D01*
X72500D02*
X142500D01*
X140000Y221000D02*
X142500Y223500D01*
X140000Y215500D02*
Y221000D01*
X69500Y215500D02*
Y220500D01*
X72500Y223500D01*
X538750Y224000D02*
X609500D01*
X468000D02*
X538750D01*
X536500Y216000D02*
Y221750D01*
X538750Y224000D01*
X609500D02*
X679000D01*
X607000Y216000D02*
Y221500D01*
X609500Y224000D01*
X676500Y216000D02*
Y221500D01*
X679000Y224000D01*
X466000Y216000D02*
Y222000D01*
X468000Y224000D01*
X1086000Y223500D02*
X1106500D01*
X1012500Y221500D02*
X1012661Y221661D01*
Y215672D02*
Y221661D01*
Y215672D02*
X1012833Y215500D01*
X944500Y223500D02*
X1014500D01*
X873000D02*
X944500D01*
X941672Y220172D02*
X944500Y223000D01*
Y223500D01*
X941672Y215672D02*
Y220172D01*
X941500Y215500D02*
X941672Y215672D01*
X870500Y221000D02*
X873000Y223500D01*
X870500Y215500D02*
Y221000D01*
X1084000Y221500D02*
X1086000Y223500D01*
X1014500D02*
X1086000D01*
X1084000Y215500D02*
Y221500D01*
X1089416Y239000D02*
X1095760D01*
X1089000Y237500D02*
Y238585D01*
X1089416Y239000D01*
D79*
X755000Y339500D02*
Y347500D01*
Y363500D01*
X731500Y316000D02*
X755000Y339500D01*
X745000Y366000D02*
X745250Y366250D01*
Y374750D01*
X745500Y375000D01*
X867000Y440500D02*
X877000Y430500D01*
X708250Y316000D02*
X731500D01*
X708000D02*
X708250D01*
X833500Y291000D02*
X843500Y301000D01*
X833500Y280500D02*
Y291000D01*
X843500Y301000D02*
X858000D01*
X817000Y264000D02*
X833500Y280500D01*
X807500Y264000D02*
X817000D01*
X733000Y368811D02*
X735561Y366250D01*
X744750D02*
X745000Y366000D01*
X735561Y366250D02*
X744750D01*
X753154Y366000D02*
X755000Y364154D01*
Y363500D02*
Y364154D01*
X745000Y366000D02*
X753154D01*
X755000Y363500D02*
X779000D01*
X670136Y121136D02*
X862636D01*
X909213Y441366D02*
X910532D01*
X912537Y439361D02*
X913139D01*
X910532Y441366D02*
X912537Y439361D01*
X63500Y123000D02*
X133500D01*
X63000Y122500D02*
X63500Y123000D01*
X133500D02*
X204500D01*
X205000Y122500D02*
X275000D01*
X204500Y123000D02*
X205000Y122500D01*
X276197Y121303D02*
X457803D01*
X275000Y122500D02*
X276197Y121303D01*
X528464D02*
X528581Y121419D01*
X457803Y121303D02*
X528464D01*
X529020Y121858D02*
X599358D01*
X528581Y121419D02*
X529020Y121858D01*
X599358D02*
X600081Y121136D01*
X670136D01*
X670136Y121136D01*
X862636D02*
X863000Y121500D01*
X933336D01*
X933836Y122000D02*
X1004000D01*
X933336Y121500D02*
X933836Y122000D01*
X1004500Y121500D02*
X1075000D01*
X1004000Y122000D02*
X1004500Y121500D01*
X1110000Y370500D02*
X1117500Y363000D01*
Y313500D02*
X1151500Y279500D01*
X1117500Y313500D02*
Y363000D01*
X1151500Y279500D02*
X1176000D01*
X1110000Y405933D02*
X1167933D01*
X1175933D02*
X1178500Y408500D01*
X1159000Y45870D02*
X1178500Y65370D01*
Y130500D01*
X1148000Y161000D02*
X1178500Y130500D01*
X1148000Y161000D02*
Y203000D01*
X1152500Y71500D02*
X1159000Y65000D01*
Y45870D02*
Y65000D01*
D80*
X733250Y372000D02*
D03*
D81*
X861500Y301000D02*
D03*
D82*
X804000Y264000D02*
D03*
D83*
X793250Y121250D02*
D03*
D84*
X741750Y204250D02*
D03*
D85*
X349250Y204500D02*
D03*
D86*
X469252Y355626D02*
D03*
D87*
Y363500D02*
D03*
X477126Y355626D02*
D03*
Y363500D02*
D03*
X485000Y355626D02*
D03*
Y363500D02*
D03*
X492874Y355626D02*
D03*
Y363500D02*
D03*
X500748Y355626D02*
D03*
Y363500D02*
D03*
X508622Y355626D02*
D03*
Y363500D02*
D03*
X516496Y355626D02*
D03*
Y363500D02*
D03*
X524370Y355626D02*
D03*
Y363500D02*
D03*
D88*
X407500Y39500D02*
D03*
X675500Y354000D02*
D03*
X1198000Y23500D02*
D03*
X32000Y376500D02*
D03*
X31000Y17000D02*
D03*
X1202500Y450000D02*
D03*
D89*
X584595Y73623D02*
D03*
X614122Y87402D02*
D03*
X372472Y188248D02*
D03*
X311842D02*
D03*
X352000Y72500D02*
D03*
X332315D02*
D03*
X764972Y188248D02*
D03*
X704343D02*
D03*
X744500Y72500D02*
D03*
X724815D02*
D03*
X118706Y73123D02*
D03*
X148233Y86902D02*
D03*
X47872Y73123D02*
D03*
X77400Y86902D02*
D03*
X1059972Y73220D02*
D03*
X1089500Y87000D02*
D03*
X989272Y73220D02*
D03*
X1018800Y87000D02*
D03*
X543344Y87402D02*
D03*
X513817Y73623D02*
D03*
X877400Y87000D02*
D03*
X847872Y73220D02*
D03*
X655372Y73623D02*
D03*
X684900Y87402D02*
D03*
X189539Y73123D02*
D03*
X219067Y86902D02*
D03*
X260372Y73123D02*
D03*
X289900Y86902D02*
D03*
X1132815Y71500D02*
D03*
X1152500D02*
D03*
X1112342Y187248D02*
D03*
X1172972D02*
D03*
X948100Y87000D02*
D03*
X918572Y73220D02*
D03*
X472567Y87402D02*
D03*
X443039Y73623D02*
D03*
D90*
X599358Y156300D02*
D03*
X584595D02*
D03*
X614122D02*
D03*
X133470Y155800D02*
D03*
X118706D02*
D03*
X148233D02*
D03*
X62636D02*
D03*
X47872D02*
D03*
X77400D02*
D03*
X1074736Y155898D02*
D03*
X1059972D02*
D03*
X1089500D02*
D03*
X1004036D02*
D03*
X989272D02*
D03*
X1018800D02*
D03*
X543344Y156300D02*
D03*
X513817D02*
D03*
X528581D02*
D03*
X877400Y155898D02*
D03*
X847872D02*
D03*
X862636D02*
D03*
X670136Y156300D02*
D03*
X655372D02*
D03*
X684900D02*
D03*
X204303Y155800D02*
D03*
X189539D02*
D03*
X219067D02*
D03*
X275136D02*
D03*
X260372D02*
D03*
X289900D02*
D03*
X948100Y155898D02*
D03*
X918572D02*
D03*
X933336D02*
D03*
X472567Y156300D02*
D03*
X443039D02*
D03*
X457803D02*
D03*
D91*
X871000Y404500D02*
D03*
D92*
X1159000Y45870D02*
D03*
X1002000Y46870D02*
D03*
X197500Y47370D02*
D03*
X355000Y46370D02*
D03*
X749500Y44870D02*
D03*
X592500Y47370D02*
D03*
D93*
X1129000Y45870D02*
D03*
X972000Y46870D02*
D03*
X942000D02*
D03*
X912000D02*
D03*
X1056500Y183000D02*
D03*
X1095870D02*
D03*
X843000D02*
D03*
X882370D02*
D03*
X255130Y183500D02*
D03*
X294500D02*
D03*
X152370Y184000D02*
D03*
X113000D02*
D03*
X223370D02*
D03*
X184000D02*
D03*
X688870Y183500D02*
D03*
X649500D02*
D03*
X619703D02*
D03*
X580333D02*
D03*
X549370Y184000D02*
D03*
X510000D02*
D03*
X438167Y184500D02*
D03*
X477537D02*
D03*
X81370Y184000D02*
D03*
X42000D02*
D03*
X985167Y183000D02*
D03*
X1024537D02*
D03*
X107500Y47370D02*
D03*
X137500D02*
D03*
X167500D02*
D03*
X325000Y46370D02*
D03*
X913833Y183000D02*
D03*
X953203D02*
D03*
X1176000Y249500D02*
D03*
X1176130Y378000D02*
D03*
Y348000D02*
D03*
Y318000D02*
D03*
X719500Y44870D02*
D03*
X562500Y47370D02*
D03*
X532500D02*
D03*
X502500D02*
D03*
D94*
X492467Y159600D02*
D03*
X496367Y200500D02*
D03*
X421900Y159600D02*
D03*
X425800Y200500D02*
D03*
X562900Y159500D02*
D03*
X566800Y200400D02*
D03*
X830800Y200000D02*
D03*
X826900Y159100D02*
D03*
X97600D02*
D03*
X101500Y200000D02*
D03*
X633600Y159600D02*
D03*
X637500Y200500D02*
D03*
X27100Y159100D02*
D03*
X31000Y200000D02*
D03*
X168100Y159100D02*
D03*
X172000Y200000D02*
D03*
X238600Y159100D02*
D03*
X242500Y200000D02*
D03*
X968233Y159100D02*
D03*
X972133Y200000D02*
D03*
X901467D02*
D03*
X897567Y159100D02*
D03*
X1042800Y200000D02*
D03*
X1038900Y159100D02*
D03*
D95*
X1176000Y279500D02*
D03*
X1176130Y408000D02*
D03*
D96*
X909213Y441366D02*
D03*
Y335067D02*
D03*
X1110000Y405933D02*
D03*
Y370500D02*
D03*
D97*
X288500Y344500D02*
D03*
X290500Y351000D02*
D03*
X293000Y354500D02*
D03*
X339500Y286500D02*
D03*
X337500Y282500D02*
D03*
X338000Y290500D02*
D03*
D98*
X265980Y232500D02*
D03*
X301000Y233000D02*
D03*
X88500D02*
D03*
X53500Y232500D02*
D03*
X159500Y233000D02*
D03*
X123500D02*
D03*
X229000Y232500D02*
D03*
X193000Y233240D02*
D03*
X695000Y321000D02*
D03*
X688000D02*
D03*
X681500D02*
D03*
X675500D02*
D03*
X656000D02*
D03*
X651500D02*
D03*
X647000D02*
D03*
X476250Y317500D02*
D03*
X482375D02*
D03*
X470125D02*
D03*
X488500D02*
D03*
X519500Y320500D02*
D03*
X513250D02*
D03*
X507000D02*
D03*
X840000Y347500D02*
D03*
X847000Y340000D02*
D03*
Y345000D02*
D03*
X840000Y335000D02*
D03*
Y341500D02*
D03*
X367000Y265000D02*
D03*
X35000Y304000D02*
D03*
X35500Y326000D02*
D03*
X55500Y330000D02*
D03*
X38500Y342000D02*
D03*
X122500Y320500D02*
D03*
X130500Y323500D02*
D03*
X114500Y316500D02*
D03*
X106000Y316000D02*
D03*
X98000Y316500D02*
D03*
X89500Y317000D02*
D03*
X114000Y323000D02*
D03*
X106000Y323500D02*
D03*
X99000D02*
D03*
X210000Y309000D02*
D03*
X204500Y309500D02*
D03*
X216500Y316500D02*
D03*
X209500Y316000D02*
D03*
X178500Y310500D02*
D03*
X173000Y311000D02*
D03*
X167500D02*
D03*
X162000D02*
D03*
X183500Y318000D02*
D03*
X177000Y318500D02*
D03*
X171500D02*
D03*
X165500D02*
D03*
X626000Y320500D02*
D03*
X621000D02*
D03*
X615000D02*
D03*
X610000D02*
D03*
X594000Y321000D02*
D03*
X589500D02*
D03*
X584000D02*
D03*
X578500D02*
D03*
X561500D02*
D03*
X552000D02*
D03*
X542500D02*
D03*
X533000D02*
D03*
X464000Y317500D02*
D03*
X766000Y331000D02*
D03*
X755500Y331500D02*
D03*
X759500Y336000D02*
D03*
X737000Y315500D02*
D03*
X740000Y318500D02*
D03*
X743000Y321000D02*
D03*
X813500Y325500D02*
D03*
X806500D02*
D03*
X789500Y345500D02*
D03*
Y352500D02*
D03*
X823000Y347500D02*
D03*
Y354000D02*
D03*
X812000Y339500D02*
D03*
X804500D02*
D03*
X797000D02*
D03*
X789500D02*
D03*
X145500Y355000D02*
D03*
X132500Y355500D02*
D03*
X117500D02*
D03*
X107000D02*
D03*
X144500Y370000D02*
D03*
X130000D02*
D03*
X117500Y370500D02*
D03*
X107000D02*
D03*
X289000Y305500D02*
D03*
X736500Y377500D02*
D03*
X733500D02*
D03*
X730000D02*
D03*
X708000Y316000D02*
D03*
X638000D02*
D03*
X567000D02*
D03*
X498000D02*
D03*
X277500Y300000D02*
D03*
X312250Y300250D02*
D03*
X239750Y300250D02*
D03*
X170250Y300250D02*
D03*
X99250Y300250D02*
D03*
X63000Y122500D02*
D03*
X133500Y123000D02*
D03*
X204500D02*
D03*
X275000Y122500D02*
D03*
X599358Y121858D02*
D03*
X528581Y121419D02*
D03*
X457803Y121303D02*
D03*
X670136Y121136D02*
D03*
X862636Y121136D02*
D03*
X1004000Y122000D02*
D03*
X933336Y121500D02*
D03*
X1075000D02*
D03*
D99*
X335000Y381000D02*
D03*
X801000Y325000D02*
D03*
X332776Y356453D02*
D03*
X429000Y304500D02*
D03*
X438500Y311000D02*
D03*
X303500Y319000D02*
D03*
X868500Y371000D02*
D03*
X859000D02*
D03*
X868500Y366500D02*
D03*
X863750Y371000D02*
D03*
X859000Y366500D02*
D03*
X863750D02*
D03*
X858000Y301000D02*
D03*
X872000Y294000D02*
D03*
X849500Y295500D02*
D03*
X786000Y316500D02*
D03*
X346000Y377000D02*
D03*
X413500Y319000D02*
D03*
X397904Y324000D02*
D03*
X388000Y329000D02*
D03*
X376000Y334500D02*
D03*
X346000Y350000D02*
D03*
X338500Y307500D02*
D03*
X336500Y339500D02*
D03*
X344000Y311000D02*
D03*
X328500Y351500D02*
D03*
X332500Y346500D02*
D03*
X349500Y324000D02*
D03*
X349000Y314000D02*
D03*
X349500Y334000D02*
D03*
X367000Y307500D02*
D03*
X381130Y314000D02*
D03*
X373000Y311000D02*
D03*
X392500Y324000D02*
D03*
X395000Y295000D02*
D03*
X398000Y291500D02*
D03*
X391500Y292500D02*
D03*
X266626Y318500D02*
D03*
Y324000D02*
D03*
X267126Y329000D02*
D03*
X807500Y264000D02*
D03*
X804000D02*
D03*
X801500D02*
D03*
X346000Y281500D02*
D03*
X382000Y283500D02*
D03*
X377000D02*
D03*
X372000D02*
D03*
X367000D02*
D03*
X362141Y283765D02*
D03*
X357000Y283500D02*
D03*
X352000D02*
D03*
X434000Y307500D02*
D03*
X757500Y305000D02*
D03*
X442000Y301500D02*
D03*
X446000Y298500D02*
D03*
X767500Y311000D02*
D03*
X772500Y308000D02*
D03*
X811000Y312500D02*
D03*
X826000D02*
D03*
X816000D02*
D03*
X777500Y302500D02*
D03*
X772500Y301500D02*
D03*
X944000Y295000D02*
D03*
X929000Y297500D02*
D03*
X1089500Y298500D02*
D03*
X1068312Y297822D02*
D03*
X1018958Y297458D02*
D03*
X997394Y298211D02*
D03*
X793500Y121000D02*
D03*
X791000D02*
D03*
X788500D02*
D03*
X745000Y203000D02*
D03*
Y205500D02*
D03*
X352000Y203500D02*
D03*
Y205500D02*
D03*
D100*
X450120Y232880D02*
D03*
X485241Y232259D02*
D03*
X519820Y232180D02*
D03*
X556241Y232241D02*
D03*
X589500Y232500D02*
D03*
X626741Y232241D02*
D03*
X660500Y232000D02*
D03*
X696370Y232130D02*
D03*
X853980Y232020D02*
D03*
X996000Y232500D02*
D03*
X925000D02*
D03*
X889740Y232259D02*
D03*
X1032074Y232074D02*
D03*
X960907Y232593D02*
D03*
X1067240Y232500D02*
D03*
X1103240D02*
D03*
M02*
