G04*
G04 #@! TF.GenerationSoftware,Altium Limited,Altium Designer,21.2.2 (38)*
G04*
G04 Layer_Color=16711935*
%FSLAX25Y25*%
%MOIN*%
G70*
G04*
G04 #@! TF.SameCoordinates,81ACE11A-F192-4872-AF07-8F7EDE3227A8*
G04*
G04*
G04 #@! TF.FilePolarity,Negative*
G04*
G01*
G75*
%ADD39C,0.07099*%
%ADD45O,0.02965X0.07887*%
%ADD59R,0.06706X0.06706*%
%ADD60C,0.06706*%
%ADD61C,0.20800*%
%ADD62C,0.07493*%
%ADD63C,0.06312*%
%ADD64R,0.07099X0.07099*%
%ADD65R,0.12611X0.12611*%
%ADD66C,0.12611*%
%ADD67C,0.07887*%
%ADD68R,0.12611X0.12611*%
%ADD69C,0.08674*%
%ADD70C,0.03300*%
%ADD71C,0.03800*%
%ADD72C,0.02800*%
%ADD73C,0.03200*%
%ADD113O,0.03162X0.10249*%
%ADD114R,0.03162X0.10249*%
D39*
X880842Y404500D02*
D03*
D45*
X352000Y290653D02*
D03*
X357000D02*
D03*
X362000D02*
D03*
X367000D02*
D03*
X372000D02*
D03*
X377000D02*
D03*
X382000D02*
D03*
X387000D02*
D03*
X352000Y268000D02*
D03*
X357000D02*
D03*
X362000D02*
D03*
X367000D02*
D03*
X372000D02*
D03*
X377000D02*
D03*
X382000D02*
D03*
X387000D02*
D03*
D59*
X469252Y355626D02*
D03*
D60*
Y363500D02*
D03*
X477126Y355626D02*
D03*
Y363500D02*
D03*
X485000Y355626D02*
D03*
Y363500D02*
D03*
X492874Y355626D02*
D03*
Y363500D02*
D03*
X500748Y355626D02*
D03*
Y363500D02*
D03*
X508622Y355626D02*
D03*
Y363500D02*
D03*
X516496Y355626D02*
D03*
Y363500D02*
D03*
X524370Y355626D02*
D03*
Y363500D02*
D03*
D61*
X407500Y39500D02*
D03*
X675500Y354000D02*
D03*
X1198000Y23500D02*
D03*
X32000Y376500D02*
D03*
X31000Y17000D02*
D03*
X1202500Y450000D02*
D03*
D62*
X584595Y73623D02*
D03*
X614122Y87402D02*
D03*
X372472Y188248D02*
D03*
X311842D02*
D03*
X352000Y72500D02*
D03*
X332315D02*
D03*
X764972Y188248D02*
D03*
X704343D02*
D03*
X744500Y72500D02*
D03*
X724815D02*
D03*
X118706Y73123D02*
D03*
X148233Y86902D02*
D03*
X47872Y73123D02*
D03*
X77400Y86902D02*
D03*
X1059972Y73220D02*
D03*
X1089500Y87000D02*
D03*
X989272Y73220D02*
D03*
X1018800Y87000D02*
D03*
X543344Y87402D02*
D03*
X513817Y73623D02*
D03*
X877400Y87000D02*
D03*
X847872Y73220D02*
D03*
X655372Y73623D02*
D03*
X684900Y87402D02*
D03*
X189539Y73123D02*
D03*
X219067Y86902D02*
D03*
X260372Y73123D02*
D03*
X289900Y86902D02*
D03*
X1132815Y71500D02*
D03*
X1152500D02*
D03*
X1112342Y187248D02*
D03*
X1172972D02*
D03*
X948100Y87000D02*
D03*
X918572Y73220D02*
D03*
X472567Y87402D02*
D03*
X443039Y73623D02*
D03*
D63*
X599358Y156300D02*
D03*
X584595D02*
D03*
X614122D02*
D03*
X133470Y155800D02*
D03*
X118706D02*
D03*
X148233D02*
D03*
X62636D02*
D03*
X47872D02*
D03*
X77400D02*
D03*
X1074736Y155898D02*
D03*
X1059972D02*
D03*
X1089500D02*
D03*
X1004036D02*
D03*
X989272D02*
D03*
X1018800D02*
D03*
X543344Y156300D02*
D03*
X513817D02*
D03*
X528581D02*
D03*
X877400Y155898D02*
D03*
X847872D02*
D03*
X862636D02*
D03*
X670136Y156300D02*
D03*
X655372D02*
D03*
X684900D02*
D03*
X204303Y155800D02*
D03*
X189539D02*
D03*
X219067D02*
D03*
X275136D02*
D03*
X260372D02*
D03*
X289900D02*
D03*
X948100Y155898D02*
D03*
X918572D02*
D03*
X933336D02*
D03*
X472567Y156300D02*
D03*
X443039D02*
D03*
X457803D02*
D03*
D64*
X871000Y404500D02*
D03*
D65*
X1159000Y45870D02*
D03*
X1002000Y46870D02*
D03*
X197500Y47370D02*
D03*
X355000Y46370D02*
D03*
X749500Y44870D02*
D03*
X592500Y47370D02*
D03*
D66*
X1129000Y45870D02*
D03*
X972000Y46870D02*
D03*
X942000D02*
D03*
X912000D02*
D03*
X1056500Y183000D02*
D03*
X1095870D02*
D03*
X843000D02*
D03*
X882370D02*
D03*
X255130Y183500D02*
D03*
X294500D02*
D03*
X152370Y184000D02*
D03*
X113000D02*
D03*
X223370D02*
D03*
X184000D02*
D03*
X688870Y183500D02*
D03*
X649500D02*
D03*
X619703D02*
D03*
X580333D02*
D03*
X549370Y184000D02*
D03*
X510000D02*
D03*
X438167Y184500D02*
D03*
X477537D02*
D03*
X81370Y184000D02*
D03*
X42000D02*
D03*
X985167Y183000D02*
D03*
X1024537D02*
D03*
X107500Y47370D02*
D03*
X137500D02*
D03*
X167500D02*
D03*
X325000Y46370D02*
D03*
X913833Y183000D02*
D03*
X953203D02*
D03*
X1176000Y249500D02*
D03*
X1176130Y378000D02*
D03*
Y348000D02*
D03*
Y318000D02*
D03*
X719500Y44870D02*
D03*
X562500Y47370D02*
D03*
X532500D02*
D03*
X502500D02*
D03*
D67*
X492467Y159600D02*
D03*
X496367Y200500D02*
D03*
X421900Y159600D02*
D03*
X425800Y200500D02*
D03*
X562900Y159500D02*
D03*
X566800Y200400D02*
D03*
X830800Y200000D02*
D03*
X826900Y159100D02*
D03*
X97600D02*
D03*
X101500Y200000D02*
D03*
X633600Y159600D02*
D03*
X637500Y200500D02*
D03*
X27100Y159100D02*
D03*
X31000Y200000D02*
D03*
X168100Y159100D02*
D03*
X172000Y200000D02*
D03*
X238600Y159100D02*
D03*
X242500Y200000D02*
D03*
X968233Y159100D02*
D03*
X972133Y200000D02*
D03*
X901467D02*
D03*
X897567Y159100D02*
D03*
X1042800Y200000D02*
D03*
X1038900Y159100D02*
D03*
D68*
X1176000Y279500D02*
D03*
X1176130Y408000D02*
D03*
D69*
X909213Y441366D02*
D03*
Y335067D02*
D03*
X1110000Y405933D02*
D03*
Y370500D02*
D03*
D70*
X288500Y344500D02*
D03*
X290500Y351000D02*
D03*
X293000Y354500D02*
D03*
X339500Y286500D02*
D03*
X337500Y282500D02*
D03*
X338000Y290500D02*
D03*
D71*
X265980Y232500D02*
D03*
X301000Y233000D02*
D03*
X88500D02*
D03*
X53500Y232500D02*
D03*
X159500Y233000D02*
D03*
X123500D02*
D03*
X229000Y232500D02*
D03*
X193000Y233240D02*
D03*
X695000Y321000D02*
D03*
X688000D02*
D03*
X681500D02*
D03*
X675500D02*
D03*
X656000D02*
D03*
X651500D02*
D03*
X647000D02*
D03*
X476250Y317500D02*
D03*
X482375D02*
D03*
X470125D02*
D03*
X488500D02*
D03*
X519500Y320500D02*
D03*
X513250D02*
D03*
X507000D02*
D03*
X840000Y347500D02*
D03*
X847000Y340000D02*
D03*
Y345000D02*
D03*
X840000Y335000D02*
D03*
Y341500D02*
D03*
X367000Y265000D02*
D03*
X35000Y304000D02*
D03*
X35500Y326000D02*
D03*
X55500Y330000D02*
D03*
X38500Y342000D02*
D03*
X122500Y320500D02*
D03*
X130500Y323500D02*
D03*
X114500Y316500D02*
D03*
X106000Y316000D02*
D03*
X98000Y316500D02*
D03*
X89500Y317000D02*
D03*
X114000Y323000D02*
D03*
X106000Y323500D02*
D03*
X99000D02*
D03*
X210000Y309000D02*
D03*
X204500Y309500D02*
D03*
X216500Y316500D02*
D03*
X209500Y316000D02*
D03*
X178500Y310500D02*
D03*
X173000Y311000D02*
D03*
X167500D02*
D03*
X162000D02*
D03*
X183500Y318000D02*
D03*
X177000Y318500D02*
D03*
X171500D02*
D03*
X165500D02*
D03*
X626000Y320500D02*
D03*
X621000D02*
D03*
X615000D02*
D03*
X610000D02*
D03*
X594000Y321000D02*
D03*
X589500D02*
D03*
X584000D02*
D03*
X578500D02*
D03*
X561500D02*
D03*
X552000D02*
D03*
X542500D02*
D03*
X533000D02*
D03*
X464000Y317500D02*
D03*
X766000Y331000D02*
D03*
X755500Y331500D02*
D03*
X759500Y336000D02*
D03*
X737000Y315500D02*
D03*
X740000Y318500D02*
D03*
X743000Y321000D02*
D03*
X813500Y325500D02*
D03*
X806500D02*
D03*
X789500Y345500D02*
D03*
Y352500D02*
D03*
X823000Y347500D02*
D03*
Y354000D02*
D03*
X812000Y339500D02*
D03*
X804500D02*
D03*
X797000D02*
D03*
X789500D02*
D03*
X145500Y355000D02*
D03*
X132500Y355500D02*
D03*
X117500D02*
D03*
X107000D02*
D03*
X144500Y370000D02*
D03*
X130000D02*
D03*
X117500Y370500D02*
D03*
X107000D02*
D03*
X289000Y305500D02*
D03*
X736500Y377500D02*
D03*
X733500D02*
D03*
X730000D02*
D03*
X708000Y316000D02*
D03*
X638000D02*
D03*
X567000D02*
D03*
X498000D02*
D03*
X277500Y300000D02*
D03*
X312250Y300250D02*
D03*
X239750Y300250D02*
D03*
X170250Y300250D02*
D03*
X99250Y300250D02*
D03*
X63000Y122500D02*
D03*
X133500Y123000D02*
D03*
X204500D02*
D03*
X275000Y122500D02*
D03*
X599358Y121858D02*
D03*
X528581Y121419D02*
D03*
X457803Y121303D02*
D03*
X670136Y121136D02*
D03*
X862636Y121136D02*
D03*
X1004000Y122000D02*
D03*
X933336Y121500D02*
D03*
X1075000D02*
D03*
D72*
X335000Y381000D02*
D03*
X801000Y325000D02*
D03*
X332776Y356453D02*
D03*
X429000Y304500D02*
D03*
X438500Y311000D02*
D03*
X303500Y319000D02*
D03*
X868500Y371000D02*
D03*
X859000D02*
D03*
X868500Y366500D02*
D03*
X863750Y371000D02*
D03*
X859000Y366500D02*
D03*
X863750D02*
D03*
X858000Y301000D02*
D03*
X872000Y294000D02*
D03*
X849500Y295500D02*
D03*
X786000Y316500D02*
D03*
X346000Y377000D02*
D03*
X413500Y319000D02*
D03*
X397904Y324000D02*
D03*
X388000Y329000D02*
D03*
X376000Y334500D02*
D03*
X346000Y350000D02*
D03*
X338500Y307500D02*
D03*
X336500Y339500D02*
D03*
X344000Y311000D02*
D03*
X328500Y351500D02*
D03*
X332500Y346500D02*
D03*
X349500Y324000D02*
D03*
X349000Y314000D02*
D03*
X349500Y334000D02*
D03*
X367000Y307500D02*
D03*
X381130Y314000D02*
D03*
X373000Y311000D02*
D03*
X392500Y324000D02*
D03*
X395000Y295000D02*
D03*
X398000Y291500D02*
D03*
X391500Y292500D02*
D03*
X266626Y318500D02*
D03*
Y324000D02*
D03*
X267126Y329000D02*
D03*
X807500Y264000D02*
D03*
X804000D02*
D03*
X801500D02*
D03*
X346000Y281500D02*
D03*
X382000Y283500D02*
D03*
X377000D02*
D03*
X372000D02*
D03*
X367000D02*
D03*
X362141Y283765D02*
D03*
X357000Y283500D02*
D03*
X352000D02*
D03*
X434000Y307500D02*
D03*
X757500Y305000D02*
D03*
X442000Y301500D02*
D03*
X446000Y298500D02*
D03*
X767500Y311000D02*
D03*
X772500Y308000D02*
D03*
X811000Y312500D02*
D03*
X826000D02*
D03*
X816000D02*
D03*
X777500Y302500D02*
D03*
X772500Y301500D02*
D03*
X944000Y295000D02*
D03*
X929000Y297500D02*
D03*
X1089500Y298500D02*
D03*
X1068312Y297822D02*
D03*
X1018958Y297458D02*
D03*
X997394Y298211D02*
D03*
X793500Y121000D02*
D03*
X791000D02*
D03*
X788500D02*
D03*
X745000Y203000D02*
D03*
Y205500D02*
D03*
X352000Y203500D02*
D03*
Y205500D02*
D03*
D73*
X450120Y232880D02*
D03*
X485241Y232259D02*
D03*
X519820Y232180D02*
D03*
X556241Y232241D02*
D03*
X589500Y232500D02*
D03*
X626741Y232241D02*
D03*
X660500Y232000D02*
D03*
X696370Y232130D02*
D03*
X853980Y232020D02*
D03*
X996000Y232500D02*
D03*
X925000D02*
D03*
X889740Y232259D02*
D03*
X1032074Y232074D02*
D03*
X960907Y232593D02*
D03*
X1067240Y232500D02*
D03*
X1103240D02*
D03*
D113*
X381000Y383472D02*
D03*
X386000D02*
D03*
X391000D02*
D03*
X396000D02*
D03*
X346000Y342528D02*
D03*
X341000D02*
D03*
Y383472D02*
D03*
X346000D02*
D03*
X351000D02*
D03*
X356000D02*
D03*
X361000D02*
D03*
X366000D02*
D03*
X371000D02*
D03*
X376000D02*
D03*
X351000Y342528D02*
D03*
X356000D02*
D03*
X361000D02*
D03*
X366000D02*
D03*
X371000D02*
D03*
X376000D02*
D03*
X381000D02*
D03*
X386000D02*
D03*
X391000D02*
D03*
D114*
X396000D02*
D03*
M02*
