G04*
G04 #@! TF.GenerationSoftware,Altium Limited,Altium Designer,21.2.2 (38)*
G04*
G04 Layer_Color=32896*
%FSLAX25Y25*%
%MOIN*%
G70*
G04*
G04 #@! TF.SameCoordinates,81ACE11A-F192-4872-AF07-8F7EDE3227A8*
G04*
G04*
G04 #@! TF.FilePolarity,Positive*
G04*
G01*
G75*
%ADD10C,0.00800*%
%ADD11C,0.01968*%
%ADD12C,0.00787*%
%ADD14C,0.01000*%
%ADD78C,0.01500*%
D10*
X351815Y279327D02*
G03*
X349815Y281327I-2000J0D01*
G01*
X349815Y277327D02*
G03*
X351815Y279327I0J2000D01*
G01*
X349815Y281327D02*
Y285327D01*
Y273327D02*
Y277327D01*
D11*
X403108Y343000D02*
G03*
X403108Y343000I-608J0D01*
G01*
X349108Y288827D02*
G03*
X349108Y288827I-608J0D01*
G01*
D12*
X349815Y285327D02*
X389185D01*
X349815Y273327D02*
X389185D01*
Y285327D01*
D14*
X398500Y366000D02*
G03*
X398500Y360000I0J-3000D01*
G01*
X338500Y350000D02*
Y376000D01*
Y350000D02*
X398500D01*
X338500Y376000D02*
X398500D01*
Y350000D02*
Y360000D01*
Y366000D02*
Y376000D01*
X337248Y364499D02*
X335582D01*
X336415D01*
Y359501D01*
X337248D01*
X335582D01*
X329750Y363666D02*
X330584Y364499D01*
X332250D01*
X333083Y363666D01*
Y360334D01*
X332250Y359501D01*
X330584D01*
X329750Y360334D01*
X324752Y364499D02*
X328084D01*
Y362000D01*
X326418Y362833D01*
X325585D01*
X324752Y362000D01*
Y360334D01*
X325585Y359501D01*
X327251D01*
X328084Y360334D01*
X345748Y278499D02*
X344082D01*
X344915D01*
Y273501D01*
X345748D01*
X344082D01*
X338250Y277666D02*
X339084Y278499D01*
X340750D01*
X341583Y277666D01*
Y274334D01*
X340750Y273501D01*
X339084D01*
X338250Y274334D01*
X333252Y273501D02*
X336584D01*
X333252Y276833D01*
Y277666D01*
X334085Y278499D01*
X335751D01*
X336584Y277666D01*
D78*
X467283Y359563D02*
X526339D01*
X512559Y353658D02*
Y365469D01*
X504685Y353658D02*
Y365469D01*
X473189Y353658D02*
Y365469D01*
X481063Y353658D02*
Y365469D01*
X488937Y353658D02*
Y365469D01*
X496811Y353658D02*
Y365469D01*
X520433Y353658D02*
Y365469D01*
M02*
