G04*
G04 #@! TF.GenerationSoftware,Altium Limited,Altium Designer,21.2.2 (38)*
G04*
G04 Layer_Color=255*
%FSLAX25Y25*%
%MOIN*%
G70*
G04*
G04 #@! TF.SameCoordinates,81ACE11A-F192-4872-AF07-8F7EDE3227A8*
G04*
G04*
G04 #@! TF.FilePolarity,Positive*
G04*
G01*
G75*
%ADD25O,0.02165X0.07087*%
%ADD74C,0.06299*%
%ADD86R,0.05906X0.05906*%
%ADD87C,0.05906*%
%ADD88C,0.20000*%
%ADD89C,0.06693*%
%ADD90C,0.05512*%
%ADD91R,0.06299X0.06299*%
%ADD92R,0.11811X0.11811*%
%ADD93C,0.11811*%
%ADD94C,0.07087*%
%ADD95R,0.11811X0.11811*%
%ADD96C,0.07874*%
%ADD101O,0.02362X0.09449*%
%ADD102R,0.02362X0.09449*%
D25*
X352000Y290653D02*
D03*
X357000D02*
D03*
X362000D02*
D03*
X367000D02*
D03*
X372000D02*
D03*
X377000D02*
D03*
X382000D02*
D03*
X387000D02*
D03*
X352000Y268000D02*
D03*
X357000D02*
D03*
X362000D02*
D03*
X367000D02*
D03*
X372000D02*
D03*
X377000D02*
D03*
X382000D02*
D03*
X387000D02*
D03*
D74*
X880842Y404500D02*
D03*
D86*
X469252Y355626D02*
D03*
D87*
Y363500D02*
D03*
X477126Y355626D02*
D03*
Y363500D02*
D03*
X485000Y355626D02*
D03*
Y363500D02*
D03*
X492874Y355626D02*
D03*
Y363500D02*
D03*
X500748Y355626D02*
D03*
Y363500D02*
D03*
X508622Y355626D02*
D03*
Y363500D02*
D03*
X516496Y355626D02*
D03*
Y363500D02*
D03*
X524370Y355626D02*
D03*
Y363500D02*
D03*
D88*
X407500Y39500D02*
D03*
X675500Y354000D02*
D03*
X1198000Y23500D02*
D03*
X32000Y376500D02*
D03*
X31000Y17000D02*
D03*
X1202500Y450000D02*
D03*
D89*
X584595Y73623D02*
D03*
X614122Y87402D02*
D03*
X372472Y188248D02*
D03*
X311842D02*
D03*
X352000Y72500D02*
D03*
X332315D02*
D03*
X764972Y188248D02*
D03*
X704343D02*
D03*
X744500Y72500D02*
D03*
X724815D02*
D03*
X118706Y73123D02*
D03*
X148233Y86902D02*
D03*
X47872Y73123D02*
D03*
X77400Y86902D02*
D03*
X1059972Y73220D02*
D03*
X1089500Y87000D02*
D03*
X989272Y73220D02*
D03*
X1018800Y87000D02*
D03*
X543344Y87402D02*
D03*
X513817Y73623D02*
D03*
X877400Y87000D02*
D03*
X847872Y73220D02*
D03*
X655372Y73623D02*
D03*
X684900Y87402D02*
D03*
X189539Y73123D02*
D03*
X219067Y86902D02*
D03*
X260372Y73123D02*
D03*
X289900Y86902D02*
D03*
X1132815Y71500D02*
D03*
X1152500D02*
D03*
X1112342Y187248D02*
D03*
X1172972D02*
D03*
X948100Y87000D02*
D03*
X918572Y73220D02*
D03*
X472567Y87402D02*
D03*
X443039Y73623D02*
D03*
D90*
X599358Y156300D02*
D03*
X584595D02*
D03*
X614122D02*
D03*
X133470Y155800D02*
D03*
X118706D02*
D03*
X148233D02*
D03*
X62636D02*
D03*
X47872D02*
D03*
X77400D02*
D03*
X1074736Y155898D02*
D03*
X1059972D02*
D03*
X1089500D02*
D03*
X1004036D02*
D03*
X989272D02*
D03*
X1018800D02*
D03*
X543344Y156300D02*
D03*
X513817D02*
D03*
X528581D02*
D03*
X877400Y155898D02*
D03*
X847872D02*
D03*
X862636D02*
D03*
X670136Y156300D02*
D03*
X655372D02*
D03*
X684900D02*
D03*
X204303Y155800D02*
D03*
X189539D02*
D03*
X219067D02*
D03*
X275136D02*
D03*
X260372D02*
D03*
X289900D02*
D03*
X948100Y155898D02*
D03*
X918572D02*
D03*
X933336D02*
D03*
X472567Y156300D02*
D03*
X443039D02*
D03*
X457803D02*
D03*
D91*
X871000Y404500D02*
D03*
D92*
X1159000Y45870D02*
D03*
X1002000Y46870D02*
D03*
X197500Y47370D02*
D03*
X355000Y46370D02*
D03*
X749500Y44870D02*
D03*
X592500Y47370D02*
D03*
D93*
X1129000Y45870D02*
D03*
X972000Y46870D02*
D03*
X942000D02*
D03*
X912000D02*
D03*
X1056500Y183000D02*
D03*
X1095870D02*
D03*
X843000D02*
D03*
X882370D02*
D03*
X255130Y183500D02*
D03*
X294500D02*
D03*
X152370Y184000D02*
D03*
X113000D02*
D03*
X223370D02*
D03*
X184000D02*
D03*
X688870Y183500D02*
D03*
X649500D02*
D03*
X619703D02*
D03*
X580333D02*
D03*
X549370Y184000D02*
D03*
X510000D02*
D03*
X438167Y184500D02*
D03*
X477537D02*
D03*
X81370Y184000D02*
D03*
X42000D02*
D03*
X985167Y183000D02*
D03*
X1024537D02*
D03*
X107500Y47370D02*
D03*
X137500D02*
D03*
X167500D02*
D03*
X325000Y46370D02*
D03*
X913833Y183000D02*
D03*
X953203D02*
D03*
X1176000Y249500D02*
D03*
X1176130Y378000D02*
D03*
Y348000D02*
D03*
Y318000D02*
D03*
X719500Y44870D02*
D03*
X562500Y47370D02*
D03*
X532500D02*
D03*
X502500D02*
D03*
D94*
X492467Y159600D02*
D03*
X496367Y200500D02*
D03*
X421900Y159600D02*
D03*
X425800Y200500D02*
D03*
X562900Y159500D02*
D03*
X566800Y200400D02*
D03*
X830800Y200000D02*
D03*
X826900Y159100D02*
D03*
X97600D02*
D03*
X101500Y200000D02*
D03*
X633600Y159600D02*
D03*
X637500Y200500D02*
D03*
X27100Y159100D02*
D03*
X31000Y200000D02*
D03*
X168100Y159100D02*
D03*
X172000Y200000D02*
D03*
X238600Y159100D02*
D03*
X242500Y200000D02*
D03*
X968233Y159100D02*
D03*
X972133Y200000D02*
D03*
X901467D02*
D03*
X897567Y159100D02*
D03*
X1042800Y200000D02*
D03*
X1038900Y159100D02*
D03*
D95*
X1176000Y279500D02*
D03*
X1176130Y408000D02*
D03*
D96*
X909213Y441366D02*
D03*
Y335067D02*
D03*
X1110000Y405933D02*
D03*
Y370500D02*
D03*
D101*
X381000Y383472D02*
D03*
X386000D02*
D03*
X391000D02*
D03*
X396000D02*
D03*
X346000Y342528D02*
D03*
X341000D02*
D03*
Y383472D02*
D03*
X346000D02*
D03*
X351000D02*
D03*
X356000D02*
D03*
X361000D02*
D03*
X366000D02*
D03*
X371000D02*
D03*
X376000D02*
D03*
X351000Y342528D02*
D03*
X356000D02*
D03*
X361000D02*
D03*
X366000D02*
D03*
X371000D02*
D03*
X376000D02*
D03*
X381000D02*
D03*
X386000D02*
D03*
X391000D02*
D03*
D102*
X396000D02*
D03*
M02*
