G04*
G04 #@! TF.GenerationSoftware,Altium Limited,Altium Designer,21.2.2 (38)*
G04*
G04 Layer_Color=2752767*
%FSLAX25Y25*%
%MOIN*%
G70*
G04*
G04 #@! TF.SameCoordinates,24E543E2-93C3-408B-82EC-D378627347FA*
G04*
G04*
G04 #@! TF.FilePolarity,Positive*
G04*
G01*
G75*
%ADD10C,0.00394*%
%ADD11C,0.01000*%
%ADD12C,0.00591*%
%ADD13C,0.00197*%
%ADD14C,0.00100*%
%ADD15C,0.00200*%
%ADD16C,0.00267*%
%ADD17C,0.00133*%
D10*
X872799Y372539D02*
G03*
X872799Y372539I-1969J0D01*
G01*
X771984Y353516D02*
G03*
X771984Y353516I-984J0D01*
G01*
X853988Y375626D02*
X873673D01*
X853988Y361453D02*
X873673D01*
Y375626D01*
X853988Y361453D02*
Y375626D01*
X879520Y356476D02*
Y378524D01*
X894480Y356476D02*
Y378524D01*
X879520D02*
X894480D01*
X760110Y376295D02*
X773890D01*
X760110Y350705D02*
X773890D01*
X760110D02*
Y376295D01*
X773890Y350705D02*
Y376295D01*
X853331Y353776D02*
Y383303D01*
X874331Y353776D02*
Y383303D01*
X853331Y353776D02*
X874331D01*
X853331Y383303D02*
X874331D01*
X751000Y377083D02*
X783000D01*
X751000Y349917D02*
X783000D01*
X751000D02*
Y377083D01*
X783000Y349917D02*
Y377083D01*
X851500Y251800D02*
Y291200D01*
X869500D01*
X851500Y251800D02*
X869500D01*
Y291200D01*
X139000Y251800D02*
Y291200D01*
X121000Y251800D02*
X139000D01*
X121000Y291200D02*
X139000D01*
X121000Y251800D02*
Y291200D01*
X68500Y251800D02*
Y291200D01*
X50500Y251800D02*
X68500D01*
X50500Y291200D02*
X68500D01*
X50500Y251800D02*
Y291200D01*
X142500Y251800D02*
Y291200D01*
X160500D01*
X142500Y251800D02*
X160500D01*
Y291200D01*
X678500Y252300D02*
Y291700D01*
X696500D01*
X678500Y252300D02*
X696500D01*
Y291700D01*
X469000Y252300D02*
Y291700D01*
X487000D01*
X469000Y252300D02*
X487000D01*
Y291700D01*
X535167Y252300D02*
Y291700D01*
X517167Y252300D02*
X535167D01*
X517167Y291700D02*
X535167D01*
X517167Y252300D02*
Y291700D01*
X281000Y251800D02*
Y291200D01*
X263000Y251800D02*
X281000D01*
X263000Y291200D02*
X281000D01*
X263000Y251800D02*
Y291200D01*
X208500Y251800D02*
Y291200D01*
X190500Y251800D02*
X208500D01*
X190500Y291200D02*
X208500D01*
X190500Y251800D02*
Y291200D01*
X1103500Y251800D02*
Y291200D01*
X1085500Y251800D02*
X1103500D01*
X1085500Y291200D02*
X1103500D01*
X1085500Y251800D02*
Y291200D01*
X962167Y251800D02*
Y291200D01*
X944167Y251800D02*
X962167D01*
X944167Y291200D02*
X962167D01*
X944167Y251800D02*
Y291200D01*
X891500Y251800D02*
Y291200D01*
X873500Y251800D02*
X891500D01*
X873500Y291200D02*
X891500D01*
X873500Y251800D02*
Y291200D01*
X465000Y252300D02*
Y291700D01*
X447000Y252300D02*
X465000D01*
X447000Y291700D02*
X465000D01*
X447000Y252300D02*
Y291700D01*
X284500Y251800D02*
Y291200D01*
X302500D01*
X284500Y251800D02*
X302500D01*
Y291200D01*
X675500Y252300D02*
Y291700D01*
X657500Y252300D02*
X675500D01*
X657500Y291700D02*
X675500D01*
X657500Y252300D02*
Y291700D01*
X212000Y251800D02*
Y291200D01*
X230000D01*
X212000Y251800D02*
X230000D01*
Y291200D01*
X538833Y252300D02*
Y291700D01*
X556833D01*
X538833Y252300D02*
X556833D01*
Y291700D01*
X1064500Y251800D02*
Y291200D01*
X1082500D01*
X1064500Y251800D02*
X1082500D01*
Y291200D01*
X605333Y252300D02*
Y291700D01*
X587333Y252300D02*
X605333D01*
X587333Y291700D02*
X605333D01*
X587333Y252300D02*
Y291700D01*
X993500Y251800D02*
Y291200D01*
X1011500D01*
X993500Y251800D02*
X1011500D01*
Y291200D01*
X72000Y251800D02*
Y291200D01*
X90000D01*
X72000Y251800D02*
X90000D01*
Y291200D01*
X608667Y252300D02*
Y291700D01*
X626667D01*
X608667Y252300D02*
X626667D01*
Y291700D01*
X922500Y251800D02*
Y291200D01*
X940500D01*
X922500Y251800D02*
X940500D01*
Y291200D01*
X1032833Y251800D02*
Y291200D01*
X1014833Y251800D02*
X1032833D01*
X1014833Y291200D02*
X1032833D01*
X1014833Y251800D02*
Y291200D01*
X739000Y285000D02*
X781000D01*
X739000Y247000D02*
X781000D01*
Y285000D01*
X739000Y247000D02*
Y285000D01*
X382000Y283500D02*
X424000D01*
X382000Y245500D02*
X424000D01*
Y283500D01*
X382000Y245500D02*
Y283500D01*
X782500Y246819D02*
Y284819D01*
X824500Y246819D02*
Y284819D01*
X782500Y246819D02*
X824500D01*
X782500Y284819D02*
X824500D01*
X786000Y290000D02*
Y326000D01*
X744000Y290000D02*
Y326000D01*
X786000D01*
X744000Y290000D02*
X786000D01*
X348500Y297327D02*
X390500D01*
X348500Y261327D02*
X390500D01*
X348500D02*
Y297327D01*
X390500Y261327D02*
Y297327D01*
X338500Y245500D02*
Y283500D01*
X380500Y245500D02*
Y283500D01*
X338500Y245500D02*
X380500D01*
X338500Y283500D02*
X380500D01*
X787500Y290000D02*
X829500D01*
X787500Y326000D02*
X829500D01*
X787500Y290000D02*
Y326000D01*
X829500Y290000D02*
Y326000D01*
D11*
X867814Y280914D02*
G03*
X867814Y280914I-1414J0D01*
G01*
X137314D02*
G03*
X137314Y280914I-1414J0D01*
G01*
X66814D02*
G03*
X66814Y280914I-1414J0D01*
G01*
X147014Y262086D02*
G03*
X147014Y262086I-1414J0D01*
G01*
X683014Y262586D02*
G03*
X683014Y262586I-1414J0D01*
G01*
X473514D02*
G03*
X473514Y262586I-1414J0D01*
G01*
X533481Y281414D02*
G03*
X533481Y281414I-1414J0D01*
G01*
X279314Y280914D02*
G03*
X279314Y280914I-1414J0D01*
G01*
X206814D02*
G03*
X206814Y280914I-1414J0D01*
G01*
X1090014Y262086D02*
G03*
X1090014Y262086I-1414J0D01*
G01*
X948681D02*
G03*
X948681Y262086I-1414J0D01*
G01*
X878014D02*
G03*
X878014Y262086I-1414J0D01*
G01*
X463314Y281414D02*
G03*
X463314Y281414I-1414J0D01*
G01*
X289014Y262086D02*
G03*
X289014Y262086I-1414J0D01*
G01*
X673814Y281414D02*
G03*
X673814Y281414I-1414J0D01*
G01*
X216514Y262086D02*
G03*
X216514Y262086I-1414J0D01*
G01*
X543348Y262586D02*
G03*
X543348Y262586I-1414J0D01*
G01*
X1080814Y280914D02*
G03*
X1080814Y280914I-1414J0D01*
G01*
X603648Y281414D02*
G03*
X603648Y281414I-1414J0D01*
G01*
X1009814Y280914D02*
G03*
X1009814Y280914I-1414J0D01*
G01*
X76514Y262086D02*
G03*
X76514Y262086I-1414J0D01*
G01*
X613181Y262586D02*
G03*
X613181Y262586I-1414J0D01*
G01*
X938814Y280914D02*
G03*
X938814Y280914I-1414J0D01*
G01*
X1019347Y262086D02*
G03*
X1019347Y262086I-1414J0D01*
G01*
D12*
X778414Y270000D02*
G03*
X778414Y270000I-1414J0D01*
G01*
X421414Y268500D02*
G03*
X421414Y268500I-1414J0D01*
G01*
X821914Y269819D02*
G03*
X821914Y269819I-1414J0D01*
G01*
X311264Y313000D02*
G03*
X311264Y313000I-2236J0D01*
G01*
X749414Y304000D02*
G03*
X749414Y304000I-1414J0D01*
G01*
X396736Y352000D02*
G03*
X396736Y352000I-2236J0D01*
G01*
X353914Y283327D02*
G03*
X353914Y283327I-1414J0D01*
G01*
X377914Y268500D02*
G03*
X377914Y268500I-1414J0D01*
G01*
X792914Y304000D02*
G03*
X792914Y304000I-1414J0D01*
G01*
X851500Y258705D02*
Y284295D01*
Y258705D02*
X869500D01*
Y284295D01*
X851500D02*
X869500D01*
X121000D02*
X139000D01*
Y258705D02*
Y284295D01*
X121000Y258705D02*
X139000D01*
X121000D02*
Y284295D01*
X50500D02*
X68500D01*
Y258705D02*
Y284295D01*
X50500Y258705D02*
X68500D01*
X50500D02*
Y284295D01*
X142500Y258705D02*
X160500D01*
X142500D02*
Y284295D01*
X160500D01*
Y258705D02*
Y284295D01*
X678500Y259205D02*
X696500D01*
X678500D02*
Y284795D01*
X696500D01*
Y259205D02*
Y284795D01*
X469000Y259205D02*
X487000D01*
X469000D02*
Y284795D01*
X487000D01*
Y259205D02*
Y284795D01*
X517167D02*
X535167D01*
Y259205D02*
Y284795D01*
X517167Y259205D02*
X535167D01*
X517167D02*
Y284795D01*
X263000Y284295D02*
X281000D01*
Y258705D02*
Y284295D01*
X263000Y258705D02*
X281000D01*
X263000D02*
Y284295D01*
X190500D02*
X208500D01*
Y258705D02*
Y284295D01*
X190500Y258705D02*
X208500D01*
X190500D02*
Y284295D01*
X1103500Y258705D02*
Y284295D01*
X1085500D02*
X1103500D01*
X1085500Y258705D02*
Y284295D01*
Y258705D02*
X1103500D01*
X962167D02*
Y284295D01*
X944167D02*
X962167D01*
X944167Y258705D02*
Y284295D01*
Y258705D02*
X962167D01*
X891500D02*
Y284295D01*
X873500D02*
X891500D01*
X873500Y258705D02*
Y284295D01*
Y258705D02*
X891500D01*
X447000Y284795D02*
X465000D01*
Y259205D02*
Y284795D01*
X447000Y259205D02*
X465000D01*
X447000D02*
Y284795D01*
X284500Y258705D02*
X302500D01*
X284500D02*
Y284295D01*
X302500D01*
Y258705D02*
Y284295D01*
X657500Y284795D02*
X675500D01*
Y259205D02*
Y284795D01*
X657500Y259205D02*
X675500D01*
X657500D02*
Y284795D01*
X212000Y258705D02*
X230000D01*
X212000D02*
Y284295D01*
X230000D01*
Y258705D02*
Y284295D01*
X538833Y259205D02*
X556833D01*
X538833D02*
Y284795D01*
X556833D01*
Y259205D02*
Y284795D01*
X1064500Y258705D02*
Y284295D01*
Y258705D02*
X1082500D01*
Y284295D01*
X1064500D02*
X1082500D01*
X587333Y284795D02*
X605333D01*
Y259205D02*
Y284795D01*
X587333Y259205D02*
X605333D01*
X587333D02*
Y284795D01*
X993500Y258705D02*
Y284295D01*
Y258705D02*
X1011500D01*
Y284295D01*
X993500D02*
X1011500D01*
X72000Y258705D02*
X90000D01*
X72000D02*
Y284295D01*
X90000D01*
Y258705D02*
Y284295D01*
X608667Y259205D02*
X626667D01*
X608667D02*
Y284795D01*
X626667D01*
Y259205D02*
Y284795D01*
X922500Y258705D02*
Y284295D01*
Y258705D02*
X940500D01*
Y284295D01*
X922500D02*
X940500D01*
X1032833Y258705D02*
Y284295D01*
X1014833D02*
X1032833D01*
X1014833Y258705D02*
Y284295D01*
Y258705D02*
X1032833D01*
X780000Y258913D02*
Y273087D01*
X740000Y258913D02*
X780000D01*
X740000D02*
Y273087D01*
X780000D01*
X423000Y257413D02*
Y271587D01*
X383000Y257413D02*
X423000D01*
X383000D02*
Y271587D01*
X423000D01*
X783500Y272905D02*
X823500D01*
X783500Y258732D02*
Y272905D01*
Y258732D02*
X823500D01*
Y272905D01*
X313185Y308685D02*
Y369315D01*
X282870D02*
X313185D01*
X282870Y308685D02*
Y369315D01*
Y308685D02*
X313185D01*
X745000Y300913D02*
Y315087D01*
X785000D01*
Y300913D02*
Y315087D01*
X745000Y300913D02*
X785000D01*
X398815Y347843D02*
Y378157D01*
X338185D02*
X398815D01*
X338185Y347843D02*
Y378157D01*
Y347843D02*
X398815D01*
X349500Y286413D02*
X389500D01*
Y272240D02*
Y286413D01*
X349500Y272240D02*
X389500D01*
X349500D02*
Y286413D01*
X339500Y271587D02*
X379500D01*
X339500Y257413D02*
Y271587D01*
Y257413D02*
X379500D01*
Y271587D01*
X788500Y300913D02*
X828500D01*
Y315087D01*
X788500D02*
X828500D01*
X788500Y300913D02*
Y315087D01*
X271028Y308000D02*
X325028D01*
X271028D02*
Y370000D01*
X325028D01*
Y308000D02*
Y370000D01*
X337500Y336000D02*
X399500D01*
X337500D02*
Y390000D01*
X399500D01*
Y336000D02*
Y390000D01*
D13*
X498189Y359563D02*
G03*
X498189Y359563I-1378J0D01*
G01*
X717852Y349500D02*
G03*
X717852Y349500I-1378J0D01*
G01*
X807378Y362000D02*
G03*
X807378Y362000I-1378J0D01*
G01*
X734378Y357000D02*
G03*
X734378Y357000I-1378J0D01*
G01*
X877299Y404500D02*
G03*
X877299Y404500I-1378J0D01*
G01*
X865209Y368539D02*
G03*
X865209Y368539I-1378J0D01*
G01*
X868637Y389000D02*
G03*
X868637Y389000I-1378J0D01*
G01*
X849878Y374740D02*
G03*
X849878Y374740I-1378J0D01*
G01*
X862878Y344500D02*
G03*
X862878Y344500I-1378J0D01*
G01*
D02*
G03*
X862878Y344500I-1378J0D01*
G01*
X862378Y322500D02*
G03*
X862378Y322500I-1378J0D01*
G01*
X845378Y323240D02*
G03*
X845378Y323240I-1378J0D01*
G01*
D02*
G03*
X845378Y323240I-1378J0D01*
G01*
X853878Y322500D02*
G03*
X853878Y322500I-1378J0D01*
G01*
X883118Y389000D02*
G03*
X883118Y389000I-1378J0D01*
G01*
D02*
G03*
X883118Y389000I-1378J0D01*
G01*
X888378Y367500D02*
G03*
X888378Y367500I-1378J0D01*
G01*
X840378Y374741D02*
G03*
X840378Y374741I-1378J0D01*
G01*
X1145378Y31500D02*
G03*
X1145378Y31500I-1378J0D01*
G01*
X958378Y32500D02*
G03*
X958378Y32500I-1378J0D01*
G01*
X768378Y363500D02*
G03*
X768378Y363500I-1378J0D01*
G01*
X861878Y271500D02*
G03*
X861878Y271500I-1378J0D01*
G01*
X131378D02*
G03*
X131378Y271500I-1378J0D01*
G01*
X60878D02*
G03*
X60878Y271500I-1378J0D01*
G01*
X152878D02*
G03*
X152878Y271500I-1378J0D01*
G01*
X688878Y272000D02*
G03*
X688878Y272000I-1378J0D01*
G01*
X479378D02*
G03*
X479378Y272000I-1378J0D01*
G01*
X527545D02*
G03*
X527545Y272000I-1378J0D01*
G01*
X273378Y271500D02*
G03*
X273378Y271500I-1378J0D01*
G01*
X200878D02*
G03*
X200878Y271500I-1378J0D01*
G01*
X1095878D02*
G03*
X1095878Y271500I-1378J0D01*
G01*
X954545D02*
G03*
X954545Y271500I-1378J0D01*
G01*
X883878D02*
G03*
X883878Y271500I-1378J0D01*
G01*
X457378Y272000D02*
G03*
X457378Y272000I-1378J0D01*
G01*
X294878Y271500D02*
G03*
X294878Y271500I-1378J0D01*
G01*
X667878Y272000D02*
G03*
X667878Y272000I-1378J0D01*
G01*
X222378Y271500D02*
G03*
X222378Y271500I-1378J0D01*
G01*
X549211Y272000D02*
G03*
X549211Y272000I-1378J0D01*
G01*
X1074878Y271500D02*
G03*
X1074878Y271500I-1378J0D01*
G01*
X597711Y272000D02*
G03*
X597711Y272000I-1378J0D01*
G01*
X1003878Y271500D02*
G03*
X1003878Y271500I-1378J0D01*
G01*
X82378D02*
G03*
X82378Y271500I-1378J0D01*
G01*
X619045Y272000D02*
G03*
X619045Y272000I-1378J0D01*
G01*
X932878Y271500D02*
G03*
X932878Y271500I-1378J0D01*
G01*
X1025211D02*
G03*
X1025211Y271500I-1378J0D01*
G01*
X761378Y266000D02*
G03*
X761378Y266000I-1378J0D01*
G01*
X404378Y264500D02*
G03*
X404378Y264500I-1378J0D01*
G01*
X804878Y265819D02*
G03*
X804878Y265819I-1378J0D01*
G01*
X613378Y202240D02*
G03*
X613378Y202240I-1378J0D01*
G01*
X968878Y288500D02*
G03*
X968878Y288500I-1378J0D01*
G01*
X250878Y257000D02*
G03*
X250878Y257000I-1378J0D01*
G01*
X898378Y287500D02*
G03*
X898378Y287500I-1378J0D01*
G01*
X993378Y201740D02*
G03*
X993378Y201740I-1378J0D01*
G01*
X344378Y220000D02*
G03*
X344378Y220000I-1378J0D01*
G01*
X494378Y288000D02*
G03*
X494378Y288000I-1378J0D01*
G01*
X838878Y257000D02*
G03*
X838878Y257000I-1378J0D01*
G01*
X75878Y201740D02*
G03*
X75878Y201740I-1378J0D01*
G01*
X876878D02*
G03*
X876878Y201740I-1378J0D01*
G01*
X326378Y219500D02*
G03*
X326378Y219500I-1378J0D01*
G01*
X644378Y257500D02*
G03*
X644378Y257500I-1378J0D01*
G01*
X330878Y208000D02*
G03*
X330878Y208000I-1378J0D01*
G01*
X922378Y201740D02*
G03*
X922378Y201740I-1378J0D01*
G01*
X472378Y202240D02*
G03*
X472378Y202240I-1378J0D01*
G01*
X348878Y208000D02*
G03*
X348878Y208000I-1378J0D01*
G01*
X513378Y257500D02*
G03*
X513378Y257500I-1378J0D01*
G01*
X1051878Y257000D02*
G03*
X1051878Y257000I-1378J0D01*
G01*
X722878Y208260D02*
G03*
X722878Y208260I-1378J0D01*
G01*
X186878Y257000D02*
G03*
X186878Y257000I-1378J0D01*
G01*
X104878Y288000D02*
G03*
X104878Y288000I-1378J0D01*
G01*
X313378Y208000D02*
G03*
X313378Y208000I-1378J0D01*
G01*
X493378Y257500D02*
G03*
X493378Y257500I-1378J0D01*
G01*
X564378Y288500D02*
G03*
X564378Y288500I-1378J0D01*
G01*
X38378Y257000D02*
G03*
X38378Y257000I-1378J0D01*
G01*
X175878Y288241D02*
G03*
X175878Y288241I-1378J0D01*
G01*
X1145378Y218500D02*
G03*
X1145378Y218500I-1378J0D01*
G01*
X851378Y201740D02*
G03*
X851378Y201740I-1378J0D01*
G01*
X446878Y202240D02*
G03*
X446878Y202240I-1378J0D01*
G01*
X1039378Y288500D02*
G03*
X1039378Y288500I-1378J0D01*
G01*
X731878Y208260D02*
G03*
X731878Y208260I-1378J0D01*
G01*
X652878Y257500D02*
G03*
X652878Y257500I-1378J0D01*
G01*
X740878Y208260D02*
G03*
X740878Y208260I-1378J0D01*
G01*
X178378Y257000D02*
G03*
X178378Y257000I-1378J0D01*
G01*
X504878Y257500D02*
G03*
X504878Y257500I-1378J0D01*
G01*
X288378Y201740D02*
G03*
X288378Y201740I-1378J0D01*
G01*
X1140378Y206740D02*
G03*
X1140378Y206740I-1378J0D01*
G01*
X1064878Y201740D02*
G03*
X1064878Y201740I-1378J0D01*
G01*
X543378Y202240D02*
G03*
X543378Y202240I-1378J0D01*
G01*
X718378Y220000D02*
G03*
X718378Y220000I-1378J0D01*
G01*
X190878Y201740D02*
G03*
X190878Y201740I-1378J0D01*
G01*
X117378Y257000D02*
G03*
X117378Y257000I-1378J0D01*
G01*
X1149378Y206740D02*
G03*
X1149378Y206740I-1378J0D01*
G01*
X309378Y288000D02*
G03*
X309378Y288000I-1378J0D01*
G01*
X120878Y201740D02*
G03*
X120878Y201740I-1378J0D01*
G01*
X1090378D02*
G03*
X1090378Y201740I-1378J0D01*
G01*
X1060878Y288000D02*
G03*
X1060878Y288000I-1378J0D01*
G01*
X245378D02*
G03*
X245378Y288000I-1378J0D01*
G01*
X847378Y257000D02*
G03*
X847378Y257000I-1378J0D01*
G01*
X108878D02*
G03*
X108878Y257000I-1378J0D01*
G01*
X216378Y201740D02*
G03*
X216378Y201740I-1378J0D01*
G01*
X1131378Y206760D02*
G03*
X1131378Y206760I-1378J0D01*
G01*
X988878Y257000D02*
G03*
X988878Y257000I-1378J0D01*
G01*
X906878Y287500D02*
G03*
X906878Y287500I-1378J0D01*
G01*
X339878Y208000D02*
G03*
X339878Y208000I-1378J0D01*
G01*
X167378Y288000D02*
G03*
X167378Y288000I-1378J0D01*
G01*
X657378Y202240D02*
G03*
X657378Y202240I-1378J0D01*
G01*
X262878Y201740D02*
G03*
X262878Y201740I-1378J0D01*
G01*
X517878Y202240D02*
G03*
X517878Y202240I-1378J0D01*
G01*
X96378Y288000D02*
G03*
X96378Y288000I-1378J0D01*
G01*
X587878Y202240D02*
G03*
X587878Y202240I-1378J0D01*
G01*
X50378Y201740D02*
G03*
X50378Y201740I-1378J0D01*
G01*
X705378Y208260D02*
G03*
X705378Y208260I-1378J0D01*
G01*
X1052378Y288000D02*
G03*
X1052378Y288000I-1378J0D01*
G01*
X643378Y288500D02*
G03*
X643378Y288500I-1378J0D01*
G01*
X634878D02*
G03*
X634878Y288500I-1378J0D01*
G01*
X583878Y257000D02*
G03*
X583878Y257000I-1378J0D01*
G01*
X1127138Y218000D02*
G03*
X1127138Y218000I-1378J0D01*
G01*
X980378Y257000D02*
G03*
X980378Y257000I-1378J0D01*
G01*
X736378Y220000D02*
G03*
X736378Y220000I-1378J0D01*
G01*
X977378Y288500D02*
G03*
X977378Y288500I-1378J0D01*
G01*
X713878Y289000D02*
G03*
X713878Y289000I-1378J0D01*
G01*
X682878Y202240D02*
G03*
X682878Y202240I-1378J0D01*
G01*
X146378Y201740D02*
G03*
X146378Y201740I-1378J0D01*
G01*
X989378Y288500D02*
G03*
X989378Y288500I-1378J0D01*
G01*
X572878D02*
G03*
X572878Y288500I-1378J0D01*
G01*
X575378Y257000D02*
G03*
X575378Y257000I-1378J0D01*
G01*
X947878Y201740D02*
G03*
X947878Y201740I-1378J0D01*
G01*
X259378Y257000D02*
G03*
X259378Y257000I-1378J0D01*
G01*
X1060378D02*
G03*
X1060378Y257000I-1378J0D01*
G01*
X1122378Y206760D02*
G03*
X1122378Y206760I-1378J0D01*
G01*
X236878Y288000D02*
G03*
X236878Y288000I-1378J0D01*
G01*
X46878Y257000D02*
G03*
X46878Y257000I-1378J0D01*
G01*
X502878Y288000D02*
G03*
X502878Y288000I-1378J0D01*
G01*
X443878Y258000D02*
G03*
X443878Y258000I-1378J0D01*
G01*
X317878Y288241D02*
G03*
X317878Y288241I-1378J0D01*
G01*
X705378Y289000D02*
G03*
X705378Y289000I-1378J0D01*
G01*
X918378Y257000D02*
G03*
X918378Y257000I-1378J0D01*
G01*
X1018878Y201740D02*
G03*
X1018878Y201740I-1378J0D01*
G01*
X909878Y257000D02*
G03*
X909878Y257000I-1378J0D01*
G01*
X299406Y339000D02*
G03*
X299406Y339000I-1378J0D01*
G01*
X766378Y308000D02*
G03*
X766378Y308000I-1378J0D01*
G01*
X794878Y368000D02*
G03*
X794878Y368000I-1378J0D01*
G01*
D02*
G03*
X794878Y368000I-1378J0D01*
G01*
X746378Y362260D02*
G03*
X746378Y362260I-1378J0D01*
G01*
D02*
G03*
X746378Y362260I-1378J0D01*
G01*
X455378Y202240D02*
G03*
X455378Y202240I-1378J0D01*
G01*
D02*
G03*
X455378Y202240I-1378J0D01*
G01*
X1001878Y201740D02*
G03*
X1001878Y201740I-1378J0D01*
G01*
D02*
G03*
X1001878Y201740I-1378J0D01*
G01*
X1010378D02*
G03*
X1010378Y201740I-1378J0D01*
G01*
D02*
G03*
X1010378Y201740I-1378J0D01*
G01*
X298618Y238000D02*
G03*
X298618Y238000I-1378J0D01*
G01*
D02*
G03*
X298618Y238000I-1378J0D01*
G01*
X657618Y241000D02*
G03*
X657618Y241000I-1378J0D01*
G01*
D02*
G03*
X657618Y241000I-1378J0D01*
G01*
X624378Y238500D02*
G03*
X624378Y238500I-1378J0D01*
G01*
D02*
G03*
X624378Y238500I-1378J0D01*
G01*
X263618Y240500D02*
G03*
X263618Y240500I-1378J0D01*
G01*
D02*
G03*
X263618Y240500I-1378J0D01*
G01*
X321878Y208000D02*
G03*
X321878Y208000I-1378J0D01*
G01*
D02*
G03*
X321878Y208000I-1378J0D01*
G01*
X713878Y208260D02*
G03*
X713878Y208260I-1378J0D01*
G01*
D02*
G03*
X713878Y208260I-1378J0D01*
G01*
X887378Y239000D02*
G03*
X887378Y239000I-1378J0D01*
G01*
D02*
G03*
X887378Y239000I-1378J0D01*
G01*
X50878Y240500D02*
G03*
X50878Y240500I-1378J0D01*
G01*
D02*
G03*
X50878Y240500I-1378J0D01*
G01*
X1113878Y207000D02*
G03*
X1113878Y207000I-1378J0D01*
G01*
D02*
G03*
X1113878Y207000I-1378J0D01*
G01*
X1100878Y239000D02*
G03*
X1100878Y239000I-1378J0D01*
G01*
D02*
G03*
X1100878Y239000I-1378J0D01*
G01*
X58878Y201740D02*
G03*
X58878Y201740I-1378J0D01*
G01*
D02*
G03*
X58878Y201740I-1378J0D01*
G01*
X1064878Y240500D02*
G03*
X1064878Y240500I-1378J0D01*
G01*
D02*
G03*
X1064878Y240500I-1378J0D01*
G01*
X526378Y202240D02*
G03*
X526378Y202240I-1378J0D01*
G01*
D02*
G03*
X526378Y202240I-1378J0D01*
G01*
X553878Y238500D02*
G03*
X553878Y238500I-1378J0D01*
G01*
D02*
G03*
X553878Y238500I-1378J0D01*
G01*
X534878Y202240D02*
G03*
X534878Y202240I-1378J0D01*
G01*
D02*
G03*
X534878Y202240I-1378J0D01*
G01*
X693878Y238500D02*
G03*
X693878Y238500I-1378J0D01*
G01*
D02*
G03*
X693878Y238500I-1378J0D01*
G01*
X665878Y202240D02*
G03*
X665878Y202240I-1378J0D01*
G01*
D02*
G03*
X665878Y202240I-1378J0D01*
G01*
X199378Y201740D02*
G03*
X199378Y201740I-1378J0D01*
G01*
D02*
G03*
X199378Y201740I-1378J0D01*
G01*
X993791Y240500D02*
G03*
X993791Y240500I-1378J0D01*
G01*
D02*
G03*
X993791Y240500I-1378J0D01*
G01*
X1081878Y201740D02*
G03*
X1081878Y201740I-1378J0D01*
G01*
D02*
G03*
X1081878Y201740I-1378J0D01*
G01*
X587538Y241000D02*
G03*
X587538Y241000I-1378J0D01*
G01*
D02*
G03*
X587538Y241000I-1378J0D01*
G01*
X85878Y238001D02*
G03*
X85878Y238001I-1378J0D01*
G01*
D02*
G03*
X85878Y238001I-1378J0D01*
G01*
X447378Y241000D02*
G03*
X447378Y241000I-1378J0D01*
G01*
D02*
G03*
X447378Y241000I-1378J0D01*
G01*
X851618Y240500D02*
G03*
X851618Y240500I-1378J0D01*
G01*
D02*
G03*
X851618Y240500I-1378J0D01*
G01*
X207878Y201740D02*
G03*
X207878Y201740I-1378J0D01*
G01*
D02*
G03*
X207878Y201740I-1378J0D01*
G01*
X121378Y240500D02*
G03*
X121378Y240500I-1378J0D01*
G01*
D02*
G03*
X121378Y240500I-1378J0D01*
G01*
X137878Y201740D02*
G03*
X137878Y201740I-1378J0D01*
G01*
D02*
G03*
X137878Y201740I-1378J0D01*
G01*
X517458Y241000D02*
G03*
X517458Y241000I-1378J0D01*
G01*
D02*
G03*
X517458Y241000I-1378J0D01*
G01*
X156878Y238000D02*
G03*
X156878Y238000I-1378J0D01*
G01*
D02*
G03*
X156878Y238000I-1378J0D01*
G01*
X1029711Y239000D02*
G03*
X1029711Y239000I-1378J0D01*
G01*
D02*
G03*
X1029711Y239000I-1378J0D01*
G01*
X67378Y201740D02*
G03*
X67378Y201740I-1378J0D01*
G01*
D02*
G03*
X67378Y201740I-1378J0D01*
G01*
X129378D02*
G03*
X129378Y201740I-1378J0D01*
G01*
D02*
G03*
X129378Y201740I-1378J0D01*
G01*
X463878Y202240D02*
G03*
X463878Y202240I-1378J0D01*
G01*
D02*
G03*
X463878Y202240I-1378J0D01*
G01*
X1073378Y201740D02*
G03*
X1073378Y201740I-1378J0D01*
G01*
D02*
G03*
X1073378Y201740I-1378J0D01*
G01*
X190878Y240500D02*
G03*
X190878Y240500I-1378J0D01*
G01*
D02*
G03*
X190878Y240500I-1378J0D01*
G01*
X859878Y201740D02*
G03*
X859878Y201740I-1378J0D01*
G01*
D02*
G03*
X859878Y201740I-1378J0D01*
G01*
X939378D02*
G03*
X939378Y201740I-1378J0D01*
G01*
D02*
G03*
X939378Y201740I-1378J0D01*
G01*
X674378Y202240D02*
G03*
X674378Y202240I-1378J0D01*
G01*
D02*
G03*
X674378Y202240I-1378J0D01*
G01*
X958545Y239000D02*
G03*
X958545Y239000I-1378J0D01*
G01*
D02*
G03*
X958545Y239000I-1378J0D01*
G01*
X868378Y201740D02*
G03*
X868378Y201740I-1378J0D01*
G01*
D02*
G03*
X868378Y201740I-1378J0D01*
G01*
X226378Y238000D02*
G03*
X226378Y238000I-1378J0D01*
G01*
D02*
G03*
X226378Y238000I-1378J0D01*
G01*
X922705Y240500D02*
G03*
X922705Y240500I-1378J0D01*
G01*
D02*
G03*
X922705Y240500I-1378J0D01*
G01*
X279878Y201740D02*
G03*
X279878Y201740I-1378J0D01*
G01*
D02*
G03*
X279878Y201740I-1378J0D01*
G01*
X930878D02*
G03*
X930878Y201740I-1378J0D01*
G01*
D02*
G03*
X930878Y201740I-1378J0D01*
G01*
X482878Y238500D02*
G03*
X482878Y238500I-1378J0D01*
G01*
D02*
G03*
X482878Y238500I-1378J0D01*
G01*
X604878Y202240D02*
G03*
X604878Y202240I-1378J0D01*
G01*
D02*
G03*
X604878Y202240I-1378J0D01*
G01*
X596378D02*
G03*
X596378Y202240I-1378J0D01*
G01*
D02*
G03*
X596378Y202240I-1378J0D01*
G01*
X271378Y201740D02*
G03*
X271378Y201740I-1378J0D01*
G01*
D02*
G03*
X271378Y201740I-1378J0D01*
G01*
X369878Y363000D02*
G03*
X369878Y363000I-1378J0D01*
G01*
X370878Y279327D02*
G03*
X370878Y279327I-1378J0D01*
G01*
X360878Y264500D02*
G03*
X360878Y264500I-1378J0D01*
G01*
X809878Y308000D02*
G03*
X809878Y308000I-1378J0D01*
G01*
X153878Y33000D02*
G03*
X153878Y33000I-1378J0D01*
G01*
X341378Y32000D02*
G03*
X341378Y32000I-1378J0D01*
G01*
X1191748Y264500D02*
G03*
X1191748Y264500I-1378J0D01*
G01*
X1191878Y363000D02*
G03*
X1191878Y363000I-1378J0D01*
G01*
X735878Y30500D02*
G03*
X735878Y30500I-1378J0D01*
G01*
X548878Y33000D02*
G03*
X548878Y33000I-1378J0D01*
G01*
X494842Y359563D02*
X498779D01*
X496811Y357594D02*
Y361531D01*
X714506Y349500D02*
X718443D01*
X716474Y347532D02*
Y351469D01*
X806000Y360032D02*
Y363968D01*
X804031Y362000D02*
X807969D01*
X733000Y355031D02*
Y358968D01*
X731032Y357000D02*
X734969D01*
X875921Y402531D02*
Y406468D01*
X873953Y404500D02*
X877890D01*
X861862Y368539D02*
X865799D01*
X863831Y366571D02*
Y370508D01*
X867260Y387031D02*
Y390968D01*
X865291Y389000D02*
X869228D01*
X846532Y374740D02*
X850469D01*
X848500Y372771D02*
Y376708D01*
X859531Y344500D02*
X863468D01*
X861500Y342531D02*
Y346468D01*
Y342531D02*
Y346468D01*
X859531Y344500D02*
X863468D01*
X861000Y320532D02*
Y324468D01*
X859031Y322500D02*
X862969D01*
X842032Y323240D02*
X845969D01*
X844000Y321271D02*
Y325208D01*
Y321271D02*
Y325208D01*
X842032Y323240D02*
X845969D01*
X852500Y320532D02*
Y324468D01*
X850531Y322500D02*
X854469D01*
X881740Y387031D02*
Y390968D01*
X879771Y389000D02*
X883708D01*
X879771D02*
X883708D01*
X881740Y387031D02*
Y390968D01*
X887000Y365531D02*
Y369468D01*
X885032Y367500D02*
X888968D01*
X837031Y374741D02*
X840968D01*
X839000Y372772D02*
Y376709D01*
X1142031Y31500D02*
X1145969D01*
X1144000Y29531D02*
Y33468D01*
X957000Y30531D02*
Y34468D01*
X955031Y32500D02*
X958969D01*
X765031Y363500D02*
X768968D01*
X767000Y361531D02*
Y365469D01*
X860500Y269531D02*
Y273468D01*
X858531Y271500D02*
X862469D01*
X128032D02*
X131968D01*
X130000Y269531D02*
Y273468D01*
X57531Y271500D02*
X61468D01*
X59500Y269531D02*
Y273468D01*
X149531Y271500D02*
X153469D01*
X151500Y269531D02*
Y273468D01*
X685532Y272000D02*
X689468D01*
X687500Y270031D02*
Y273969D01*
X476031Y272000D02*
X479969D01*
X478000Y270031D02*
Y273969D01*
X524198Y272000D02*
X528135D01*
X526167Y270031D02*
Y273969D01*
X270031Y271500D02*
X273969D01*
X272000Y269531D02*
Y273468D01*
X197531Y271500D02*
X201468D01*
X199500Y269531D02*
Y273468D01*
X1094500Y269531D02*
Y273468D01*
X1092531Y271500D02*
X1096469D01*
X953167Y269531D02*
Y273468D01*
X951198Y271500D02*
X955135D01*
X882500Y269531D02*
Y273468D01*
X880532Y271500D02*
X884468D01*
X454032Y272000D02*
X457969D01*
X456000Y270031D02*
Y273969D01*
X291531Y271500D02*
X295468D01*
X293500Y269531D02*
Y273468D01*
X664532Y272000D02*
X668469D01*
X666500Y270031D02*
Y273969D01*
X219032Y271500D02*
X222969D01*
X221000Y269531D02*
Y273468D01*
X545865Y272000D02*
X549802D01*
X547833Y270031D02*
Y273969D01*
X1073500Y269531D02*
Y273468D01*
X1071531Y271500D02*
X1075469D01*
X594365Y272000D02*
X598302D01*
X596333Y270031D02*
Y273969D01*
X1002500Y269531D02*
Y273468D01*
X1000531Y271500D02*
X1004469D01*
X79031D02*
X82968D01*
X81000Y269531D02*
Y273468D01*
X615698Y272000D02*
X619635D01*
X617667Y270031D02*
Y273969D01*
X931500Y269531D02*
Y273468D01*
X929531Y271500D02*
X933469D01*
X1023833Y269531D02*
Y273468D01*
X1021865Y271500D02*
X1025802D01*
X758032Y266000D02*
X761969D01*
X760000Y264032D02*
Y267969D01*
X401031Y264500D02*
X404969D01*
X403000Y262531D02*
Y266469D01*
X803500Y263850D02*
Y267787D01*
X801532Y265819D02*
X805468D01*
X612000Y200271D02*
Y204208D01*
X610032Y202240D02*
X613969D01*
X967500Y286531D02*
Y290469D01*
X965532Y288500D02*
X969468D01*
X249500Y255031D02*
Y258968D01*
X247532Y257000D02*
X251468D01*
X895032Y287500D02*
X898969D01*
X897000Y285531D02*
Y289469D01*
X992000Y199771D02*
Y203708D01*
X990032Y201740D02*
X993968D01*
X343000Y218032D02*
Y221969D01*
X341032Y220000D02*
X344969D01*
X493000Y286032D02*
Y289968D01*
X491032Y288000D02*
X494969D01*
X835531Y257000D02*
X839468D01*
X837500Y255031D02*
Y258968D01*
X74500Y199771D02*
Y203708D01*
X72532Y201740D02*
X76469D01*
X875500Y199771D02*
Y203708D01*
X873532Y201740D02*
X877469D01*
X325000Y217531D02*
Y221468D01*
X323031Y219500D02*
X326969D01*
X643000Y255532D02*
Y259469D01*
X641032Y257500D02*
X644969D01*
X327532Y208000D02*
X331469D01*
X329500Y206031D02*
Y209968D01*
X919032Y201740D02*
X922969D01*
X921000Y199771D02*
Y203708D01*
X471000Y200271D02*
Y204208D01*
X469031Y202240D02*
X472968D01*
X345532Y208000D02*
X349468D01*
X347500Y206031D02*
Y209968D01*
X512000Y255532D02*
Y259469D01*
X510032Y257500D02*
X513969D01*
X1048532Y257000D02*
X1052468D01*
X1050500Y255031D02*
Y258968D01*
X719532Y208260D02*
X723469D01*
X721500Y206291D02*
Y210228D01*
X185500Y255031D02*
Y258968D01*
X183531Y257000D02*
X187469D01*
X103500Y286032D02*
Y289968D01*
X101532Y288000D02*
X105468D01*
X310032Y208000D02*
X313968D01*
X312000Y206031D02*
Y209968D01*
X492000Y255532D02*
Y259469D01*
X490031Y257500D02*
X493968D01*
X563000Y286531D02*
Y290469D01*
X561031Y288500D02*
X564968D01*
X37000Y255031D02*
Y258968D01*
X35032Y257000D02*
X38969D01*
X174500Y286272D02*
Y290209D01*
X172531Y288241D02*
X176468D01*
X1144000Y216531D02*
Y220468D01*
X1142031Y218500D02*
X1145969D01*
X850000Y199771D02*
Y203708D01*
X848032Y201740D02*
X851969D01*
X443532Y202240D02*
X447469D01*
X445500Y200271D02*
Y204208D01*
X1036032Y288500D02*
X1039968D01*
X1038000Y286531D02*
Y290469D01*
X728532Y208260D02*
X732469D01*
X730500Y206291D02*
Y210228D01*
X651500Y255532D02*
Y259469D01*
X649532Y257500D02*
X653469D01*
X737532Y208260D02*
X741468D01*
X739500Y206291D02*
Y210228D01*
X177000Y255031D02*
Y258968D01*
X175031Y257000D02*
X178969D01*
X503500Y255532D02*
Y259469D01*
X501532Y257500D02*
X505469D01*
X285032Y201740D02*
X288968D01*
X287000Y199771D02*
Y203708D01*
X1137031Y206740D02*
X1140968D01*
X1139000Y204772D02*
Y208709D01*
X1061532Y201740D02*
X1065469D01*
X1063500Y199771D02*
Y203708D01*
X542000Y200271D02*
Y204208D01*
X540031Y202240D02*
X543968D01*
X717000Y218032D02*
Y221969D01*
X715031Y220000D02*
X718968D01*
X189500Y199771D02*
Y203708D01*
X187531Y201740D02*
X191469D01*
X116000Y255031D02*
Y258968D01*
X114032Y257000D02*
X117968D01*
X1146032Y206740D02*
X1149969D01*
X1148000Y204771D02*
Y208708D01*
X308000Y286032D02*
Y289968D01*
X306031Y288000D02*
X309968D01*
X119500Y199771D02*
Y203708D01*
X117532Y201740D02*
X121469D01*
X1087031D02*
X1090969D01*
X1089000Y199771D02*
Y203708D01*
X1059500Y286032D02*
Y289968D01*
X1057532Y288000D02*
X1061469D01*
X244000Y286032D02*
Y289968D01*
X242032Y288000D02*
X245969D01*
X844032Y257000D02*
X847969D01*
X846000Y255031D02*
Y258968D01*
X107500Y255031D02*
Y258968D01*
X105532Y257000D02*
X109468D01*
X215000Y199771D02*
Y203708D01*
X213032Y201740D02*
X216968D01*
X1128032Y206760D02*
X1131969D01*
X1130000Y204791D02*
Y208728D01*
X985532Y257000D02*
X989468D01*
X987500Y255031D02*
Y258968D01*
X903531Y287500D02*
X907469D01*
X905500Y285531D02*
Y289469D01*
X336531Y208000D02*
X340469D01*
X338500Y206031D02*
Y209968D01*
X166000Y286032D02*
Y289968D01*
X164032Y288000D02*
X167968D01*
X656000Y200271D02*
Y204208D01*
X654032Y202240D02*
X657969D01*
X259531Y201740D02*
X263469D01*
X261500Y199771D02*
Y203708D01*
X516500Y200271D02*
Y204208D01*
X514532Y202240D02*
X518469D01*
X95000Y286032D02*
Y289968D01*
X93032Y288000D02*
X96969D01*
X586500Y200271D02*
Y204208D01*
X584532Y202240D02*
X588469D01*
X49000Y199771D02*
Y203708D01*
X47032Y201740D02*
X50968D01*
X702032Y208260D02*
X705969D01*
X704000Y206291D02*
Y210228D01*
X1051000Y286032D02*
Y289968D01*
X1049032Y288000D02*
X1052969D01*
X642000Y286531D02*
Y290469D01*
X640031Y288500D02*
X643968D01*
X633500Y286531D02*
Y290469D01*
X631531Y288500D02*
X635468D01*
X582500Y255031D02*
Y258968D01*
X580532Y257000D02*
X584469D01*
X1125760Y216032D02*
Y219969D01*
X1123792Y218000D02*
X1127729D01*
X977032Y257000D02*
X980968D01*
X979000Y255031D02*
Y258968D01*
X735000Y218032D02*
Y221969D01*
X733032Y220000D02*
X736969D01*
X976000Y286531D02*
Y290469D01*
X974032Y288500D02*
X977969D01*
X712500Y287032D02*
Y290968D01*
X710532Y289000D02*
X714468D01*
X681500Y200271D02*
Y204208D01*
X679531Y202240D02*
X683468D01*
X145000Y199771D02*
Y203708D01*
X143032Y201740D02*
X146968D01*
X986032Y288500D02*
X989968D01*
X988000Y286531D02*
Y290469D01*
X571500Y286531D02*
Y290469D01*
X569531Y288500D02*
X573468D01*
X574000Y255031D02*
Y258968D01*
X572031Y257000D02*
X575969D01*
X944532Y201740D02*
X948469D01*
X946500Y199771D02*
Y203708D01*
X258000Y255031D02*
Y258968D01*
X256031Y257000D02*
X259968D01*
X1057032D02*
X1060968D01*
X1059000Y255031D02*
Y258968D01*
X1119031Y206760D02*
X1122968D01*
X1121000Y204792D02*
Y208729D01*
X235500Y286032D02*
Y289968D01*
X233531Y288000D02*
X237469D01*
X45500Y255031D02*
Y258968D01*
X43532Y257000D02*
X47469D01*
X501500Y286032D02*
Y289968D01*
X499532Y288000D02*
X503469D01*
X442500Y256031D02*
Y259968D01*
X440531Y258000D02*
X444468D01*
X316500Y286272D02*
Y290209D01*
X314531Y288241D02*
X318468D01*
X704000Y287032D02*
Y290968D01*
X702032Y289000D02*
X705969D01*
X915032Y257000D02*
X918968D01*
X917000Y255031D02*
Y258968D01*
X1017500Y199771D02*
Y203708D01*
X1015532Y201740D02*
X1019468D01*
X906532Y257000D02*
X910468D01*
X908500Y255031D02*
Y258968D01*
X298028Y337032D02*
Y340969D01*
X296059Y339000D02*
X299996D01*
X765000Y306031D02*
Y309968D01*
X763031Y308000D02*
X766968D01*
X791532Y368000D02*
X795469D01*
X793500Y366032D02*
Y369969D01*
Y366032D02*
Y369969D01*
X791532Y368000D02*
X795469D01*
X743031Y362260D02*
X746968D01*
X745000Y360292D02*
Y364229D01*
Y360292D02*
Y364229D01*
X743031Y362260D02*
X746968D01*
X452031Y202240D02*
X455968D01*
X454000Y200271D02*
Y204208D01*
Y200271D02*
Y204208D01*
X452031Y202240D02*
X455968D01*
X998532Y201740D02*
X1002468D01*
X1000500Y199771D02*
Y203708D01*
Y199771D02*
Y203708D01*
X998532Y201740D02*
X1002468D01*
X1007032D02*
X1010969D01*
X1009000Y199771D02*
Y203708D01*
Y199771D02*
Y203708D01*
X1007032Y201740D02*
X1010969D01*
X297240Y236032D02*
Y239968D01*
X295271Y238000D02*
X299208D01*
X295271D02*
X299208D01*
X297240Y236032D02*
Y239968D01*
X656241Y239032D02*
Y242969D01*
X654272Y241000D02*
X658209D01*
X654272D02*
X658209D01*
X656241Y239032D02*
Y242969D01*
X623000Y236531D02*
Y240469D01*
X621032Y238500D02*
X624968D01*
X621032D02*
X624968D01*
X623000Y236531D02*
Y240469D01*
X262241Y238531D02*
Y242469D01*
X260272Y240500D02*
X264209D01*
X260272D02*
X264209D01*
X262241Y238531D02*
Y242469D01*
X318531Y208000D02*
X322468D01*
X320500Y206031D02*
Y209968D01*
Y206031D02*
Y209968D01*
X318531Y208000D02*
X322468D01*
X710532Y208260D02*
X714468D01*
X712500Y206291D02*
Y210228D01*
Y206291D02*
Y210228D01*
X710532Y208260D02*
X714468D01*
X886000Y237032D02*
Y240968D01*
X884031Y239000D02*
X887969D01*
X884031D02*
X887969D01*
X886000Y237032D02*
Y240968D01*
X49500Y238531D02*
Y242469D01*
X47532Y240500D02*
X51468D01*
X47532D02*
X51468D01*
X49500Y238531D02*
Y242469D01*
X1110532Y207000D02*
X1114468D01*
X1112500Y205031D02*
Y208968D01*
Y205031D02*
Y208968D01*
X1110532Y207000D02*
X1114468D01*
X1099500Y237032D02*
Y240968D01*
X1097532Y239000D02*
X1101468D01*
X1097532D02*
X1101468D01*
X1099500Y237032D02*
Y240968D01*
X55532Y201740D02*
X59469D01*
X57500Y199771D02*
Y203708D01*
Y199771D02*
Y203708D01*
X55532Y201740D02*
X59469D01*
X1063500Y238531D02*
Y242469D01*
X1061532Y240500D02*
X1065469D01*
X1061532D02*
X1065469D01*
X1063500Y238531D02*
Y242469D01*
X523032Y202240D02*
X526968D01*
X525000Y200271D02*
Y204208D01*
Y200271D02*
Y204208D01*
X523032Y202240D02*
X526968D01*
X552500Y236531D02*
Y240469D01*
X550531Y238500D02*
X554468D01*
X550531D02*
X554468D01*
X552500Y236531D02*
Y240469D01*
X531531Y202240D02*
X535468D01*
X533500Y200271D02*
Y204208D01*
Y200271D02*
Y204208D01*
X531531Y202240D02*
X535468D01*
X692500Y236531D02*
Y240469D01*
X690531Y238500D02*
X694468D01*
X690531D02*
X694468D01*
X692500Y236531D02*
Y240469D01*
X662532Y202240D02*
X666468D01*
X664500Y200271D02*
Y204208D01*
Y200271D02*
Y204208D01*
X662532Y202240D02*
X666468D01*
X196031Y201740D02*
X199968D01*
X198000Y199771D02*
Y203708D01*
Y199771D02*
Y203708D01*
X196031Y201740D02*
X199968D01*
X992414Y238531D02*
Y242469D01*
X990445Y240500D02*
X994382D01*
X990445D02*
X994382D01*
X992414Y238531D02*
Y242469D01*
X1078531Y201740D02*
X1082469D01*
X1080500Y199771D02*
Y203708D01*
Y199771D02*
Y203708D01*
X1078531Y201740D02*
X1082469D01*
X586160Y239032D02*
Y242969D01*
X584192Y241000D02*
X588129D01*
X584192D02*
X588129D01*
X586160Y239032D02*
Y242969D01*
X84500Y236032D02*
Y239969D01*
X82531Y238001D02*
X86468D01*
X82531D02*
X86468D01*
X84500Y236032D02*
Y239969D01*
X446000Y239032D02*
Y242969D01*
X444031Y241000D02*
X447968D01*
X444031D02*
X447968D01*
X446000Y239032D02*
Y242969D01*
X850241Y238531D02*
Y242469D01*
X848272Y240500D02*
X852209D01*
X848272D02*
X852209D01*
X850241Y238531D02*
Y242469D01*
X204532Y201740D02*
X208469D01*
X206500Y199771D02*
Y203708D01*
Y199771D02*
Y203708D01*
X204532Y201740D02*
X208469D01*
X120000Y238531D02*
Y242469D01*
X118032Y240500D02*
X121968D01*
X118032D02*
X121968D01*
X120000Y238531D02*
Y242469D01*
X134531Y201740D02*
X138469D01*
X136500Y199771D02*
Y203708D01*
Y199771D02*
Y203708D01*
X134531Y201740D02*
X138469D01*
X516080Y239032D02*
Y242969D01*
X514112Y241000D02*
X518049D01*
X514112D02*
X518049D01*
X516080Y239032D02*
Y242969D01*
X155500Y236032D02*
Y239968D01*
X153532Y238000D02*
X157468D01*
X153532D02*
X157468D01*
X155500Y236032D02*
Y239968D01*
X1028333Y237032D02*
Y240968D01*
X1026365Y239000D02*
X1030302D01*
X1026365D02*
X1030302D01*
X1028333Y237032D02*
Y240968D01*
X64032Y201740D02*
X67969D01*
X66000Y199771D02*
Y203708D01*
Y199771D02*
Y203708D01*
X64032Y201740D02*
X67969D01*
X126031D02*
X129968D01*
X128000Y199771D02*
Y203708D01*
Y199771D02*
Y203708D01*
X126031Y201740D02*
X129968D01*
X460532Y202240D02*
X464468D01*
X462500Y200271D02*
Y204208D01*
Y200271D02*
Y204208D01*
X460532Y202240D02*
X464468D01*
X1070031Y201740D02*
X1073968D01*
X1072000Y199771D02*
Y203708D01*
Y199771D02*
Y203708D01*
X1070031Y201740D02*
X1073968D01*
X189500Y238531D02*
Y242469D01*
X187531Y240500D02*
X191469D01*
X187531D02*
X191469D01*
X189500Y238531D02*
Y242469D01*
X856532Y201740D02*
X860468D01*
X858500Y199771D02*
Y203708D01*
Y199771D02*
Y203708D01*
X856532Y201740D02*
X860468D01*
X936032D02*
X939969D01*
X938000Y199771D02*
Y203708D01*
Y199771D02*
Y203708D01*
X936032Y201740D02*
X939969D01*
X671032Y202240D02*
X674968D01*
X673000Y200271D02*
Y204208D01*
Y200271D02*
Y204208D01*
X671032Y202240D02*
X674968D01*
X957167Y237032D02*
Y240968D01*
X955198Y239000D02*
X959135D01*
X955198D02*
X959135D01*
X957167Y237032D02*
Y240968D01*
X865032Y201740D02*
X868968D01*
X867000Y199771D02*
Y203708D01*
Y199771D02*
Y203708D01*
X865032Y201740D02*
X868968D01*
X225000Y236032D02*
Y239968D01*
X223031Y238000D02*
X226969D01*
X223031D02*
X226969D01*
X225000Y236032D02*
Y239968D01*
X921327Y238531D02*
Y242469D01*
X919359Y240500D02*
X923295D01*
X919359D02*
X923295D01*
X921327Y238531D02*
Y242469D01*
X276532Y201740D02*
X280469D01*
X278500Y199771D02*
Y203708D01*
Y199771D02*
Y203708D01*
X276532Y201740D02*
X280469D01*
X927531D02*
X931468D01*
X929500Y199771D02*
Y203708D01*
Y199771D02*
Y203708D01*
X927531Y201740D02*
X931468D01*
X481500Y236531D02*
Y240469D01*
X479531Y238500D02*
X483468D01*
X479531D02*
X483468D01*
X481500Y236531D02*
Y240469D01*
X601532Y202240D02*
X605469D01*
X603500Y200271D02*
Y204208D01*
Y200271D02*
Y204208D01*
X601532Y202240D02*
X605469D01*
X593032D02*
X596969D01*
X595000Y200271D02*
Y204208D01*
Y200271D02*
Y204208D01*
X593032Y202240D02*
X596969D01*
X268032Y201740D02*
X271969D01*
X270000Y199771D02*
Y203708D01*
Y199771D02*
Y203708D01*
X268032Y201740D02*
X271969D01*
X368500Y361032D02*
Y364968D01*
X366531Y363000D02*
X370468D01*
X367531Y279327D02*
X371468D01*
X369500Y277358D02*
Y281295D01*
X359500Y262531D02*
Y266469D01*
X357531Y264500D02*
X361469D01*
X806532Y308000D02*
X810468D01*
X808500Y306031D02*
Y309968D01*
X150531Y33000D02*
X154469D01*
X152500Y31032D02*
Y34969D01*
X338032Y32000D02*
X341968D01*
X340000Y30031D02*
Y33968D01*
X1188402Y264500D02*
X1192339D01*
X1190370Y262531D02*
Y266469D01*
X1188531Y363000D02*
X1192468D01*
X1190500Y361032D02*
Y364968D01*
X734500Y28532D02*
Y32469D01*
X732531Y30500D02*
X736469D01*
X547500Y31032D02*
Y34969D01*
X545532Y33000D02*
X549469D01*
D14*
X717000Y366000D02*
G03*
X717000Y366000I-500J0D01*
G01*
X715713D02*
X717287D01*
X716500Y365213D02*
Y366787D01*
D15*
X468452Y354826D02*
Y356426D01*
X470052D01*
Y354826D01*
X468452D01*
Y362700D02*
Y364300D01*
X470052D01*
Y362700D01*
X468452D01*
X476326Y354826D02*
Y356426D01*
X477926D01*
Y354826D01*
X476326D01*
Y362700D02*
Y364300D01*
X477926D01*
Y362700D01*
X476326D01*
X484200Y354826D02*
Y356426D01*
X485800D01*
Y354826D01*
X484200D01*
Y362700D02*
Y364300D01*
X485800D01*
Y362700D01*
X484200D01*
X492074Y354826D02*
Y356426D01*
X493674D01*
Y354826D01*
X492074D01*
Y362700D02*
Y364300D01*
X493674D01*
Y362700D01*
X492074D01*
X499948Y354826D02*
Y356426D01*
X501548D01*
Y354826D01*
X499948D01*
Y362700D02*
Y364300D01*
X501548D01*
Y362700D01*
X499948D01*
X507822Y354826D02*
Y356426D01*
X509422D01*
Y354826D01*
X507822D01*
Y362700D02*
Y364300D01*
X509422D01*
Y362700D01*
X507822D01*
X515696Y354826D02*
Y356426D01*
X517296D01*
Y354826D01*
X515696D01*
Y362700D02*
Y364300D01*
X517296D01*
Y362700D01*
X515696D01*
X523570Y354826D02*
Y356426D01*
X525170D01*
Y354826D01*
X523570D01*
Y362700D02*
Y364300D01*
X525170D01*
Y362700D01*
X523570D01*
X584595Y72823D02*
X583795Y74423D01*
X585395D01*
X584595Y72823D01*
X599358Y155500D02*
X598558Y157100D01*
X600158D01*
X599358Y155500D01*
X614122Y86602D02*
X613322Y88202D01*
X614922D01*
X614122Y86602D01*
X584595Y155500D02*
X583795Y157100D01*
X585395D01*
X584595Y155500D01*
X614122D02*
X613322Y157100D01*
X614922D01*
X614122Y155500D01*
X870200Y403700D02*
Y405300D01*
X871800D01*
Y403700D01*
X870200D01*
X880042D02*
Y405300D01*
X881643D01*
Y403700D01*
X880042D01*
X1159000Y45070D02*
X1159400Y45470D01*
X1159800D01*
X1159400Y45870D01*
X1159800Y46270D01*
X1159400D01*
X1159000Y46670D01*
X1158600Y46270D01*
X1158200D01*
X1158600Y45870D01*
X1158200Y45470D01*
X1158600D01*
X1159000Y45070D01*
X1129000D02*
X1129400Y45470D01*
X1129800D01*
X1129400Y45870D01*
X1129800Y46270D01*
X1129400D01*
X1129000Y46670D01*
X1128600Y46270D01*
X1128200D01*
X1128600Y45870D01*
X1128200Y45470D01*
X1128600D01*
X1129000Y45070D01*
X972000Y46070D02*
X972400Y46470D01*
X972800D01*
X972400Y46870D01*
X972800Y47270D01*
X972400D01*
X972000Y47670D01*
X971600Y47270D01*
X971200D01*
X971600Y46870D01*
X971200Y46470D01*
X971600D01*
X972000Y46070D01*
X1002000D02*
X1002400Y46470D01*
X1002800D01*
X1002400Y46870D01*
X1002800Y47270D01*
X1002400D01*
X1002000Y47670D01*
X1001600Y47270D01*
X1001200D01*
X1001600Y46870D01*
X1001200Y46470D01*
X1001600D01*
X1002000Y46070D01*
X942000D02*
X942400Y46470D01*
X942800D01*
X942400Y46870D01*
X942800Y47270D01*
X942400D01*
X942000Y47670D01*
X941600Y47270D01*
X941200D01*
X941600Y46870D01*
X941200Y46470D01*
X941600D01*
X942000Y46070D01*
X911200D02*
X911600Y46870D01*
X911200Y47670D01*
X912000Y47270D01*
X912800Y47670D01*
X912400Y46870D01*
X912800Y46070D01*
X912000Y46470D01*
X911200Y46070D01*
X1056100Y182600D02*
Y182200D01*
X1056900D01*
Y182600D01*
X1057300D01*
Y183400D01*
X1056900D01*
Y183800D01*
X1056100D01*
Y183400D01*
X1055700D01*
Y182600D01*
X1056100D01*
X1095470D02*
Y182200D01*
X1096270D01*
Y182600D01*
X1096670D01*
Y183400D01*
X1096270D01*
Y183800D01*
X1095470D01*
Y183400D01*
X1095070D01*
Y182600D01*
X1095470D01*
X842600D02*
Y182200D01*
X843400D01*
Y182600D01*
X843800D01*
Y183400D01*
X843400D01*
Y183800D01*
X842600D01*
Y183400D01*
X842200D01*
Y182600D01*
X842600D01*
X881970D02*
Y182200D01*
X882770D01*
Y182600D01*
X883170D01*
Y183400D01*
X882770D01*
Y183800D01*
X881970D01*
Y183400D01*
X881570D01*
Y182600D01*
X881970D01*
X254730Y183100D02*
Y182700D01*
X255530D01*
Y183100D01*
X255930D01*
Y183900D01*
X255530D01*
Y184300D01*
X254730D01*
Y183900D01*
X254330D01*
Y183100D01*
X254730D01*
X294100D02*
Y182700D01*
X294900D01*
Y183100D01*
X295300D01*
Y183900D01*
X294900D01*
Y184300D01*
X294100D01*
Y183900D01*
X293700D01*
Y183100D01*
X294100D01*
X151970Y183600D02*
Y183200D01*
X152770D01*
Y183600D01*
X153170D01*
Y184400D01*
X152770D01*
Y184800D01*
X151970D01*
Y184400D01*
X151570D01*
Y183600D01*
X151970D01*
X112600D02*
Y183200D01*
X113400D01*
Y183600D01*
X113800D01*
Y184400D01*
X113400D01*
Y184800D01*
X112600D01*
Y184400D01*
X112200D01*
Y183600D01*
X112600D01*
X222970D02*
Y183200D01*
X223770D01*
Y183600D01*
X224170D01*
Y184400D01*
X223770D01*
Y184800D01*
X222970D01*
Y184400D01*
X222570D01*
Y183600D01*
X222970D01*
X183600D02*
Y183200D01*
X184400D01*
Y183600D01*
X184800D01*
Y184400D01*
X184400D01*
Y184800D01*
X183600D01*
Y184400D01*
X183200D01*
Y183600D01*
X183600D01*
X688470Y183100D02*
Y182700D01*
X689270D01*
Y183100D01*
X689670D01*
Y183900D01*
X689270D01*
Y184300D01*
X688470D01*
Y183900D01*
X688070D01*
Y183100D01*
X688470D01*
X649100D02*
Y182700D01*
X649900D01*
Y183100D01*
X650300D01*
Y183900D01*
X649900D01*
Y184300D01*
X649100D01*
Y183900D01*
X648700D01*
Y183100D01*
X649100D01*
X619303D02*
Y182700D01*
X620103D01*
Y183100D01*
X620503D01*
Y183900D01*
X620103D01*
Y184300D01*
X619303D01*
Y183900D01*
X618903D01*
Y183100D01*
X619303D01*
X579933D02*
Y182700D01*
X580733D01*
Y183100D01*
X581133D01*
Y183900D01*
X580733D01*
Y184300D01*
X579933D01*
Y183900D01*
X579533D01*
Y183100D01*
X579933D01*
X548970Y183600D02*
Y183200D01*
X549770D01*
Y183600D01*
X550170D01*
Y184400D01*
X549770D01*
Y184800D01*
X548970D01*
Y184400D01*
X548570D01*
Y183600D01*
X548970D01*
X509600D02*
Y183200D01*
X510400D01*
Y183600D01*
X510800D01*
Y184400D01*
X510400D01*
Y184800D01*
X509600D01*
Y184400D01*
X509200D01*
Y183600D01*
X509600D01*
X437767Y184100D02*
Y183700D01*
X438567D01*
Y184100D01*
X438967D01*
Y184900D01*
X438567D01*
Y185300D01*
X437767D01*
Y184900D01*
X437367D01*
Y184100D01*
X437767D01*
X477137D02*
Y183700D01*
X477937D01*
Y184100D01*
X478337D01*
Y184900D01*
X477937D01*
Y185300D01*
X477137D01*
Y184900D01*
X476737D01*
Y184100D01*
X477137D01*
X80970Y183600D02*
Y183200D01*
X81770D01*
Y183600D01*
X82170D01*
Y184400D01*
X81770D01*
Y184800D01*
X80970D01*
Y184400D01*
X80570D01*
Y183600D01*
X80970D01*
X41600D02*
Y183200D01*
X42400D01*
Y183600D01*
X42800D01*
Y184400D01*
X42400D01*
Y184800D01*
X41600D01*
Y184400D01*
X41200D01*
Y183600D01*
X41600D01*
X984767Y182600D02*
Y182200D01*
X985567D01*
Y182600D01*
X985967D01*
Y183400D01*
X985567D01*
Y183800D01*
X984767D01*
Y183400D01*
X984367D01*
Y182600D01*
X984767D01*
X1024137D02*
Y182200D01*
X1024937D01*
Y182600D01*
X1025337D01*
Y183400D01*
X1024937D01*
Y183800D01*
X1024137D01*
Y183400D01*
X1023737D01*
Y182600D01*
X1024137D01*
X371672Y187448D02*
X372072D01*
X372472Y187848D01*
X372872Y187448D01*
X373272D01*
Y187848D01*
X372872Y188248D01*
X373272Y188648D01*
Y189048D01*
X372872D01*
X372472Y188648D01*
X372072Y189048D01*
X371672D01*
Y188648D01*
X372072Y188248D01*
X371672Y187848D01*
Y187448D01*
X311042D02*
X311442D01*
X311842Y187848D01*
X312243Y187448D01*
X312643D01*
Y187848D01*
X312243Y188248D01*
X312643Y188648D01*
Y189048D01*
X312243D01*
X311842Y188648D01*
X311442Y189048D01*
X311042D01*
Y188648D01*
X311442Y188248D01*
X311042Y187848D01*
Y187448D01*
X351200Y71700D02*
X351600D01*
X352000Y72100D01*
X352400Y71700D01*
X352800D01*
Y72100D01*
X352400Y72500D01*
X352800Y72900D01*
Y73300D01*
X352400D01*
X352000Y72900D01*
X351600Y73300D01*
X351200D01*
Y72900D01*
X351600Y72500D01*
X351200Y72100D01*
Y71700D01*
X331515D02*
X331915D01*
X332315Y72100D01*
X332715Y71700D01*
X333115D01*
Y72100D01*
X332715Y72500D01*
X333115Y72900D01*
Y73300D01*
X332715D01*
X332315Y72900D01*
X331915Y73300D01*
X331515D01*
Y72900D01*
X331915Y72500D01*
X331515Y72100D01*
Y71700D01*
X764172Y187448D02*
X764572D01*
X764972Y187848D01*
X765372Y187448D01*
X765772D01*
Y187848D01*
X765372Y188248D01*
X765772Y188648D01*
Y189048D01*
X765372D01*
X764972Y188648D01*
X764572Y189048D01*
X764172D01*
Y188648D01*
X764572Y188248D01*
X764172Y187848D01*
Y187448D01*
X703543D02*
X703942D01*
X704343Y187848D01*
X704742Y187448D01*
X705142D01*
Y187848D01*
X704742Y188248D01*
X705142Y188648D01*
Y189048D01*
X704742D01*
X704343Y188648D01*
X703942Y189048D01*
X703543D01*
Y188648D01*
X703942Y188248D01*
X703543Y187848D01*
Y187448D01*
X743700Y71700D02*
X744100D01*
X744500Y72100D01*
X744900Y71700D01*
X745300D01*
Y72100D01*
X744900Y72500D01*
X745300Y72900D01*
Y73300D01*
X744900D01*
X744500Y72900D01*
X744100Y73300D01*
X743700D01*
Y72900D01*
X744100Y72500D01*
X743700Y72100D01*
Y71700D01*
X724015D02*
X724415D01*
X724815Y72100D01*
X725215Y71700D01*
X725615D01*
Y72100D01*
X725215Y72500D01*
X725615Y72900D01*
Y73300D01*
X725215D01*
X724815Y72900D01*
X724415Y73300D01*
X724015D01*
Y72900D01*
X724415Y72500D01*
X724015Y72100D01*
Y71700D01*
X118706Y72323D02*
X117906Y73923D01*
X119506D01*
X118706Y72323D01*
X133470Y155000D02*
X132670Y156600D01*
X134270D01*
X133470Y155000D01*
X148233Y86102D02*
X147433Y87702D01*
X149033D01*
X148233Y86102D01*
X118706Y155000D02*
X117906Y156600D01*
X119506D01*
X118706Y155000D01*
X148233D02*
X147433Y156600D01*
X149033D01*
X148233Y155000D01*
X47872Y72323D02*
X47072Y73923D01*
X48672D01*
X47872Y72323D01*
X62636Y155000D02*
X61836Y156600D01*
X63436D01*
X62636Y155000D01*
X77400Y86102D02*
X76600Y87702D01*
X78200D01*
X77400Y86102D01*
X47872Y155000D02*
X47072Y156600D01*
X48672D01*
X47872Y155000D01*
X77400D02*
X76600Y156600D01*
X78200D01*
X77400Y155000D01*
X1059972Y72421D02*
X1059172Y74020D01*
X1060772D01*
X1059972Y72421D01*
X1074736Y155098D02*
X1073936Y156698D01*
X1075536D01*
X1074736Y155098D01*
X1089500Y86200D02*
X1088700Y87800D01*
X1090300D01*
X1089500Y86200D01*
X1059972Y155098D02*
X1059172Y156698D01*
X1060772D01*
X1059972Y155098D01*
X1089500D02*
X1088700Y156698D01*
X1090300D01*
X1089500Y155098D01*
X989272Y72421D02*
X988472Y74020D01*
X990072D01*
X989272Y72421D01*
X1004036Y155098D02*
X1003236Y156698D01*
X1004836D01*
X1004036Y155098D01*
X1018800Y86200D02*
X1018000Y87800D01*
X1019600D01*
X1018800Y86200D01*
X989272Y155098D02*
X988472Y156698D01*
X990072D01*
X989272Y155098D01*
X1018800D02*
X1018000Y156698D01*
X1019600D01*
X1018800Y155098D01*
X543344Y155500D02*
X542544Y157100D01*
X544144D01*
X543344Y155500D01*
X513817D02*
X513017Y157100D01*
X514617D01*
X513817Y155500D01*
X543344Y86602D02*
X542544Y88202D01*
X544144D01*
X543344Y86602D01*
X528581Y155500D02*
X527781Y157100D01*
X529381D01*
X528581Y155500D01*
X513817Y72823D02*
X513017Y74423D01*
X514617D01*
X513817Y72823D01*
X877400Y155098D02*
X876600Y156698D01*
X878200D01*
X877400Y155098D01*
X847872D02*
X847072Y156698D01*
X848672D01*
X847872Y155098D01*
X877400Y86200D02*
X876600Y87800D01*
X878200D01*
X877400Y86200D01*
X862636Y155098D02*
X861836Y156698D01*
X863436D01*
X862636Y155098D01*
X847872Y72421D02*
X847072Y74020D01*
X848672D01*
X847872Y72421D01*
X655372Y72823D02*
X654572Y74423D01*
X656172D01*
X655372Y72823D01*
X670136Y155500D02*
X669336Y157100D01*
X670936D01*
X670136Y155500D01*
X684900Y86602D02*
X684100Y88202D01*
X685700D01*
X684900Y86602D01*
X655372Y155500D02*
X654572Y157100D01*
X656172D01*
X655372Y155500D01*
X684900D02*
X684100Y157100D01*
X685700D01*
X684900Y155500D01*
X189539Y72323D02*
X188739Y73923D01*
X190339D01*
X189539Y72323D01*
X204303Y155000D02*
X203503Y156600D01*
X205103D01*
X204303Y155000D01*
X219067Y86102D02*
X218267Y87702D01*
X219867D01*
X219067Y86102D01*
X189539Y155000D02*
X188739Y156600D01*
X190339D01*
X189539Y155000D01*
X219067D02*
X218267Y156600D01*
X219867D01*
X219067Y155000D01*
X260372Y72323D02*
X259572Y73923D01*
X261172D01*
X260372Y72323D01*
X275136Y155000D02*
X274336Y156600D01*
X275936D01*
X275136Y155000D01*
X289900Y86102D02*
X289100Y87702D01*
X290700D01*
X289900Y86102D01*
X260372Y155000D02*
X259572Y156600D01*
X261172D01*
X260372Y155000D01*
X289900D02*
X289100Y156600D01*
X290700D01*
X289900Y155000D01*
X491667Y158800D02*
X492067D01*
X492467Y159200D01*
X492867Y158800D01*
X493267D01*
Y159200D01*
X492867Y159600D01*
X493267Y160000D01*
Y160400D01*
X492867D01*
X492467Y160000D01*
X492067Y160400D01*
X491667D01*
Y160000D01*
X492067Y159600D01*
X491667Y159200D01*
Y158800D01*
X495567Y199700D02*
X495967D01*
X496367Y200100D01*
X496767Y199700D01*
X497167D01*
Y200100D01*
X496767Y200500D01*
X497167Y200900D01*
Y201300D01*
X496767D01*
X496367Y200900D01*
X495967Y201300D01*
X495567D01*
Y200900D01*
X495967Y200500D01*
X495567Y200100D01*
Y199700D01*
X421100Y158800D02*
X421500D01*
X421900Y159200D01*
X422300Y158800D01*
X422700D01*
Y159200D01*
X422300Y159600D01*
X422700Y160000D01*
Y160400D01*
X422300D01*
X421900Y160000D01*
X421500Y160400D01*
X421100D01*
Y160000D01*
X421500Y159600D01*
X421100Y159200D01*
Y158800D01*
X425000Y199700D02*
X425400D01*
X425800Y200100D01*
X426200Y199700D01*
X426600D01*
Y200100D01*
X426200Y200500D01*
X426600Y200900D01*
Y201300D01*
X426200D01*
X425800Y200900D01*
X425400Y201300D01*
X425000D01*
Y200900D01*
X425400Y200500D01*
X425000Y200100D01*
Y199700D01*
X562100Y158700D02*
X562500D01*
X562900Y159100D01*
X563300Y158700D01*
X563700D01*
Y159100D01*
X563300Y159500D01*
X563700Y159900D01*
Y160300D01*
X563300D01*
X562900Y159900D01*
X562500Y160300D01*
X562100D01*
Y159900D01*
X562500Y159500D01*
X562100Y159100D01*
Y158700D01*
X566000Y199600D02*
X566400D01*
X566800Y200000D01*
X567200Y199600D01*
X567600D01*
Y200000D01*
X567200Y200400D01*
X567600Y200800D01*
Y201200D01*
X567200D01*
X566800Y200800D01*
X566400Y201200D01*
X566000D01*
Y200800D01*
X566400Y200400D01*
X566000Y200000D01*
Y199600D01*
X830000Y199200D02*
X830400D01*
X830800Y199600D01*
X831200Y199200D01*
X831600D01*
Y199600D01*
X831200Y200000D01*
X831600Y200400D01*
Y200800D01*
X831200D01*
X830800Y200400D01*
X830400Y200800D01*
X830000D01*
Y200400D01*
X830400Y200000D01*
X830000Y199600D01*
Y199200D01*
X826100Y158300D02*
X826500D01*
X826900Y158700D01*
X827300Y158300D01*
X827700D01*
Y158700D01*
X827300Y159100D01*
X827700Y159500D01*
Y159900D01*
X827300D01*
X826900Y159500D01*
X826500Y159900D01*
X826100D01*
Y159500D01*
X826500Y159100D01*
X826100Y158700D01*
Y158300D01*
X96800D02*
X97200D01*
X97600Y158700D01*
X98000Y158300D01*
X98400D01*
Y158700D01*
X98000Y159100D01*
X98400Y159500D01*
Y159900D01*
X98000D01*
X97600Y159500D01*
X97200Y159900D01*
X96800D01*
Y159500D01*
X97200Y159100D01*
X96800Y158700D01*
Y158300D01*
X100700Y199200D02*
X101100D01*
X101500Y199600D01*
X101900Y199200D01*
X102300D01*
Y199600D01*
X101900Y200000D01*
X102300Y200400D01*
Y200800D01*
X101900D01*
X101500Y200400D01*
X101100Y200800D01*
X100700D01*
Y200400D01*
X101100Y200000D01*
X100700Y199600D01*
Y199200D01*
X632800Y158800D02*
X633200D01*
X633600Y159200D01*
X634000Y158800D01*
X634400D01*
Y159200D01*
X634000Y159600D01*
X634400Y160000D01*
Y160400D01*
X634000D01*
X633600Y160000D01*
X633200Y160400D01*
X632800D01*
Y160000D01*
X633200Y159600D01*
X632800Y159200D01*
Y158800D01*
X636700Y199700D02*
X637100D01*
X637500Y200100D01*
X637900Y199700D01*
X638300D01*
Y200100D01*
X637900Y200500D01*
X638300Y200900D01*
Y201300D01*
X637900D01*
X637500Y200900D01*
X637100Y201300D01*
X636700D01*
Y200900D01*
X637100Y200500D01*
X636700Y200100D01*
Y199700D01*
X26300Y158300D02*
X26700D01*
X27100Y158700D01*
X27500Y158300D01*
X27900D01*
Y158700D01*
X27500Y159100D01*
X27900Y159500D01*
Y159900D01*
X27500D01*
X27100Y159500D01*
X26700Y159900D01*
X26300D01*
Y159500D01*
X26700Y159100D01*
X26300Y158700D01*
Y158300D01*
X30200Y199200D02*
X30600D01*
X31000Y199600D01*
X31400Y199200D01*
X31800D01*
Y199600D01*
X31400Y200000D01*
X31800Y200400D01*
Y200800D01*
X31400D01*
X31000Y200400D01*
X30600Y200800D01*
X30200D01*
Y200400D01*
X30600Y200000D01*
X30200Y199600D01*
Y199200D01*
X167300Y158300D02*
X167700D01*
X168100Y158700D01*
X168500Y158300D01*
X168900D01*
Y158700D01*
X168500Y159100D01*
X168900Y159500D01*
Y159900D01*
X168500D01*
X168100Y159500D01*
X167700Y159900D01*
X167300D01*
Y159500D01*
X167700Y159100D01*
X167300Y158700D01*
Y158300D01*
X171200Y199200D02*
X171600D01*
X172000Y199600D01*
X172400Y199200D01*
X172800D01*
Y199600D01*
X172400Y200000D01*
X172800Y200400D01*
Y200800D01*
X172400D01*
X172000Y200400D01*
X171600Y200800D01*
X171200D01*
Y200400D01*
X171600Y200000D01*
X171200Y199600D01*
Y199200D01*
X237800Y158300D02*
X238200D01*
X238600Y158700D01*
X239000Y158300D01*
X239400D01*
Y158700D01*
X239000Y159100D01*
X239400Y159500D01*
Y159900D01*
X239000D01*
X238600Y159500D01*
X238200Y159900D01*
X237800D01*
Y159500D01*
X238200Y159100D01*
X237800Y158700D01*
Y158300D01*
X241700Y199200D02*
X242100D01*
X242500Y199600D01*
X242900Y199200D01*
X243300D01*
Y199600D01*
X242900Y200000D01*
X243300Y200400D01*
Y200800D01*
X242900D01*
X242500Y200400D01*
X242100Y200800D01*
X241700D01*
Y200400D01*
X242100Y200000D01*
X241700Y199600D01*
Y199200D01*
X967433Y158300D02*
X967833D01*
X968233Y158700D01*
X968633Y158300D01*
X969033D01*
Y158700D01*
X968633Y159100D01*
X969033Y159500D01*
Y159900D01*
X968633D01*
X968233Y159500D01*
X967833Y159900D01*
X967433D01*
Y159500D01*
X967833Y159100D01*
X967433Y158700D01*
Y158300D01*
X971333Y199200D02*
X971733D01*
X972133Y199600D01*
X972533Y199200D01*
X972933D01*
Y199600D01*
X972533Y200000D01*
X972933Y200400D01*
Y200800D01*
X972533D01*
X972133Y200400D01*
X971733Y200800D01*
X971333D01*
Y200400D01*
X971733Y200000D01*
X971333Y199600D01*
Y199200D01*
X900667D02*
X901067D01*
X901467Y199600D01*
X901867Y199200D01*
X902267D01*
Y199600D01*
X901867Y200000D01*
X902267Y200400D01*
Y200800D01*
X901867D01*
X901467Y200400D01*
X901067Y200800D01*
X900667D01*
Y200400D01*
X901067Y200000D01*
X900667Y199600D01*
Y199200D01*
X896767Y158300D02*
X897167D01*
X897567Y158700D01*
X897967Y158300D01*
X898367D01*
Y158700D01*
X897967Y159100D01*
X898367Y159500D01*
Y159900D01*
X897967D01*
X897567Y159500D01*
X897167Y159900D01*
X896767D01*
Y159500D01*
X897167Y159100D01*
X896767Y158700D01*
Y158300D01*
X106700Y46570D02*
X107100Y47370D01*
X106700Y48170D01*
X107500Y47770D01*
X108300Y48170D01*
X107900Y47370D01*
X108300Y46570D01*
X107500Y46970D01*
X106700Y46570D01*
X137500D02*
X137900Y46970D01*
X138300D01*
X137900Y47370D01*
X138300Y47770D01*
X137900D01*
X137500Y48170D01*
X137100Y47770D01*
X136700D01*
X137100Y47370D01*
X136700Y46970D01*
X137100D01*
X137500Y46570D01*
X197500D02*
X197900Y46970D01*
X198300D01*
X197900Y47370D01*
X198300Y47770D01*
X197900D01*
X197500Y48170D01*
X197100Y47770D01*
X196700D01*
X197100Y47370D01*
X196700Y46970D01*
X197100D01*
X197500Y46570D01*
X167500D02*
X167900Y46970D01*
X168300D01*
X167900Y47370D01*
X168300Y47770D01*
X167900D01*
X167500Y48170D01*
X167100Y47770D01*
X166700D01*
X167100Y47370D01*
X166700Y46970D01*
X167100D01*
X167500Y46570D01*
X355000Y45570D02*
X355400Y45970D01*
X355800D01*
X355400Y46370D01*
X355800Y46770D01*
X355400D01*
X355000Y47170D01*
X354600Y46770D01*
X354200D01*
X354600Y46370D01*
X354200Y45970D01*
X354600D01*
X355000Y45570D01*
X325000D02*
X325400Y45970D01*
X325800D01*
X325400Y46370D01*
X325800Y46770D01*
X325400D01*
X325000Y47170D01*
X324600Y46770D01*
X324200D01*
X324600Y46370D01*
X324200Y45970D01*
X324600D01*
X325000Y45570D01*
X913433Y182600D02*
Y182200D01*
X914233D01*
Y182600D01*
X914633D01*
Y183400D01*
X914233D01*
Y183800D01*
X913433D01*
Y183400D01*
X913033D01*
Y182600D01*
X913433D01*
X952803D02*
Y182200D01*
X953603D01*
Y182600D01*
X954003D01*
Y183400D01*
X953603D01*
Y183800D01*
X952803D01*
Y183400D01*
X952403D01*
Y182600D01*
X952803D01*
X1132015Y70700D02*
X1132415D01*
X1132815Y71100D01*
X1133215Y70700D01*
X1133615D01*
Y71100D01*
X1133215Y71500D01*
X1133615Y71900D01*
Y72300D01*
X1133215D01*
X1132815Y71900D01*
X1132415Y72300D01*
X1132015D01*
Y71900D01*
X1132415Y71500D01*
X1132015Y71100D01*
Y70700D01*
X1151700D02*
X1152100D01*
X1152500Y71100D01*
X1152900Y70700D01*
X1153300D01*
Y71100D01*
X1152900Y71500D01*
X1153300Y71900D01*
Y72300D01*
X1152900D01*
X1152500Y71900D01*
X1152100Y72300D01*
X1151700D01*
Y71900D01*
X1152100Y71500D01*
X1151700Y71100D01*
Y70700D01*
X1111543Y186448D02*
X1111942D01*
X1112342Y186848D01*
X1112743Y186448D01*
X1113142D01*
Y186848D01*
X1112743Y187248D01*
X1113142Y187648D01*
Y188048D01*
X1112743D01*
X1112342Y187648D01*
X1111942Y188048D01*
X1111543D01*
Y187648D01*
X1111942Y187248D01*
X1111543Y186848D01*
Y186448D01*
X1172172D02*
X1172572D01*
X1172972Y186848D01*
X1173372Y186448D01*
X1173772D01*
Y186848D01*
X1173372Y187248D01*
X1173772Y187648D01*
Y188048D01*
X1173372D01*
X1172972Y187648D01*
X1172572Y188048D01*
X1172172D01*
Y187648D01*
X1172572Y187248D01*
X1172172Y186848D01*
Y186448D01*
X948100Y155098D02*
X947300Y156698D01*
X948900D01*
X948100Y155098D01*
X918572D02*
X917772Y156698D01*
X919372D01*
X918572Y155098D01*
X948100Y86200D02*
X947300Y87800D01*
X948900D01*
X948100Y86200D01*
X933336Y155098D02*
X932536Y156698D01*
X934136D01*
X933336Y155098D01*
X918572Y72421D02*
X917772Y74020D01*
X919372D01*
X918572Y72421D01*
X1176000Y248700D02*
X1176400Y249100D01*
X1176800D01*
X1176400Y249500D01*
X1176800Y249900D01*
X1176400D01*
X1176000Y250300D01*
X1175600Y249900D01*
X1175200D01*
X1175600Y249500D01*
X1175200Y249100D01*
X1175600D01*
X1176000Y248700D01*
Y278700D02*
X1176400Y279100D01*
X1176800D01*
X1176400Y279500D01*
X1176800Y279900D01*
X1176400D01*
X1176000Y280300D01*
X1175600Y279900D01*
X1175200D01*
X1175600Y279500D01*
X1175200Y279100D01*
X1175600D01*
X1176000Y278700D01*
X1176130Y377200D02*
X1176530Y377600D01*
X1176930D01*
X1176530Y378000D01*
X1176930Y378400D01*
X1176530D01*
X1176130Y378800D01*
X1175730Y378400D01*
X1175330D01*
X1175730Y378000D01*
X1175330Y377600D01*
X1175730D01*
X1176130Y377200D01*
Y407200D02*
X1176530Y407600D01*
X1176930D01*
X1176530Y408000D01*
X1176930Y408400D01*
X1176530D01*
X1176130Y408800D01*
X1175730Y408400D01*
X1175330D01*
X1175730Y408000D01*
X1175330Y407600D01*
X1175730D01*
X1176130Y407200D01*
Y347200D02*
X1176530Y347600D01*
X1176930D01*
X1176530Y348000D01*
X1176930Y348400D01*
X1176530D01*
X1176130Y348800D01*
X1175730Y348400D01*
X1175330D01*
X1175730Y348000D01*
X1175330Y347600D01*
X1175730D01*
X1176130Y347200D01*
X1175330Y317200D02*
X1175730Y318000D01*
X1175330Y318800D01*
X1176130Y318400D01*
X1176930Y318800D01*
X1176530Y318000D01*
X1176930Y317200D01*
X1176130Y317600D01*
X1175330Y317200D01*
X908413Y440566D02*
X908813D01*
X909213Y440966D01*
X909613Y440566D01*
X910013D01*
Y440966D01*
X909613Y441366D01*
X910013Y441766D01*
Y442166D01*
X909613D01*
X909213Y441766D01*
X908813Y442166D01*
X908413D01*
Y441766D01*
X908813Y441366D01*
X908413Y440966D01*
Y440566D01*
Y334267D02*
X908813D01*
X909213Y334667D01*
X909613Y334267D01*
X910013D01*
Y334667D01*
X909613Y335067D01*
X910013Y335467D01*
Y335867D01*
X909613D01*
X909213Y335467D01*
X908813Y335867D01*
X908413D01*
Y335467D01*
X908813Y335067D01*
X908413Y334667D01*
Y334267D01*
X1109200Y405133D02*
X1109600D01*
X1110000Y405533D01*
X1110400Y405133D01*
X1110800D01*
Y405533D01*
X1110400Y405933D01*
X1110800Y406333D01*
Y406733D01*
X1110400D01*
X1110000Y406333D01*
X1109600Y406733D01*
X1109200D01*
Y406333D01*
X1109600Y405933D01*
X1109200Y405533D01*
Y405133D01*
Y369700D02*
X1109600D01*
X1110000Y370100D01*
X1110400Y369700D01*
X1110800D01*
Y370100D01*
X1110400Y370500D01*
X1110800Y370900D01*
Y371300D01*
X1110400D01*
X1110000Y370900D01*
X1109600Y371300D01*
X1109200D01*
Y370900D01*
X1109600Y370500D01*
X1109200Y370100D01*
Y369700D01*
X472567Y155500D02*
X471767Y157100D01*
X473367D01*
X472567Y155500D01*
X443039D02*
X442239Y157100D01*
X443839D01*
X443039Y155500D01*
X472567Y86602D02*
X471767Y88202D01*
X473367D01*
X472567Y86602D01*
X457803Y155500D02*
X457003Y157100D01*
X458603D01*
X457803Y155500D01*
X443039Y72823D02*
X442239Y74423D01*
X443839D01*
X443039Y72823D01*
X1042000Y199200D02*
X1042400D01*
X1042800Y199600D01*
X1043200Y199200D01*
X1043600D01*
Y199600D01*
X1043200Y200000D01*
X1043600Y200400D01*
Y200800D01*
X1043200D01*
X1042800Y200400D01*
X1042400Y200800D01*
X1042000D01*
Y200400D01*
X1042400Y200000D01*
X1042000Y199600D01*
Y199200D01*
X1038100Y158300D02*
X1038500D01*
X1038900Y158700D01*
X1039300Y158300D01*
X1039700D01*
Y158700D01*
X1039300Y159100D01*
X1039700Y159500D01*
Y159900D01*
X1039300D01*
X1038900Y159500D01*
X1038500Y159900D01*
X1038100D01*
Y159500D01*
X1038500Y159100D01*
X1038100Y158700D01*
Y158300D01*
X719500Y44070D02*
X719900Y44470D01*
X720300D01*
X719900Y44870D01*
X720300Y45270D01*
X719900D01*
X719500Y45670D01*
X719100Y45270D01*
X718700D01*
X719100Y44870D01*
X718700Y44470D01*
X719100D01*
X719500Y44070D01*
X749500D02*
X749900Y44470D01*
X750300D01*
X749900Y44870D01*
X750300Y45270D01*
X749900D01*
X749500Y45670D01*
X749100Y45270D01*
X748700D01*
X749100Y44870D01*
X748700Y44470D01*
X749100D01*
X749500Y44070D01*
X562500Y46570D02*
X562900Y46970D01*
X563300D01*
X562900Y47370D01*
X563300Y47770D01*
X562900D01*
X562500Y48170D01*
X562100Y47770D01*
X561700D01*
X562100Y47370D01*
X561700Y46970D01*
X562100D01*
X562500Y46570D01*
X592500D02*
X592900Y46970D01*
X593300D01*
X592900Y47370D01*
X593300Y47770D01*
X592900D01*
X592500Y48170D01*
X592100Y47770D01*
X591700D01*
X592100Y47370D01*
X591700Y46970D01*
X592100D01*
X592500Y46570D01*
X532500D02*
X532900Y46970D01*
X533300D01*
X532900Y47370D01*
X533300Y47770D01*
X532900D01*
X532500Y48170D01*
X532100Y47770D01*
X531700D01*
X532100Y47370D01*
X531700Y46970D01*
X532100D01*
X532500Y46570D01*
X501700D02*
X502100Y47370D01*
X501700Y48170D01*
X502500Y47770D01*
X503300Y48170D01*
X502900Y47370D01*
X503300Y46570D01*
X502500Y46970D01*
X501700Y46570D01*
X287700Y344500D02*
X288500Y345300D01*
X289300Y344500D01*
X288500Y343700D01*
X287700Y344500D01*
X289700Y351000D02*
X290500Y351800D01*
X291300Y351000D01*
X290500Y350200D01*
X289700Y351000D01*
X292200Y354500D02*
X293000Y355300D01*
X293800Y354500D01*
X293000Y353700D01*
X292200Y354500D01*
X338700Y286500D02*
X339500Y287300D01*
X340300Y286500D01*
X339500Y285700D01*
X338700Y286500D01*
X336700Y282500D02*
X337500Y283300D01*
X338300Y282500D01*
X337500Y281700D01*
X336700Y282500D01*
X337200Y290500D02*
X338000Y291300D01*
X338800Y290500D01*
X338000Y289700D01*
X337200Y290500D01*
X265180Y231700D02*
Y233300D01*
X266780D01*
Y231700D01*
X265180D01*
X265580Y232100D02*
Y232900D01*
X266380D01*
Y232100D01*
X265580D01*
X300200Y232200D02*
Y233800D01*
X301800D01*
Y232200D01*
X300200D01*
X300600Y232600D02*
Y233400D01*
X301400D01*
Y232600D01*
X300600D01*
X87700Y232200D02*
Y233800D01*
X89300D01*
Y232200D01*
X87700D01*
X88100Y232600D02*
Y233400D01*
X88900D01*
Y232600D01*
X88100D01*
X52700Y231700D02*
Y233300D01*
X54300D01*
Y231700D01*
X52700D01*
X53100Y232100D02*
Y232900D01*
X53900D01*
Y232100D01*
X53100D01*
X158700Y232200D02*
Y233800D01*
X160300D01*
Y232200D01*
X158700D01*
X159100Y232600D02*
Y233400D01*
X159900D01*
Y232600D01*
X159100D01*
X122700Y232200D02*
Y233800D01*
X124300D01*
Y232200D01*
X122700D01*
X123100Y232600D02*
Y233400D01*
X123900D01*
Y232600D01*
X123100D01*
X228200Y231700D02*
Y233300D01*
X229800D01*
Y231700D01*
X228200D01*
X228600Y232100D02*
Y232900D01*
X229400D01*
Y232100D01*
X228600D01*
X192200Y232440D02*
Y234040D01*
X193800D01*
Y232440D01*
X192200D01*
X192600Y232840D02*
Y233640D01*
X193400D01*
Y232840D01*
X192600D01*
X694200Y320200D02*
Y321800D01*
X695800D01*
Y320200D01*
X694200D01*
X694600Y320600D02*
Y321400D01*
X695400D01*
Y320600D01*
X694600D01*
X687200Y320200D02*
Y321800D01*
X688800D01*
Y320200D01*
X687200D01*
X687600Y320600D02*
Y321400D01*
X688400D01*
Y320600D01*
X687600D01*
X680700Y320200D02*
Y321800D01*
X682300D01*
Y320200D01*
X680700D01*
X681100Y320600D02*
Y321400D01*
X681900D01*
Y320600D01*
X681100D01*
X674700Y320200D02*
Y321800D01*
X676300D01*
Y320200D01*
X674700D01*
X675100Y320600D02*
Y321400D01*
X675900D01*
Y320600D01*
X675100D01*
X655200Y320200D02*
Y321800D01*
X656800D01*
Y320200D01*
X655200D01*
X655600Y320600D02*
Y321400D01*
X656400D01*
Y320600D01*
X655600D01*
X650700Y320200D02*
Y321800D01*
X652300D01*
Y320200D01*
X650700D01*
X651100Y320600D02*
Y321400D01*
X651900D01*
Y320600D01*
X651100D01*
X646200Y320200D02*
Y321800D01*
X647800D01*
Y320200D01*
X646200D01*
X646600Y320600D02*
Y321400D01*
X647400D01*
Y320600D01*
X646600D01*
X475450Y316700D02*
Y318300D01*
X477050D01*
Y316700D01*
X475450D01*
X475850Y317100D02*
Y317900D01*
X476650D01*
Y317100D01*
X475850D01*
X481575Y316700D02*
Y318300D01*
X483175D01*
Y316700D01*
X481575D01*
X481975Y317100D02*
Y317900D01*
X482775D01*
Y317100D01*
X481975D01*
X469325Y316700D02*
Y318300D01*
X470925D01*
Y316700D01*
X469325D01*
X469725Y317100D02*
Y317900D01*
X470525D01*
Y317100D01*
X469725D01*
X487700Y316700D02*
Y318300D01*
X489300D01*
Y316700D01*
X487700D01*
X488100Y317100D02*
Y317900D01*
X488900D01*
Y317100D01*
X488100D01*
X518700Y319700D02*
Y321300D01*
X520300D01*
Y319700D01*
X518700D01*
X519100Y320100D02*
Y320900D01*
X519900D01*
Y320100D01*
X519100D01*
X512450Y319700D02*
Y321300D01*
X514050D01*
Y319700D01*
X512450D01*
X512850Y320100D02*
Y320900D01*
X513650D01*
Y320100D01*
X512850D01*
X506200Y319700D02*
Y321300D01*
X507800D01*
Y319700D01*
X506200D01*
X506600Y320100D02*
Y320900D01*
X507400D01*
Y320100D01*
X506600D01*
X839200Y346700D02*
Y348300D01*
X840800D01*
Y346700D01*
X839200D01*
X839600Y347100D02*
Y347900D01*
X840400D01*
Y347100D01*
X839600D01*
X846200Y339200D02*
Y340800D01*
X847800D01*
Y339200D01*
X846200D01*
X846600Y339600D02*
Y340400D01*
X847400D01*
Y339600D01*
X846600D01*
X846200Y344200D02*
Y345800D01*
X847800D01*
Y344200D01*
X846200D01*
X846600Y344600D02*
Y345400D01*
X847400D01*
Y344600D01*
X846600D01*
X839200Y334200D02*
Y335800D01*
X840800D01*
Y334200D01*
X839200D01*
X839600Y334600D02*
Y335400D01*
X840400D01*
Y334600D01*
X839600D01*
X839200Y340700D02*
Y342300D01*
X840800D01*
Y340700D01*
X839200D01*
X839600Y341100D02*
Y341900D01*
X840400D01*
Y341100D01*
X839600D01*
X366200Y264200D02*
Y265800D01*
X367800D01*
Y264200D01*
X366200D01*
X366600Y264600D02*
Y265400D01*
X367400D01*
Y264600D01*
X366600D01*
X34200Y303200D02*
Y304800D01*
X35800D01*
Y303200D01*
X34200D01*
X34600Y303600D02*
Y304400D01*
X35400D01*
Y303600D01*
X34600D01*
X34700Y325200D02*
Y326800D01*
X36300D01*
Y325200D01*
X34700D01*
X35100Y325600D02*
Y326400D01*
X35900D01*
Y325600D01*
X35100D01*
X54700Y329200D02*
Y330800D01*
X56300D01*
Y329200D01*
X54700D01*
X55100Y329600D02*
Y330400D01*
X55900D01*
Y329600D01*
X55100D01*
X37700Y341200D02*
Y342800D01*
X39300D01*
Y341200D01*
X37700D01*
X38100Y341600D02*
Y342400D01*
X38900D01*
Y341600D01*
X38100D01*
X121700Y319700D02*
Y321300D01*
X123300D01*
Y319700D01*
X121700D01*
X122100Y320100D02*
Y320900D01*
X122900D01*
Y320100D01*
X122100D01*
X129700Y322700D02*
Y324300D01*
X131300D01*
Y322700D01*
X129700D01*
X130100Y323100D02*
Y323900D01*
X130900D01*
Y323100D01*
X130100D01*
X113700Y315700D02*
Y317300D01*
X115300D01*
Y315700D01*
X113700D01*
X114100Y316100D02*
Y316900D01*
X114900D01*
Y316100D01*
X114100D01*
X105200Y315200D02*
Y316800D01*
X106800D01*
Y315200D01*
X105200D01*
X105600Y315600D02*
Y316400D01*
X106400D01*
Y315600D01*
X105600D01*
X97200Y315700D02*
Y317300D01*
X98800D01*
Y315700D01*
X97200D01*
X97600Y316100D02*
Y316900D01*
X98400D01*
Y316100D01*
X97600D01*
X88700Y316200D02*
Y317800D01*
X90300D01*
Y316200D01*
X88700D01*
X89100Y316600D02*
Y317400D01*
X89900D01*
Y316600D01*
X89100D01*
X113200Y322200D02*
Y323800D01*
X114800D01*
Y322200D01*
X113200D01*
X113600Y322600D02*
Y323400D01*
X114400D01*
Y322600D01*
X113600D01*
X105200Y322700D02*
Y324300D01*
X106800D01*
Y322700D01*
X105200D01*
X105600Y323100D02*
Y323900D01*
X106400D01*
Y323100D01*
X105600D01*
X98200Y322700D02*
Y324300D01*
X99800D01*
Y322700D01*
X98200D01*
X98600Y323100D02*
Y323900D01*
X99400D01*
Y323100D01*
X98600D01*
X209200Y308200D02*
Y309800D01*
X210800D01*
Y308200D01*
X209200D01*
X209600Y308600D02*
Y309400D01*
X210400D01*
Y308600D01*
X209600D01*
X203700Y308700D02*
Y310300D01*
X205300D01*
Y308700D01*
X203700D01*
X204100Y309100D02*
Y309900D01*
X204900D01*
Y309100D01*
X204100D01*
X215700Y315700D02*
Y317300D01*
X217300D01*
Y315700D01*
X215700D01*
X216100Y316100D02*
Y316900D01*
X216900D01*
Y316100D01*
X216100D01*
X208700Y315200D02*
Y316800D01*
X210300D01*
Y315200D01*
X208700D01*
X209100Y315600D02*
Y316400D01*
X209900D01*
Y315600D01*
X209100D01*
X177700Y309700D02*
Y311300D01*
X179300D01*
Y309700D01*
X177700D01*
X178100Y310100D02*
Y310900D01*
X178900D01*
Y310100D01*
X178100D01*
X172200Y310200D02*
Y311800D01*
X173800D01*
Y310200D01*
X172200D01*
X172600Y310600D02*
Y311400D01*
X173400D01*
Y310600D01*
X172600D01*
X166700Y310200D02*
Y311800D01*
X168300D01*
Y310200D01*
X166700D01*
X167100Y310600D02*
Y311400D01*
X167900D01*
Y310600D01*
X167100D01*
X161200Y310200D02*
Y311800D01*
X162800D01*
Y310200D01*
X161200D01*
X161600Y310600D02*
Y311400D01*
X162400D01*
Y310600D01*
X161600D01*
X182700Y317200D02*
Y318800D01*
X184300D01*
Y317200D01*
X182700D01*
X183100Y317600D02*
Y318400D01*
X183900D01*
Y317600D01*
X183100D01*
X176200Y317700D02*
Y319300D01*
X177800D01*
Y317700D01*
X176200D01*
X176600Y318100D02*
Y318900D01*
X177400D01*
Y318100D01*
X176600D01*
X170700Y317700D02*
Y319300D01*
X172300D01*
Y317700D01*
X170700D01*
X171100Y318100D02*
Y318900D01*
X171900D01*
Y318100D01*
X171100D01*
X164700Y317700D02*
Y319300D01*
X166300D01*
Y317700D01*
X164700D01*
X165100Y318100D02*
Y318900D01*
X165900D01*
Y318100D01*
X165100D01*
X625200Y319700D02*
Y321300D01*
X626800D01*
Y319700D01*
X625200D01*
X625600Y320100D02*
Y320900D01*
X626400D01*
Y320100D01*
X625600D01*
X620200Y319700D02*
Y321300D01*
X621800D01*
Y319700D01*
X620200D01*
X620600Y320100D02*
Y320900D01*
X621400D01*
Y320100D01*
X620600D01*
X614200Y319700D02*
Y321300D01*
X615800D01*
Y319700D01*
X614200D01*
X614600Y320100D02*
Y320900D01*
X615400D01*
Y320100D01*
X614600D01*
X609200Y319700D02*
Y321300D01*
X610800D01*
Y319700D01*
X609200D01*
X609600Y320100D02*
Y320900D01*
X610400D01*
Y320100D01*
X609600D01*
X593200Y320200D02*
Y321800D01*
X594800D01*
Y320200D01*
X593200D01*
X593600Y320600D02*
Y321400D01*
X594400D01*
Y320600D01*
X593600D01*
X588700Y320200D02*
Y321800D01*
X590300D01*
Y320200D01*
X588700D01*
X589100Y320600D02*
Y321400D01*
X589900D01*
Y320600D01*
X589100D01*
X583200Y320200D02*
Y321800D01*
X584800D01*
Y320200D01*
X583200D01*
X583600Y320600D02*
Y321400D01*
X584400D01*
Y320600D01*
X583600D01*
X577700Y320200D02*
Y321800D01*
X579300D01*
Y320200D01*
X577700D01*
X578100Y320600D02*
Y321400D01*
X578900D01*
Y320600D01*
X578100D01*
X560700Y320200D02*
Y321800D01*
X562300D01*
Y320200D01*
X560700D01*
X561100Y320600D02*
Y321400D01*
X561900D01*
Y320600D01*
X561100D01*
X551200Y320200D02*
Y321800D01*
X552800D01*
Y320200D01*
X551200D01*
X551600Y320600D02*
Y321400D01*
X552400D01*
Y320600D01*
X551600D01*
X541700Y320200D02*
Y321800D01*
X543300D01*
Y320200D01*
X541700D01*
X542100Y320600D02*
Y321400D01*
X542900D01*
Y320600D01*
X542100D01*
X532200Y320200D02*
Y321800D01*
X533800D01*
Y320200D01*
X532200D01*
X532600Y320600D02*
Y321400D01*
X533400D01*
Y320600D01*
X532600D01*
X463200Y316700D02*
Y318300D01*
X464800D01*
Y316700D01*
X463200D01*
X463600Y317100D02*
Y317900D01*
X464400D01*
Y317100D01*
X463600D01*
X765200Y330200D02*
Y331800D01*
X766800D01*
Y330200D01*
X765200D01*
X765600Y330600D02*
Y331400D01*
X766400D01*
Y330600D01*
X765600D01*
X754700Y330700D02*
Y332300D01*
X756300D01*
Y330700D01*
X754700D01*
X755100Y331100D02*
Y331900D01*
X755900D01*
Y331100D01*
X755100D01*
X758700Y335200D02*
Y336800D01*
X760300D01*
Y335200D01*
X758700D01*
X759100Y335600D02*
Y336400D01*
X759900D01*
Y335600D01*
X759100D01*
X736200Y314700D02*
Y316300D01*
X737800D01*
Y314700D01*
X736200D01*
X736600Y315100D02*
Y315900D01*
X737400D01*
Y315100D01*
X736600D01*
X739200Y317700D02*
Y319300D01*
X740800D01*
Y317700D01*
X739200D01*
X739600Y318100D02*
Y318900D01*
X740400D01*
Y318100D01*
X739600D01*
X742200Y320200D02*
Y321800D01*
X743800D01*
Y320200D01*
X742200D01*
X742600Y320600D02*
Y321400D01*
X743400D01*
Y320600D01*
X742600D01*
X812700Y324700D02*
Y326300D01*
X814300D01*
Y324700D01*
X812700D01*
X813100Y325100D02*
Y325900D01*
X813900D01*
Y325100D01*
X813100D01*
X805700Y324700D02*
Y326300D01*
X807300D01*
Y324700D01*
X805700D01*
X806100Y325100D02*
Y325900D01*
X806900D01*
Y325100D01*
X806100D01*
X788700Y344700D02*
Y346300D01*
X790300D01*
Y344700D01*
X788700D01*
X789100Y345100D02*
Y345900D01*
X789900D01*
Y345100D01*
X789100D01*
X788700Y351700D02*
Y353300D01*
X790300D01*
Y351700D01*
X788700D01*
X789100Y352100D02*
Y352900D01*
X789900D01*
Y352100D01*
X789100D01*
X822200Y346700D02*
Y348300D01*
X823800D01*
Y346700D01*
X822200D01*
X822600Y347100D02*
Y347900D01*
X823400D01*
Y347100D01*
X822600D01*
X822200Y353200D02*
Y354800D01*
X823800D01*
Y353200D01*
X822200D01*
X822600Y353600D02*
Y354400D01*
X823400D01*
Y353600D01*
X822600D01*
X811200Y338700D02*
Y340300D01*
X812800D01*
Y338700D01*
X811200D01*
X811600Y339100D02*
Y339900D01*
X812400D01*
Y339100D01*
X811600D01*
X803700Y338700D02*
Y340300D01*
X805300D01*
Y338700D01*
X803700D01*
X804100Y339100D02*
Y339900D01*
X804900D01*
Y339100D01*
X804100D01*
X796200Y338700D02*
Y340300D01*
X797800D01*
Y338700D01*
X796200D01*
X796600Y339100D02*
Y339900D01*
X797400D01*
Y339100D01*
X796600D01*
X788700Y338700D02*
Y340300D01*
X790300D01*
Y338700D01*
X788700D01*
X789100Y339100D02*
Y339900D01*
X789900D01*
Y339100D01*
X789100D01*
X144700Y354200D02*
Y355800D01*
X146300D01*
Y354200D01*
X144700D01*
X145100Y354600D02*
Y355400D01*
X145900D01*
Y354600D01*
X145100D01*
X131700Y354700D02*
Y356300D01*
X133300D01*
Y354700D01*
X131700D01*
X132100Y355100D02*
Y355900D01*
X132900D01*
Y355100D01*
X132100D01*
X116700Y354700D02*
Y356300D01*
X118300D01*
Y354700D01*
X116700D01*
X117100Y355100D02*
Y355900D01*
X117900D01*
Y355100D01*
X117100D01*
X106200Y354700D02*
Y356300D01*
X107800D01*
Y354700D01*
X106200D01*
X106600Y355100D02*
Y355900D01*
X107400D01*
Y355100D01*
X106600D01*
X143700Y369200D02*
Y370800D01*
X145300D01*
Y369200D01*
X143700D01*
X144100Y369600D02*
Y370400D01*
X144900D01*
Y369600D01*
X144100D01*
X129200Y369200D02*
Y370800D01*
X130800D01*
Y369200D01*
X129200D01*
X129600Y369600D02*
Y370400D01*
X130400D01*
Y369600D01*
X129600D01*
X116700Y369700D02*
Y371300D01*
X118300D01*
Y369700D01*
X116700D01*
X117100Y370100D02*
Y370900D01*
X117900D01*
Y370100D01*
X117100D01*
X106200Y369700D02*
Y371300D01*
X107800D01*
Y369700D01*
X106200D01*
X106600Y370100D02*
Y370900D01*
X107400D01*
Y370100D01*
X106600D01*
X288200Y304700D02*
Y306300D01*
X289800D01*
Y304700D01*
X288200D01*
X288600Y305100D02*
Y305900D01*
X289400D01*
Y305100D01*
X288600D01*
X735700Y376700D02*
Y378300D01*
X737300D01*
Y376700D01*
X735700D01*
X736100Y377100D02*
Y377900D01*
X736900D01*
Y377100D01*
X736100D01*
X732700Y376700D02*
Y378300D01*
X734300D01*
Y376700D01*
X732700D01*
X733100Y377100D02*
Y377900D01*
X733900D01*
Y377100D01*
X733100D01*
X729200Y376700D02*
Y378300D01*
X730800D01*
Y376700D01*
X729200D01*
X729600Y377100D02*
Y377900D01*
X730400D01*
Y377100D01*
X729600D01*
X707200Y315200D02*
Y316800D01*
X708800D01*
Y315200D01*
X707200D01*
X707600Y315600D02*
Y316400D01*
X708400D01*
Y315600D01*
X707600D01*
X637200Y315200D02*
Y316800D01*
X638800D01*
Y315200D01*
X637200D01*
X637600Y315600D02*
Y316400D01*
X638400D01*
Y315600D01*
X637600D01*
X566200Y315200D02*
Y316800D01*
X567800D01*
Y315200D01*
X566200D01*
X566600Y315600D02*
Y316400D01*
X567400D01*
Y315600D01*
X566600D01*
X497200Y315200D02*
Y316800D01*
X498800D01*
Y315200D01*
X497200D01*
X497600Y315600D02*
Y316400D01*
X498400D01*
Y315600D01*
X497600D01*
X276700Y299200D02*
Y300800D01*
X278300D01*
Y299200D01*
X276700D01*
X277100Y299600D02*
Y300400D01*
X277900D01*
Y299600D01*
X277100D01*
X311450Y299450D02*
Y301050D01*
X313050D01*
Y299450D01*
X311450D01*
X311850Y299850D02*
Y300650D01*
X312650D01*
Y299850D01*
X311850D01*
X238950Y299450D02*
Y301050D01*
X240550D01*
Y299450D01*
X238950D01*
X239350Y299850D02*
Y300650D01*
X240150D01*
Y299850D01*
X239350D01*
X169450Y299450D02*
Y301050D01*
X171050D01*
Y299450D01*
X169450D01*
X169850Y299850D02*
Y300650D01*
X170650D01*
Y299850D01*
X169850D01*
X98450Y299450D02*
Y301050D01*
X100050D01*
Y299450D01*
X98450D01*
X98850Y299850D02*
Y300650D01*
X99650D01*
Y299850D01*
X98850D01*
X62200Y121700D02*
Y123300D01*
X63800D01*
Y121700D01*
X62200D01*
X62600Y122100D02*
Y122900D01*
X63400D01*
Y122100D01*
X62600D01*
X132700Y122200D02*
Y123800D01*
X134300D01*
Y122200D01*
X132700D01*
X133100Y122600D02*
Y123400D01*
X133900D01*
Y122600D01*
X133100D01*
X203700Y122200D02*
Y123800D01*
X205300D01*
Y122200D01*
X203700D01*
X204100Y122600D02*
Y123400D01*
X204900D01*
Y122600D01*
X204100D01*
X274200Y121700D02*
Y123300D01*
X275800D01*
Y121700D01*
X274200D01*
X274600Y122100D02*
Y122900D01*
X275400D01*
Y122100D01*
X274600D01*
X598558Y121058D02*
Y122658D01*
X600158D01*
Y121058D01*
X598558D01*
X598958Y121458D02*
Y122258D01*
X599758D01*
Y121458D01*
X598958D01*
X527781Y120619D02*
Y122219D01*
X529381D01*
Y120619D01*
X527781D01*
X528181Y121019D02*
Y121819D01*
X528981D01*
Y121019D01*
X528181D01*
X457003Y120503D02*
Y122103D01*
X458603D01*
Y120503D01*
X457003D01*
X457403Y120903D02*
Y121703D01*
X458203D01*
Y120903D01*
X457403D01*
X669336Y120336D02*
Y121936D01*
X670936D01*
Y120336D01*
X669336D01*
X669736Y120736D02*
Y121536D01*
X670536D01*
Y120736D01*
X669736D01*
X861836Y120336D02*
Y121936D01*
X863436D01*
Y120336D01*
X861836D01*
X862236Y120736D02*
Y121536D01*
X863036D01*
Y120736D01*
X862236D01*
X1003200Y121200D02*
Y122800D01*
X1004800D01*
Y121200D01*
X1003200D01*
X1003600Y121600D02*
Y122400D01*
X1004400D01*
Y121600D01*
X1003600D01*
X932536Y120700D02*
Y122300D01*
X934136D01*
Y120700D01*
X932536D01*
X932936Y121100D02*
Y121900D01*
X933736D01*
Y121100D01*
X932936D01*
X1074200Y120700D02*
Y122300D01*
X1075800D01*
Y120700D01*
X1074200D01*
X1074600Y121100D02*
Y121900D01*
X1075400D01*
Y121100D01*
X1074600D01*
X449320Y232880D02*
X450120Y233680D01*
X450920Y232880D01*
X450120Y232080D01*
X449320Y232880D01*
X484441Y232259D02*
X485241Y233060D01*
X486040Y232259D01*
X485241Y231459D01*
X484441Y232259D01*
X519020Y232180D02*
X519820Y232980D01*
X520620Y232180D01*
X519820Y231380D01*
X519020Y232180D01*
X555441Y232241D02*
X556241Y233040D01*
X557041Y232241D01*
X556241Y231440D01*
X555441Y232241D01*
X588700Y232500D02*
X589500Y233300D01*
X590300Y232500D01*
X589500Y231700D01*
X588700Y232500D01*
X625941Y232241D02*
X626741Y233040D01*
X627540Y232241D01*
X626741Y231440D01*
X625941Y232241D01*
X659700Y232000D02*
X660500Y232800D01*
X661300Y232000D01*
X660500Y231200D01*
X659700Y232000D01*
X695570Y232130D02*
X696370Y232930D01*
X697170Y232130D01*
X696370Y231330D01*
X695570Y232130D01*
X853180Y232020D02*
X853980Y232820D01*
X854780Y232020D01*
X853980Y231220D01*
X853180Y232020D01*
X995200Y232500D02*
X996000Y233300D01*
X996800Y232500D01*
X996000Y231700D01*
X995200Y232500D01*
X924200D02*
X925000Y233300D01*
X925800Y232500D01*
X925000Y231700D01*
X924200Y232500D01*
X888941Y232259D02*
X889740Y233060D01*
X890541Y232259D01*
X889740Y231459D01*
X888941Y232259D01*
X1031274Y232074D02*
X1032074Y232874D01*
X1032874Y232074D01*
X1032074Y231274D01*
X1031274Y232074D01*
X960107Y232593D02*
X960907Y233393D01*
X961707Y232593D01*
X960907Y231793D01*
X960107Y232593D01*
X1066440Y232500D02*
X1067240Y233300D01*
X1068040Y232500D01*
X1067240Y231700D01*
X1066440Y232500D01*
X1102440D02*
X1103240Y233300D01*
X1104041Y232500D01*
X1103240Y231700D01*
X1102440Y232500D01*
D16*
X408300Y39500D02*
G03*
X408300Y39500I-800J0D01*
G01*
X676300Y354000D02*
G03*
X676300Y354000I-800J0D01*
G01*
X1198800Y23500D02*
G03*
X1198800Y23500I-800J0D01*
G01*
X32800Y376500D02*
G03*
X32800Y376500I-800J0D01*
G01*
X31800Y17000D02*
G03*
X31800Y17000I-800J0D01*
G01*
X1203300Y450000D02*
G03*
X1203300Y450000I-800J0D01*
G01*
X335800Y381000D02*
G03*
X335800Y381000I-800J0D01*
G01*
X801800Y325000D02*
G03*
X801800Y325000I-800J0D01*
G01*
X333576Y356453D02*
G03*
X333576Y356453I-800J0D01*
G01*
X429800Y304500D02*
G03*
X429800Y304500I-800J0D01*
G01*
X439300Y311000D02*
G03*
X439300Y311000I-800J0D01*
G01*
X304300Y319000D02*
G03*
X304300Y319000I-800J0D01*
G01*
X869300Y371000D02*
G03*
X869300Y371000I-800J0D01*
G01*
X859800D02*
G03*
X859800Y371000I-800J0D01*
G01*
X869300Y366500D02*
G03*
X869300Y366500I-800J0D01*
G01*
X864550Y371000D02*
G03*
X864550Y371000I-800J0D01*
G01*
X859800Y366500D02*
G03*
X859800Y366500I-800J0D01*
G01*
X864550D02*
G03*
X864550Y366500I-800J0D01*
G01*
X858800Y301000D02*
G03*
X858800Y301000I-800J0D01*
G01*
X872800Y294000D02*
G03*
X872800Y294000I-800J0D01*
G01*
X850300Y295500D02*
G03*
X850300Y295500I-800J0D01*
G01*
X786800Y316500D02*
G03*
X786800Y316500I-800J0D01*
G01*
X346800Y377000D02*
G03*
X346800Y377000I-800J0D01*
G01*
X414300Y319000D02*
G03*
X414300Y319000I-800J0D01*
G01*
X398704Y324000D02*
G03*
X398704Y324000I-800J0D01*
G01*
X388800Y329000D02*
G03*
X388800Y329000I-800J0D01*
G01*
X376800Y334500D02*
G03*
X376800Y334500I-800J0D01*
G01*
X346800Y350000D02*
G03*
X346800Y350000I-800J0D01*
G01*
X339300Y307500D02*
G03*
X339300Y307500I-800J0D01*
G01*
X337300Y339500D02*
G03*
X337300Y339500I-800J0D01*
G01*
X344800Y311000D02*
G03*
X344800Y311000I-800J0D01*
G01*
X329300Y351500D02*
G03*
X329300Y351500I-800J0D01*
G01*
X333300Y346500D02*
G03*
X333300Y346500I-800J0D01*
G01*
X350300Y324000D02*
G03*
X350300Y324000I-800J0D01*
G01*
X349800Y314000D02*
G03*
X349800Y314000I-800J0D01*
G01*
X350300Y334000D02*
G03*
X350300Y334000I-800J0D01*
G01*
X367800Y307500D02*
G03*
X367800Y307500I-800J0D01*
G01*
X381930Y314000D02*
G03*
X381930Y314000I-800J0D01*
G01*
X373800Y311000D02*
G03*
X373800Y311000I-800J0D01*
G01*
X393300Y324000D02*
G03*
X393300Y324000I-800J0D01*
G01*
X395800Y295000D02*
G03*
X395800Y295000I-800J0D01*
G01*
X398800Y291500D02*
G03*
X398800Y291500I-800J0D01*
G01*
X392300Y292500D02*
G03*
X392300Y292500I-800J0D01*
G01*
X267426Y318500D02*
G03*
X267426Y318500I-800J0D01*
G01*
Y324000D02*
G03*
X267426Y324000I-800J0D01*
G01*
X267926Y329000D02*
G03*
X267926Y329000I-800J0D01*
G01*
X808300Y264000D02*
G03*
X808300Y264000I-800J0D01*
G01*
X804800D02*
G03*
X804800Y264000I-800J0D01*
G01*
X802300D02*
G03*
X802300Y264000I-800J0D01*
G01*
X346800Y281500D02*
G03*
X346800Y281500I-800J0D01*
G01*
X382800Y283500D02*
G03*
X382800Y283500I-800J0D01*
G01*
X377800D02*
G03*
X377800Y283500I-800J0D01*
G01*
X372800D02*
G03*
X372800Y283500I-800J0D01*
G01*
X367800D02*
G03*
X367800Y283500I-800J0D01*
G01*
X362941Y283765D02*
G03*
X362941Y283765I-800J0D01*
G01*
X357800Y283500D02*
G03*
X357800Y283500I-800J0D01*
G01*
X352800D02*
G03*
X352800Y283500I-800J0D01*
G01*
X434800Y307500D02*
G03*
X434800Y307500I-800J0D01*
G01*
X758300Y305000D02*
G03*
X758300Y305000I-800J0D01*
G01*
X442800Y301500D02*
G03*
X442800Y301500I-800J0D01*
G01*
X446800Y298500D02*
G03*
X446800Y298500I-800J0D01*
G01*
X768300Y311000D02*
G03*
X768300Y311000I-800J0D01*
G01*
X773300Y308000D02*
G03*
X773300Y308000I-800J0D01*
G01*
X811800Y312500D02*
G03*
X811800Y312500I-800J0D01*
G01*
X826800D02*
G03*
X826800Y312500I-800J0D01*
G01*
X816800D02*
G03*
X816800Y312500I-800J0D01*
G01*
X778300Y302500D02*
G03*
X778300Y302500I-800J0D01*
G01*
X773300Y301500D02*
G03*
X773300Y301500I-800J0D01*
G01*
X944800Y295000D02*
G03*
X944800Y295000I-800J0D01*
G01*
X929800Y297500D02*
G03*
X929800Y297500I-800J0D01*
G01*
X1090300Y298500D02*
G03*
X1090300Y298500I-800J0D01*
G01*
X1069112Y297822D02*
G03*
X1069112Y297822I-800J0D01*
G01*
X1019758Y297458D02*
G03*
X1019758Y297458I-800J0D01*
G01*
X998195Y298211D02*
G03*
X998195Y298211I-800J0D01*
G01*
X794300Y121000D02*
G03*
X794300Y121000I-800J0D01*
G01*
X791800D02*
G03*
X791800Y121000I-800J0D01*
G01*
X789300D02*
G03*
X789300Y121000I-800J0D01*
G01*
X745800Y203000D02*
G03*
X745800Y203000I-800J0D01*
G01*
Y205500D02*
G03*
X745800Y205500I-800J0D01*
G01*
X352800Y203500D02*
G03*
X352800Y203500I-800J0D01*
G01*
Y205500D02*
G03*
X352800Y205500I-800J0D01*
G01*
D17*
X335400Y381000D02*
G03*
X335400Y381000I-400J0D01*
G01*
X801400Y325000D02*
G03*
X801400Y325000I-400J0D01*
G01*
X333176Y356453D02*
G03*
X333176Y356453I-400J0D01*
G01*
X429400Y304500D02*
G03*
X429400Y304500I-400J0D01*
G01*
X438900Y311000D02*
G03*
X438900Y311000I-400J0D01*
G01*
X303900Y319000D02*
G03*
X303900Y319000I-400J0D01*
G01*
X868900Y371000D02*
G03*
X868900Y371000I-400J0D01*
G01*
X859400D02*
G03*
X859400Y371000I-400J0D01*
G01*
X868900Y366500D02*
G03*
X868900Y366500I-400J0D01*
G01*
X864150Y371000D02*
G03*
X864150Y371000I-400J0D01*
G01*
X859400Y366500D02*
G03*
X859400Y366500I-400J0D01*
G01*
X864150D02*
G03*
X864150Y366500I-400J0D01*
G01*
X858400Y301000D02*
G03*
X858400Y301000I-400J0D01*
G01*
X872400Y294000D02*
G03*
X872400Y294000I-400J0D01*
G01*
X849900Y295500D02*
G03*
X849900Y295500I-400J0D01*
G01*
X786400Y316500D02*
G03*
X786400Y316500I-400J0D01*
G01*
X346400Y377000D02*
G03*
X346400Y377000I-400J0D01*
G01*
X413900Y319000D02*
G03*
X413900Y319000I-400J0D01*
G01*
X398304Y324000D02*
G03*
X398304Y324000I-400J0D01*
G01*
X388400Y329000D02*
G03*
X388400Y329000I-400J0D01*
G01*
X376400Y334500D02*
G03*
X376400Y334500I-400J0D01*
G01*
X346400Y350000D02*
G03*
X346400Y350000I-400J0D01*
G01*
X338900Y307500D02*
G03*
X338900Y307500I-400J0D01*
G01*
X336900Y339500D02*
G03*
X336900Y339500I-400J0D01*
G01*
X344400Y311000D02*
G03*
X344400Y311000I-400J0D01*
G01*
X328900Y351500D02*
G03*
X328900Y351500I-400J0D01*
G01*
X332900Y346500D02*
G03*
X332900Y346500I-400J0D01*
G01*
X349900Y324000D02*
G03*
X349900Y324000I-400J0D01*
G01*
X349400Y314000D02*
G03*
X349400Y314000I-400J0D01*
G01*
X349900Y334000D02*
G03*
X349900Y334000I-400J0D01*
G01*
X367400Y307500D02*
G03*
X367400Y307500I-400J0D01*
G01*
X381530Y314000D02*
G03*
X381530Y314000I-400J0D01*
G01*
X373400Y311000D02*
G03*
X373400Y311000I-400J0D01*
G01*
X392900Y324000D02*
G03*
X392900Y324000I-400J0D01*
G01*
X395400Y295000D02*
G03*
X395400Y295000I-400J0D01*
G01*
X398400Y291500D02*
G03*
X398400Y291500I-400J0D01*
G01*
X391900Y292500D02*
G03*
X391900Y292500I-400J0D01*
G01*
X267026Y318500D02*
G03*
X267026Y318500I-400J0D01*
G01*
Y324000D02*
G03*
X267026Y324000I-400J0D01*
G01*
X267526Y329000D02*
G03*
X267526Y329000I-400J0D01*
G01*
X807900Y264000D02*
G03*
X807900Y264000I-400J0D01*
G01*
X804400D02*
G03*
X804400Y264000I-400J0D01*
G01*
X801900D02*
G03*
X801900Y264000I-400J0D01*
G01*
X346400Y281500D02*
G03*
X346400Y281500I-400J0D01*
G01*
X382400Y283500D02*
G03*
X382400Y283500I-400J0D01*
G01*
X377400D02*
G03*
X377400Y283500I-400J0D01*
G01*
X372400D02*
G03*
X372400Y283500I-400J0D01*
G01*
X367400D02*
G03*
X367400Y283500I-400J0D01*
G01*
X362541Y283765D02*
G03*
X362541Y283765I-400J0D01*
G01*
X357400Y283500D02*
G03*
X357400Y283500I-400J0D01*
G01*
X352400D02*
G03*
X352400Y283500I-400J0D01*
G01*
X434400Y307500D02*
G03*
X434400Y307500I-400J0D01*
G01*
X757900Y305000D02*
G03*
X757900Y305000I-400J0D01*
G01*
X442400Y301500D02*
G03*
X442400Y301500I-400J0D01*
G01*
X446400Y298500D02*
G03*
X446400Y298500I-400J0D01*
G01*
X767900Y311000D02*
G03*
X767900Y311000I-400J0D01*
G01*
X772900Y308000D02*
G03*
X772900Y308000I-400J0D01*
G01*
X811400Y312500D02*
G03*
X811400Y312500I-400J0D01*
G01*
X826400D02*
G03*
X826400Y312500I-400J0D01*
G01*
X816400D02*
G03*
X816400Y312500I-400J0D01*
G01*
X777900Y302500D02*
G03*
X777900Y302500I-400J0D01*
G01*
X772900Y301500D02*
G03*
X772900Y301500I-400J0D01*
G01*
X944400Y295000D02*
G03*
X944400Y295000I-400J0D01*
G01*
X929400Y297500D02*
G03*
X929400Y297500I-400J0D01*
G01*
X1089900Y298500D02*
G03*
X1089900Y298500I-400J0D01*
G01*
X1068713Y297822D02*
G03*
X1068713Y297822I-400J0D01*
G01*
X1019358Y297458D02*
G03*
X1019358Y297458I-400J0D01*
G01*
X997795Y298211D02*
G03*
X997795Y298211I-400J0D01*
G01*
X793900Y121000D02*
G03*
X793900Y121000I-400J0D01*
G01*
X791400D02*
G03*
X791400Y121000I-400J0D01*
G01*
X788900D02*
G03*
X788900Y121000I-400J0D01*
G01*
X745400Y203000D02*
G03*
X745400Y203000I-400J0D01*
G01*
Y205500D02*
G03*
X745400Y205500I-400J0D01*
G01*
X352400Y203500D02*
G03*
X352400Y203500I-400J0D01*
G01*
Y205500D02*
G03*
X352400Y205500I-400J0D01*
G01*
M02*
